<?xml version="1.0" encoding="UTF-8" standalone="no"?>
<svg
   width="5.3462415in"
   height="5.1905036in"
   viewBox="0 0 384.92926 373.71607"
   version="1.1"
   id="svg3"
   sodipodi:docname="arabidopsis.thaliana_organ_shm1.svg"
   inkscape:version="1.2.2 (1:1.2.2+202305151915+b0a8486541)"
   xmlns:inkscape="http://www.inkscape.org/namespaces/inkscape"
   xmlns:sodipodi="http://sodipodi.sourceforge.net/DTD/sodipodi-0.dtd"
   xmlns="http://www.w3.org/2000/svg"
   xmlns:svg="http://www.w3.org/2000/svg"
   xmlns:rdf="http://www.w3.org/1999/02/22-rdf-syntax-ns#"
   xmlns:cc="http://creativecommons.org/ns#"
   xmlns:dc="http://purl.org/dc/elements/1.1/">
  <metadata
     id="metadata9">
    <rdf:RDF>
      <cc:Work
         rdf:about="">
        <dc:format>image/svg+xml</dc:format>
        <dc:type
           rdf:resource="http://purl.org/dc/dcmitype/StillImage" />
      </cc:Work>
    </rdf:RDF>
  </metadata>
  <defs
     id="defs7" />
  <sodipodi:namedview
     pagecolor="#ffffff"
     bordercolor="#666666"
     borderopacity="1"
     objecttolerance="10"
     gridtolerance="10"
     guidetolerance="10"
     inkscape:pageopacity="0"
     inkscape:pageshadow="2"
     inkscape:window-width="1848"
     inkscape:window-height="1016"
     id="namedview5"
     showgrid="false"
     inkscape:zoom="0.962437"
     inkscape:cx="364.6992"
     inkscape:cy="357.94551"
     inkscape:window-x="72"
     inkscape:window-y="27"
     inkscape:window-maximized="1"
     inkscape:current-layer="container"
     fit-margin-top="0"
     fit-margin-left="0"
     fit-margin-right="0"
     fit-margin-bottom="0"
     inkscape:pagecheckerboard="0"
     inkscape:document-units="in"
     inkscape:showpageshadow="2"
     inkscape:deskcolor="#d1d1d1" />
  <g
     inkscape:groupmode="layer"
     id="container"
     inkscape:label="Layer 1"
     transform="translate(-36.75987,-196.64115)">
    <g
       id="root_total"
       style="stroke:#000000;stroke-width:0.075;stroke-miterlimit:4;stroke-dasharray:none;stroke-opacity:1">
      <path
         id="path825"
         d="m 174.45879,297.65444 c 0,0 0,11.85485 0,11.85485 0.0956,5.7964 7.83977,11.03125 0,16.84636 0,0 4.78035,1.24788 4.78035,1.24788 -3.77647,1.18548 -1.68906,2.43336 -1.59345,4.99151 0.15941,5.13502 2.43797,16.39713 -3.1869,20.59 0,0 7.96724,1.24788 7.96724,1.24788 0,0 -7.96724,0 -7.96724,0 6.37379,4.7357 4.76442,17.35799 4.78035,23.08575 0.0164,2.45208 3.04348,9.86448 0,11.40561 -1.4341,0.73625 -2.85227,0.76745 -4.78035,1.07318 -2.80446,-4.52356 -1.45004,-11.36818 -1.59345,-16.22242 0,0 -1.59345,-8.73515 -1.59345,-8.73515 0,0 0,-2.49576 0,-2.49576 -0.0796,-4.92912 -1.59343,-3.62509 -2.80446,-6.34546 -1.64125,-3.66253 -1.51378,-11.66767 2.80446,-14.86848 -5.62486,-2.98867 -3.07535,-11.64894 -3.18688,-15.59848 0,0 -4.65288,-18.09424 -4.65288,-18.09424 0,0 0,-9.98303 0,-9.98303 0,0 11.02666,0 11.02666,0 z"
         style="fill:#e485e9;fill-opacity:1;stroke:#000000;stroke-width:0.075;stroke-miterlimit:4;stroke-dasharray:none;stroke-opacity:1"
         inkscape:connector-curvature="0" />
      <path
         id="path823"
         d="m 182.63318,405.59594 c 0,0 2.88414,4.99151 2.88414,4.99151 0,0 0,8.11121 0,8.11121 0,0 1.68906,10.60697 1.68906,10.60697 0,0 1.59345,20.59 1.59345,20.59 0,0 1.59345,10.60696 1.59345,10.60696 0,0 0,59.27423 0,59.27423 0,0 -1.59345,9.35909 -1.59345,9.35909 0,0 0,32.44485 0,32.44485 0,0 -3.1869,8.73515 -3.1869,8.73515 -7.20238,-1.01079 -9.30573,-4.07433 -9.52881,-6.86958 0,0 6.34191,-21.83163 6.34191,-21.83163 0,0 0,-19.96606 0,-19.96606 0,0 1.59345,-9.35909 1.59345,-9.35909 0,0 0,-54.90665 0,-54.90665 0,0 -1.59345,-8.73515 -1.59345,-8.73515 0,0 -1.59345,-10.60697 -1.59345,-10.60697 0,0 0,-14.3506 0,-14.3506 0,0 -2.00773,-11.85485 -2.00773,-11.85485 -1.83247,-4.38629 -6.72435,-7.31257 2.00773,-11.23091 0,0 1.8006,4.99152 1.8006,4.99152 z"
         style="fill:#e485e9;fill-opacity:1;stroke:#000000;stroke-width:0.075;stroke-miterlimit:4;stroke-dasharray:none;stroke-opacity:1"
         inkscape:connector-curvature="0" />
    </g>
    <g
       id="shoot_totalA"
       style="stroke:#000000;stroke-width:0.648;stroke-miterlimit:4;stroke-dasharray:none;stroke-opacity:1"
       transform="translate(1.4999994)">
      <path
         id="path821"
         d="m 188.79983,256.85504 c 11.90305,-2.23995 34.88057,-7.91155 40.40984,-12.54742 8.89144,-7.46856 6.67655,-11.2933 10.67611,-14.97455 9.9431,-9.1719 23.7105,-17.91953 44.52093,-23.99046 0,0 11.15413,-2.58311 11.15413,-2.58311 6.43754,-1.52865 12.09428,-3.10098 19.39226,-4.03065 7.85571,-1.00454 14.11796,-1.01078 22.0374,-1.32275 4.97155,-0.19342 7.44139,-0.5553 12.74758,-0.40556 12.55637,0.35565 40.84008,2.19003 50.25736,5.28477 8.65242,2.84516 10.38928,5.67784 13.94266,9.47139 4.82815,5.12879 6.08697,9.62739 5.91169,15.08062 -0.30275,8.91609 -18.35651,16.38464 -35.05585,21.63197 -7.7123,2.42089 -28.80954,6.71983 -38.25868,7.56215 0,0 -20.6989,1.02326 -20.6989,1.02326 -6.97931,0.40556 -14.11795,1.8531 -20.45988,1.45378 0,0 -8.36559,-0.93591 -8.36559,-0.93591 0,0 -37.82846,-2.15883 -37.82846,-2.15883 -11.79151,-1.05446 -16.04602,-3.00739 -30.5464,-2.09644 -11.4569,0.72377 -24.87373,4.00569 -35.05585,6.2082 -6.77216,1.46001 -15.16963,3.19457 -18.8505,6.00229 -2.19896,1.68464 -1.86434,3.76236 -1.86434,5.60922 0,0 0,19.96605 0,19.96605 0.0796,2.62679 0.43024,3.0885 1.59345,5.61546 -3.91988,0.41804 -9.67223,1.0295 -12.76352,-0.46172 -1.97587,-0.96087 -1.57751,-3.31936 -1.57751,-4.5298 0,0 0,-18.71818 0,-18.71818 -0.0638,-2.12139 -0.47803,-4.97279 -3.15503,-6.85709 -6.19851,-4.34262 -27.4073,-7.74308 -39.86807,-7.19402 -12.25361,0.53659 -23.280272,3.33808 -33.462406,5.9399 0,0 12.747585,-24.33363 12.747585,-24.33363 7.425471,1.84686 12.237681,6.66991 19.615351,9.30294 7.69635,2.73909 34.05198,8.28591 44.12257,10.03918 -5.38585,-5.51562 -15.45644,-10.295 -18.13344,-16.22242 -1.49784,-3.28816 -0.78079,-6.83214 7.21832,-8.73515 0,0 0,6.86333 0,6.86333 1.81653,3.92458 10.94699,11.31202 15.69547,14.97454 9.08265,-7.34376 14.69158,-13.58316 9.56068,-21.83787 6.37379,1.55985 6.0073,2.93251 8.09472,5.5593 1.06761,1.34771 2.51765,2.42088 2.8682,3.85594 1.03575,4.15544 -7.72822,10.61321 -12.55637,14.29445 6.62874,0.0187 10.0228,-0.68633 15.93449,-1.80318 z"
         style="fill:#a5ebd8;fill-opacity:1;stroke:#000000;stroke-width:0.648;stroke-miterlimit:4;stroke-dasharray:none;stroke-opacity:1"
         inkscape:connector-curvature="0" />
      <path
         inkscape:connector-curvature="0"
         id="Selection #2"
         d="m 100.36346,226.21338 c 0.23902,6.68239 -1.848402,4.60467 -2.979751,8.13617 0,0 -3.075354,9.95807 -3.075354,9.95807 0,0 -4.828148,6.86333 -4.828148,6.86333 0,0 -4.429785,8.71019 -4.429785,8.71019 0,0 -3.648997,4.44869 -3.648997,4.44869 0,0 -2.214892,4.31142 -2.214892,4.31142 -2.390172,4.1492 -13.847063,10.84406 -25.351758,11.51168 -2.820404,0.16846 -5.449593,-0.29325 -7.887568,-0.81112 -15.886677,-3.35056 -9.241999,-8.58541 -7.489206,-13.82026 0,0 4.605065,-13.10272 4.605065,-13.10272 0,0 3.314372,-5.61546 3.314372,-5.61546 2.501712,-6.02101 3.234698,-11.59279 7.839764,-17.4703 4.174833,-5.33468 6.772153,-10.51337 22.244536,-12.69092 14.356966,-0.37436 23.694572,4.2615 23.901722,9.57123 z"
         style="fill:#a5ebd8;fill-opacity:1;stroke:#000000;stroke-width:0.648;stroke-miterlimit:4;stroke-dasharray:none;stroke-opacity:1" />
    </g>
    <g
       id="g4759"
       style="stroke:#000000;stroke-width:0.075;stroke-miterlimit:4;stroke-dasharray:none;stroke-opacity:1">
      <path
         inkscape:connector-curvature="0"
         id="path818"
         d="m 151.9967,403.95217 54.96467,-8.67513 1.30516,1.09568 -52.76801,8.50756 z"
         style="opacity:1;fill:#8aa312;fill-opacity:1;stroke:#000000;stroke-width:0.075;stroke-miterlimit:4;stroke-dasharray:none;stroke-opacity:1" />
      <path
         inkscape:connector-curvature="0"
         id="path819"
         d="m 149.26268,394.04454 54.96468,-8.67513 1.30516,1.09568 -52.76802,8.50756 z"
         style="opacity:1;fill:#8aa312;fill-opacity:1;stroke:#000000;stroke-width:0.075;stroke-miterlimit:4;stroke-dasharray:none;stroke-opacity:1" />
    </g>
  </g>
</svg>
