<?xml version="1.0" encoding="UTF-8" standalone="no"?>
<!-- Created with Inkscape (http://www.inkscape.org/) -->

<svg
   width="62.894379"
   height="42.56683"
   id="svg7411"
   version="1.1"
   inkscape:version="1.2.2 (1:1.2.2+202305151915+b0a8486541)"
   sodipodi:docname="homo.sapiens_brain.shiny_shm.svg"
   inkscape:export-xdpi="103.96"
   inkscape:export-ydpi="103.96"
   viewBox="0 0 62.894378 42.56683"
   xmlns:inkscape="http://www.inkscape.org/namespaces/inkscape"
   xmlns:sodipodi="http://sodipodi.sourceforge.net/DTD/sodipodi-0.dtd"
   xmlns="http://www.w3.org/2000/svg"
   xmlns:svg="http://www.w3.org/2000/svg"
   xmlns:rdf="http://www.w3.org/1999/02/22-rdf-syntax-ns#"
   xmlns:cc="http://creativecommons.org/ns#"
   xmlns:dc="http://purl.org/dc/elements/1.1/">
  <defs
     id="defs7413" />
  <sodipodi:namedview
     id="base"
     pagecolor="#ffffff"
     bordercolor="#666666"
     borderopacity="1.0"
     inkscape:pageopacity="0.0"
     inkscape:pageshadow="2"
     inkscape:zoom="11.232928"
     inkscape:cx="25.995003"
     inkscape:cy="23.546844"
     inkscape:document-units="px"
     inkscape:current-layer="LAYER_EFO"
     showgrid="false"
     inkscape:window-width="1848"
     inkscape:window-height="1016"
     inkscape:window-x="72"
     inkscape:window-y="27"
     inkscape:window-maximized="1"
     fit-margin-top="0"
     fit-margin-left="0"
     fit-margin-right="0"
     fit-margin-bottom="0"
     showguides="false"
     inkscape:guide-bbox="true"
     units="px"
     inkscape:showpageshadow="2"
     inkscape:pagecheckerboard="0"
     inkscape:deskcolor="#d1d1d1" />
  <metadata
     id="metadata7416">
    <rdf:RDF>
      <cc:Work
         rdf:about="">
        <dc:format>image/svg+xml</dc:format>
        <dc:type
           rdf:resource="http://purl.org/dc/dcmitype/StillImage" />
        <dc:title />
      </cc:Work>
    </rdf:RDF>
  </metadata>
  <g
     inkscape:groupmode="layer"
     id="LAYER_EFO"
     inkscape:label="EFO"
     transform="matrix(0.625,0,0,0.625,-79.611339,-72.218948)">
    <path
       d="M 176.52681,166.31164 C 175.97587,166.24054 174.19434,165.28988 173.89561,165.23335 L 170.59597,164.60903 C 174.00615,165.34389 169.28297,164.06291 168.97884,163.62467 168.83455,163.41671 168.73579,162.99091 168.72462,162.52822 168.70672,161.78756 168.71862,161.76582 169.23499,161.48799 169.52574,161.33195 170.28473,160.70346 170.92154,160.09143 172.04342,159.01331 172.10725,158.97365 172.97299,158.81697 173.46447,158.72807 175.23479,158.62229 176.90709,158.58191 179.23483,158.52571 180.40149,158.43652 181.88399,158.20108 185.13985,157.68404 186.32619,157.44451 187.65507,157.03585 188.35668,156.82008 189.34593,156.53835 189.85327,156.40974 191.27118,156.05037 193.0931,155.40964 193.77275,155.03131 194.10993,154.84363 195.48327,154.27853 196.82467,153.77558 L 199.26348,152.86114 202.19982,152.78834 C 204.7936,152.72374 205.2022,152.74214 205.70208,152.94454 206.01326,153.07057 206.3652,153.21221 206.48409,153.25927 206.88767,153.41904 207.21032,154.08307 207.32705,154.9942 207.43133,155.80878 207.40995,155.9537 207.11833,156.40146 206.10487,157.95798 203.92344,159.52953 202.35886,159.83028 202.08521,159.88278 202.11329,160.11831 201.72088,160.3704 200.57504,161.10654 198.41101,161.46396 197.50722,161.17048 195.79912,160.6158 194.47795,160.63064 192.50115,161.22648 191.13278,161.639 190.6207,161.89186 189.30904,162.80279 188.72811,163.20615 188.16717,163.50194 188.03529,163.47437 187.90578,163.44727 187.51776,163.6365 187.17321,163.89476 186.59052,164.33161 186.47694,164.36619 185.54778,164.38909 184.99834,164.40179 184.29903,164.35799 183.99371,164.28979 183.36399,164.149 182.76004,164.25369 182.76607,164.50245 182.77507,164.91663 181.29743,165.71773 179.73559,166.14426 179.07205,166.3255 177.33627,166.41601 176.52679,166.31161 Z"
       id="UBERON_0002771"
       inkscape:connector-curvature="0"
       inkscape:label="UBERON_0002771"
       sodipodi:nodetypes="csccsccsssssscccccscsssscccccsscc"
       style="fill:none;fill-opacity:1;stroke:#000000;stroke-width:0.08;stroke-miterlimit:4;stroke-dasharray:none;stroke-opacity:1">
      <title
         id="middle_temporal_gyrus">middle temporal gyrus</title>
    </path>
    <path
       d="M 143.18966,141.7211 C 142.70112,141.7696 142.37758,141.54802 142.37758,141.54802 140.74826,141.66438 137.98142,139.9846 138.51134,137.43874 138.62277,136.90352 139.28338,136.15958 139.28338,136.15958 L 141.34174,135.15732 C 141.34174,135.15732 142.08893,134.47593 142.28335,134.30502 142.57346,134.05001 143.05616,133.23324 143.42269,133.23324 143.96212,133.23324 144.07727,133.04558 144.15696,133.64148 144.21206,134.05314 143.24688,133.22936 143.24688,133.22936 L 143.69849,133.00686 C 144.01202,132.85242 143.90034,132.91256 144.24421,132.67504 L 145.81879,131.88828 147.03738,131.05664 C 147.20152,130.64146 147.35307,129.92583 147.54312,129.79582 147.69568,129.69153 148.0903,130.06941 147.9348,129.3375 147.9075,129.20909 147.9036,129.09664 148.11191,129.02655 148.32037,128.95635 148.63401,128.57593 148.83111,128.47085 149.42782,128.15266 149.49169,127.77652 149.69927,128.02468 149.79707,128.14152 149.8161,127.99788 149.76287,128.14547 149.76287,128.14547 149.27453,128.32695 149.55102,128.17627 149.38855,128.06692 149.60382,128.17127 149.71531,128.06295 149.71531,128.06295 149.66751,128.12125 149.44044,128.08025 149.26125,127.99085 150.34837,127.55433 150.85634,127.40954 151.13653,127.32974 151.62961,127.02752 151.83084,127.05308 152.12698,127.09088 152.36207,126.69586 152.89071,126.54913 153.26683,126.44484 153.44126,126.27217 153.61179,126.18506 153.9075,126.03411 154.26841,126.14346 154.78819,125.61305 154.91168,125.48702 155.28659,125.60505 155.28659,125.60505 155.59332,125.52325 156.57318,125.43233 156.71995,125.28755 L 157.74302,124.98765 C 157.88842,125.02085 158.37907,124.67316 158.68137,124.52766 158.68137,124.52766 158.96485,124.17246 159.54456,123.88355 160.40719,123.45362 160.97193,122.85023 161.95773,123.75815 162.09185,123.88165 161.29513,123.91758 161.36511,123.92635 161.23462,123.83375 162.03878,124.21415 162.03878,124.21415 162.49698,124.26575 161.41992,124.08843 161.41992,124.08843 L 160.78904,123.23421 161.60201,122.98182 C 161.60201,122.98182 163.11713,122.29308 164.38549,122.29716 164.85531,122.29916 165.26794,122.24386 165.36432,122.27736 165.44892,122.30656 167.41261,123.58118 167.02883,123.62093 L 166.85115,123.63933 166.88195,123.63633 167.03497,123.65313 C 166.14433,123.93386 165.91164,123.63183 166.11918,123.44329 165.57021,123.49109 165.07937,122.57117 165.26685,122.5572 164.93578,122.604 166.00973,122.04275 165.21345,122.44323 164.9747,122.46743 166.14401,122.10262 166.14401,122.10262 L 167.08995,122.21374 168.43449,122.09103 C 168.43449,122.09103 170.29657,122.33661 171.17137,122.27188 171.84006,122.22228 172.11567,121.96911 172.42267,122.08161 172.72873,122.19368 172.74369,122.15401 172.93464,122.07561 173.11534,122.00021 173.39492,122.05291 173.5433,122.13351 173.65774,122.19591 173.73412,122.30203 173.84825,122.30203 173.96238,122.30203 174.0534,122.45172 174.24981,122.55896 174.24981,122.55896 174.58322,122.81769 174.74541,122.89569 174.99269,123.01474 175.01817,123.15249 175.1064,123.54667 175.1641,123.8052 175.1545,124.91394 174.97242,125.18823 174.24691,126.28086 175.13354,124.84991 174.24691,126.28086 173.54568,127.41265 172.5603,127.74955 172.08033,128.59559 171.82596,129.0439 171.25975,129.66495 170.92176,129.86624 170.74051,129.97417 169.92155,130.19151 168.77397,130.43611 167.64816,130.6761 167.05659,131.12041 166.18667,132.37933 165.79835,132.94128 165.34042,133.51555 165.16901,133.65552 164.73076,134.01343 164.05494,134.42815 163.91003,134.42815 163.84273,134.42815 163.66846,134.49335 163.52249,134.57324 163.34496,134.67004 162.88043,134.72864 162.12,134.74973 L 161.33467,134.97662 160.51048,135.43965 C 160.18619,135.65127 159.77046,135.83356 159.53885,136.08349 158.86444,136.81137 158.09905,137.02711 156.88775,137.20903 156.31428,137.29513 155.26805,137.85051 154.99271,137.82221 154.09678,138.16392 153.77592,138.15303 152.76809,138.98706 152.37655,139.56769 150.27616,140.33342 150.65773,140.21685 150.92909,140.13395 150.72383,140.14955 150.72383,140.14955 150.72383,140.14955 150.37496,140.49683 148.80723,140.55822 147.27422,140.61822 147.23376,140.62552 146.70148,140.9356 145.33608,141.73107 145.13774,141.81989 144.64272,141.8576 144.20031,141.8913 143.40059,141.9313 142.95817,141.6477 Z"
       id="UBERON_0002702"
       inkscape:connector-curvature="0"
       sodipodi:nodetypes="cssccssccsscccssccscccssscccccssscccccssscccccccccscccscscssscsssscsccssccscssscc"
       inkscape:label="UBERON_0002702"
       style="fill:none;fill-opacity:1;stroke:#000000;stroke-width:0.08;stroke-miterlimit:4;stroke-dasharray:none;stroke-opacity:1">
      <title
         id="middle_frontal_gyrus">middle frontal gyrus</title>
    </path>
    <path
       style="fill:none;fill-opacity:1;stroke:#000000;stroke-width:0.08;stroke-miterlimit:4;stroke-dasharray:none;stroke-opacity:1"
       d="m 165.65274,174.94938 c -0.6732,-0.47682 -1.224,-0.98944 -1.224,-1.13916 0,-0.14972 -0.33044,-0.27222 -0.7343,-0.27222 -1.65701,0 -5.97205,-2.96822 -6.4587,-4.4428 -0.24107,-0.73045 -0.53887,-1.037 -1.13446,-1.16781 -1.2717,-0.27931 -2.37158,-1.63153 -2.53961,-3.12226 -0.19978,-1.77248 1.33543,-4.92933 3.68365,-7.5747 3.78812,-4.26747 3.84002,-4.31212 6.01603,-5.17649 1.85584,-0.7372 2.21572,-1.00751 3.04668,-2.28842 1.19981,-1.84949 1.4229,-2.01864 3.13553,-2.37734 1.90503,-0.39899 2.69598,-0.0754 2.81385,1.15134 0.13787,1.43485 1.30061,1.43209 3.69133,-0.009 1.52931,-0.92169 1.94023,-1.33257 2.24473,-2.24449 0.58639,-1.75614 1.40995,-2.35521 4.54243,-3.3042 2.74138,-0.83051 2.95601,-0.85309 5.13994,-0.54074 1.2535,0.17928 3.0679,0.57741 4.032,0.88473 2.10089,0.6697 4.89367,0.9862 6.32794,0.71713 0.70277,-0.13184 1.6775,-0.7625 2.98615,-1.93205 1.78251,-1.59306 2.0314,-1.72499 3.01645,-1.59899 1.69253,0.2165 3.74627,1.62553 4.044,2.7745 0.38061,1.46879 0.0529,2.23703 -1.23425,2.8937 -1.8418,0.93962 -1.33016,1.46629 0.67642,0.69629 0.2743,-0.10526 0.62147,0.11325 0.93135,0.58618 0.39466,0.60233 0.50921,1.54826 0.56948,4.70259 0.042,2.19921 0.22795,4.33138 0.41967,4.81259 0.18931,0.4752 0.41499,2.77218 0.50152,5.10441 0.17918,4.8301 0.04,5.28534 -1.52644,4.99148 -1.03262,-0.19372 -8.0345,0.72825 -10.56959,1.39174 -0.91201,0.2387 -3.50401,0.57931 -5.76,0.75691 -7.79147,0.61339 -11.08216,1.58696 -17.0618,5.04784 -1.23546,0.71506 -5.20745,1.57981 -7.15981,1.55878 -0.84836,-0.009 -1.5452,-0.26287 -2.41619,-0.87978 z"
       id="UBERON_0001871"
       inkscape:connector-curvature="0"
       inkscape:label="UBERON_0001871">
      <title
         id="temporal_lobe">temporal lobe</title>
    </path>
    <path
       d="M 213.476,169.13512 C 212.70005,169.06592 211.68853,169.41102 211.52213,169.32526 211.35578,169.23946 210.52247,168.80688 209.86638,168.74847 208.72782,168.64717 204.89096,167.0703 204.89096,167.0703 204.62526,166.84777 205.29437,164.90962 205.77189,163.68255 L 206.7246,161.23439 C 206.8213,159.8803 208.16485,159.02893 208.54251,158.22912 208.80092,157.6818 211.05204,156.19706 211.05211,156.0599 211.05218,155.92276 212.275,155.15724 213.18145,154.26256 214.97846,152.48898 215.24388,151.20905 215.72622,149.31478 216.11528,147.78674 216.53043,147.10081 217.80437,145.88156 219.13231,144.61051 219.90533,144.29286 221.67064,144.29286 222.88866,144.29286 222.96384,144.35896 222.96384,145.4302 222.96384,145.82512 223.23725,146.63676 223.7165,147.66481 224.13042,148.55275 224.6488,149.92915 224.86837,150.72348 225.23792,152.06037 225.25314,152.25737 225.07334,153.37411 224.8923,154.49857 224.90413,154.6422 225.24734,155.48944 225.60203,156.3651 225.60621,156.43273 225.36116,157.33476 225.00466,158.64661 224.43249,161.52429 224.43249,162.00528 224.43249,163.0178 222.75449,165.38343 221.16899,166.60623 219.85473,167.6198 219.12821,167.93263 217.57919,168.1519 216.46691,168.30938 216.55406,167.97118 216.07097,168.35545 215.73968,168.619 214.88472,168.98166 214.85702,168.96912 214.82942,168.95792 214.25197,169.20432 213.47605,169.13512 Z"
       id="UBERON_0002021"
       inkscape:connector-curvature="0"
       sodipodi:nodetypes="scscsccssscsssccccsssccs"
       inkscape:label="UBERON_0002021"
       style="fill:none;fill-opacity:1;stroke:#000000;stroke-width:0.08;stroke-miterlimit:4;stroke-dasharray:none;stroke-opacity:1">
      <title
         id="occipital_lobe">occipital lobe</title>
    </path>
    <g
       id="UBERON_0001872"
       style="stroke-width:0.08;stroke-miterlimit:4;stroke-dasharray:none">
      <path
         sodipodi:nodetypes="cssscssccsscccscscssscssscsscscsscscscsccscsssccc"
         inkscape:connector-curvature="0"
         id="path4536"
         d="M 183.65554,151.25757 C 183.43557,151.21276 182.85969,151.0375 182.37576,150.86809 181.89181,150.69868 180.74004,150.3953 179.8162,150.19391 177.49066,149.68696 176.64461,150.62789 177.51282,149.3438 177.51282,149.3438 178.51593,149.67762 178.0914,149.59457 177.6097,149.50036 178.20027,149.48618 178.68474,149.45999 180.99301,149.33522 177.26219,150.28942 178.35991,149.53814 178.66788,149.32737 178.68084,149.70203 179.43085,148.91209 L 180.94701,145.80099 C 180.94701,145.80099 181.23489,145.34362 181.62761,143.82256 L 182.04638,142.20046 C 182.17374,141.70712 182.04847,141.27795 182.16109,140.91101 182.32915,140.14992 182.20478,140.59111 182.20478,140.59111 L 182.22114,140.5928 C 182.22114,140.5928 183.14365,132.15917 185.72415,131.57671 187.28146,131.22521 186.90264,128.38372 186.90264,128.38372 L 185.96735,126.83947 C 185.19064,125.55702 187.62566,122.33409 187.62566,122.33409 187.62566,122.33409 188.30463,121.60221 188.70405,121.1552 188.98811,120.8373 189.75418,120.67509 190.78286,120.67509 191.88429,120.67509 192.10175,120.73767 193.53617,121.46735 L 195.09359,122.25961 197.89313,122.34535 C 201.1129,122.44398 201.24286,122.49027 203.08461,124.19484 204.23105,125.2559 203.95669,125.16394 208.45132,125.9936 209.78504,126.23978 210.51733,126.62128 210.82234,127.22884 211.29285,128.16594 212.52162,129.3019 213.4185,129.62893 214.64569,130.07639 215.54592,130.98599 216.21371,132.45324 216.52528,133.13777 216.84385,133.65682 216.92167,133.60669 217.20982,133.42101 218.90629,135.44694 219.41114,136.76812 219.75685,137.67286 218.98275,136.79596 219.49233,137.36491 219.90313,137.82359 221.20661,139.86854 221.43361,140.18962 221.99016,140.97685 222.8489,143.26632 222.8489,143.96293 V 144.52618 H 221.83296 C 221.27417,144.52618 220.57229,144.61048 220.27323,144.71351 219.45807,144.99433 217.90923,146.02915 217.24592,146.73615 L 216.65912,147.36162 214.27493,147.36757 C 212.76059,147.37134 211.54058,147.46167 210.93091,147.61515 210.25371,147.78564 208.99439,147.85756 206.65394,147.85939 204.75212,147.86084 203.0116,147.94247 202.57462,148.05061 202.15544,148.15435 201.16456,148.41203 200.37272,148.62324 199.55033,148.84258 198.17839,149.04939 197.17324,149.10552 195.41563,149.20366 193.56869,149.63309 189.97447,150.77929 188.75286,151.16886 188.19533,151.24606 186.29507,151.28875 185.06329,151.31643 183.87549,151.30241 183.65554,151.2576 V 151.25761 Z"
         style="fill:none;fill-opacity:1;stroke:#000000;stroke-width:0.08;stroke-miterlimit:4;stroke-dasharray:none;stroke-opacity:1" />
      <path
         inkscape:connector-curvature="0"
         id="path4538"
         d="M 212.33116,129.1928 C 211.68203,128.70252 210.85094,127.70139 210.85094,127.40972 210.85094,126.82097 209.32248,126.22163 206.45167,125.68463 203.93632,125.21412 204.11031,125.28556 202.98316,124.26062 202.44296,123.76944 201.63462,123.15579 201.18686,122.89696 200.40422,122.44459 200.41757,122.56718 197.7295,122.41134 L 194.77366,122.23998 193.33888,121.50261 C 192.1558,120.8946 191.70947,120.75377 190.7946,120.69987 L 190.51414,120.41342 190.27258,119.79025 C 189.80211,118.57666 191.02653,118.12857 191.43241,118.35504 191.59147,118.4438 194.2436,118.97623 194.25747,119.31342 194.25747,119.31342 195.52132,119.56204 196.23072,119.70242 197.29128,119.91231 198.01738,119.58994 198.50799,120.05847 198.95473,120.48513 199.0449,120.79762 200.03188,121.06947 201.89552,121.58277 202.91442,122.05735 203.78119,122.58701 203.78119,122.58701 206.06344,124.38966 207.25378,124.59165 207.72676,124.67191 208.66697,124.5598 209.43869,124.91573 210.925,125.60124 210.79968,125.63524 212.87849,128.42979 213.29477,128.9894 214.04453,129.91626 213.97139,129.91626 213.89826,129.91626 212.68725,129.46173 212.33116,129.1928 Z"
         sodipodi:nodetypes="cssssscsscscscssssscsc"
         style="fill:none;fill-opacity:1;stroke:#000000;stroke-width:0.08;stroke-miterlimit:4;stroke-dasharray:none;stroke-opacity:1" />
      <title
         id="parietal_lobe">parietal lobe</title>
    </g>
    <g
       id="UBERON_0000451"
       inkscape:label="UBERON_0000451"
       style="fill:none;fill-opacity:1;stroke:#000000;stroke-width:0.08230311;stroke-miterlimit:4;stroke-dasharray:none;stroke-opacity:1"
       transform="matrix(0.96478934,0,0,0.97929834,-286.71452,-231.54775)">
      <title
         id="prefrontal_cortex">prefrontal cortex</title>
      <path
         inkscape:label="prefrontal cortex 2"
         inkscape:connector-curvature="0"
         id="pref_cortex_2"
         d="M 445.44557,407.93737 C 443.77997,407.47055 442.14853,406.71814 438.98658,404.9585 436.90207,403.79846 434.96171,401.93551 434.14363,400.30876 433.10235,398.23821 431.63738,392.91871 431.63738,391.20828 431.63738,388.26624 433.42461,383.13202 435.44465,380.27102 435.78208,379.79311 436.78727,378.86348 437.6784,378.20516 438.82044,377.36149 439.60642,376.43076 440.34147,375.05166 441.88703,372.1519 447.63388,366.40687 451.30934,364.08727 451.76421,363.8002 454.415,362.78022 457.19998,361.82065 459.98495,360.86109 462.79603,359.80434 463.44682,359.47233 466.08119,358.12838 470.2944,359.02041 471.29761,361.13451 471.94694,362.50288 471.94862,363.08444 471.30991,365.38189 470.72838,367.47355 470.87085,368.40185 471.97477,369.71378 472.63091,370.49356 472.75357,370.95858 472.75357,372.66633 472.75357,374.39938 472.53992,375.18334 471.28025,378.07237 469.69796,381.7013 469.68051,381.83577 469.99236,387.99263 470.08286,389.77992 469.97476,390.43352 469.39257,391.61782 468.67281,393.08201 467.99007,393.6492 464.53654,395.65204 461.31364,397.52112 459.69923,399.21656 458.33792,402.16175 456.69922,405.70709 456.15883,406.39913 454.27069,407.37041 452.94935,408.05013 452.16302,408.2146 449.85935,408.29314 448.07796,408.35384 446.46891,408.22414 445.44561,407.93737 Z"
         style="fill:none;fill-opacity:1;stroke:#000000;stroke-width:0.08230311;stroke-miterlimit:4;stroke-dasharray:none;stroke-opacity:1" />
    </g>
    <path
       style="fill:none;fill-opacity:1;stroke:#000000;stroke-width:0.08;stroke-miterlimit:4;stroke-dasharray:none;stroke-opacity:1"
       d="M 141.14346,167.39456 C 139.14057,166.93123 136.6004,165.39347 135.65517,164.07206 135.05977,163.23971 134.32931,162.65219 133.40014,162.25832 131.41114,161.41519 129.29475,159.04091 128.895,157.20421 128.72357,156.41656 128.30797,155.24029 127.97143,154.59029 127.08326,152.87476 127.33186,150.71666 128.82275,147.2003 130.20928,143.93007 131.51448,141.91406 133.32771,140.24195 134.05375,139.57243 135.20796,138.16765 135.89261,137.12022 137.22119,135.0877 143.07116,129.29421 145.36569,127.73862 146.11367,127.23153 146.72565,126.68896 146.72565,126.53291 146.72565,126.0058 148.2448,124.85734 148.94205,124.85734 149.69604,124.85734 151.08136,124.23009 152.16459,123.39824 152.54236,123.10813 153.06443,122.87078 153.32474,122.87078 153.58505,122.87078 154.70159,122.44415 155.80594,121.92271 156.9103,121.40128 158.52667,120.8127 159.39789,120.61476 160.2691,120.41682 162.17954,119.75793 163.64332,119.15058 165.97763,118.182 166.58422,118.04628 168.57907,118.04628 170.51644,118.04628 171.13401,117.91691 172.74705,117.17311 175.24101,116.02311 177.76592,115.70897 183.57846,115.82552 187.49064,115.90395 188.51243,116.01221 189.29326,116.43091 189.81622,116.71134 190.32704,117.15378 190.42841,117.4141 190.72039,118.16384 189.71787,124.2467 189.14571,125.19707 188.83231,125.71764 188.20622,126.19516 187.54768,126.41591 186.00601,126.9327 185.60638,127.34927 185.60638,128.43951 V 129.39804 H 184.07739 C 182.01353,129.39804 181.62961,129.74682 181.33585,131.8887 181.06545,133.86017 180.12735,135.16038 178.73469,135.49392 177.583,135.76975 175.81419,137.00787 175.81419,137.53819 175.81419,137.79651 176.22003,138.71645 176.71606,139.58252 177.57197,141.07693 177.60879,141.2661 177.43847,143.29479 177.14004,146.84968 176.49758,149.2631 175.60238,150.19209 174.73624,151.09092 172.94143,152.10155 172.2113,152.10155 171.38532,152.10155 170.03463,151.23668 169.7636,150.53426 169.53168,149.93316 169.34734,149.85811 168.31477,149.94437 167.66407,149.99877 167.03466,150.15515 166.9161,150.29195 166.79753,150.42876 166.26649,151.09746 165.73601,151.77797 164.95684,152.7775 164.15625,153.3056 161.56963,154.52627 158.69478,155.88296 158.2218,156.21624 156.93878,157.78934 154.12829,161.23527 153.06988,162.9132 152.46125,164.88768 151.60499,167.66548 151.49596,167.71612 146.44557,167.68171 144.14436,167.66604 141.75842,167.53681 141.14346,167.39456 Z"
       id="UBERON_0001870"
       inkscape:connector-curvature="0"
       inkscape:label="UBERON_0001870">
      <title
         id="frontal_cortex">frontal cortex</title>
    </path>
    <g
       id="UBERON_0000956"
       inkscape:label="UBERON_0000956"
       style="fill:none;fill-opacity:1;stroke:#000000;stroke-width:0.08;stroke-miterlimit:4;stroke-dasharray:none;stroke-opacity:1"
       transform="translate(-303.36272,-240.00264)">
      <title
         id="cerebral_cortex">cerebral cortex</title>
      <path
         inkscape:label="cerebral cortex 2"
         inkscape:connector-curvature="0"
         id="cerebral_cortex_2"
         d="M 465.6797,415.12268 C 462.51945,413.38514 460.80075,412.09069 459.49272,410.46291 458.50135,409.22919 457.1324,406.65038 457.13205,406.0159 457.13191,405.76452 456.98897,405.80422 456.59186,406.16591 455.28838,407.35315 453.66648,407.70604 449.5705,407.69359 444.89088,407.67939 442.49426,406.98211 439.61186,404.7963 L 438.29186,403.7953 440.69186,403.99652 C 443.71325,404.24984 449.14456,404.19128 449.91629,403.89712 450.33104,403.739 449.22327,403.62497 446.1007,403.50436 439.06906,403.23275 435.70677,402.40039 434.0586,400.52323 433.39953,399.77259 433.33045,399.55322 433.42926,398.52481 433.54515,397.31879 433.94832,396.61577 435.87439,394.26123 436.45772,393.54812 436.988,392.76197 437.05279,392.51422 437.15548,392.12152 437.06979,392.08268 436.38456,392.21123 435.72354,392.33524 435.57773,392.27913 435.46767,391.85823 435.15766,390.67277 434.23466,391.76313 434.00385,393.58746 433.73951,395.67678 433.2411,396.09036 432.08423,395.18036 431.53934,394.75175 431.45186,394.50208 431.45186,393.37559 431.45186,390.51982 433.26837,387.57687 437.45874,383.64375 440.44669,380.83925 441.62457,379.37474 441.89969,378.12213 442.10165,377.20261 441.93849,377.05384 441.25398,377.5333 440.28852,378.20953 440.01033,378.04401 440.19294,376.90199 440.28224,376.3433 440.5466,375.58417 440.78033,375.21503 441.77343,373.64653 453.46893,364.33317 454.76778,364.07654 455.21003,363.98914 455.85314,363.711 456.19693,363.45841 457.00902,362.86176 458.21186,362.96282 458.21186,363.62771 458.21186,364.26588 456.5873,365.44788 452.94478,367.45995 450.23028,368.95939 449.78045,369.30609 448.34983,371.00137 447.4776,372.03496 446.50347,373.08552 446.18509,373.33596 445.86672,373.58639 444.94244,374.40584 444.13115,375.15695 442.99201,376.2116 442.73303,376.5709 442.99397,376.73463 443.33955,376.95147 443.34067,376.94765 441.28825,382.57892 440.74371,384.07301 440.89795,384.49321 442.46119,385.77443 443.97074,387.01165 444.68397,387.21685 445.93897,386.775 447.50141,386.22492 447.27645,385.91532 445.21831,385.78323 443.63466,385.6816 443.29886,385.58128 442.90157,385.09107 442.22897,384.26118 442.44598,381.81395 443.46107,378.78153 445.01097,374.15149 447.06845,372.34674 449.92123,373.11492 451.41992,373.51847 452.09186,374.29124 452.09186,375.61125 452.09186,376.20265 451.98653,376.96356 451.8578,377.30216 451.72907,377.64075 451.66789,377.91778 451.72185,377.91778 451.77585,377.91778 452.35482,377.5853 453.00852,377.17893 454.06736,376.52073 454.29153,376.46617 455.06258,376.67907 455.53861,376.81051 455.97874,376.8361 456.04064,376.73597 456.20061,376.47712 454.86237,375.27131 453.13415,374.1171 450.15427,372.12696 449.94701,370.9846 452.18459,368.88348 453.97646,367.20089 455.87891,366.29512 457.64155,366.28538 458.76551,366.27938 459.12289,366.38188 459.62828,366.85619 459.96721,367.1743 460.31091,367.78848 460.39205,368.22104 460.59487,369.30216 461.35035,369.51781 464.93492,369.51781 468.13915,369.51781 469.9647,369.77757 471.27891,370.42052 472.55658,371.0456 472.54471,371.97452 471.22271,374.81514 469.40443,378.72226 468.55786,379.35781 465.17181,379.35781 462.89382,379.35781 461.74668,379.00469 460.64738,377.96508 459.63658,377.00915 457.79527,374.36345 457.95779,374.1005 458.18582,373.73153 459.5231,373.40534 461.49837,373.23687 462.739,373.13105 463.44779,372.95465 463.65837,372.69928 463.99106,372.29584 463.88183,372.298 459.53181,372.78078 458.41075,372.9052 458.1261,372.85228 457.64308,372.42946 457.04764,371.90826 456.56625,371.99333 455.95699,372.72744 455.60419,373.15254 456.03189,374.14458 456.90151,374.91835 457.19787,375.18203 457.96493,376.02439 458.60608,376.79024 460.10995,378.5866 460.12494,379.15127 458.70578,380.54409 457.39737,381.8282 456.78638,383.20253 456.17685,386.23253 455.5937,389.13144 455.4005,389.36541 454.03958,388.82088 452.57759,388.23591 451.59564,388.46221 448.21569,390.16305 L 445.23589,391.66253 442.54519,389.72675 C 441.06531,388.66207 439.61464,387.71484 439.32147,387.6218 438.88642,387.48372 438.59471,387.6666 437.73456,388.61667 436.59803,389.872 436.67156,390.09032 438.09752,389.69435 439.98899,389.16911 440.6805,389.3322 441.93854,390.6002 443.21201,391.88376 444.9811,392.70691 445.88833,392.43804 446.19826,392.34614 447.08913,391.83123 447.86804,391.29368 450.60097,389.40762 452.16311,389.22745 454.59535,390.51778 455.4662,390.97978 456.32762,391.35778 456.5096,391.35778 456.95388,391.35778 457.13147,390.82287 457.13364,389.47815 457.14264,383.80029 459.74558,379.85667 463.49183,379.84439 468.12026,379.82919 469.83804,383.23254 467.71734,388.21611 466.81931,390.32645 466.48881,391.95879 466.99363,391.79051 467.17827,391.72901 467.73663,390.34964 468.24525,388.69859 468.99064,386.279 469.1959,385.17554 469.33545,382.83778 469.49921,380.09445 469.54856,379.88944 470.37532,378.51778 470.85269,377.72578 471.60365,376.17648 472.04412,375.07489 472.48459,373.9733 473.20029,372.65688 473.63458,372.14952 474.60431,371.01661 476.54597,370.03508 478.20637,369.83843 479.58376,369.6753 479.58837,369.66593 479.17468,367.87374 478.92799,366.80498 478.95436,366.541 479.41468,365.47094 479.98162,364.15306 480.08688,362.92193 479.65542,362.65528 479.22593,362.38984 478.81882,363.1468 478.51155,364.78211 477.72257,368.98119 476.27075,370.21227 472.45479,369.91801 470.29511,369.75147 469.04718,369.25226 468.32726,368.26688 467.88372,367.65981 467.87222,367.50122 468.15633,365.91144 468.32386,364.97394 468.40386,364.14981 468.33408,364.08003 468.13878,363.88472 467.51324,365.22639 467.32043,366.25414 467.08959,367.48464 465.95841,368.74103 464.90314,368.939 463.73138,369.15882 462.14495,368.49186 461.10709,367.34307 459.99849,366.11598 459.99373,365.37788 461.08779,364.34608 462.22739,363.27131 463.22017,363.07535 464.12744,363.74613 L 464.82865,364.26456 465.8731,363.1899 C 467.21936,361.8047 468.63217,361.09581 470.35858,360.93927 471.59048,360.82756 471.88578,360.89627 473.0862,361.57372 473.82659,361.99157 474.53575,362.26955 474.66211,362.19145 474.78848,362.11335 474.89187,361.68566 474.89187,361.24104 474.89187,360.39955 475.26589,359.98557 476.77527,359.15638 477.17714,358.93562 477.88632,358.22553 478.35123,357.57841 478.81614,356.93128 479.49698,356.2553 479.8642,356.07622 480.94926,355.54707 487.17575,355.47467 490.61073,355.95125 495.15925,356.58234 504.49656,359.14878 508.25187,360.80008 511.26817,362.12641 512.32919,363.42517 511.85007,365.20448 511.50892,366.47141 510.53046,367.53646 509.33187,367.94552 508.80387,368.12572 508.39887,368.33719 508.43187,368.41547 508.46487,368.49377 508.50157,368.96278 508.51347,369.45778 L 508.53517,370.35778 508.75813,369.58648 C 508.97218,368.84601 510.28414,367.59778 510.84836,367.59778 510.99751,367.59778 511.27468,367.30078 511.46428,366.93778 511.85699,366.18594 512.91735,365.1473 513.70639,364.74159 514.41421,364.37765 515.53783,364.84303 516.88091,366.05642 518.0196,367.08516 518.57187,368.0158 518.57187,368.90586 518.57187,369.56562 519.32284,370.47778 519.86602,370.47778 520.4065,370.47778 522.71686,373.14266 524.05582,375.3105 L 525.29562,377.31778 523.55375,377.46488 C 521.39241,377.64741 520.30327,377.88046 520.10388,378.20308 519.88297,378.56051 520.48509,378.86985 521.41003,378.8741 521.95202,378.8761 522.37568,379.06655 522.73003,379.46592 L 523.25187,380.05407 524.13494,379.19375 C 524.6839,378.65893 525.15783,378.38708 525.38755,378.47524 525.79971,378.6334 527.92868,382.73789 528.80472,385.06326 529.61527,387.21481 529.56465,387.90023 528.55103,388.49828 527.31288,389.2288 526.74599,391.5889 527.5459,392.68285 528.04924,393.37121 528.53987,392.8196 529.17314,390.85335 529.46641,389.94279 529.77811,389.19778 529.86581,389.19778 530.15208,389.19778 531.05187,391.85952 531.05187,392.70637 531.05187,393.1606 530.78187,394.17374 530.45187,394.95778 530.12187,395.74182 529.85187,396.6214 529.85187,396.91238 V 397.44145 L 530.40968,396.91742 C 530.71647,396.6292 531.04047,396.46638 531.12968,396.55558 531.21888,396.64478 531.29187,397.51514 531.29187,398.4897 531.29187,400.71969 530.9101,401.49237 529.42674,402.26461 528.46666,402.76443 528.3853,402.85715 528.89847,402.8666 529.2321,402.8726 529.75375,403.05196 530.0577,403.26485 530.4901,403.56772 530.57597,403.78962 530.45241,404.28485 530.11619,405.63249 527.66957,408.20838 526.29388,408.66311 525.83819,408.81373 525.02961,408.85696 524.40891,408.76388 523.49581,408.62695 523.24899,408.67918 522.86595,409.09031 522.1321,409.87801 520.18833,410.31778 517.4406,410.31778 514.15028,410.31778 512.37973,409.62283 513.77187,408.87778 514.42687,408.52724 514.3758,408.16043 513.5454,407.25127 512.67234,406.29539 512.36491,406.28653 511.49719,407.19227 510.58339,408.14607 510.11766,408.27526 504.53187,409.12436 496.76154,410.30554 495.1144,410.51721 491.5137,410.79727 487.19701,411.13302 486.23672,411.38985 482.13724,413.30501 476.70761,415.84158 474.84845,416.3858 471.29187,416.47973 L 468.29187,416.55893 465.67971,415.12274 Z M 477.77186,411.98566 C 480.66666,411.31666 480.66068,411.31968 480.36545,410.67171 479.99848,409.86631 480.55282,409.27997 482.30451,408.62073 485.59149,407.38368 491.64229,406.72432 499.74599,406.72011 503.02439,406.71811 504.43572,406.63271 504.7282,406.41774 504.96979,406.24014 505.244,405.50443 505.40028,404.61454 505.59897,403.48319 505.81422,402.9934 506.27043,402.63454 507.10692,401.97657 508.06983,402.03556 508.97888,402.80047 509.56812,403.29628 509.83291,403.38669 510.13729,403.19596 510.7659,402.80206 510.73975,401.95416 510.06769,400.93857 509.3354,399.832 508.74373,399.74166 507.22233,400.50414 505.60663,401.31389 504.89189,402.11286 504.89189,403.10924 504.89189,404.24358 504.36094,404.95652 503.26482,405.294 502.69381,405.46981 498.65133,405.62929 492.05189,405.73636 480.8126,405.91871 480.47033,405.96169 480.76933,407.15298 480.85713,407.50268 480.94758,407.8988 480.9704,408.03327 480.9971,408.19045 480.06924,408.2525 478.37189,408.20705 476.68867,408.16195 475.60142,408.23385 475.37189,408.40532 475.16968,408.5564 475.11709,408.72051 475.25189,408.77976 477.77186,409.88722 477.07655,410.86881 473.38108,411.42086 471.05862,411.7678 470.75345,411.89171 471.29884,412.26636 471.71476,412.55208 476.15393,412.35956 477.77189,411.98566 Z M 469.74372,408.37194 470.5573,406.35774 469.54458,406.19743 C 468.98759,406.10923 467.40798,405.95726 466.03435,405.85965 463.10526,405.65153 463.00191,405.87095 465.56739,406.85131 467.9994,407.78064 468.23063,408.06709 468.03524,409.90845 L 467.87721,411.39774 468.40367,410.89194 C 468.69322,410.61375 469.29624,409.47975 469.74372,408.37194 Z M 523.76133,404.49774 C 524.11364,403.80145 525.09965,402.56665 525.96524,401.73774 527.66234,400.11254 527.61538,399.90356 525.76387,400.84179 524.06827,401.70102 522.41186,403.34684 522.41186,404.17238 522.41186,404.79127 522.78032,405.75774 523.01627,405.75774 523.07537,405.75774 523.41067,405.19074 523.76133,404.49774 Z M 471.28117,404.10354 C 471.61927,403.28729 471.53352,402.11467 471.12594,401.98094 470.54486,401.79028 469.76743,404.15331 470.25186,404.63774 470.59489,404.98077 471.00625,404.76728 471.28117,404.10354 Z M 478.61186,401.47296 C 479.66786,401.20941 481.39586,400.87041 482.45186,400.71963 483.50786,400.56885 486.26186,400.11721 488.57186,399.71599 491.72288,399.16869 493.20393,399.01805 494.5018,399.11285 495.98365,399.22108 496.25019,399.18105 496.36038,398.83393 496.43108,398.61102 497.05665,398.06913 497.75043,397.62972 L 499.01186,396.8308 497.7977,396.95753 C 497.12991,397.02723 494.27018,397.64285 491.44273,398.32557 486.28771,399.5703 483.58508,399.90249 483.03825,399.35861 482.8839,399.20509 482.70177,398.58409 482.63352,397.97861 482.56532,397.37313 482.47018,396.87774 482.42219,396.87774 482.37419,396.87774 481.60525,397.6162 480.71341,398.51878 478.79278,400.46249 475.93974,402.02226 473.82081,402.28701 472.57555,402.44259 472.49186,402.49413 472.49186,403.10539 472.49186,403.46418 472.56116,403.82705 472.64588,403.91176 472.73058,403.99646 473.6756,403.59022 474.74588,403.00896 475.81617,402.42771 477.55586,401.73651 478.61186,401.47296 Z M 457.8181,402.29816 C 458.89155,399.87145 461.08062,397.44482 463.82266,395.642 465.22379,394.72078 465.46954,394.47774 464.99985,394.47774 464.67337,394.47774 464.20993,394.26081 463.96999,393.99567 463.31766,393.27485 462.66412,389.89967 462.65757,387.21774 L 462.65157,384.87774 H 461.90433 C 461.01644,384.87774 461.01017,384.76728 462.14032,389.03396 462.95342,392.10366 463.07549,393.81435 462.56788,395.02545 462.18693,395.93433 459.58674,398.52667 458.55742,399.02382 457.5569,399.50704 457.27809,399.15941 456.59215,396.57348 L 456.03399,394.46922 455.2157,395.31348 C 454.24368,396.31635 453.8432,396.35475 452.66874,395.55774 451.63613,394.85699 450.30085,394.75468 450.06912,395.35855 449.87791,395.85682 450.20135,396.06254 451.72948,396.41458 453.33191,396.78375 454.60773,397.55073 456.01463,398.99067 457.32734,400.33421 457.3886,400.88088 456.28864,401.43591 455.23983,401.96513 448.27599,401.90444 445.97692,401.34601 442.78604,400.571 441.65366,399.52173 440.43381,396.20968 440.0758,395.23762 439.58901,394.35408 439.33723,394.21933 438.63319,393.84254 438.53611,394.51051 439.12666,395.66809 439.75339,396.89657 439.61856,397.37455 438.39058,398.27761 L 437.43458,398.98066 438.57991,399.15241 C 439.89014,399.34889 440.80205,399.77496 442.03839,400.76828 443.19704,401.69918 444.8306,402.15771 446.98841,402.15771 449.43217,402.15771 454.146,402.60671 455.7156,402.98899 456.42839,403.16259 457.08752,403.31657 457.18034,403.33117 457.27314,403.34577 457.56003,402.8809 457.81781,402.29813 Z M 519.89186,402.25796 C 517.67555,400.8616 514.73186,399.56777 514.73186,399.99001 514.73186,400.10603 515.02445,400.54867 515.38205,400.97366 516.2788,402.03938 518.16083,402.87434 519.65186,402.86794 L 520.85186,402.86294 519.89186,402.2581 Z M 515.16856,397.78403 C 515.07916,397.16177 512.44444,395.67778 511.42906,395.67778 H 510.80819 L 511.39003,396.30333 C 512.10364,397.07056 514.21351,398.31246 514.80856,398.31553 515.12337,398.31753 515.22384,398.16882 515.16856,397.78403 Z M 505.61186,397.38581 C 505.61186,397.26923 505.12852,396.81023 504.53778,396.36581 503.02455,395.22742 502.94187,394.79254 504.05563,393.82978 504.55539,393.39777 505.50752,392.84166 506.17148,392.59398 L 507.37868,392.14366 506.48253,391.8479 C 505.98964,391.68523 505.32409,391.61797 505.00352,391.69843 503.75581,392.01158 501.29186,394.75313 501.29186,395.82826 501.29186,396.15096 501.53201,396.54407 501.86072,396.75944 502.75501,397.3454 505.61186,397.82244 505.61186,397.38581 Z M 523.61186,396.19282 C 523.61186,396.0801 523.35166,395.7071 523.03363,395.36395 522.0893,394.345 520.95553,387.91923 521.41477,386.18889 521.65905,385.26849 522.58419,385.14891 524.2823,385.81825 524.95895,386.08495 525.56895,386.21194 525.63786,386.10044 525.81786,385.80918 525.0804,383.76024 524.67424,383.42315 524.40498,383.19969 524.06766,383.25233 523.0993,383.66891 521.04336,384.55335 519.54373,383.99509 515.26558,380.75274 510.77015,377.34571 508.97186,375.53044 508.97186,374.3996 508.97186,373.23911 511.73791,373.32672 513.46175,374.5418 514.05214,374.95794 515.06543,375.39898 515.71352,375.52189 517.26977,375.81702 519.26933,375.44939 519.83786,374.76363 520.44131,374.03575 520.20945,373.96722 519.08468,374.54104 517.58107,375.30812 516.67515,375.19749 515.2648,374.07455 514.59944,373.54478 513.6708,372.95078 513.20116,372.75455 512.08665,372.28888 510.38239,372.30059 509.26415,372.78155 507.33622,373.61087 507.04163,373.62823 505.65673,372.99421 504.94015,372.66614 504.1307,372.39773 503.85796,372.39773 503.4014,372.39773 503.41797,372.45713 504.06696,373.1469 504.45466,373.55895 506.44586,375.14912 508.49186,376.68062 512.59091,379.7489 514.84238,381.78545 514.67914,382.27728 514.62064,382.45353 514.12044,382.65928 513.56756,382.7345 511.90883,382.96018 511.89333,383.11538 513.24123,386.00136 513.90817,387.42936 514.52946,389.07779 514.62186,389.66452 514.77615,390.6442 514.8169,390.69435 515.12086,390.27865 515.60054,389.62266 515.52181,388.58423 514.84785,386.67773 514.08025,384.50635 514.09802,384.08985 514.99028,383.33906 515.89837,382.57496 516.5791,382.55479 517.62697,383.26096 519.38998,384.44905 520.67565,387.40774 520.88105,390.74949 521.04762,393.4593 520.92075,393.65694 518.22493,394.88601 517.70412,395.12346 517.23612,395.45274 517.18493,395.61774 517.03632,396.09676 518.60763,395.98109 519.87707,395.41956 L 521.00329,394.92138 522.12758,395.65673 C 523.3005,396.42391 523.61186,396.53635 523.61186,396.19278 Z M 472.2437,392.55292 C 473.50219,392.28625 476.15186,391.80404 478.13186,391.48134 480.97381,391.01817 481.32757,390.92391 479.81186,391.03368 478.75586,391.11018 476.70386,391.36362 475.25186,391.59692 473.79986,391.83021 472.57523,391.98821 472.53046,391.94803 472.48566,391.90783 472.62006,391.04826 472.82898,390.03784 473.11985,388.63138 473.14529,388.08184 472.93753,387.69363 L 472.66615,387.18656 472.22256,387.73437 C 471.97858,388.03567 471.55127,389.0552 471.27297,389.99998 470.98436,390.97981 470.49957,392.00132 470.14452,392.37778 469.40063,393.16653 469.3628,393.16338 472.2437,392.55292 Z M 483.46686,390.73278 C 483.38716,390.65308 483.18011,390.64448 483.00686,390.71388 482.81541,390.79048 482.87227,390.84737 483.15186,390.85888 483.40486,390.86928 483.54661,390.81258 483.46686,390.73283 Z M 486.77186,390.39778 C 487.03586,390.28433 487.12842,390.18393 486.97754,390.17465 486.2518,390.13005 486.49274,389.35355 487.61784,388.11118 488.97053,386.61749 489.14407,385.74417 488.33186,384.51778 488.05534,384.10024 487.85436,383.39172 487.85344,382.83118 487.85044,381.1853 489.14224,379.70163 492.46116,377.53781 493.74228,376.70256 495.01128,375.79837 495.28116,375.52848 495.90446,374.90519 495.90899,374.03627 495.29186,373.47778 494.11788,372.41534 495.0488,371.59595 497.45186,371.57657 498.7375,371.56617 499.20551,371.67952 500.11295,372.22089 500.71855,372.58218 501.28555,372.87778 501.37295,372.87778 501.71346,372.87778 501.49747,372.16004 500.69186,370.61446 499.72127,368.75236 499.66773,368.17958 500.34093,366.86001 501.0429,365.48403 502.02548,365.06941 503.84013,365.38344 505.30277,365.63656 506.20792,365.42884 506.02749,364.88153 505.83507,364.29781 504.72264,364.00477 502.68603,364.00132 501.53882,363.99932 500.54187,363.90342 500.4706,363.78809 500.3993,363.67277 500.90484,363.15782 501.59398,362.64377 502.84047,361.71396 503.23039,361.0403 502.78174,360.59166 502.62823,360.43815 502.07515,360.66956 501.18843,361.2583 500.15109,361.94706 499.521,362.18573 498.52106,362.26865 497.801,362.32835 497.21186,362.45302 497.21186,362.54566 497.21186,362.63826 497.47578,362.96204 497.79834,363.26508 499.0586,364.44903 499.51702,366.64642 498.79234,368.0297 498.33091,368.91047 497.08689,370.04036 495.70638,370.83251 494.26795,371.65791 494.07219,372.03118 494.14954,373.80104 494.22334,375.4909 493.96338,375.86947 491.94778,377.00681 487.63632,379.43964 486.99114,380.52548 486.43971,386.27689 486.17646,389.02262 485.84365,389.77001 484.65375,390.28759 L 483.89186,390.61899 485.09186,390.61199 C 485.75186,390.60799 486.50786,390.5117 486.77186,390.39825 Z M 491.83378,389.78325 C 494.42689,389.11015 495.66294,388.39734 496.53661,387.07119 496.974,386.40727 497.60186,385.74233 497.93186,385.59353 498.26186,385.44474 498.80186,385.14182 499.13186,384.92039 L 499.73186,384.51778 498.53271,384.39778 C 497.45048,384.28948 497.29588,384.19771 496.94726,383.45669 L 496.56097,382.63559 495.64775,385.01669 C 494.23238,388.70705 493.7533,389.19285 491.06389,389.66475 490.28727,389.80101 489.27386,390.01939 488.81186,390.15003 488.04459,390.36698 488.07765,390.37732 489.19378,390.26945 489.86583,390.20445 491.05383,389.98571 491.83378,389.78325 Z M 478.99447,388.7762 C 479.88323,388.17891 481.13186,387.09501 481.13186,386.92079 481.13186,386.83939 480.80458,386.65872 480.40457,386.51927 479.20775,386.10206 478.8803,385.15456 478.77476,381.80329 478.60956,376.55798 478.96436,375.78341 481.97384,374.81936 483.10544,374.45686 483.93999,374.00311 484.53667,373.42593 485.46774,372.52528 485.46985,372.52501 487.67186,373.02414 488.5359,373.21999 488.51807,372.86657 487.61186,371.83445 487.21586,371.38343 486.89186,370.8585 486.89186,370.66793 486.89186,369.93102 488.75343,368.71201 490.40176,368.36954 490.88878,368.26835 491.37829,367.99931 491.48956,367.77167 491.60083,367.54403 491.78773,367.16878 491.90491,366.93778 492.05372,366.64441 492.36125,366.53335 492.92491,366.56941 494.98552,366.70126 494.56741,365.75884 492.1388,364.79754 490.08337,363.98395 488.57186,362.68795 488.57186,361.73916 488.57186,360.15969 489.57598,359.52382 492.54543,359.22284 494.51015,359.02369 495.35631,358.70223 494.95971,358.30563 494.63972,357.98563 491.16291,357.93235 489.84517,358.22723 488.85087,358.44974 488.49327,358.65669 488.24084,359.15566 487.70549,360.21391 487.56831,361.55188 487.85404,362.92827 488.07471,363.99119 488.30392,364.38187 489.11344,365.07479 489.99846,365.83233 490.07922,365.98884 489.87747,366.5553 489.59024,367.36175 488.66239,368.05376 487.52412,368.31048 486.19466,368.61033 485.37814,368.30648 485.07968,367.40197 484.69083,366.22303 484.2955,365.93676 483.85858,366.51776 483.40204,367.12486 483.58095,368.42164 484.24522,369.32011 484.92072,370.23376 484.85418,371.19689 484.0377,372.32401 482.74786,374.10458 482.19677,374.38958 480.33811,374.23726 478.05255,374.04997 478.01219,374.07989 478.01004,375.96344 478.00704,378.41267 477.58723,381.51751 477.17324,382.14934 476.96839,382.46197 476.57472,382.71776 476.2984,382.71776 475.85161,382.71776 475.89465,382.82694 476.68726,383.70427 478.18179,385.35853 478.56523,386.99645 477.87751,388.78861 477.67137,389.32581 478.18513,389.32009 478.99447,388.77621 Z M 506.83025,388.06942 C 507.20758,387.07698 507.09261,384.82436 506.62874,384.12104 506.39777,383.77083 505.10895,382.61483 503.76471,381.55214 500.55813,379.01718 500.29696,378.51816 501.41186,377.05645 501.74186,376.62379 502.01186,376.2086 502.01186,376.13379 502.01186,376.05899 501.59598,375.99778 501.08768,375.99778 500.57937,375.99778 499.81786,375.87729 499.39543,375.73003 498.97299,375.58277 498.5817,375.50794 498.5259,375.56375 498.4701,375.61955 498.69316,376.17001 499.0216,376.78698 L 499.61877,377.90876 498.74739,378.87327 497.87601,379.83778 H 498.78816 C 500.01769,379.83778 501.27819,380.48897 503.58893,382.3179 505.97483,384.20632 506.26012,384.7789 505.92008,386.99651 505.78503,387.87721 505.7179,388.67406 505.77089,388.7673 505.95187,389.08573 506.60825,388.65333 506.83025,388.06942 Z M 454.68857,384.14818 C 453.42276,383.07135 450.89502,381.50641 450.19549,381.36651 449.15112,381.15763 449.00067,380.37421 449.68694,378.71846 449.98439,378.00082 450.16183,377.34775 450.08128,377.26719 449.82082,377.00674 449.01017,377.94011 448.5677,379.00991 448.12977,380.06873 447.75217,380.30834 446.51186,380.3145 446.14886,380.3165 445.85186,380.42845 445.85186,380.56372 445.85186,380.87054 446.62058,381.16728 448.61176,381.62906 450.9524,382.17189 453.04666,383.21882 454.07186,384.35859 454.56686,384.9089 454.98804,385.49385 455.00782,385.65847 455.02762,385.82309 455.08912,385.65747 455.14453,385.28978 455.21753,384.80605 455.09173,384.49115 454.68857,384.14818 Z M 483.70522,360.81778 C 484.28151,360.073 484.24526,359.63425 483.55,358.93899 482.99996,358.38896 482.65077,358.24483 481.93032,358.27046 481.33438,358.29166 481.20862,358.34056 481.5722,358.40982 482.15392,358.52057 482.81186,359.69894 482.81186,360.63007 482.81186,361.17149 483.34487,361.28348 483.70522,360.81778 Z M 434.12558,386.19778 C 435.76185,383.26415 438.13931,379.50364 438.46943,379.32697 439.57408,378.73578 439.6921,380.23674 438.66204,381.77663 438.05867,382.67865 433.74188,386.8857 434.12558,386.19778 Z M 458.97186,363.59778 C 458.88386,363.50978 458.81186,363.18731 458.81186,362.88119 458.81186,362.18086 459.95072,361.40276 462.62907,360.27318 466.95725,358.44778 470.81186,357.95148 470.81186,359.21961 470.81186,359.80522 470.0753,360.15888 466.61296,361.2357 465.02957,361.72815 463.00726,362.49708 462.11895,362.94442 460.60821,363.70522 459.34215,363.96807 458.97186,363.59778 Z M 472.03081,359.37424 C 470.85236,358.77297 471.22489,358.38555 473.57186,357.77159 474.94901,357.41133 476.22373,357.45831 476.5756,357.88228 477.49103,358.98531 473.70469,360.22829 472.03081,359.37424 Z"
         style="fill:none;fill-opacity:1;stroke:#000000;stroke-width:0.08;stroke-miterlimit:4;stroke-dasharray:none;stroke-opacity:1" />
    </g>
    <g
       id="UBERON_0002037"
       inkscape:label="UBERON_0002037"
       style="fill:none;fill-opacity:1;stroke:#000000;stroke-width:0.08;stroke-miterlimit:4;stroke-dasharray:none;stroke-opacity:1"
       transform="translate(-303.36272,-240.00264)">
      <title
         id="cerebellum">cerebellum</title>
      <path
         inkscape:label="#path5154"
         inkscape:connector-curvature="0"
         id="cerebellum_2"
         d="M 505.49583,423.33615 C 503.13436,423.11962 502.59198,422.72078 502.56994,421.18457 502.56294,420.70005 502.38386,419.81762 502.17188,419.22362 501.95989,418.62962 501.82487,418.14362 501.87181,418.14362 501.91871,418.14362 502.34973,418.7816 502.82952,419.56136 503.49275,420.63925 504.18906,421.26364 505.73422,422.16607 506.85202,422.8189 507.76658,423.41211 507.76658,423.48432 507.76658,423.55652 507.73418,423.59661 507.69458,423.57342 507.65498,423.55022 506.66554,423.44344 505.49583,423.33619 Z M 507.28932,422.52311 C 506.47243,421.93599 505.42796,421.24904 504.96828,420.99656 504.00163,420.46561 502.65703,418.43162 503.27269,418.43162 503.48317,418.43162 504.1592,418.8335 504.77498,419.32469 506.02378,420.32082 507.95119,421.34776 509.53176,421.85914 510.1066,422.04513 510.80709,422.45162 511.08839,422.76246 511.58062,423.30637 511.57787,423.32762 511.01519,423.32762 510.69364,423.32762 510.05795,423.38682 509.60255,423.45911 508.9772,423.55841 508.41104,423.32934 507.28929,422.52311 Z M 498.55174,422.75378 C 498.38283,422.43817 498.27307,421.04497 498.30783,419.65778 498.34853,418.03285 498.23903,416.89274 498.00007,416.45287 497.72947,415.95483 497.72275,415.82798 497.97527,415.98402 498.54632,416.33695 499.12662,418.04328 499.12662,419.36947 499.12662,420.05387 499.38162,421.114 499.69329,421.72532 500.00496,422.33664 500.19171,422.94724 500.10829,423.08222 499.82759,423.5364 498.86153,423.33256 498.55178,422.75378 Z M 496.60658,422.46663 C 496.09178,422.15283 495.67058,421.82548 495.67058,421.73918 495.67058,421.65288 495.99324,420.81567 496.38759,419.87871 496.78195,418.94176 497.05237,418.00607 496.98852,417.79939 496.58902,416.50629 496.57303,415.55162 496.95082,415.55162 497.44056,415.55162 497.77095,418.2289 497.63483,421.0944 L 497.54253,423.03717 496.60653,422.46663 Z M 500.58615,422.06328 C 500.24056,421.50411 499.87397,420.22068 499.72817,419.05952 499.58815,417.94444 499.36864,416.86099 499.24036,416.65186 499.08613,416.40041 499.24636,416.42968 499.71486,416.73826 500.6807,417.37516 501.65173,419.38843 501.95536,421.38358 502.18156,422.86989 502.15523,423.03958 501.69847,423.03958 501.41857,423.03958 500.91802,422.60023 500.58615,422.06324 Z M 511.66004,422.46966 C 511.37635,422.15618 510.41666,421.62882 509.52741,421.29776 508.17188,420.79311 505.17458,419.12344 505.17458,418.87299 505.17458,418.67961 509.2256,420.17571 510.50258,420.84068 511.35808,421.28618 512.64398,421.65698 513.67058,421.75422 514.62098,421.84422 515.85218,421.99476 516.40658,422.08873 517.35878,422.25011 517.31095,422.28018 515.54258,422.63184 512.92773,423.15183 512.25185,423.12359 511.66004,422.46966 Z M 514.96658,421.46812 C 513.22112,421.24292 511.73931,420.86396 510.87364,420.42137 L 509.51671,419.72762 514.65999,419.62962 C 519.69,419.53382 521.301,419.75118 520.85911,420.46619 520.62114,420.85122 518.52718,421.89493 518.07405,421.85436 517.86974,421.83606 516.47138,421.66226 514.96658,421.46812 Z M 494.25393,421.33215 C 493.90663,421.11232 493.92725,420.86437 494.39129,419.68056 494.6916,418.91444 495.00509,417.5462 495.08794,416.64001 495.27251,414.62129 495.7838,414.73355 496.17364,416.87841 496.40958,418.1765 496.35429,418.53635 495.69811,419.97345 494.90681,421.70649 494.8821,421.72974 494.25393,421.33215 Z M 492.44577,420.17675 C 491.78587,419.65767 491.71508,419.45707 491.92881,418.71185 492.23298,417.65127 493.90479,414.68762 494.1989,414.68762 494.63276,414.68762 494.3071,418.306 493.76281,419.5329 L 493.21037,420.77819 Z M 521.05662,419.51162 C 520.79301,419.24885 519.16338,419.14854 515.02302,419.14023 511.90318,419.13423 509.22098,419.09023 509.06258,419.04313 508.90418,418.99593 510.45938,418.65239 512.51858,418.27961 516.45434,417.5671 521.03085,417.36909 522.31126,417.8559 L 523.06943,418.14416 522.4544,419.0079 C 521.77076,419.96798 521.5825,420.03583 521.05662,419.51164 Z M 489.98258,418.65612 C 489.06881,418.21542 489.1711,417.37069 490.35023,415.61978 491.39914,414.06223 492.12667,413.74366 492.7952,414.54918 493.095,414.91042 492.98812,415.33427 492.18246,416.97915 491.16054,419.06556 491.03305,419.16274 489.98258,418.65612 Z M 514.24658,416.95968 C 519.41273,415.52998 523.62964,414.88994 523.99442,415.48017 524.09412,415.64148 524.03082,416.18903 523.85374,416.69697 523.57326,417.50155 523.43464,417.59706 522.77719,417.43861 520.46749,416.88196 517.87973,416.95202 513.7899,417.68193 511.47953,418.09426 509.47073,418.42323 509.3259,418.41298 509.18107,418.40268 511.39538,417.74874 514.24658,416.95968 Z M 503.74288,418.04226 C 503.82668,417.95686 504.78006,417.74567 505.86159,417.57289 508.30052,417.18327 512.75766,415.44004 515.31138,413.87699 518.7754,411.75678 520.09478,411.1933 521.37327,411.28809 522.71802,411.38779 523.11324,411.95611 522.1172,412.35783 517.47363,414.23065 508.94278,417.33644 507.8611,417.548 505.79541,417.95201 503.56931,418.21918 503.74288,418.04226 Z M 487.26898,417.14177 C 487.03619,416.63085 487.02958,416.1601 487.24578,415.48577 L 487.54781,414.54362 487.57721,415.64255 C 487.59341,416.24697 487.74077,416.99217 487.90474,417.29855 488.11206,417.68594 488.11018,417.85562 487.89874,417.85562 487.73137,417.85562 487.44807,417.53439 487.26918,417.14177 Z M 513.95858,415.8046 C 519.52337,413.62181 522.92858,412.47362 523.15773,412.70277 523.23603,412.78107 523.50045,413.32455 523.74524,413.91041 L 524.19031,414.97562 522.24244,414.97862 C 520.81544,414.98062 518.87157,415.36582 514.97293,416.41862 512.04602,417.20901 509.45402,417.85173 509.21293,417.8469 508.97184,417.8419 511.10738,416.92306 513.95858,415.80467 Z M 485.74909,416.89384 C 485.33576,416.59161 485.29272,416.39618 485.53839,415.93713 485.7082,415.61985 486.03713,415.20257 486.26934,415.00985 486.63249,414.70846 486.66943,414.83262 486.53344,415.89753 486.34052,417.4082 486.38144,417.35623 485.74909,416.89384 Z M 504.31058,416.86324 C 505.34018,416.64174 506.75103,416.25555 507.44579,416.00503 509.74442,415.17618 513.7902,412.8786 515.32601,411.52988 516.56317,410.44344 517.17178,410.13486 518.66858,409.83513 520.32085,409.50427 520.55263,409.51759 521.05516,409.97238 521.5955,410.46138 521.56109,410.49443 519.87646,411.10442 518.92205,411.45 516.91644,412.46361 515.41956,413.35688 511.31253,415.80776 507.89199,417.04501 504.88658,417.16677 L 502.43858,417.26597 504.31058,416.86325 Z M 488.30354,415.96214 C 488.07381,414.73756 488.26174,414.50935 489.72064,414.24112 L 490.8267,414.03777 489.76562,415.51471 C 489.18203,416.32703 488.65778,416.99165 488.60061,416.99165 488.54341,416.99165 488.40977,416.52837 488.30354,415.96214 Z M 503.80442,415.95914 C 505.37053,415.45494 507.06001,414.55809 509.48036,412.9461 513.10922,410.52923 513.99316,410.08004 515.12029,410.08004 518.25442,410.08004 508.58112,415.80483 504.43422,416.40419 501.46075,416.83396 501.34381,416.75132 503.80442,415.95914 Z M 484.25214,415.79405 C 484.08706,415.58174 483.87114,415.18124 483.77233,414.90404 483.61729,414.46914 483.77933,414.4013 484.95162,414.4092 486.17279,414.4172 486.25712,414.4589 485.78333,414.81795 485.49334,415.03772 485.09772,415.43411 484.90418,415.6988 484.61512,416.09411 484.49868,416.11112 484.25214,415.7941 Z M 498.83858,415.55204 C 498.44258,415.42522 497.71174,415.30854 497.21449,415.29275 496.71723,415.27695 496.01094,415.02156 495.64495,414.7252 L 494.97952,414.18636 496.59197,413.71761 C 497.56026,413.43612 498.91658,412.70219 499.9871,411.88045 502.208,410.17565 502.2573,410.14417 503.27052,409.78381 503.72809,409.62107 504.03046,409.41592 503.94246,409.32792 503.65354,409.039 501.0902,410.34834 499.9785,411.35269 498.65826,412.54545 498.11651,412.84542 496.0081,413.55112 493.76978,414.30031 493.13685,414.26702 492.73216,413.37883 492.44004,412.7377 492.48906,412.55465 493.12252,411.92119 493.52096,411.52275 494.48407,411.02188 495.26277,410.80815 496.43224,410.48716 496.52825,410.41616 495.81458,410.40012 494.55388,410.37182 492.55805,411.37118 492.16865,412.22582 491.52806,413.63178 490.74017,412.70569 491.34161,411.2537 491.6634,410.47682 491.82294,410.40886 493.7504,410.22769 494.8857,410.12097 497.62898,409.79539 499.84658,409.50417 505.96299,408.70096 508.1222,408.5848 510.20249,408.94707 511.24031,409.1278 512.1546,409.3811 512.23424,409.50997 512.31384,409.63883 511.71545,409.96468 510.9044,410.23407 510.09334,410.50346 508.39209,411.43451 507.12384,412.30308 503.90947,414.50446 502.29458,415.26324 500.81275,415.26845 499.89687,415.27145 499.6751,415.34815 499.99058,415.55204 500.37458,415.8002 500.37458,415.82852 499.99058,415.80692 499.75298,415.79352 499.23458,415.67886 498.83858,415.55204 Z M 500.14929,414.1043 C 501.06075,413.62484 502.42874,412.77579 503.18926,412.21752 504.36738,411.3527 506.08973,410.52417 508.4558,409.68407 508.75567,409.5776 508.94532,409.43478 508.87724,409.3667 508.74217,409.23163 505.2017,410.46813 504.20735,410.99765 503.86813,411.1783 502.94258,411.80825 502.15058,412.39755 500.22592,413.82962 499.01547,414.41557 497.42653,414.68434 L 496.10258,414.90829 497.29733,414.94219 C 498.11922,414.96549 499.00928,414.704 500.14929,414.10432 Z M 496.84554,411.72777 C 498.02646,411.05579 499.15719,410.08004 498.75498,410.08004 498.54239,410.08004 495.70212,411.90948 494.73458,412.66962 494.29898,413.01185 493.94258,413.43584 493.94258,413.61183 493.94258,413.78781 494.29898,413.60483 494.73458,413.20505 495.17018,412.80533 496.12011,412.14056 496.84554,411.72777 Z M 501.86258,415.59387 C 503.14226,415.24531 505.06563,414.21017 507.33458,412.64891 509.55022,411.12432 511.40329,410.23587 512.95058,409.95634 L 513.95858,409.77423 512.99188,410.21414 C 512.46021,410.45609 510.82249,411.48677 509.35253,412.50454 505.75291,414.99683 504.52806,415.58076 502.61783,415.71523 501.42324,415.79933 501.22517,415.76753 501.86258,415.59387 Z M 483.28658,413.87909 C 483.28658,413.75096 483.44858,413.4336 483.64658,413.17384 483.97255,412.7462 484.0555,412.76822 484.52403,413.4068 L 485.04147,414.11204 H 484.16403 C 483.68143,414.11204 483.28658,414.00721 483.28658,413.87909 Z M 485.98398,413.80499 C 484.88786,413.47942 483.9913,412.29322 484.52125,411.86972 485.42785,411.14523 486.01685,411.23905 486.45458,412.1777 486.74433,412.79902 487.2185,413.21725 487.89458,413.4478 488.44898,413.63686 488.70818,413.80063 488.47058,413.81174 488.23298,413.82284 487.77938,413.88614 487.46258,413.95251 487.14578,414.01881 486.48041,413.95245 485.98398,413.80499 Z M 490.32393,413.27824 C 490.41153,413.13644 490.28963,412.9461 490.05293,412.85528 489.47647,412.63407 489.45678,410.65606 490.03103,410.65606 490.25567,410.65606 490.6678,410.56846 490.94687,410.46135 491.42589,410.27753 491.42721,410.30528 490.97047,410.95743 490.34429,411.85143 490.35319,412.85372 490.99067,413.22499 491.43808,413.48559 491.42001,413.51953 490.82967,413.5273 490.46393,413.5323 490.23638,413.42004 490.32402,413.27824 Z M 487.53912,412.40332 C 486.45518,411.42978 486.63116,411.0194 488.24491,410.75752 L 489.26554,410.5919 489.22804,411.91822 C 489.18364,413.49138 488.85548,413.58562 487.5391,412.40332 Z"
         style="fill:none;fill-opacity:1;stroke:#000000;stroke-width:0.08;stroke-miterlimit:4;stroke-dasharray:none;stroke-opacity:1" />
    </g>
  </g>
</svg>
