<?xml version="1.0" encoding="UTF-8" standalone="no"?>
<!-- Generator: Adobe Illustrator 18.1.1, SVG Export Plug-In . SVG Version: 6.00 Build 0)  -->

<svg
              xmlns:dc="http://purl.org/dc/elements/1.1/"
              xmlns:cc="http://creativecommons.org/ns#"
              xmlns:rdf="http://www.w3.org/1999/02/22-rdf-syntax-ns#"
              xmlns:svg="http://www.w3.org/2000/svg"
              xmlns="http://www.w3.org/2000/svg"
              xmlns:sodipodi="http://sodipodi.sourceforge.net/DTD/sodipodi-0.dtd"
              xmlns:inkscape="http://www.inkscape.org/namespaces/inkscape"
              version="1.1"
              id="Layer_1"
              x="0px"
              y="0px"
              enable-background="new 0 0 1417.3 1275.6"
              xml:space="preserve"
              inkscape:version="0.92.5 (0.92.5+68)"
              sodipodi:docname="mus_musculus.brain_sp1.svg"
              width="136.34375"
              height="81.814529"
              viewBox="0 0 136.34375 81.814529"
              preserveAspectRatio="none"><metadata
                           id="metadata"><rdf:RDF><cc:Work
                                                     rdf:about=""><dc:format>image/svg+xml</dc:format><dc:type
                                                                  rdf:resource="http://purl.org/dc/dcmitype/StillImage" /><dc:title /></cc:Work></rdf:RDF></metadata><defs
                           id="defs16264" /><sodipodi:namedview
                           pagecolor="#ffffff"
                           bordercolor="#666666"
                           borderopacity="1"
                           objecttolerance="10"
                           gridtolerance="10"
                           guidetolerance="10"
                           inkscape:pageopacity="0"
                           inkscape:pageshadow="2"
                           inkscape:window-width="3375"
                           inkscape:window-height="1416"
                           id="namedview16262"
                           showgrid="false"
                           inkscape:zoom="53.413412"
                           inkscape:cx="53.621959"
                           inkscape:cy="24.352411"
                           inkscape:window-x="65"
                           inkscape:window-y="24"
                           inkscape:window-maximized="1"
                           inkscape:current-layer="LAYER_OUTLINE"
                           fit-margin-top="0"
                           fit-margin-left="0"
                           fit-margin-right="0"
                           fit-margin-bottom="0" /><g
                           inkscape:label="Outline"
                           id="LAYER_OUTLINE"
                           inkscape:groupmode="layer"
                           transform="translate(-5.7226608,0.12594381)"><path
                                        inkscape:connector-curvature="0"
                                        id="path16294"
                                        d="M 73.102097,0.39409378 67.03271,-0.07547794 C 65.332264,0.33877346 65.913939,-7.385984e-4 63.214701,0.3246164 60.515463,0.6499714 59.108505,0.63760555 59.108505,0.63760555 L 52.273991,0.96353681 44.639975,1.7720583 40.383801,2.7343933 37.139735,3.4874013 C 37.105299,3.4598526 33.299458,5.0358217 31.756726,5.4631318 29.808194,6.0028413 28.292005,7.3987748 28.128954,7.4044944 28.128954,7.4044944 27.764354,7.7862882 27.284083,8.1392952 26.803811,8.4923012 26.327095,8.91572 25.876287,9.480001 25.457435,10.004284 25.160345,10.016829 24.52203,10.890182 24.386578,11.263168 23.155525,13.255614 23.155525,13.255614 L 21.889372,16.101922 C 20.401846,15.323362 19.223001,13.641233 17.922656,11.75688 16.201406,12.193077 15.136407,11.948487 14.000344,11.37593 13.152549,11.899841 12.789808,12.484383 12.419092,13.067929 11.624102,14.340115 11.199498,15.612301 10.827097,16.884487 L 7.8806383,27.833877 5.7777695,36.447687 C 6.5786843,37.277052 7.6188783,37.771425 8.7233754,38.175775 L 13.719927,39.318208 15.595811,39.620531 18.029738,39.102327 23.229431,36.373072 26.478157,38.149717 28.830898,40.543714 30.509774,42.933706 32.435039,46.484673 34.445749,49.660173 C 36.150853,51.522197 37.976533,53.223454 40.047832,54.597218 L 47.744475,57.830033 C 52.169066,59.278874 52.648055,60.783964 55.060339,61.581498 55.628979,61.861057 63.086627,64.663722 63.086627,64.663722 L 65.115378,65.472923 C 67.040563,66.240815 72.916244,62.474628 76.844652,62.985702 80.77306,63.496776 80.621541,62.731673 81.215681,63.126311 81.512751,63.323644 83.512922,63.393238 84.13068,63.214418 84.74844,63.035568 85.093894,62.546688 85.272178,62.152034 85.602693,61.420396 85.684912,60.56436 85.727299,59.250532 85.83441,59.208654 85.945623,59.178485 86.266365,58.982928 87.387739,58.299212 87.856438,58.028727 88.054681,57.913155 L 90.914054,58.045985 H 94.89788 98.448455 L 100.08721,58.325495 103.39366,58.940787 103.49015,58.944245 C 103.49015,58.944245 103.92304,58.960054 104.45636,58.947538 104.98968,58.935023 105.59322,58.922392 106.22569,58.748458 106.98649,58.539216 107.50932,58.147559 107.91655,57.875196 108.32378,57.602833 108.60489,57.454572 108.77115,57.421373 109.04737,57.366189 109.97497,57.392768 110.71546,57.491477 111.45594,57.590202 112.04962,57.717268 112.04962,57.717268 112.05133,57.717268 112.34113,57.781131 112.68678,57.891285 112.98512,57.986355 113.23065,58.124768 113.2741,58.134434 113.29857,58.230558 113.31109,58.314231 113.31109,58.314231 L 113.31208,58.32263 113.64626,61.054644 113.71444,61.218994 C 113.71444,61.218994 114.45142,63.043998 115.0129,64.042668 115.69448,65.254938 117.11578,66.917808 117.11578,66.917808 L 117.13862,66.945458 119.71977,69.746308 122.70587,72.864918 122.73836,72.894828 C 122.73836,72.894828 125.39053,75.314738 126.49832,76.327348 127.73823,77.460758 129.9032,79.109858 129.9032,79.109858 L 129.95079,79.146198 133.2579,81.227538 133.55122,81.261618 C 133.55122,81.261618 134.34786,81.354338 135.22022,81.447218 136.09257,81.540098 136.88738,81.638588 137.45335,81.638588 138.27788,81.638588 138.56413,81.269918 138.84573,81.013648 139.12735,80.757358 139.35522,80.484518 139.55978,80.221768 139.96889,79.696258 140.27831,79.192198 140.27831,79.192198 L 140.28308,79.184788 140.28753,79.177048 C 140.28753,79.177048 140.50017,78.823878 140.71435,78.380028 140.92855,77.936188 141.21449,77.507918 141.21449,76.670838 141.21449,76.072458 141.21071,75.683438 141.3512,74.536118 141.39437,74.183438 141.56294,73.364488 141.71851,72.549678 141.87408,71.734858 142.03456,70.955838 142.01474,70.193988 141.99074,69.272178 141.82015,68.366748 141.82015,68.366748 L 141.80116,68.260618 141.76482,68.158978 C 141.76482,68.158978 141.61173,67.730138 141.39752,67.219148 141.18329,66.708148 140.95348,66.143828 140.55965,65.612228 V 65.612228 C 139.88176,64.697218 138.55326,63.059058 138.55326,63.059058 L 138.53203,63.032998 135.88687,60.090001 C 135.83673,60.023257 134.62668,58.41373 133.82966,57.62625 132.49907,56.311599 130.52737,53.955021 130.51421,53.939294 L 127.1193,49.608754 124.51853,45.83045 122.35261,42.9537 120.45526,41.365137 119.64151,41.062473 C 119.92756,40.873454 120.23205,40.606739 120.48871,40.148041 121.12325,39.014043 121.29033,37.755399 121.23909,36.606793 121.20974,35.949196 121.02064,35.451238 120.86117,35.001499 120.70392,34.558051 120.55442,34.21588 120.55014,34.206081 120.54899,34.203447 120.342,33.713097 120.03616,33.13695 119.75127,32.60026 119.43068,31.995607 118.86314,31.458324 118.86364,31.444327 118.87429,31.473969 118.86479,31.408147 118.83989,31.236221 118.75197,30.846672 118.53575,30.460911 118.51357,30.366204 118.49041,30.273094 118.45663,30.20714 118.51582,30.03841 118.6615,29.668556 118.64286,29.128359 118.56952,27.002974 117.54349,24.461692 117.54349,24.461692 L 117.52227,24.40412 116.29489,21.862212 C 116.25707,21.762861 115.06691,18.639767 114.04052,16.840461 113.62667,16.114953 113.01915,15.405214 112.48636,14.800624 111.95357,14.196035 111.49893,13.729566 111.49893,13.729566 L 111.48542,13.715733 108.77818,11.099518 105.86027,8.899506 105.78179,8.855762 C 105.78179,8.855762 105.06386,8.455782 104.15012,8.021108 103.23637,7.586435 102.17007,7.101893 101.13378,6.914026 99.540241,6.625134 98.278676,7.071134 97.429141,7.043647 96.753174,7.021774 95.235588,6.815798 94.965706,6.778938 L 93.951255,6.317706 91.471738,4.485006 C 91.409994,4.426369 91.353165,4.722549 90.834307,4.277998 90.270702,3.795108 89.614155,3.246137 88.909617,2.870827 87.751644,2.253966 87.771433,2.0639947 86.434928,1.6933626 85.098425,1.3227296 82.372309,1.2823541 82.372309,1.2823541 L 79.279542,0.9577852 75.616517,0.65943755 Z M 121.03506,44.579804 122.76291,46.678596 125.73787,50.927759 129.25621,54.998307 129.89791,55.822463 C 129.89791,55.822463 131.60245,57.708606 133.12211,59.21007 133.48578,59.569367 135.35375,61.695842 135.35375,61.695842 L 137.57952,64.046192 C 138.64629,64.885527 140.90086,69.475021 140.63026,69.475021 140.63026,69.475021 140.00188,76.924186 139.14838,78.381641 138.29487,79.839096 135.59591,80.371245 134.55489,80.257305 133.84956,80.182215 130.2321,77.591778 130.2321,77.591778 130.1602,77.536398 128.20229,75.923828 127.17793,74.987458 126.07737,73.981448 122.41678,71.670871 123.17971,71.313779 L 120.49561,68.365815 118.16797,65.869881 C 118.14185,65.837161 116.64994,63.934245 116.29577,63.304297 115.98479,62.751188 115.12563,60.666912 115.01977,60.418641 L 114.82312,58.164785 C 114.82312,58.164785 114.48017,57.848809 114.3942,57.530583 114.30823,57.21234 115.63376,56.690559 115.0843,56.210387 114.49729,55.697378 113.9548,56.098406 111.81207,56.120795 109.66933,56.143184 109.23278,55.884769 108.26069,56.078975 107.45918,56.239093 106.8534,56.814027 106.42259,57.102166 105.99178,57.390289 105.14104,56.992023 104.10969,57.070336 103.17829,57.373676 101.35389,56.928122 101.35389,56.928122 L 98.489231,56.473195 94.114866,56.836095 90.480233,56.428232 85.282811,57.379842 C 84.475785,58.862575 84.42254,61.339429 82.995312,61.90465 81.281941,62.469871 77.880895,62.008936 75.465149,61.673707 73.049404,61.338477 72.183112,62.118254 70.999993,62.616406 69.975843,62.669447 69.509339,63.713031 67.794491,63.731058 66.214572,64.153873 65.925718,64.187832 65.303046,64.126985 64.75407,64.073341 61.20641,62.550639 61.20641,62.550639 L 57.817457,60.897369 54.834877,59.753649 52.574159,58.410563 C 51.254798,57.4187 50.404164,57.351467 47.754851,56.261615 44.700751,55.71148 44.25738,54.986426 44.11877,54.908417 L 41.838575,53.84756 39.522676,52.336166 37.427291,50.794599 C 36.875339,50.148718 36.356592,49.427694 36.13959,48.558512 L 34.175833,45.827707 31.654447,41.138487 29.898415,39.149515 27.530984,36.712574 24.575769,34.494514 C 24.408459,35.965615 23.690339,35.631918 22.028307,35.634508 20.406745,36.978827 18.155701,38.226456 16.534139,38.562481 L 13.418935,38.324095 C 11.36882,38.189191 9.0429555,37.512538 7.0488949,36.491504 6.2020248,34.835146 8.4240747,30.112386 8.9020177,27.46319 9.5790047,25.45094 10.01015,23.353131 10.384336,21.926736 L 11.957857,17.058969 C 12.876425,15.46642 12.460783,14.408278 14.025207,12.685571 L 17.622221,12.983777 C 18.530643,14.418121 21.442397,16.90974 21.442397,16.90974 L 22.460853,16.714875 23.146083,14.915411 C 23.146083,14.915411 24.115873,13.082581 24.468228,12.81831 24.820582,12.554041 24.930727,12.071198 25.299202,11.605787 25.791037,11.272064 26.267215,10.15058 27.096535,9.5112001 28.231463,8.9100191 28.774302,7.9264828 29.609725,7.7619858 30.245245,6.7728808 35.768803,4.8906955 36.388579,4.9699787 38.987001,4.2466419 43.266864,3.1396337 45.649962,2.5583903 L 52.144349,1.8132788 58.105014,1.502698 60.624741,1.5359466 C 60.624741,1.5359466 64.220431,1.1535591 65.04752,1.1609771 65.536308,1.0868971 66.122245,1.183496 68.293301,1.1032264 70.787851,1.0613979 71.475095,1.3955289 72.730789,1.520832 L 74.542555,1.5634224 76.87272,1.8206621 79.976488,1.9895578 82.151399,2.1663153 C 82.995704,2.0941282 84.354932,2.529878 85.567077,2.866025 86.831129,3.216565 87.51743,3.3926703 88.257346,3.7868293 88.543825,3.9394373 89.430105,4.5739224 89.936614,5.0078934 90.443123,5.4418644 90.875735,5.6771023 90.875735,5.6771023 L 91.249977,6.0484526 93.567156,7.49676 94.910211,7.8832591 C 94.910211,7.8832591 96.892342,8.1726036 98.019685,8.2090806 99.513935,8.2574266 101.12268,8.5390392 101.8381,8.6687372 102.3102,8.7543232 103.00748,9.5285586 103.83987,9.9245276 104.63618,10.303339 105.75386,10.829678 105.75386,10.829678 L 108.11606,12.904118 110.08728,14.924356 C 110.08728,14.924356 110.94718,15.839637 111.43075,16.388371 111.91716,16.940334 112.52599,17.699181 112.7211,18.041204 113.52123,19.443869 115.02168,22.480294 115.02168,22.480294 L 116.41588,25.405321 C 116.43738,25.468525 116.94084,27.920095 117.48706,30.59084 118.03328,33.261585 120.13872,35.28441 119.84717,38.127991 118.97111,39.397865 118.40854,40.744455 118.40854,40.744455 118.40854,40.744455 118.14733,41.217006 118.77173,42.186691 119.3571,42.491309 121.03506,44.579804 121.03506,44.579804 Z M 138.48728,79.937046 C 138.48728,79.937046 138.48563,79.938856 138.4853,79.939356 138.43134,79.988476 138.42106,79.966966 138.48728,79.937046 Z"
                                        style="color:#000000;font-style:normal;font-variant:normal;font-weight:normal;font-stretch:normal;font-size:medium;line-height:normal;font-family:sans-serif;text-indent:0;text-align:start;text-decoration:none;text-decoration-line:none;text-decoration-style:solid;text-decoration-color:#000000;letter-spacing:normal;word-spacing:normal;text-transform:none;writing-mode:lr-tb;direction:ltr;baseline-shift:baseline;text-anchor:start;white-space:normal;clip-rule:nonzero;display:inline;overflow:visible;visibility:visible;opacity:1;isolation:auto;mix-blend-mode:normal;color-interpolation:sRGB;color-interpolation-filters:linearRGB;solid-color:#000000;solid-opacity:1;fill:none;fill-opacity:1;fill-rule:evenodd;stroke:#000000;stroke-width:0.1;stroke-linecap:butt;stroke-linejoin:miter;stroke-miterlimit:4;stroke-dasharray:none;stroke-dashoffset:0;stroke-opacity:1;color-rendering:auto;image-rendering:auto;shape-rendering:auto;text-rendering:auto;enable-background:accumulate"
                                        sodipodi:nodetypes="ccccccccsccccccccccccccccccccccccccscccscccccccccccscccccccccccccccccccccsccccccsccccccccccccccccccccccccccccsccccscccccccccccsccccccccccccccccccccccccccccccccccccccccscccccccccccccccccccccccccccccccccccccccccccccscccccccccccccccccccccc" /><path
                                        sodipodi:nodetypes="ccccccccccccccccccccccccccccccccccccccccccccccccccccccccccccccccccccccccccccccccccccccccccccccccccccccccccccccccccccccccccccccccccccccccccccccccccccccccccccccccccccc"
                                        inkscape:connector-curvature="0"
                                        d="M 24.600332,19.500617 C 25.077627,20.749861 25.710874,20.678336 25.770907,20.805952 25.838481,20.967709 25.929706,21.115212 26.016757,21.265322 26.082764,21.405897 26.16515,21.532802 26.239175,21.667655 26.302549,21.805314 26.390786,21.927024 26.484584,22.042609 26.57947,22.145745 26.667271,22.246619 26.733358,22.372996 26.828899,22.498935 26.925625,22.629412 27.00233,22.769587 27.100691,22.894742 27.191141,23.024053 27.283491,23.153419 27.352869,23.264028 27.431614,23.366926 27.513888,23.466944 27.605553,23.57378 27.702552,23.67533 27.797993,23.778355 27.962957,23.924054 28.056969,24.131618 28.205593,24.292008 28.376356,24.466452 28.516577,24.675804 28.695778,24.840878 28.802404,24.979194 28.93294,25.088764 29.043647,25.221521 29.165318,25.305224 29.27137,25.409417 29.385777,25.505772 29.596454,25.679413 29.817271,25.839129 30.02429,26.01895 30.255756,26.19436 30.471485,26.396493 30.670591,26.61206 30.825162,26.745345 30.967194,26.891627 31.093471,27.055243 31.21384,27.138856 31.268005,27.281455 31.360438,27.392539 31.44281,27.526899 31.556799,27.63357 31.649488,27.760275 31.803899,27.912699 31.930032,28.093687 32.084741,28.245837 32.301201,28.495929 32.556949,28.705353 32.813677,28.906848 33.000132,29.075733 33.187634,29.244653 33.356015,29.433662 33.444671,29.549976 33.531592,29.670245 33.604674,29.798263 33.682576,29.926152 33.776344,30.044179 33.850323,30.176954 33.984305,30.365069 34.123885,30.548098 34.262425,30.733024 34.396212,30.928248 34.512863,31.133078 34.626387,31.342265 34.761186,31.527446 34.873068,31.730655 34.983346,31.933262 35.053867,32.060658 35.163421,32.137272 35.220423,32.276152 35.242394,32.396623 35.318587,32.485376 35.362092,32.59728 35.42191,32.747115 35.481811,32.898993 35.550999,33.044691 35.647708,33.223345 35.720831,33.416729 35.826642,33.589606 35.920664,33.764487 36.009697,33.940845 36.099372,34.118425 36.142142,34.222125 36.198024,34.312172 36.267579,34.397243 36.342865,34.470102 36.336634,34.585285 36.37705,34.675315 36.443884,34.797936 36.470888,34.936507 36.520983,35.065708 36.584884,35.178906 36.628002,35.30089 36.663328,35.426846 36.68466,35.491793 36.685618,35.560569 36.687455,35.628523 36.674348,35.725425 36.727204,35.796642 36.769157,35.878924 36.808946,35.98257 36.830007,36.090955 36.838572,36.201928 36.880645,36.316821 36.92999,36.42681 36.964701,36.545312 36.976927,36.66509 36.999975,36.766566 37.058327,36.869974 37.110864,36.953022 37.135676,37.054335 37.148431,37.152548 37.157574,37.246606 37.156094,37.34132 37.156905,37.435761 37.165062,37.490336 37.128981,37.569209 37.180874,37.593708 37.229382,37.667314 37.276,37.742852 37.297787,37.829964 37.314206,37.917095 37.313203,38.005976 37.312603,38.094365 37.309009,38.2047 37.370403,38.305247 37.415886,38.401674 37.453876,38.464506 37.461294,38.537748 37.46777,38.610333 37.472527,38.64894 37.470571,38.687547 37.470166,38.726318 37.470518,38.77856 37.469814,38.830785 37.469285,38.883027 37.470166,38.947682 37.468932,39.012319 37.469172,39.076993 37.469525,39.149032 37.469348,39.221087 37.46882,39.293126 37.468915,39.391868 37.468468,39.490592 37.469172,39.589316 37.469525,39.673676 37.46882,39.758036 37.46882,39.842396 37.470053,39.9189 37.468997,39.995404 37.469172,40.071908 37.470053,40.137475 37.468997,40.203024 37.469525,40.268591 37.46794,40.343381 37.470405,40.418189 37.469172,40.492998 37.469525,40.562083 37.469299,40.63115 37.469128,40.700217 37.468952,40.748959 37.470713,40.797665 37.469481,40.846388 37.469657,40.908164 37.469305,40.96994 37.469128,41.031733 37.469236,41.113851 37.469305,41.195969 37.468776,41.278087 37.469657,41.370395 37.468663,41.462704 37.469128,41.555011 37.47001,41.623859 37.469032,41.692689 37.469481,41.761537 37.470362,41.817643 37.469128,41.87375 37.469577,41.929893 37.470811,41.967497 37.469754,42.005047 37.46947,42.042634 37.470351,42.104391 37.469117,42.166112 37.469294,42.227869 37.480886,42.321544 37.502498,42.42313 37.451783,42.494475 37.423735,42.676356 37.432824,42.613287 37.423735,42.676356 37.415913,42.748796 37.423618,42.88301 37.423618,42.88301 37.362897,42.951166 37.414862,42.99422 37.390642,43.083885 37.36919,43.163068 37.369589,43.300673 37.367271,43.382281 37.368504,43.472948 37.365351,43.700327 37.323966,43.782445 37.286056,43.846536 37.309503,44.165839 37.290185,44.239008 37.283507,44.326959 36.966387,43.886728 36.917063,43.954665 36.870854,43.997921 36.889653,43.819667 36.879738,43.882263 36.886204,43.971417 36.960838,43.90441 36.911046,43.969649 36.894945,43.998851 37.091709,43.551804 36.869145,43.923221 36.864987,43.964454 36.961603,43.885088 36.962395,43.926502 36.962303,43.994312 36.930161,43.875172 36.930161,43.942909 36.928927,44.000418 36.950534,43.717078 36.951063,43.774607 L 36.495046,43.337276 36.558808,43.381261 C 36.559161,43.323878 36.549067,43.49741 36.547833,43.440046 36.547657,43.373221 36.419954,43.240411 36.41872,43.173604 37.130393,41.984942 36.577965,43.501347 36.577247,43.456288 36.567382,43.398741 36.474355,43.230057 36.491987,43.330567 36.502892,43.314527 36.931327,42.581278 36.579978,43.36717 36.639752,43.003389 36.978731,42.68372 36.563031,43.351494 36.568351,43.35441 36.500149,43.338916 36.500501,43.332554 36.507777,43.261209 36.425435,43.300983 36.464946,43.244731 36.511402,43.190046 36.479197,43.301749 36.483661,43.229237 36.498565,43.13744 36.411626,43.244548 36.482957,43.182226 36.546019,43.105704 36.482253,43.347101 36.474325,43.230221 36.473444,43.140702 36.400047,43.236601 36.413709,43.148268 36.435482,43.043619 36.42849,43.195241 36.42849,43.195241 36.494593,43.226029 36.289814,43.081879 36.301638,43.030148 36.307505,42.959806 36.000481,42.976903 36.053939,42.928654 36.098781,42.876229 35.771655,42.947483 35.76816,42.879856 35.768336,42.818172 35.406834,42.703918 35.438538,42.573859 L 35.24714,42.615164 C 35.034948,42.537002 36.277631,42.22796 36.27808,42.1718 36.278961,42.102806 36.288351,42.154848 36.289055,42.085799 36.289408,41.993363 36.458916,41.812958 36.459444,41.720523 36.458563,41.638588 36.458563,41.556633 36.459091,41.474679 36.458916,41.413032 36.458211,41.351383 36.458739,41.289717 36.457506,41.240866 36.45962,41.192014 36.459091,41.143144 36.458921,41.074077 36.458739,41.005029 36.45905,40.935962 36.457816,40.861263 36.460283,40.786564 36.458698,40.711864 36.45905,40.646206 36.458345,40.580566 36.45905,40.514909 36.459402,40.438241 36.458168,40.361573 36.459402,40.284886 36.459371,40.200691 36.458521,40.116457 36.45905,40.032262 36.45993,39.933392 36.459402,39.83454 36.459402,39.735689 36.458521,39.663815 36.458521,39.591922 36.45905,39.520048 36.459226,39.455356 36.458168,39.390683 36.459046,39.32599 36.45887,39.273603 36.458165,39.22127 36.459398,39.1689 36.459322,39.132827 36.459342,39.096917 36.45975,39.060843 36.45776,39.001291 36.457355,38.944 36.426393,38.892104 36.376498,38.779709 36.30651,38.661882 36.304405,38.53669 36.303523,38.456249 36.305638,38.37548 36.296776,38.295422 36.290346,38.232462 36.24613,38.174587 36.210161,38.126629 36.144203,38.049195 36.138405,37.978998 36.146696,37.878378 36.147929,37.787893 36.148687,37.697317 36.143894,37.606942 36.137975,37.523128 36.118128,37.438368 36.073454,37.367896 36.013252,37.255721 35.972953,37.148538 35.96863,37.018261 35.934595,36.890318 35.879054,36.774531 35.832422,36.651601 35.827912,36.556413 35.815492,36.462428 35.782104,36.373037 35.734625,36.277047 35.667136,36.18525 35.677148,36.072836 35.678028,36.01447 35.680741,35.955064 35.665644,35.898392 35.635803,35.775497 35.593078,35.659438 35.532134,35.549741 35.47972,35.423146 35.456467,35.284775 35.388252,35.16425 35.351259,35.081112 35.353017,34.982825 35.290482,34.91323 35.21853,34.819974 35.158648,34.722763 35.115371,34.610733 35.028617,34.435122 34.939623,34.261735 34.847635,34.089369 34.74315,33.911297 34.663322,33.718042 34.56655,33.535158 34.494931,33.387564 34.434245,33.232113 34.371858,33.080454 34.32897,32.970283 34.247208,32.882496 34.230753,32.761297 34.177806,32.630928 34.051314,32.562317 34.002049,32.428194 33.8938,32.224621 33.778394,32.024439 33.646378,31.837309 33.534613,31.633535 33.421432,31.432769 33.289683,31.242685 33.149612,31.053239 33.003133,30.869626 32.869826,30.674894 32.793197,30.544817 32.696921,30.429215 32.622259,30.298773 32.549592,30.179725 32.472476,30.062936 32.386405,29.954624 32.217559,29.774475 32.044007,29.600195 31.857217,29.440662 31.600641,29.231255 31.341308,29.020992 31.11967,28.769626 30.965275,28.609946 30.827382,28.433461 30.674308,28.272251 30.578448,28.150304 30.4693,28.039713 30.385193,27.908178 30.296125,27.793249 30.232095,27.660019 30.117657,27.568221 29.995123,27.406483 29.848947,27.270281 29.70338,27.132312 29.507714,26.919097 29.29143,26.725458 29.065046,26.549957 28.855714,26.37245 28.633701,26.214321 28.422215,26.040332 28.304064,25.940769 28.186124,25.841079 28.06951,25.739931 27.960164,25.612315 27.836772,25.498935 27.730733,25.367528 27.556794,25.192282 27.407288,24.990368 27.237105,24.810984 27.094491,24.646019 26.991662,24.447203 26.828473,24.301323 26.729105,24.197605 26.63023,24.093284 26.536982,23.983314 26.456557,23.879904 26.376969,23.775877 26.306796,23.664283 26.208076,23.533842 26.120352,23.396547 26.020526,23.266725 25.940681,23.12655 25.840862,22.999408 25.74863,22.868202 25.686187,22.749263 25.592488,22.661019 25.510087,22.557757 25.413939,22.43601 25.322944,22.308541 25.256024,22.165796 25.179687,22.032967 25.10313,21.903674 25.036735,21.76452 24.946373,21.612679 25.036735,21.76452 24.785042,21.296856 24.723277,21.16986 23.886649,21.122271 23.428757,19.962454 22.970865,18.802639 21.490136,17.623521 21.796485,16.989421 22.102835,16.355322 24.123037,18.251373 24.600332,19.500617 Z"
                                        id="path16312"
                                        style="opacity:1;fill:none;fill-opacity:1;fill-rule:nonzero;stroke:#000000;stroke-width:0.10881621;stroke-linecap:butt;stroke-linejoin:miter;stroke-miterlimit:4;stroke-dasharray:none;stroke-opacity:1" /><path
                                        sodipodi:nodetypes="ccccccccccccccccccccccccccccccccccccccccccccccccccccccccccccccccccccccccccccccccccccccccccccccccccccccccccccccccccccccccccccccccc"
                                        inkscape:connector-curvature="0"
                                        d="M 94.757166,10.570385 C 94.808039,10.712653 94.698466,10.992668 94.726131,11.141851 94.751672,11.30058 94.674662,11.680891 94.676491,11.841453 94.658082,11.978623 94.670925,12.485328 94.717902,12.608788 94.767854,12.761248 94.754105,12.743298 94.759575,12.902493 94.764499,13.08509 94.822919,13.486381 94.822162,13.669026 94.804088,13.88311 94.813055,13.866576 94.862907,14.073199 94.91208,14.27475 94.911858,14.65982 94.922409,14.866706 94.929358,15.052662 94.929128,15.23875 94.929951,15.424805 94.929933,15.578599 94.929128,15.732393 94.929622,15.886187 94.929292,16.050174 94.929292,16.214179 94.928469,16.378166 94.928634,16.538976 94.929292,16.699785 94.928798,16.860611 94.928469,17.0315 94.927975,17.202404 94.928892,17.373309 94.927739,17.547226 94.928843,17.721128 94.928563,17.895029 94.928727,18.050305 94.929386,18.205582 94.928892,18.360841 94.928922,18.532462 94.928727,18.704074 94.928069,18.875703 94.929221,19.05965 94.927904,19.243597 94.928398,19.42756 94.928069,19.629325 94.928069,19.83109 94.927245,20.032855 94.927575,20.251895 94.92741,20.470919 94.92741,20.689942 94.928233,20.86223 94.928892,21.034517 94.928563,21.206805 94.926702,21.398129 94.928233,21.58947 94.928233,21.780795 94.928378,21.988752 94.92741,22.196709 94.927081,22.404666 94.92741,22.644686 94.926257,22.884706 94.92741,23.12471 94.903734,23.327595 94.862897,23.522526 94.830883,23.724241 94.807319,23.891473 94.783194,24.060599 94.781662,24.229297 94.782486,24.442886 94.713768,24.648471 94.677493,24.857449 94.662145,25.100516 94.624064,25.335991 94.571963,25.573278 94.516033,25.798295 94.518495,26.032041 94.479089,26.259167 94.424705,26.463847 94.390547,26.672743 94.322179,26.873157 94.257552,27.034708 94.233237,27.207275 94.170149,27.36904 94.103577,27.545066 94.05555,27.727399 93.996748,27.906537 93.934245,28.124671 93.847295,28.330586 93.802752,28.554171 93.730216,28.797205 93.669752,29.043434 93.597735,29.286665 93.542697,29.544767 93.447707,29.790551 93.386341,30.046775 93.302236,30.287487 93.25091,30.536894 93.185096,30.782596 93.118519,31.009935 93.042304,31.234393 92.942164,31.448658 92.822813,31.666759 92.736198,31.900192 92.647762,32.132406 92.532157,32.411027 92.487886,32.711089 92.415586,33.00277 92.344513,33.302898 92.260344,33.600885 92.156644,33.891033 92.084557,34.115228 92.021185,34.341267 91.947256,34.565033 91.863175,34.782344 91.764073,34.992821 91.675805,35.208188 91.607797,35.394589 91.528842,35.577268 91.44818,35.758332 91.365681,35.940451 91.177268,36.525886 91.103547,36.711941 90.993836,36.920672 91.063926,36.753918 90.992906,36.976861 90.924455,37.189528 90.827507,37.390996 90.759127,37.603466 90.682752,37.838414 90.580719,38.063283 90.500212,38.296552 90.431952,38.550504 90.339855,38.797292 90.248842,39.043521 90.155561,39.31702 90.070473,39.593418 89.962028,39.861104 89.870513,40.108453 89.774999,40.354055 89.669409,40.595442 89.572761,40.809986 89.456095,41.013102 89.341283,41.217601 89.251419,41.385277 89.119473,41.522323 89.021726,41.684302 88.91734,41.844782 88.832331,42.016872 88.730592,42.178966 88.597248,42.390496 88.45318,42.593941 88.322568,42.807432 88.17971,43.030803 88.077822,43.276735 87.927301,43.494918 87.785055,43.699664 87.664147,43.919099 87.53533,44.13282 87.414513,44.304268 87.306205,44.484032 87.191672,44.65986 87.0827,44.812666 86.971786,44.963249 86.854,45.108974 86.7412,45.260742 86.649902,45.426772 86.538812,45.579792 86.445785,45.716838 86.332183,45.836428 86.232632,45.968073 86.148829,46.089903 86.037815,46.186059 85.932913,46.287864 85.801769,46.390574 85.691725,46.514034 85.584716,46.641694 85.4528,46.813619 81.447284,57.131303 81.296007,57.283994 81.118789,57.460547 79.955546,57.87559 79.709396,57.768129 81.677572,58.781486 84.600879,47.289654 84.619982,46.970937 84.728891,46.840313 84.833079,46.707598 84.960496,46.59728 85.078779,46.522943 85.17133,46.404588 85.267704,46.303986 85.366701,46.167038 85.483628,46.051911 85.575339,45.909875 85.703532,45.771149 85.778653,45.597429 85.89127,45.446006 85.991094,45.28826 86.129668,45.157422 86.231616,44.999478 86.349761,44.826054 86.450047,44.641663 86.577392,44.475024 86.714048,44.263378 86.831067,44.039595 86.969055,43.829185 87.131352,43.619087 87.228814,43.375164 87.367718,43.149438 87.498544,42.93598 87.634724,42.727167 87.771454,42.518848 87.879864,42.362205 87.955768,42.188649 88.062567,42.03138 88.153434,41.862666 88.278857,41.724665 88.383527,41.564975 88.497347,41.361185 88.618034,41.163998 88.718111,40.952154 88.820369,40.709796 88.928344,40.469693 89.011848,40.219463 89.121352,39.953012 89.215169,39.68134 89.30047,39.405552 89.38846,39.159224 89.487837,38.915565 89.552566,38.661975 89.625363,38.426796 89.72822,38.203936 89.810882,37.972298 89.870267,37.754328 89.974266,37.555066 90.041488,37.339732 90.131882,37.125237 90.148376,36.880112 90.270904,36.676766 90.338656,36.485935 90.421488,36.30133 90.492202,36.111586 90.583862,35.938854 90.649225,35.749077 90.725047,35.568935 90.804044,35.351146 90.909876,35.145198 90.996886,34.930786 91.072973,34.705653 91.14309,34.480816 91.208241,34.25229 91.318164,33.967478 91.401187,33.671681 91.472416,33.374648 91.545848,33.07951 91.590728,32.776797 91.699092,32.491951 91.791996,32.259374 91.866772,32.018876 91.986275,31.798157 92.104587,31.599734 92.165458,31.369924 92.236815,31.150654 92.318481,30.912972 92.339617,30.654195 92.442246,30.421487 92.497476,30.160717 92.59783,29.915938 92.65178,29.654871 92.721851,29.41416 92.776444,29.169957 92.859515,28.933312 92.897437,28.703239 92.976979,28.493355 93.047062,28.274002 93.10207,28.091686 93.160845,27.911527 93.216252,27.730165 93.280579,27.568483 93.315036,27.40331 93.371314,27.237725 93.441167,27.040521 93.480839,26.839415 93.533105,26.636184 93.589919,26.412632 93.62785,26.054882 93.687134,25.830144 93.736352,25.593928 93.790661,25.6018 93.793466,25.358338 93.823788,25.152719 93.813692,24.8933 93.821735,24.68615 93.823596,24.513088 93.902691,24.319491 93.926155,24.147681 93.95237,23.948634 93.94381,23.716683 93.98994,23.522032 93.991093,23.281896 93.989858,23.041761 93.990269,22.801642 93.989446,22.594031 93.988787,22.386436 93.989117,22.178841 93.988952,21.987648 93.990269,21.796439 93.988787,21.605247 93.988458,21.43263 93.989611,21.260013 93.98994,21.087396 93.989966,20.868306 93.989854,20.649217 93.990105,20.430111 93.989281,20.228626 93.989281,20.027141 93.988952,19.825656 93.989775,19.641594 93.988128,19.457532 93.989281,19.273453 93.988458,19.102088 93.988128,18.930722 93.988458,18.759357 93.988128,18.603999 93.988563,18.448648 93.988787,18.29329 93.988458,18.119471 93.989611,17.945668 93.988458,17.771866 93.989281,17.600945 93.988787,17.430008 93.988543,17.259087 93.988214,17.098146 93.988873,16.937203 93.988873,16.776278 93.988543,16.612455 93.988543,16.448649 93.988049,16.284842 93.988873,16.13095 93.988379,15.977073 93.989202,15.82318 93.990355,15.638509 93.990684,15.453755 93.985168,15.26915 93.976505,15.068653 93.961304,14.868304 93.914146,14.672763 93.862116,14.458203 93.862728,14.249686 93.883279,14.026809 93.882949,13.845431 93.844365,13.664053 93.840923,13.482692 93.836411,13.33504 93.834122,13.185297 93.790767,13.042965 93.7415,12.909772 93.715531,12.706673 93.735976,12.558989 93.734494,12.403844 93.69591,12.327334 93.673461,12.173474 93.647805,12.020922 93.596503,11.877791 93.541525,11.733944 93.532006,11.626896 93.518746,11.519704 93.45491,11.43038 93.398036,11.324999 93.391225,11.223316 93.380579,11.104294 93.343308,10.936132 93.287454,10.775243 93.221019,10.616756 93.188905,10.465096 91.249977,6.0484526 91.249977,6.0484526 91.791782,5.867851 95.683446,10.078053 94.757166,10.570385 Z"
                                        id="path16316"
                                        style="opacity:1;fill:none;fill-opacity:1;fill-rule:nonzero;stroke:#000000;stroke-width:0.1;stroke-linecap:butt;stroke-linejoin:miter;stroke-miterlimit:4;stroke-dasharray:none;stroke-opacity:1" /><path
                                        sodipodi:nodetypes="sscscsssscccssssssscscsss"
                                        inkscape:connector-curvature="0"
                                        id="path5402"
                                        d="M 105.85718,42.769753 C 104.67699,42.736488 103.49678,42.673317 103.23451,42.62938 101.7427,42.379512 100.26597,42.023723 99.712661,41.780854 99.376701,41.633383 98.994547,41.48695 98.863413,41.455447 98.51062,41.370687 97.794314,40.996865 97.222119,40.598868 96.944635,40.405863 96.460198,40.119008 96.145611,39.961394 95.24465,39.510024 94.569267,39.037823 93.497452,38.109904 92.950271,37.636187 92.324408,37.11753 92.106636,36.957297 91.888864,36.79708 91.609699,36.559893 91.486256,36.430224 L 91.261814,36.194469 91.402944,35.776562 C 91.645254,35.296539 92.306952,33.361787 92.418077,32.968516 92.459297,32.822643 92.664569,33.205309 92.927628,34.001698 93.403733,35.443087 94.12096,36.881034 94.636786,37.428428 95.232134,38.060187 96.075902,38.677768 97.43286,39.47498 100.05442,41.015128 101.31753,41.442273 104.47381,41.856046 105.24894,41.957653 109.18011,41.906306 110.18856,41.781413 110.73495,41.71373 111.57539,41.621362 112.05622,41.576141 113.3922,41.450474 114.42347,41.294737 115.28723,41.091045 115.71742,40.989602 117.14007,40.502903 117.95111,40.303466 118.47911,40.189227 118.5458,41.824391 118.5458,41.954471 118.5458,42.209313 117.1725,41.694199 116.69045,42.061064 116.20841,42.427928 114.57968,42.41785 113.24152,42.501754 112.03058,42.577704 109.47648,42.756727 108.67853,42.796546 108.307,42.815089 107.03739,42.802969 105.85718,42.769753 Z"
                                        style="opacity:1;fill:none;fill-opacity:1;stroke:#000000;stroke-width:0.1;stroke-miterlimit:4;stroke-dasharray:none;stroke-opacity:1" /></g><g
                           inkscape:label="EFO"
                           id="LAYER_EFO"
                           inkscape:groupmode="layer"
                           transform="translate(-5.7226608,0.12594381)"><path
                                        transform="rotate(16.010135)"
                                        style="opacity:1;fill:none;fill-opacity:0.98963731;fill-rule:evenodd;stroke:none;stroke-width:0.25799999;stroke-miterlimit:4;stroke-dasharray:none;stroke-opacity:1"
                                        d="M 16.594877,7.0732926 C 17.764439,7.1017381 18.76018,7.5099959 20.470123,6.3576641 21.855824,7.9661508 23.526801,9.1320432 25.774789,9.4027251 25.50828,-1.3961684 34.861717,-6.5831265 46.171946,-11.885428 L 64.41189,-18.560667 C 68.897339,-19.501799 75.033951,-20.779861 81.087344,-21.787603 L 80.647659,44.974117 C 75.410855,44.842063 66.219777,43.635991 66.557704,43.318804 66.711712,42.8678 57.95459,42.174455 53.55281,41.434064 47.656667,39.510393 45.785234,37.343024 42.956601,34.994741 38.458381,29.481183 35.434867,29.107105 32.360391,28.555418 32.336591,28.600419 28.321801,33.134765 26.405569,33.53314 24.10165,34.251769 17.805779,34.962695 15.606208,33.440436 15.372859,29.050936 15.059792,18.251307 15.064012,13.243394 15.068232,8.2354804 16.594877,7.0732926 16.594877,7.0732926 Z"
                                        id="overlay"
                                        inkscape:connector-curvature="0"
                                        sodipodi:nodetypes="ccccccccccccccc" /><path
                                        inkscape:label="UBERON_0001896"
                                        sodipodi:nodetypes="ssssssssscsssssscscsss"
                                        inkscape:connector-curvature="0"
                                        id="UBERON_0001896"
                                        d="M 134.6117,80.098881 C 133.76364,79.901841 133.00822,79.495698 130.97052,78.013078 128.55618,76.256398 123.18683,71.725192 123.18683,71.725192 123.1305,70.939214 121.75628,69.558376 120.00786,67.746576 117.36903,65.012116 117.05236,64.590649 115.94759,62.849798 114.96026,61.29401 114.88152,59.046799 114.55138,57.940918 114.30662,57.121024 115.63793,56.605521 115.09178,56.312082 113.25297,55.324133 114.05449,55.671259 114.62862,55.249105 115.0858,54.912945 116.24333,53.737424 117.00166,53.210571 118.44655,52.206718 120.84391,50.766496 121.01322,50.020869 121.17256,49.319248 122.60235,46.877413 122.75963,46.877413 122.82993,46.877413 122.86295,46.773969 123.27266,47.47186 124.61991,49.766769 127.33423,52.953835 129.11283,54.911403 131.36018,57.384857 133.0002,58.998517 134.70027,61.074806 135.44904,61.989283 136.86669,63.395779 137.74071,64.310249 139.077,65.708399 139.74514,67.507917 140.27668,68.729037 140.87618,70.106277 140.45389,70.205794 140.35692,71.484384 140.30072,72.225864 140.14386,73.642456 139.95344,74.412546 139.69717,75.448966 139.58749,75.906151 139.65934,76.813021 139.65934,76.813021 139.45545,77.84247 139.31977,78.22901 139.19618,78.58111 137.9557,79.348624 137.9557,79.348624 136.61925,80.770994 135.8107,80.377461 134.6117,80.098881 Z"
                                        style="fill:none;fill-opacity:1;stroke:#000000;stroke-width:0.1;stroke-miterlimit:4;stroke-dasharray:none;stroke-opacity:1"><title
                                                     id="medulla oblongata">medulla oblongata</title></path><path
                                        sodipodi:nodetypes="ssscccssssscscsssssssssssssscssssssccs"
                                        inkscape:label="UBERON_0000956"
                                        inkscape:connector-curvature="0"
                                        id="UBERON_0000956"
                                        d="M 35.153204,32.028563 C 34.162245,30.883257 33.948365,30.386432 32.029019,28.142485 31.346387,27.344406 29.635528,25.627552 28.798738,24.773515 27.995577,23.953802 25.102857,20.358134 24.55259,19.201954 24.299626,18.670443 23.185615,17.635697 22.769045,17.233112 22.352475,16.830528 22.415873,17.012357 22.83137,15.639031 23.218888,14.358183 25.728183,11.162642 27.587969,9.1834821 28.001244,8.7436797 32.909773,5.5755641 35.107564,5.2318177 37.001842,4.9355423 40.852712,3.5991718 43.724455,3.0059628 45.412969,2.6571707 49.879681,2.1159326 51.578012,1.8789455 54.911401,1.4138007 60.214419,1.728635 63.408451,1.367497 63.499067,1.3572513 65.912245,0.71760755 74.542555,1.5634224 79.414293,1.8166353 81.596173,2.274266 82.379154,2.2975736 82.891381,2.3128214 83.41758,1.9539068 83.517368,2.3665546 83.267797,3.2820537 82.650908,6.0981885 82.460554,6.5959962 82.101155,7.5358837 80.218995,8.3394779 76.602058,13.101138 73.037887,17.79333 72.246284,18.701772 71.455209,18.603186 71.171324,18.567806 70.537897,19.30379 70.079596,18.399437 69.721683,17.693175 69.122901,16.640689 69.721683,16.595962 70.741949,16.519742 73.267164,15.550329 74.768382,13.699752 75.563104,12.720085 75.535844,12.433406 75.60066,11.507608 75.60066,11.507608 75.52237,10.802898 75.67111,10.501343 75.808193,10.223429 76.367432,9.8853964 76.367432,9.8853964 76.906872,9.4082244 77.105508,9.1245754 77.249087,8.6264304 77.422748,8.0239004 77.419363,7.9671704 77.195317,7.7254914 76.983196,7.4966724 76.84995,7.4883204 76.01441,7.6514314 74.891002,7.8707424 71.350475,7.7750427 72.774198,8.9133317 73.373764,9.3926931 70.394253,10.740557 69.708188,11.17258 68.748238,11.777072 65.768163,13.922776 63.97546,14.988023 62.317686,15.783411 61.802375,15.822364 60.149694,16.323624 57.0336,17.268739 54.722898,17.793182 51.910453,19.274332 49.348231,20.623704 48.790556,20.354091 46.164081,22.757729 44.858677,23.95238 44.093441,26.124625 43.684316,27.873376 43.495406,28.680848 44.801584,31.862525 45.380728,32.696266 L 45.531207,32.912897 C 45.380728,32.696266 43.556251,32.824127 43.556251,32.824127 43.556251,32.824127 38.414277,32.845927 36.873446,32.729071 35.332616,32.612214 35.897191,32.888424 35.153204,32.028563 Z"
                                        style="fill:none;fill-opacity:1;stroke:#000000;stroke-width:0.1;stroke-miterlimit:4;stroke-dasharray:none;stroke-opacity:1"><title
                                                     id="cerebral cortex">cerebral cortex</title></path><path
                                        inkscape:label="UBERON_0000369"
                                        sodipodi:nodetypes="sssccscsccsscs"
                                        inkscape:connector-curvature="0"
                                        id="UBERON_0000369"
                                        d="M 43.785464,54.826643 C 43.158249,54.499478 42.024084,53.899773 41.159352,53.360814 40.294621,52.821854 39.381293,52.216426 38.55969,51.623389 36.916485,50.437316 35.92641,49.01458 36.13959,48.558512 36.565951,47.646374 43.375908,43.811805 43.316465,43.139421 43.316465,43.139421 43.630798,39.479387 43.754726,38.469751 44.025955,36.260332 43.847596,34.923564 44.322718,35.407623 45.465186,35.572258 40.598918,34.742608 50.387221,36.338708 51.40486,36.504646 53.672358,36.569732 53.672358,36.569732 53.827697,37.709795 52.950532,42.847432 52.650463,44.669047 52.350394,46.490662 50.423194,46.141895 49.872419,49.474156 49.573336,51.28364 50.63441,51.929591 50.458791,53.36017 50.217524,55.325528 50.699241,57.550212 48.684085,56.508467 46.899818,56.236015 45.063533,55.493303 43.785464,54.826643 Z"
                                        style="fill:none;fill-opacity:1;stroke:#000000;stroke-width:0.1;stroke-miterlimit:4;stroke-dasharray:none;stroke-opacity:1"><title
                                                     id="corpus striatum">corpus striatum</title></path><path
                                        inkscape:label="UBERON_0001894"
                                        sodipodi:nodetypes="sscscssscscssscssssssssssssccccccccs"
                                        inkscape:connector-curvature="0"
                                        id="UBERON_0001894"
                                        d="M 52.476575,57.767878 C 52.331133,56.988093 53.8743,54.85074 53.966726,53.838438 54.161983,51.699901 54.242753,51.185864 54.781585,49.173365 55.110056,47.946475 56.190633,46.438063 56.753604,45.473735 L 58.096681,43.173137 57.654543,42.152494 C 56.707046,39.965264 56.538269,38.313674 56.783572,35.860861 56.953841,34.158325 57.38546,33.488594 57.997246,31.805614 58.355791,30.819303 58.694385,29.85013 59.137074,29.026388 59.926206,27.557949 60.298088,27.114943 60.673364,27.220916 60.883882,27.280366 62.211415,27.493826 62.771171,27.577982 63.900956,27.532102 63.751585,27.699244 64.881456,27.373412 65.592347,27.168406 66.956241,26.874857 67.694639,26.439539 68.433036,26.004221 69.494879,25.623304 69.775481,25.380585 70.525019,24.732244 71.182065,24.382992 71.353145,24.187677 71.430215,24.099697 71.442795,24.006731 71.761163,23.678464 72.288038,23.135217 72.611885,22.658261 72.903754,23.466229 73.363371,24.738535 76.083101,29.451084 76.566215,33.350469 76.97729,36.668428 76.972264,35.857011 76.646225,37.933935 76.527559,38.689846 76.123652,39.484873 75.602055,40.08536 75.054097,40.716197 74.491673,41.141095 73.525399,41.478793 72.662486,41.780368 73.214399,41.791865 72.84308,42.210269 72.434543,42.67061 72.577849,42.380529 72.287866,42.460576 72.287866,42.460576 71.55613,42.360586 72.363326,42.393906 72.887498,42.415546 72.708937,41.674887 73.188958,41.577591 74.01064,41.411034 75.254005,42.281508 76.752069,43.218779 77.832411,43.8947 78.736168,44.503261 80.0726,46.712489 80.651055,47.668719 84.583755,54.36623 80.629061,57.219296 77.03418,59.082881 75.639074,59.934072 73.945104,60.561879 L 70.247568,62.732605 68.884447,63.112335 C 68.660206,63.743853 66.455895,64.226603 65.271918,64.173828 64.775212,63.994102 61.030566,62.238042 60.034378,62.09593 59.412839,61.562774 58.929706,61.482858 58.489811,61.131346 L 54.834877,59.753649 C 54.834877,59.753649 52.517832,57.989082 52.476575,57.767878 Z"
                                        style="fill:none;fill-opacity:1;stroke:#000000;stroke-width:0.1;stroke-miterlimit:4;stroke-dasharray:none;stroke-opacity:1"><title
                                                     id="diencephalon">diencephalon</title></path><path
                                        inkscape:label="UBERON_0000007"
                                        sodipodi:nodetypes="cscssssccc"
                                        inkscape:connector-curvature="0"
                                        id="UBERON_0000007"
                                        d="M 74.250218,61.71844 C 74.619386,61.275438 70.709437,62.604414 70.247568,62.732605 70.247568,62.732605 71.006744,62.577265 73.945104,60.561879 77.603086,59.221137 78.420497,57.936463 80.086709,57.891561 80.97686,57.867572 81.071042,57.188676 82.790482,57.37916 83.091453,57.412503 83.297135,57.374443 83.769257,57.658524 84.252303,57.949179 84.642715,59.153061 84.66408,59.321467 84.710011,59.683498 83.001837,62.075564 82.778375,61.827416 81.452438,62.066521 79.93098,62.206804 78.605044,61.973456 Z"
                                        style="fill:none;fill-opacity:1;stroke:#000000;stroke-width:0.06998233;stroke-miterlimit:4;stroke-dasharray:none;stroke-opacity:1"><title
                                                     id="pituitary gland">pituitary gland</title></path><g
                                        style="fill:none;fill-opacity:1;stroke:#000000;stroke-width:0.6627897;stroke-miterlimit:4;stroke-dasharray:none;stroke-opacity:1"
                                        id="EFO_0000530"
                                        transform="matrix(0.15514368,0,0,0.14672848,-38.46869,-51.336708)"
                                        inkscape:label="EFO_0000530"><title
                                                     id="hippocampus">hippocampus</title><path
                                                     sodipodi:nodetypes="cssssssssssssasssssssaacc"
                                                     inkscape:connector-curvature="0"
                                                     id="path4435"
                                                     d="M 649.13219,544.02418 C 648.31054,544.14768 648.32207,543.28721 645.92335,544.04488 642.0885,545.25613 648.5364,542.88049 643.22887,545.32294 643.22887,545.32294 641.61709,545.85126 636.96571,542.19697 635.10318,540.7337 634.52136,537.88665 634.22057,536.48613 633.57594,533.48464 634.17957,529.64185 637.19042,524.40844 638.68086,521.81783 640.60241,517.99048 641.46055,515.9032 645.94541,504.99453 644.22372,484.64659 662.59037,477.78183 666.92293,476.16248 671.60809,467.8934 678.39398,464.68052 682.11482,462.91885 687.96073,459.92965 692.97565,461.53947 698.61595,463.35004 697.67095,474.23451 701.45973,474.8041 703.5941,475.12498 707.8999,475.65277 710.01029,475.75361 715.36644,476.00954 715.47772,478.89709 717.69254,481.07709 719.48084,482.83728 719.13004,483.68432 719.25088,485.18607 719.4108,487.17347 718.8468,489.65514 718.10863,491.18196 716.56671,494.37123 704.71611,497.58424 702.0958,498.9771 666.21862,518.04811 702.94008,497.96998 706.2035,496.16017 710.07335,494.01404 715.16508,501.0301 716.01021,504.65288 716.59528,507.1609 710.25739,514.44606 707.1877,517.64822 699.93863,525.21012 696.74582,529.46925 689.05927,534.41302 682.66829,538.52351 677.81124,539.54037 671.61432,542.90047 671.61432,542.90047 666.0672,544.44966 663.23472,544.66492 660.46938,544.87507 657.70018,544.3142 654.93085,544.19507 652.99866,544.11197 654.93085,544.19507 649.13219,544.02424 Z"
                                                     style="fill:none;fill-opacity:1;stroke:#000000;stroke-width:0.6627897;stroke-miterlimit:4;stroke-dasharray:none;stroke-opacity:1" /><path
                                                     sodipodi:nodetypes="ccssssssscssssssscc"
                                                     inkscape:connector-curvature="0"
                                                     id="path4455"
                                                     d="M 710.30588,496.85945 C 709.70246,496.92565 708.97662,497.01937 708.69287,497.06756 708.40915,497.11576 706.81151,497.03316 705.39655,497.29486 703.26301,497.68951 701.36942,497.91755 699.75662,498.15795 696.34023,498.66718 694.4585,499.26501 692.81841,499.49289 690.1281,499.86667 688.29689,500.7952 685.69219,501.59928 684.32059,502.0227 683.90378,502.26804 682.63129,502.69289 681.12044,503.19732 679.66189,503.49091 678.37534,504.60252 676.99289,505.79699 677.01915,506.26123 675.32436,507.18493 675.26236,507.21863 676.97765,504.66317 676.97118,504.5498 676.95288,504.22742 684.37236,500.92818 688.30282,499.99831 690.03261,499.58907 692.18479,499.06944 693.08546,498.84358 693.98614,498.61771 695.73853,498.27294 696.97968,498.07742 698.22086,497.8819 700.93504,497.44911 703.01122,497.11572 705.0874,496.78228 707.19135,496.49813 707.68667,496.48427 708.18199,496.47057 709.17247,496.39377 709.88772,496.314 710.81646,496.21042 711.26768,496.2355 711.46627,496.402 711.7956,496.678 711.73287,496.70272 710.3059,496.85945 Z"
                                                     style="fill:none;fill-opacity:1;stroke:#000000;stroke-width:0.6627897;stroke-miterlimit:4;stroke-dasharray:none;stroke-opacity:1" /></g><path
                                        inkscape:label="UBERON_0002037"
                                        sodipodi:nodetypes="csscsssccscssccccsscasssssscsssasssssssccssscccsccssccssccccaassascsacc"
                                        inkscape:connector-curvature="0"
                                        id="UBERON_0002037"
                                        d="M 115.61856,41.020077 C 115.61856,41.020077 115.68356,41.112997 115.14155,41.177656 114.84048,41.213576 114.11018,41.301791 113.34193,41.400205 112.76379,41.474265 112.00652,41.674134 111.45471,41.582316 111.27437,41.919798 110.38195,40.995583 110.38195,40.995583 110.30295,41.562882 111.06878,41.649597 111.06878,41.649597 110.79214,41.32055 109.73938,41.034869 111.03988,41.646097 111.03988,41.646097 111.06878,41.649597 110.10426,41.828847 L 108.83051,41.872607 C 108.06775,41.660558 108.01749,41.912747 107.41193,41.879407 106.40661,41.824067 105.25079,41.989273 104.59122,41.790407 104.59122,41.790407 103.44395,42.076745 103.30063,41.576082 L 103.16406,41.099012 C 103.10156,40.723458 102.12849,39.978022 102.12849,39.978022 99.793621,39.012492 99.890611,39.230332 99.975541,38.866384 99.998441,39.195594 98.517431,39.169459 98.517431,39.169459 97.649311,39.469825 97.410941,39.497147 97.410941,39.497147 97.410941,39.497147 97.233871,39.210741 97.063695,39.246913 96.831316,39.296303 96.622355,38.927618 96.622355,38.927618 95.791679,38.663741 96.462583,38.735011 96.462583,38.735011 96.462583,38.735011 96.061638,38.558917 95.886254,38.4307 95.763914,38.34126 95.562034,38.111993 95.562034,38.111993 94.851064,37.758375 94.766089,37.425458 94.347408,36.999521 93.597228,36.236303 93.342222,35.487877 93.192413,35.065413 92.689285,33.646467 92.68171,33.671925 92.496824,33.009991 92.280287,32.234748 93.942478,29.540569 93.09214,31.394475 92.491653,32.703645 92.863466,31.742604 93.363153,30.629117 94.082044,29.027119 97.614281,31.330203 95.844212,30.434739 95.844212,30.434739 94.073612,30.601711 93.819627,30.081378 93.364701,29.149368 94.120678,28.441519 94.410876,26.83004 94.54201,26.101926 96.661894,27.536157 96.500673,26.82344 96.432713,26.522946 95.638264,26.81764 95.242193,26.660025 94.98447,26.557422 94.701008,26.747595 94.557243,26.167705 94.463623,25.790105 94.601163,24.728709 94.712305,23.861438 94.871583,22.610732 94.923226,20.811169 94.893271,20.744139 94.893271,20.744139 94.883221,20.18734 94.864531,19.976648 94.835021,19.646592 94.871931,19.209109 94.871931,19.209109 95.000809,18.681175 94.732596,17.907314 94.909841,17.040817 95.039164,16.40846 95.201373,16.111907 95.482744,16.083635 L 97.065527,17.577647 95.202509,15.753301 C 94.858494,15.571653 94.773289,14.799535 94.686454,13.998203 94.56879,12.911939 94.629834,13.015499 94.671964,12.568227 94.710634,12.158725 94.636299,11.16486 94.806133,10.733456 95.267548,9.5610263 93.304384,7.9994662 94.381198,8.0123532 95.458012,8.0252402 97.595038,8.2202925 98.360237,8.3093345 98.704107,8.2630045 102.00634,8.802004 102.28203,8.908214 103.04785,9.5009212 103.80318,9.6299998 105.35058,10.727961 105.71524,10.986706 106.50213,12.067962 106.47773,12.479857 L 104.40406,13.853775 C 104.40406,13.853775 106.42857,11.835806 106.90586,11.948107 107.40013,12.064401 107.09493,12.19014 108.0073,12.945437 108.85899,13.650492 110.47163,15.071845 111.15818,16.279514 112.06955,17.127478 113.24026,18.161728 113.85097,20.419529 114.19247,21.168672 114.73774,21.499649 114.75565,22.140855 114.76685,22.543252 113.47085,22.784692 113.31724,23.002101 L 111.92942,24.966454 C 111.92942,24.966454 113.70154,22.02592 114.93219,22.32914 115.91819,22.838609 116.34246,25.861437 116.94871,27.793867 117.2203,28.65954 117.35784,29.845314 117.31244,30.3919 117.25974,31.027829 116.33132,30.796221 115.84317,31.004095 115.75847,31.040165 115.66975,31.067265 115.58991,31.114282 115.07965,31.414762 113.60447,32.001949 114.16777,32.200734 114.63297,32.364899 116.85403,29.877395 117.81125,31.816288 118.59942,33.412775 120.18014,35.853559 119.90198,38.016974 119.78922,38.893993 119.07342,39.629329 118.44611,40.234483 118.06659,40.600593 117.49998,40.011869 117.14007,40.502903 116.43977,40.762864 116.37657,40.995353 116.18337,40.508006 116.18337,40.508006 116.00136,40.690117 115.91268,40.783416 115.87098,40.827296 115.78978,40.917139 115.78978,40.917139 Z"
                                        style="fill:none;fill-opacity:1;stroke:#000000;stroke-width:0.1;stroke-miterlimit:4;stroke-dasharray:none;stroke-opacity:1"><title
                                                     id="cerebellum">cerebellum</title></path><path
                                        inkscape:label="UBERON_0002298"
                                        sodipodi:nodetypes="sccsscssssssssssssss"
                                        inkscape:connector-curvature="0"
                                        id="UBERON_0002298"
                                        d="M 107.13386,55.542456 C 107.1787,55.419157 107.25902,54.834121 107.41201,54.25993 107.56498,53.685741 107.74554,52.42686 107.81323,51.462422 107.92071,49.931356 107.86963,49.468788 107.41072,47.81632 107.1131,46.744657 106.51417,45.267871 106.02992,44.41165 105.25432,43.040296 105.20653,43.026405 105.51652,42.84499 105.70449,42.734967 106.99764,42.82159 108.50869,42.80041 110.01974,42.77924 112.69066,42.551375 114.14774,42.471855 114.14774,42.471855 116.45024,42.31172 116.9213,42.147416 117.49969,41.945674 118.43217,42.048974 118.43217,42.048974 119.44188,42.416859 119.98774,43.201979 121.47892,45.055149 121.47892,45.055149 122.82821,46.238229 122.87457,46.755334 122.91967,47.258457 121.62115,48.559875 121.62115,48.559875 120.90238,50.420723 119.33221,51.385045 117.85838,52.633657 117.05001,53.318483 115.41053,54.258034 115.08787,54.796977 114.83539,55.218703 113.6147,56.005259 113.16732,56.050174 112.67601,56.099494 110.70032,56.00396 110.70032,56.00396 108.01962,55.898916 108.57683,55.657401 107.70487,56.213657 107.2982,56.473096 106.54414,57.164177 106.5943,57.026234 Z"
                                        style="fill:none;fill-opacity:1;stroke:#000000;stroke-width:0.1;stroke-miterlimit:4;stroke-dasharray:none;stroke-opacity:1"><title
                                                     id="brainstem">brainstem</title></path><path
                                        inkscape:label="UBERON_0001891"
                                        sodipodi:nodetypes="sccsscsssssccscssssccssassssscccs"
                                        inkscape:connector-curvature="0"
                                        id="UBERON_0001891"
                                        d="M 77.70563,44.045956 C 76.69142,43.192277 74.729684,42.239062 73.839691,41.886618 L 73.237344,41.648075 74.131355,41.19737 C 74.956596,40.781337 75.074309,40.663204 75.661349,39.661857 76.249287,38.658984 76.309017,38.469432 76.452255,37.152199 76.60371,35.759208 76.596201,35.673336 76.116375,33.311678 75.567729,30.61134 74.920482,28.753559 73.380927,25.460221 72.856934,24.339297 72.41174,23.2148 72.391633,22.961342 72.371523,22.707883 72.18888,22.282633 71.985781,22.016345 71.718045,21.665318 71.672083,21.532181 71.818681,21.532181 71.929872,21.532181 72.210749,21.372399 72.442832,21.177111 72.804682,20.872644 72.864197,20.730935 72.860442,20.182764 72.855142,19.406662 72.638487,19.092463 71.984002,18.911749 L 71.486868,18.774486 72.278696,18.11096 C 73.419265,17.155222 74.826285,15.539765 75.868351,13.989528 77.021897,12.273481 80.038752,9.143254 81.274061,8.037245 81.796951,7.569096 82.191937,7.0103816 82.415238,6.509266 82.92558,5.363995 83.311291,2.9677376 83.517368,2.3665546 L 85.426014,2.9616076 87.447685,3.4727136 C 88.545215,3.7501841 89.354155,4.525902 90.603923,5.61189 91.145438,6.082448 91.514006,7.2958532 91.946299,8.1496096 92.493516,9.2303362 92.950115,9.7714576 93.529836,11.420567 93.529836,11.420567 94.113675,13.237672 94.17319,13.586858 94.485702,15.420667 94.364683,19.264581 94.364683,19.264581 94.361683,25.846427 93.904979,25.749818 92.683681,29.926821 91.586939,33.677828 89.994492,39.259127 89.152313,40.727319 87.49942,43.608851 85.058074,48.524822 83.071083,50.305017 L 81.926475,50.510903 81.43454,49.299107 C 81.129842,48.246068 79.403853,45.475381 77.70563,44.045956 Z"
                                        style="fill:none;fill-opacity:1;stroke:#000000;stroke-width:0.1;stroke-miterlimit:4;stroke-dasharray:none;stroke-opacity:1"><title
                                                     id="midbrain">midbrain</title></path><path
                                        inkscape:label="UBERON_0001897"
                                        sodipodi:nodetypes="sssssccsscsssss"
                                        inkscape:connector-curvature="0"
                                        id="UBERON_0001897"
                                        d="M 62.67018,44.956592 C 59.87726,44.755405 58.208623,43.124019 57.26621,41.161318 55.655381,37.806522 57.070526,30.625407 59.990803,27.453948 60.502989,26.897702 60.074873,27.446748 61.651446,27.430338 63.867651,27.407268 64.671191,27.770331 67.203596,26.561079 68.386076,25.996438 70.319458,24.960893 70.319458,24.960893 70.319458,24.960893 70.789087,24.580517 71.113802,24.382309 71.113802,24.382309 71.202852,24.289519 71.91985,23.633235 72.408168,23.186264 72.087559,22.949214 72.713232,23.180488 72.713232,23.180488 72.624552,23.711211 72.637232,23.194618 72.647772,22.764864 73.462128,25.022684 73.838815,25.686556 76.04083,29.567374 76.751207,32.077333 76.690589,34.505731 76.596219,38.286144 76.595229,39.928608 74.139082,41.151606 70.511169,42.958061 70.696598,43.93761 68.432307,44.535681 67.123139,44.881466 64.055594,45.056393 62.67018,44.956596 Z"
                                        style="fill:none;fill-opacity:1;stroke:#000000;stroke-width:0.1;stroke-miterlimit:4;stroke-dasharray:none;stroke-opacity:1"><title
                                                     id="dorsal plus ventral thalamus">dorsal plus ventral thalamus</title></path><path
                                        inkscape:label="UBERON_0001898"
                                        sodipodi:nodetypes="cscssccssacsscsccccccsc"
                                        inkscape:connector-curvature="0"
                                        id="UBERON_0001898"
                                        d="M 58.489811,61.131346 C 57.21489,61.038326 54.138076,59.466063 54.088685,59.048863 54.088685,59.048863 52.778606,58.830867 52.505365,58.083804 52.030497,56.785408 54.046589,54.633058 54.046589,52.867537 54.046589,49.769848 54.33979,48.941891 56.824296,45.023513 57.269004,44.322145 57.696151,43.487926 57.773491,43.169691 L 57.91414,42.591085 58.798373,43.114494 C 60.029152,43.843042 61.170829,45.021323 62.942197,44.78567 64.965718,44.516472 67.210865,44.79627 69.17393,44.08943 70.60007,43.575914 72.128864,41.602797 72.96242,41.600954 73.194458,41.60046 73.890623,41.798933 74.509432,42.042049 75.377386,42.383044 76.020276,42.789651 77.322198,43.821019 78.250402,44.556341 79.111719,45.275396 79.236207,45.418921 79.360713,45.562446 79.850355,46.562355 80.324311,47.366085 81.041046,48.581528 83.320743,52.669771 82.195467,53.609168 81.864279,56.125912 81.91352,55.438161 81.251031,57.239018 80.051145,57.829988 79.880036,57.943924 78.817498,58.267359 L 73.945104,60.561879 70.247568,62.732605 C 69.116091,63.192512 69.26405,63.38271 68.367001,63.550884 67.297319,63.751419 66.226792,64.606438 63.797027,63.515101 Z"
                                        style="fill:none;fill-opacity:1;stroke:#000000;stroke-width:0.1;stroke-miterlimit:4;stroke-dasharray:none;stroke-opacity:1"><title
                                                     id="hypothalamus">hypothalamus</title></path><path
                                        inkscape:label="UBERON_0000004"
                                        sodipodi:nodetypes="scccccsssscs"
                                        inkscape:connector-curvature="0"
                                        id="UBERON_0000004"
                                        d="M 24.359671,35.107415 C 24.359671,35.107415 24.199987,35.925198 22.529833,35.73238 20.83488,35.566004 19.411013,38.439251 16.534139,38.562481 15.053103,38.442031 10.400898,38.4355 7.0488949,36.491504 6.3422214,34.333288 8.7068859,28.670081 9.3068609,26.185483 9.9068353,23.700885 10.66984,20.961356 10.800078,20.452575 11.09533,19.299161 13.195267,12.435013 14.035061,12.667035 14.45271,12.782425 15.576226,12.435689 17.587237,13.065231 18.139098,13.23799 19.55612,15.39726 21.39842,16.914947 22.242554,17.610345 22.820379,20.238547 23.200244,21.884629 23.582331,23.540338 23.758802,23.645083 24.193624,28.613278 24.628447,33.581472 24.779666,34.40533 24.359671,35.107415 Z"
                                        style="fill:none;fill-opacity:1;stroke:#000000;stroke-width:0.1;stroke-miterlimit:4;stroke-dasharray:none;stroke-opacity:1"><title
                                                     id="nose">nose</title></path><path
                                        inkscape:label="UBERON_0002259"
                                        sodipodi:nodetypes="ccccccc"
                                        inkscape:connector-curvature="0"
                                        id="UBERON_0002259"
                                        d="M 84.969429,39.211748 C 87.508491,34.524248 92.586616,35.500818 92.586616,35.500818 98.836616,37.649248 98.445991,40.188318 98.445991,40.188318 97.664741,43.508628 94.149116,41.555498 94.149116,41.555498 90.438179,40.774248 88.680366,40.969568 88.680366,40.969568 88.029324,41.034668 87.378283,41.099778 86.727241,41.164878 85.067085,41.164878 84.969429,39.211748 84.969429,39.211748 Z"
                                        style="fill:none;fill-opacity:1;stroke:#000000;stroke-width:0.1;stroke-miterlimit:4;stroke-dasharray:none;stroke-opacity:1"><title
                                                     id="corpora quadrigemina">corpora quadrigemina</title></path><path
                                        transform="matrix(0.97445274,-0.22459264,0.17343128,0.98484597,0,0)"
                                        style="opacity:1;fill:none;fill-opacity:1;fill-rule:evenodd;stroke:#000000;stroke-width:0.10006821;stroke-miterlimit:4;stroke-dasharray:none;stroke-opacity:1"
                                        inkscape:transform-center-x="1.5228137"
                                        inkscape:transform-center-y="-0.27571587"
                                        d="M 47.292743,13.160291 C 50.85391,13.54371 57.098559,14.665866 57.649135,14.76604 58.113863,14.850594 60.86741,15.370574 60.865366,15.446343 L 60.500346,28.976217 C 60.498302,29.051986 60.295672,29.066852 60.221823,29.080954 56.354274,29.819474 52.732268,29.483098 49.10282,30.239665 49.029277,30.254995 48.779319,28.865659 48.750097,28.540253 48.596,25.063798 47.143335,16.471893 47.292743,13.160291 Z"
                                        id="somatosensor.cortex"
                                        inkscape:connector-curvature="0"
                                        sodipodi:nodetypes="cssssscc" /><path
                                        style="opacity:1;fill:none;fill-opacity:1;fill-rule:evenodd;stroke:#000000;stroke-width:0.1;stroke-miterlimit:4;stroke-dasharray:none;stroke-opacity:1"
                                        d="M 65.297637,17.974502 66.593783,20.688954 70.886684,19.983436 71.101927,18.943095 C 70.68466,19.047354 70.359281,18.906579 70.133334,18.500651 69.810273,18.009868 69.525458,17.235867 69.364406,16.64143 69.259357,16.253696 68.106074,16.297002 67.235591,16.612556 66.365109,16.92811 65.669931,17.734557 65.297637,17.974502 Z"
                                        id="hippocampus.ca1"
                                        inkscape:connector-curvature="0"
                                        sodipodi:nodetypes="cccccssc" /></g></svg>