<?xml version="1.0" encoding="UTF-8" standalone="no"?>
<svg
   xmlns:dc="http://purl.org/dc/elements/1.1/"
   xmlns:cc="http://creativecommons.org/ns#"
   xmlns:rdf="http://www.w3.org/1999/02/22-rdf-syntax-ns#"
   xmlns:svg="http://www.w3.org/2000/svg"
   xmlns="http://www.w3.org/2000/svg"
   xmlns:sodipodi="http://sodipodi.sourceforge.net/DTD/sodipodi-0.dtd"
   xmlns:inkscape="http://www.inkscape.org/namespaces/inkscape"
   width="2in"
   height="1.5472199in"
   viewBox="0 0 144.0001 183"
   version="1.1"
   id="svg3"
   sodipodi:docname="root_cross_final.svg"
   inkscape:version="0.92.3 (unknown)">
  <metadata
     id="metadata9">
    <rdf:RDF>
      <cc:Work
         rdf:about="">
        <dc:format>image/svg+xml</dc:format>
        <dc:type
           rdf:resource="http://purl.org/dc/dcmitype/StillImage" />
        <dc:title />
      </cc:Work>
    </rdf:RDF>
  </metadata>
  <defs
     id="defs7" />
  <sodipodi:namedview
     pagecolor="#ffffff"
     bordercolor="#666666"
     borderopacity="1"
     objecttolerance="10"
     gridtolerance="10"
     guidetolerance="10"
     inkscape:pageopacity="0"
     inkscape:pageshadow="2"
     inkscape:window-width="1855"
     inkscape:window-height="1056"
     id="namedview5"
     showgrid="false"
     inkscape:zoom="2.5790344"
     inkscape:cx="-39.39429"
     inkscape:cy="63.699959"
     inkscape:window-x="65"
     inkscape:window-y="24"
     inkscape:window-maximized="1"
     inkscape:current-layer="cortex" />
  <g
     inkscape:groupmode="layer"
     id="layer1"
     inkscape:label="Layer 1">
    <g
       id="g341"
       style="fill:#31e1f0;fill-opacity:1;stroke:#000000;stroke-width:0.61602426;stroke-miterlimit:4;stroke-dasharray:none;stroke-opacity:1"
       transform="translate(-43.587451,15.235972)">
      <path
         id="path229"
         d="m 16.947355,13.156916 c 4.189999,-0.43 8.17,2.88 10.91,5.66 4.869999,4.96 13.679999,17.76 19.099999,20.940001 3.490001,2.039999 15.01,0.87 17.210001,9.11 0.71,2.659999 -1.68,12.24 -6.260001,12.659999 -3.309999,0.31 -12.839999,-6.959999 -14.509999,-9.849999 -3.640001,-6.31 -8.110001,-11.780001 -13.45,-16.81 -6.960001,-6.540001 -14.56,-10.240001 -19,-19.090001 1.92,-1.14 3.69,-2.39 6,-2.62 z"
         style="fill:#31e1f0;fill-opacity:1;stroke:#000000;stroke-width:0.61602426;stroke-miterlimit:4;stroke-dasharray:none;stroke-opacity:1"
         inkscape:connector-curvature="0" />
      <path
         id="path227"
         d="m 180.94735,56.236916 c 4.12,0.870001 6.81,4.640001 15.00001,4.020001 9.91999,-0.74 17.32999,-4.510001 28,-1.48 -5.12001,9.6 -31.13001,10.67 -35.90001,12.599999 -2.97,1.2 -3.46999,3.470001 -6.31,4.890001 -1.71,0.86 -8.54,2.09 -10.79,2.51 0,0 -3.22,-10 -3.22,-10 0,0 0,-11.000001 0,-11.000001 3.63,-0.46 10.28,-2.15 13.22,-1.54 z"
         style="fill:#31e1f0;fill-opacity:1;stroke:#000000;stroke-width:0.61602426;stroke-miterlimit:4;stroke-dasharray:none;stroke-opacity:1"
         inkscape:connector-curvature="0" />
      <path
         id="path225"
         d="m 84.417354,133.77691 c -1.32,2.41 -2.92,5.31001 -5.57,6.40001 -3.019999,1.23999 -5.909999,-0.38001 -9.579999,2.91 -2.84,2.55 -12.470001,18.2 -19.32,21.51 -4.500001,2.17 -8.95,-0.1 -6.570001,-5.82001 2.730001,-6.54999 12.580001,-14.23 16.680001,-20.99999 2.7,-4.44 1.31,-6.63 2.469999,-10 1.29,-3.73 4.320001,-6.75001 7.460001,-8.94001 7.78,-1.90999 19.369999,5.93001 14.429999,14.94 z"
         style="fill:#31e1f0;fill-opacity:1;stroke:#000000;stroke-width:0.61602426;stroke-miterlimit:4;stroke-dasharray:none;stroke-opacity:1"
         inkscape:connector-curvature="0" />
    </g>
    <g
       id="epidermis"
       style="fill:#00f400;fill-opacity:1;stroke:#000000;stroke-width:1.00042343;stroke-miterlimit:4;stroke-dasharray:none;stroke-opacity:1"
       transform="translate(-43.587451,15.235972)">
      <path
         id="path59"
         d="m 129.29735,11.596916 c 4.39,3.82 1.87,12.960001 -1.74,14.75 -1.37,0.48 -3.16,0.300001 -4.61,0 -1.64,-0.04 -5.02,-0.529999 -6.3,-1.55 -2.21,-1.749999 -3.88,-8.17 -2.59,-10.72 0.93,-1.83 2.29,-2.38 3.91,-3.369999 3.37,-1.0100005 8.4,-1.6500005 11.33,0.889999 z"
         style="fill:#00f400;fill-opacity:1;stroke:#000000;stroke-width:0.61602426;stroke-miterlimit:4;stroke-dasharray:none;stroke-opacity:1"
         inkscape:connector-curvature="0" />
      <path
         id="path57"
         d="m 107.72735,13.516916 c 1.82,1.36 2.71,3.2 3.51,5.26 2.72,7.070001 0.03,10.81 -7.29,12.59 -2.06,0.49 -5.689996,0.65 -7.489996,-0.61 -2.3,-1.61 -5.88,-10.969999 -4.89,-13.679999 1,-2.740001 3.91,-3.810001 6.38,-4.730001 3.329996,-0.59 6.849996,-1.01 9.779996,1.17 z"
         style="fill:#00f400;fill-opacity:1;stroke:#000000;stroke-width:0.61602426;stroke-miterlimit:4;stroke-dasharray:none;stroke-opacity:1"
         inkscape:connector-curvature="0" />
      <path
         id="path55"
         d="m 155.87735,24.776916 c 2.16,6.700001 -4.63,16.88 -11.93,15.850001 -6.35,-0.9 -18.91,-14.880001 -6.79,-23.110001 6.71,-1.76 16.27,-0.34 18.72,7.26 z"
         style="fill:#00f400;fill-opacity:1;stroke:#000000;stroke-width:0.61602426;stroke-miterlimit:4;stroke-dasharray:none;stroke-opacity:1"
         inkscape:connector-curvature="0" />
      <path
         id="path53"
         d="m 81.327354,31.986916 c -1.5,-0.439999 -2.54,-1.889999 -3.319999,-3.26 -4.26,-7.5 3.749999,-11.619999 8.839999,-8.21 1.28,0.86 2.27,2.02 3.1,3.300001 1.46,2.269999 2.23,5.369999 3,8.169999 -2.67,-0.15 -9.83,0.970001 -11.62,0 z"
         style="fill:#00f400;fill-opacity:1;stroke:#000000;stroke-width:0.61602426;stroke-miterlimit:4;stroke-dasharray:none;stroke-opacity:1"
         inkscape:connector-curvature="0" />
      <path
         id="path51"
         d="m 64.937355,44.606916 c -1.610001,-0.569999 -3.64,-2.52 -4.68,-3.85 -7.44,-9.489999 5.069999,-20.55 13.51,-13.549999 2.419999,2.009999 3.82,4.8 5.179999,7.57 -3.409999,2.58 -10.279999,11.16 -14.009999,9.829999 z"
         style="fill:#00f400;fill-opacity:1;stroke:#000000;stroke-width:0.61602426;stroke-miterlimit:4;stroke-dasharray:none;stroke-opacity:1"
         inkscape:connector-curvature="0" />
      <path
         id="path49"
         d="m 155.89735,34.796916 c 0.94,-1.439999 2.06,-3.23 3.43,-4.28 4.87,-3.75 13.08,0.02 13.25001,6.260001 0.1,3.859999 -3.68001,6.49 -6.63001,8.28 -1.97,1.2 -3.62,2.15 -6,1.66 0,0 -8,-3.94 -8,-3.94 1.06,-3.340001 2.04,-5.05 3.95,-7.980001 z"
         style="fill:#00f400;fill-opacity:1;stroke:#000000;stroke-width:0.61602426;stroke-miterlimit:4;stroke-dasharray:none;stroke-opacity:1"
         inkscape:connector-curvature="0" />
      <path
         id="path47"
         d="m 175.94735,41.546917 c 5.64,-0.93 8.52,5.63 5.15,9.799999 -2.15,2.64 -11.64,3.930001 -15.15,4.43 0,0 -3,-6 -3,-6 2.52,-1.949999 10.19,-7.769999 13,-8.229999 z"
         style="fill:#00f400;fill-opacity:1;stroke:#000000;stroke-width:0.61602426;stroke-miterlimit:4;stroke-dasharray:none;stroke-opacity:1"
         inkscape:connector-curvature="0" />
      <path
         id="path45"
         d="m 36.687355,70.786917 c -3.82,-3.160001 -0.34,-12.11 6.259999,-13.15 3.97,-0.62 9.500001,4.13 13.000001,6.139999 0,0 -5.000001,10 -5.000001,10 -2.449999,-0.449999 -12.899999,-1.859999 -14.259999,-2.989999 z"
         style="fill:#00f400;fill-opacity:1;stroke:#000000;stroke-width:0.61602426;stroke-miterlimit:4;stroke-dasharray:none;stroke-opacity:1"
         inkscape:connector-curvature="0" />
      <path
         id="path43"
         d="m 39.987355,89.426918 c -5.460001,-1.940003 -6.25,-11.400002 -3.440001,-13.640001 2.59,-2.040001 11.070001,-0.28 14.4,0 0,0 1.000001,10.990002 1.000001,10.990002 -2.870001,0.960001 -9.19,3.64 -11.96,2.649999 z"
         style="fill:#00f400;fill-opacity:1;stroke:#000000;stroke-width:0.61602426;stroke-miterlimit:4;stroke-dasharray:none;stroke-opacity:1"
         inkscape:connector-curvature="0" />
      <path
         id="path41"
         d="m 184.51736,79.986917 c 3.61,2.27 3.97,15.169998 -2.59001,17.560002 -2.76,0.999998 -7.92,-1.899999 -10.98,-2.77 0,0 1,-14.000002 1,-14.000002 3.1,-0.42 10.06,-2.36 12.57001,-0.79 z"
         style="fill:#00f400;fill-opacity:1;stroke:#000000;stroke-width:0.61602426;stroke-miterlimit:4;stroke-dasharray:none;stroke-opacity:1"
         inkscape:connector-curvature="0" />
      <path
         id="path39"
         d="m 58.927354,106.26691 c -1.7,2.42001 -9.08,4.29001 -11.98,4.40001 -8.21,0.31 -10.68,-8.91001 -7.57,-14.760005 1.920001,-3.619997 6.860001,-4.699998 10.570001,-5.470001 8.509999,0.780001 11.959999,11.579996 8.979999,15.829996 z"
         style="fill:#00f400;fill-opacity:1;stroke:#000000;stroke-width:0.61602426;stroke-miterlimit:4;stroke-dasharray:none;stroke-opacity:1"
         inkscape:connector-curvature="0" />
      <path
         id="path37"
         d="m 170.94735,120.59692 c -5.76,2.80999 -13.88,-3.75001 -13.35,-9.81 0.54,-6.16 6.37,-10.16001 11.35,-12.930004 16.16,-3.099999 11.98,17.870004 2,22.740004 z"
         style="fill:#00f400;fill-opacity:1;stroke:#000000;stroke-width:0.61602426;stroke-miterlimit:4;stroke-dasharray:none;stroke-opacity:1"
         inkscape:connector-curvature="0" />
      <path
         id="path35"
         d="m 54.947355,111.10691 c 1.329999,-0.42 3.65,-1.24999 5,-1.26 3.69,-0.01 8.16,4.03 6.83,7.93 -0.45,1.33 -1.88,2.93001 -2.8,3.98 -3.640001,4.16001 -6.840001,6.73 -11.920001,2.59001 -1.26,-1.02 -2.18,-2.18 -2.969999,-3.59001 -1.210001,-2.13 -1.65,-4.60999 -2.140001,-6.98 0,0 8.000001,-2.67 8.000001,-2.67 z"
         style="fill:#00f400;fill-opacity:1;stroke:#000000;stroke-width:0.61602426;stroke-miterlimit:4;stroke-dasharray:none;stroke-opacity:1"
         inkscape:connector-curvature="0" />
      <path
         id="path33"
         d="m 156.92735,132.21691 c -4.03,1.53 -12.49,0.97001 -9.85,-5.41 1.35,-3.26999 5.85,-6.18999 8.87,-7.70999 9.61,0.27999 9.17,10 0.98,13.11999 z"
         style="fill:#00f400;fill-opacity:1;stroke:#000000;stroke-width:0.61602426;stroke-miterlimit:4;stroke-dasharray:none;stroke-opacity:1"
         inkscape:connector-curvature="0" />
      <path
         id="path31"
         d="m 145.72735,138.73692 c -1.78,3.85999 -6.7,6.49999 -10.78,6.93 -6.74,0.71999 -11.1,0.83 -14.2,-5.89 -0.76,-1.66001 -1.71,-3.85 -1.12,-5.7 1.81,-5.69 14.28,-4.23001 19.31,-4.82 5.03,0.14 9.1,4.48999 6.79,9.48 z"
         style="fill:#00f400;fill-opacity:1;stroke:#000000;stroke-width:0.61602426;stroke-miterlimit:4;stroke-dasharray:none;stroke-opacity:1"
         inkscape:connector-curvature="0" />
      <path
         id="path29"
         d="m 101.24735,143.75692 c -3.859996,8.65 -15.419996,4.45999 -16.829996,-2.00001 -0.76,-3.47999 1.85,-9.03999 5.7,-9.48 1.48,-0.16999 3.46,0.61001 4.83,1.12001 0,0 7.999996,3.38 7.999996,3.38 -0.37,1.93 -0.93,5.26 -1.7,6.98 z"
         style="fill:#00f400;fill-opacity:1;stroke:#000000;stroke-width:0.61602426;stroke-miterlimit:4;stroke-dasharray:none;stroke-opacity:1"
         inkscape:connector-curvature="0" />
      <path
         id="Selection #4"
         d="m 119.95735,145.73692 c -1.51,9.15 -21.919996,5.12 -14.7,-6.68 0.96,-1.56 2.06,-2.16 3.73999,-2.72001 0,0 7.95001,-1.56 7.95001,-1.56 0.61,2.58 3.31,9.19001 3.01,10.96001 z"
         style="fill:#00f400;fill-opacity:1;stroke:#000000;stroke-width:0.61602426;stroke-miterlimit:4;stroke-dasharray:none;stroke-opacity:1"
         inkscape:connector-curvature="0" />
      <path
         inkscape:connector-curvature="0"
         id="path891"
         style="font-style:normal;font-weight:normal;font-size:medium;line-height:1.25;font-family:sans-serif;letter-spacing:0px;word-spacing:0px;fill:#00f400;fill-opacity:1;stroke:#000000;stroke-width:0.61602426;stroke-miterlimit:4;stroke-dasharray:none;stroke-opacity:1"
         d="m 177.94094,9.5811746 v 1.1365544 h -4.93331 q 0.07,2.399389 0.66478,3.662225 0.60063,1.25021 1.66776,1.25021 0.61812,0 1.19542,-0.328339 0.58313,-0.328337 1.1546,-0.985012 v 2.197335 q -0.5773,0.530392 -1.18376,0.808216 -0.60646,0.277825 -1.23041,0.277825 -1.56279,0 -2.4783,-1.970025 -0.90969,-1.970026 -0.90969,-5.329171 0,-3.4728013 0.86303,-5.5059686 0.86887,-2.0457957 2.33836,-2.0457957 1.31788,0 2.08178,1.843741 0.76974,1.8311132 0.76974,4.9882049 z m -1.07297,-0.681931 q -0.0111,-1.9068839 -0.49565,-3.0434363 -0.47817,-1.1365537 -1.27124,-1.1365537 -0.89802,0 -1.44034,1.0986685 -0.53647,1.0986682 -0.61811,3.0939495 z" />
      <path
         inkscape:connector-curvature="0"
         id="path893"
         style="font-style:normal;font-weight:normal;font-size:medium;line-height:1.25;font-family:sans-serif;letter-spacing:0px;word-spacing:0px;fill:#00f400;fill-opacity:1;stroke:#000000;stroke-width:0.61602426;stroke-miterlimit:4;stroke-dasharray:none;stroke-opacity:1"
         d="m 180.73997,15.1124 v 7.50125 h -1.0788 V 3.090195 h 1.0788 v 2.1468223 q 0.33822,-1.2628376 0.85137,-1.8689985 0.51899,-0.6187901 1.23624,-0.6187901 1.18959,0 1.93017,2.0457957 0.74641,2.0457954 0.74641,5.3796846 0,3.333889 -0.74641,5.379684 -0.74058,2.045796 -1.93017,2.045796 -0.71725,0 -1.23624,-0.606162 -0.51315,-0.618791 -0.85137,-1.881627 z m 3.65042,-4.937691 q 0,-2.5635593 -0.48984,-4.0158206 -0.484,-1.4648909 -1.33537,-1.4648909 -0.85137,0 -1.34121,1.4648909 -0.484,1.4522613 -0.484,4.0158206 0,2.563559 0.484,4.028449 0.48984,1.452262 1.34121,1.452262 0.85137,0 1.33537,-1.452262 0.48984,-1.46489 0.48984,-4.028449 z" />
      <path
         inkscape:connector-curvature="0"
         id="path895"
         style="font-style:normal;font-weight:normal;font-size:medium;line-height:1.25;font-family:sans-serif;letter-spacing:0px;word-spacing:0px;fill:#00f400;fill-opacity:1;stroke:#000000;stroke-width:0.61602426;stroke-miterlimit:4;stroke-dasharray:none;stroke-opacity:1"
         d="m 187.28271,3.090195 h 1.07297 v 14.14377 h -1.07297 z m 0,-5.505968 h 1.07297 v 2.9424092 h -1.07297 z" />
      <path
         inkscape:connector-curvature="0"
         id="path897"
         style="font-style:normal;font-weight:normal;font-size:medium;line-height:1.25;font-family:sans-serif;letter-spacing:0px;word-spacing:0px;fill:#00f400;fill-opacity:1;stroke:#000000;stroke-width:0.61602426;stroke-miterlimit:4;stroke-dasharray:none;stroke-opacity:1"
         d="M 194.89259,5.2370173 V -2.415773 h 1.07296 v 19.649738 h -1.07296 V 15.1124 q -0.33821,1.262836 -0.8572,1.881627 -0.51316,0.606162 -1.23624,0.606162 -1.18377,0 -1.93017,-2.045796 -0.74058,-2.045795 -0.74058,-5.379684 0,-3.3338892 0.74058,-5.3796846 0.7464,-2.0457957 1.93017,-2.0457957 0.72308,0 1.23624,0.6187901 0.51899,0.6061609 0.8572,1.8689985 z m -3.65623,4.9376917 q 0,2.563559 0.48399,4.028449 0.48983,1.452262 1.3412,1.452262 0.85138,0 1.34121,-1.452262 0.48983,-1.46489 0.48983,-4.028449 0,-2.5635593 -0.48983,-4.0158206 -0.48983,-1.4648909 -1.34121,-1.4648909 -0.85137,0 -1.3412,1.4648909 -0.48399,1.4522613 -0.48399,4.0158206 z" />
      <path
         inkscape:connector-curvature="0"
         id="path899"
         style="font-style:normal;font-weight:normal;font-size:medium;line-height:1.25;font-family:sans-serif;letter-spacing:0px;word-spacing:0px;fill:#00f400;fill-opacity:1;stroke:#000000;stroke-width:0.61602426;stroke-miterlimit:4;stroke-dasharray:none;stroke-opacity:1"
         d="m 203.76203,9.5811746 v 1.1365544 h -4.93329 q 0.07,2.399389 0.66477,3.662225 0.60062,1.25021 1.66775,1.25021 0.61813,0 1.19542,-0.328339 0.58313,-0.328337 1.15461,-0.985012 v 2.197335 q -0.5773,0.530392 -1.18376,0.808216 -0.60645,0.277825 -1.23042,0.277825 -1.56279,0 -2.4783,-1.970025 -0.90969,-1.970026 -0.90969,-5.329171 0,-3.4728013 0.86304,-5.5059686 0.86886,-2.0457957 2.33835,-2.0457957 1.31788,0 2.08179,1.843741 0.76973,1.8311132 0.76973,4.9882049 z m -1.07296,-0.681931 q -0.0111,-1.9068839 -0.49566,-3.0434363 -0.47817,-1.1365537 -1.27123,-1.1365537 -0.89802,0 -1.44034,1.0986685 -0.53648,1.0986682 -0.61812,3.0939495 z" />
      <path
         inkscape:connector-curvature="0"
         id="path901"
         style="font-style:normal;font-weight:normal;font-size:medium;line-height:1.25;font-family:sans-serif;letter-spacing:0px;word-spacing:0px;fill:#00f400;fill-opacity:1;stroke:#000000;stroke-width:0.61602426;stroke-miterlimit:4;stroke-dasharray:none;stroke-opacity:1"
         d="m 209.30762,5.2622733 q -0.18077,-0.2273104 -0.39653,-0.328337 -0.20993,-0.1136571 -0.46651,-0.1136571 -0.90968,0 -1.39951,1.2880935 -0.48401,1.2754654 -0.48401,3.6748549 v 7.4507364 h -1.07878 V 3.090195 h 1.07878 v 2.1973356 q 0.33822,-1.2880937 0.88053,-1.9068838 0.54232,-0.6314181 1.31788,-0.6314181 0.1108,0 0.24493,0.037882 0.13411,0.025258 0.29738,0.088399 z" />
      <path
         inkscape:connector-curvature="0"
         id="path903"
         style="font-style:normal;font-weight:normal;font-size:medium;line-height:1.25;font-family:sans-serif;letter-spacing:0px;word-spacing:0px;fill:#00f400;fill-opacity:1;stroke:#000000;stroke-width:0.61602426;stroke-miterlimit:4;stroke-dasharray:none;stroke-opacity:1"
         d="m 215.31972,5.8052928 q 0.40236,-1.5659162 0.96216,-2.3109901 0.55981,-0.745074 1.31788,-0.745074 1.02048,0 1.57446,1.5532892 0.55397,1.5406602 0.55397,4.3946717 V 17.233965 H 218.6494 V 8.7729606 q 0,-2.0331686 -0.33238,-3.0181799 -0.33239,-0.9850124 -1.01466,-0.9850124 -0.83387,0 -1.31788,1.1996937 -0.484,1.1996948 -0.484,3.2707476 v 7.9937554 h -1.07879 V 8.7729606 q 0,-2.0457967 -0.33238,-3.0181799 -0.33238,-0.9850124 -1.02631,-0.9850124 -0.82222,0 -1.30622,1.2123229 -0.48401,1.1996937 -0.48401,3.2581184 v 7.9937554 h -1.07878 V 3.090195 h 1.07878 v 2.1973356 q 0.36738,-1.3007217 0.88053,-1.9195118 0.51317,-0.6187901 1.21875,-0.6187901 0.71143,0 1.20708,0.7829592 0.5015,0.7829581 0.74059,2.2731049 z" />
      <path
         inkscape:connector-curvature="0"
         id="path905"
         style="font-style:normal;font-weight:normal;font-size:medium;line-height:1.25;font-family:sans-serif;letter-spacing:0px;word-spacing:0px;fill:#00f400;fill-opacity:1;stroke:#000000;stroke-width:0.61602426;stroke-miterlimit:4;stroke-dasharray:none;stroke-opacity:1"
         d="m 221.87412,3.090195 h 1.07296 v 14.14377 h -1.07296 z m 0,-5.505968 h 1.07296 v 2.9424092 h -1.07296 z" />
      <path
         inkscape:connector-curvature="0"
         id="path907"
         style="font-style:normal;font-weight:normal;font-size:medium;line-height:1.25;font-family:sans-serif;letter-spacing:0px;word-spacing:0px;fill:#00f400;fill-opacity:1;stroke:#000000;stroke-width:0.61602426;stroke-miterlimit:4;stroke-dasharray:none;stroke-opacity:1"
         d="m 229.34987,3.5069307 v 2.1973355 q -0.45484,-0.5051342 -0.94468,-0.7577019 -0.48982,-0.2525668 -1.01464,-0.2525668 -0.79889,0 -1.20126,0.5303917 -0.39653,0.5303915 -0.39653,1.5911733 0,0.8082165 0.28573,1.2754651 0.28575,0.454621 1.14879,0.871357 l 0.36736,0.176798 q 1.14295,0.530391 1.62112,1.5027754 0.48399,0.959756 0.48399,2.689843 0,1.970024 -0.72308,3.119206 -0.71726,1.149182 -1.97681,1.149182 -0.52482,0 -1.0963,-0.227311 -0.56564,-0.214682 -1.19542,-0.656675 v -2.39939 q 0.5948,0.669303 1.1721,1.01027 0.57729,0.328337 1.14293,0.328337 0.75807,0 1.16627,-0.555648 0.40819,-0.568276 0.40819,-1.591174 0,-0.947127 -0.2974,-1.452263 -0.29157,-0.505134 -1.28872,-0.972384 l -0.3732,-0.189425 q -0.99716,-0.454621 -1.44033,-1.3891204 -0.44319,-0.947128 -0.44319,-2.5888153 0,-1.9952821 0.65311,-3.0813213 0.6531,-1.0860403 1.85436,-1.0860403 0.59479,0 1.11962,0.1894252 0.52482,0.1894264 0.96799,0.5682768 z" />
      <path
         style="opacity:1;fill:#00f400;fill-opacity:1;stroke:#000000;stroke-width:0.47742397;stroke-miterlimit:4;stroke-dasharray:none;stroke-opacity:1"
         d="m 147.48553,24.202992 20.98256,-11.93981 1.31045,1.06275 -20.98256,11.93981 z"
         id="rect970"
         inkscape:connector-curvature="0" />
    </g>
    <g
       id="cortex"
       style="fill:#f5250f;fill-opacity:1;stroke:#000000;stroke-width:0.61602426;stroke-miterlimit:4;stroke-dasharray:none;stroke-opacity:1"
       transform="translate(-43.587451,15.235972)">
      <path
         id="path75"
         d="m 133.54735,34.796916 c 3.93,4.76 6.38,7.47 1.57,12.83 -1.6,1.800001 -2.81,2.64 -5.21,3.000001 -4.08,0.61 -17.42,-1.060001 -20.48,-3.82 -1.74,-1.57 -2.34,-3.81 -2.81,-6.03 -1.62001,-7.610001 2.55,-10.170001 9.33,-12.080001 7.68,-0.43 12.54,-0.04 17.6,6.1 z"
         style="fill:#f5250f;fill-opacity:1;stroke:#000000;stroke-width:0.61602426;stroke-miterlimit:4;stroke-dasharray:none;stroke-opacity:1"
         inkscape:connector-curvature="0" />
      <path
         id="path73"
         d="m 81.947354,35.626916 c 2.86,-1.15 17.24,-1.85 20.999996,-1.85 0.38,2.840001 2.25,10.46 1.39,12.67 -1.09,2.8 -7.729996,6.1 -10.389996,7.750001 -3.65,2.259999 -14.14,9.08 -17.999999,9.149999 -2.4,0.04 -8.31,-2.629999 -11,-3.57 1.32,-9.36 7.92,-20.47 16.999999,-24.15 z"
         style="fill:#f5250f;fill-opacity:1;stroke:#000000;stroke-width:0.61602426;stroke-miterlimit:4;stroke-dasharray:none;stroke-opacity:1"
         inkscape:connector-curvature="0" />
      <path
         id="path71"
         d="m 149.94735,44.266916 c 6.06,1.73 12.79,7.280001 14.75001,13.51 0.45999,2.55 0.24999,8.130001 0,11.000001 0,0 -14.75001,1.309999 -14.75001,1.309999 -4.65,-1.379999 -15.19,-13.039999 -14.2,-18.31 0.36,-1.949999 3.93,-6.819999 5.2,-8.999999 0,0 9,1.489999 9,1.489999 z"
         style="fill:#f5250f;fill-opacity:1;stroke:#000000;stroke-width:0.61602426;stroke-miterlimit:4;stroke-dasharray:none;stroke-opacity:1"
         inkscape:connector-curvature="0" />
      <path
         id="path69"
         d="m 54.537355,86.776919 c -2.600001,-7.310002 0.86,-25.940002 11.41,-24.110003 10.91,1.900001 7.02,10.070001 7,18.110001 0,2.13 0.26,5.580002 -0.99,7.369998 -1.55,2.210004 -9.29,5.460004 -12.01,6.630004 -1.640001,-2.199999 -4.530001,-5.550003 -5.41,-8 z"
         style="fill:#f5250f;fill-opacity:1;stroke:#000000;stroke-width:0.61602426;stroke-miterlimit:4;stroke-dasharray:none;stroke-opacity:1"
         inkscape:connector-curvature="0" />
      <path
         id="path67"
         d="m 168.94735,85.776914 c 0,2.110006 0.17,5.950001 -0.6,7.830005 -1.31,3.219999 -8.83,9.529991 -12.4,9.450001 -3.17,-0.06 -9.3,-4.360003 -10.36,-7.370003 -1.07,-3.039999 2.54,-17.83 4.56,-20.48 2.29,-3.01 9.19,-3.53 12.76,-3.69 6.48,1.85 6.03,8.64 6.04,14.259997 z"
         style="fill:#f5250f;fill-opacity:1;stroke:#000000;stroke-width:0.61602426;stroke-miterlimit:4;stroke-dasharray:none;stroke-opacity:1"
         inkscape:connector-curvature="0" />
      <path
         id="path65"
         d="m 72.037355,115.22691 c -2.39,-1.3 -4.35,-3.35999 -6.03,-5.47 -2.440001,-3.02999 -5.450001,-9.80999 -2.45,-13.349992 1.08,-1.269998 3.859999,-2.640002 5.39,-3.37 2.25,-1.070003 4.439999,-2.100001 7,-1.770001 5.209999,0.690001 8.049999,5.689999 10.889999,9.510003 1.8,2.41999 5.13,5.71999 3.94,8.96 0,0 -7.83,9.03999 -7.83,9.03999 -3.22,-0.57999 -8.049999,-1.99999 -10.909999,-3.55 z"
         style="fill:#f5250f;fill-opacity:1;stroke:#000000;stroke-width:0.61602426;stroke-miterlimit:4;stroke-dasharray:none;stroke-opacity:1"
         inkscape:connector-curvature="0" />
      <path
         id="path63"
         d="m 152.43735,117.77691 c -5.68,8.01 -10.46,9.02001 -19.49,9 -2.14,0 -5.71,0.23001 -7.49,-1.02 -3.66,-2.56999 -4.1,-10.41 -1.93,-13.97999 3.83,-6.29 11.35,-10.75001 18.42,-12.25 9.48,0.88 16.8,9.34999 10.49,18.24999 z"
         style="fill:#f5250f;fill-opacity:1;stroke:#000000;stroke-width:0.61602426;stroke-miterlimit:4;stroke-dasharray:none;stroke-opacity:1"
         inkscape:connector-curvature="0" />
      <path
         id="path61"
         d="m 117.41735,114.91692 c 1.89,1.50999 4.91,10.42 4.13,12.68 -0.67,1.93999 -2.86,3.28 -4.61,4.13 -8.33,4.06 -16.959996,2.25 -24.899996,-1.75 -2.99,-1.51 -7.77,-6.56 -6.77,-10.2 0.91,-3.3 5.93,-7.15 8.68,-8.96 4.39,-1.29 19.859996,1.21999 23.469996,4.1 z"
         style="fill:#f5250f;fill-opacity:1;stroke:#000000;stroke-width:0.61602426;stroke-miterlimit:4;stroke-dasharray:none;stroke-opacity:1"
         inkscape:connector-curvature="0" />
      <path
         id="path977"
         style="font-style:normal;font-weight:normal;font-size:medium;line-height:1.25;font-family:sans-serif;letter-spacing:0px;word-spacing:0px;fill:#f5250f;fill-opacity:1;stroke:#000000;stroke-width:0.21978737;stroke-miterlimit:4;stroke-dasharray:none;stroke-opacity:1"
         d="m 178.30566,148.5834 v 1.98946 q -0.49707,-0.49738 -1.00051,-0.74027 -0.49707,-0.25446 -1.00688,-0.25446 -1.14071,0 -1.77159,1.31859 -0.63089,1.30702 -0.63089,3.67818 0,2.37116 0.63089,3.68975 0.63088,1.30703 1.77159,1.30703 0.50981,0 1.00688,-0.2429 0.50344,-0.25447 1.00051,-0.75182 v 1.96631 q -0.4907,0.41641 -1.01964,0.62461 -0.52255,0.2082 -1.1152,0.2082 -1.61228,0 -2.56181,-1.8391 -0.94952,-1.8391 -0.94952,-4.96208 0,-3.16925 0.9559,-4.98521 0.96226,-1.81596 2.63189,-1.81596 0.54169,0 1.05787,0.2082 0.51618,0.19664 1.00051,0.60147 z"
         inkscape:connector-curvature="0" />
      <path
         id="path979"
         style="font-style:normal;font-weight:normal;font-size:medium;line-height:1.25;font-family:sans-serif;letter-spacing:0px;word-spacing:0px;fill:#f5250f;fill-opacity:1;stroke:#000000;stroke-width:0.21978737;stroke-miterlimit:4;stroke-dasharray:none;stroke-opacity:1"
         d="m 183.12337,149.57813 q -0.94316,0 -1.49119,1.34172 -0.54806,1.33016 -0.54806,3.65505 0,2.32489 0.54168,3.66662 0.54805,1.33016 1.49757,1.33016 0.93677,0 1.48482,-1.34173 0.54805,-1.34172 0.54805,-3.65505 0,-2.30176 -0.54805,-3.64348 -0.54805,-1.35329 -1.48482,-1.35329 z m 0,-1.8044 q 1.52943,0 2.40248,1.8044 0.87305,1.80438 0.87305,4.99677 0,3.18082 -0.87305,4.99678 -0.87305,1.8044 -2.40248,1.8044 -1.53582,0 -2.40885,-1.8044 -0.8667,-1.81596 -0.8667,-4.99678 0,-3.19239 0.8667,-4.99677 0.87303,-1.8044 2.40885,-1.8044 z"
         inkscape:connector-curvature="0" />
      <path
         id="path981"
         style="font-style:normal;font-weight:normal;font-size:medium;line-height:1.25;font-family:sans-serif;letter-spacing:0px;word-spacing:0px;fill:#f5250f;fill-opacity:1;stroke:#000000;stroke-width:0.21978737;stroke-miterlimit:4;stroke-dasharray:none;stroke-opacity:1"
         d="m 192.47203,150.07548 q -0.19755,-0.20819 -0.43334,-0.30073 -0.22941,-0.10409 -0.5098,-0.10409 -0.99414,0 -1.52944,1.17979 -0.52894,1.16823 -0.52894,3.36589 v 6.82429 h -1.17893 v -12.9546 h 1.17893 v 2.01259 q 0.36962,-1.17979 0.96228,-1.74655 0.59266,-0.57834 1.44022,-0.57834 0.12108,0 0.26764,0.0348 0.14657,0.0232 0.32501,0.081 z"
         inkscape:connector-curvature="0" />
      <path
         id="path983"
         style="font-style:normal;font-weight:normal;font-size:medium;line-height:1.25;font-family:sans-serif;letter-spacing:0px;word-spacing:0px;fill:#f5250f;fill-opacity:1;stroke:#000000;stroke-width:0.21978737;stroke-miterlimit:4;stroke-dasharray:none;stroke-opacity:1"
         d="m 194.87451,144.40785 v 3.67818 h 2.41524 v 1.65402 h -2.41524 v 7.03252 q 0,1.58461 0.23579,2.03572 0.24217,0.45109 0.97502,0.45109 h 1.20443 v 1.78125 h -1.20443 q -1.35738,0 -1.87356,-0.91376 -0.51618,-0.92532 -0.51618,-3.3543 v -7.03252 h -0.8603 v -1.65402 h 0.8603 v -3.67818 z"
         inkscape:connector-curvature="0" />
      <path
         id="path985"
         style="font-style:normal;font-weight:normal;font-size:medium;line-height:1.25;font-family:sans-serif;letter-spacing:0px;word-spacing:0px;fill:#f5250f;fill-opacity:1;stroke:#000000;stroke-width:0.21978737;stroke-miterlimit:4;stroke-dasharray:none;stroke-opacity:1"
         d="m 204.9433,154.03127 v 1.04099 h -5.39126 q 0.0765,2.19766 0.72649,3.35432 0.65638,1.1451 1.82255,1.1451 0.6755,0 1.30641,-0.30074 0.63726,-0.30073 1.26178,-0.9022 v 2.0126 q -0.63089,0.48579 -1.29366,0.74026 -0.66275,0.25448 -1.34461,0.25448 -1.70788,0 -2.70837,-1.8044 -0.99414,-1.8044 -0.99414,-4.88111 0,-3.18082 0.94315,-5.04304 0.94951,-1.8738 2.55542,-1.8738 1.44023,0 2.27504,1.68873 0.8412,1.67716 0.8412,4.56881 z m -1.17257,-0.62459 q -0.0127,-1.74657 -0.54168,-2.78756 -0.52255,-1.04099 -1.38923,-1.04099 -0.98139,0 -1.57405,1.00629 -0.58627,1.00629 -0.6755,2.83382 z"
         inkscape:connector-curvature="0" />
      <path
         id="path987"
         style="font-style:normal;font-weight:normal;font-size:medium;line-height:1.25;font-family:sans-serif;letter-spacing:0px;word-spacing:0px;fill:#f5250f;fill-opacity:1;stroke:#000000;stroke-width:0.21978737;stroke-miterlimit:4;stroke-dasharray:none;stroke-opacity:1"
         d="m 212.57134,148.08603 -2.58091,6.3038 2.71473,6.6508 h -1.38285 l -2.07749,-5.08931 -2.07748,5.08931 h -1.38287 l 2.77212,-6.77803 -2.53632,-6.17657 h 1.38287 l 1.89266,4.61509 1.89268,-4.61509 z"
         inkscape:connector-curvature="0" />
      <path
         style="opacity:1;fill:#f5250f;fill-opacity:1;stroke:#000000;stroke-width:0.65693986;stroke-miterlimit:4;stroke-dasharray:none;stroke-opacity:1"
         d="m 142.83968,118.45497 27.44608,27.24025 -1.31243,1.31515 -27.4461,-27.24026 z"
         id="rect970-3"
         inkscape:connector-curvature="0" />
      <path
         style="opacity:1;fill:#0609f9;fill-opacity:1;stroke:#000000;stroke-width:0.70625556;stroke-miterlimit:4;stroke-dasharray:none;stroke-opacity:1"
         d="M 40.995919,137.54549 91.531165,82.003579 93.964413,80.972414 43.429151,136.51437 Z"
         id="rect970-3-7"
         inkscape:connector-curvature="0" />
    </g>
    <g
       id="endodermis"
       style="fill:#f5f70f;fill-opacity:1;stroke:#000000;stroke-width:0.61602426;stroke-miterlimit:4;stroke-dasharray:none;stroke-opacity:1"
       transform="translate(-43.587451,15.235972)">
      <path
         id="path89"
         d="m 90.947354,58.326916 c 6.04999,-3.639999 12.569996,-9.829999 19.999996,-8.55 -2.4,6.820001 -6.05,6.52 -11.999996,9.32 -5.93,2.790001 -9.27,5.42 -16,6.68 1.58,-4.689999 3.95,-5.01 8,-7.45 z"
         style="fill:#f5f70f;fill-opacity:1;stroke:#000000;stroke-width:0.61602426;stroke-miterlimit:4;stroke-dasharray:none;stroke-opacity:1"
         inkscape:connector-curvature="0" />
      <path
         id="path87"
         d="m 115.16735,52.086916 c 2.37,-0.62 15.2,1.150001 17.13,2.64 1.4,1.090001 1.9,2.540001 2.65,4.050001 -7.31,3.219999 -16.09,-0.970001 -23,-4 1.07,-1.430001 1.28,-2.19 3.22,-2.690001 z"
         style="fill:#f5f70f;fill-opacity:1;stroke:#000000;stroke-width:0.61602426;stroke-miterlimit:4;stroke-dasharray:none;stroke-opacity:1"
         inkscape:connector-curvature="0" />
      <path
         id="path85"
         d="m 135.06735,68.776917 c -1.06,-1.76 -2.6,-5.69 0,-6.660001 2.52,-0.8 5.41,2.260001 6.88,3.680001 6.43,6.229999 6.46,7.48 3,14.98 -5.51,-1.99 -7.63,-6.88 -9.88,-12 z"
         style="fill:#f5f70f;fill-opacity:1;stroke:#000000;stroke-width:0.61602426;stroke-miterlimit:4;stroke-dasharray:none;stroke-opacity:1"
         inkscape:connector-curvature="0" />
      <path
         id="path83"
         d="m 75.947355,72.776917 c 0.04,-1.800001 -0.09,-4.750001 1.58,-5.920001 4.489999,-3.159999 4.469999,5.980001 4.699999,7.920001 0,0 0.76,7 0.76,7 0.45,4.520002 1.18,5.360002 0,10 -8.499999,-3.709997 -7.299999,-4.939998 -7.039999,-19 z"
         style="fill:#f5f70f;fill-opacity:1;stroke:#000000;stroke-width:0.61602426;stroke-miterlimit:4;stroke-dasharray:none;stroke-opacity:1"
         inkscape:connector-curvature="0" />
      <path
         id="path81"
         d="m 126.25735,98.776919 c 0.97,-3.630002 10.42,-13.490003 13.69,-15.230002 1.98,-1.04 2.93,-0.81 5,-0.77 0,0 -3.16,12.61 -3.16,12.61 0,0 -14.84,8.390003 -14.84,8.390003 -0.69,-1.96001 -1.29,-2.78001 -0.69,-5.000001 z"
         style="fill:#f5f70f;fill-opacity:1;stroke:#000000;stroke-width:0.61602426;stroke-miterlimit:4;stroke-dasharray:none;stroke-opacity:1"
         inkscape:connector-curvature="0" />
      <path
         id="path79"
         d="m 100.94735,100.77692 c -3.079996,15.94999 -14.409996,-2.750001 -15.089996,-6.000001 -0.53999,-1.850003 -0.2,-2.319999 0,-4 0,0 15.089996,10.000001 15.089996,10.000001 z"
         style="fill:#f5f70f;fill-opacity:1;stroke:#000000;stroke-width:0.61602426;stroke-miterlimit:4;stroke-dasharray:none;stroke-opacity:1"
         inkscape:connector-curvature="0" />
      <path
         id="path77"
         d="m 113.94735,102.60692 c 2.84,-0.25001 7.07,-1.29 9.38,1.02 2.43,2.44 -0.03,5.84 -2.44,7.07 -2.79,1.54999 -6.06,0.63 -8.94,0 -4.22,-1.05 -5.53,-1.54 -10,-1.92 0.95,-7.96001 4.07,-5.45 12,-6.17 z"
         style="fill:#f5f70f;fill-opacity:1;stroke:#000000;stroke-width:0.61602426;stroke-miterlimit:4;stroke-dasharray:none;stroke-opacity:1"
         inkscape:connector-curvature="0" />
      <path
         inkscape:connector-curvature="0"
         id="path1146"
         style="font-style:normal;font-weight:normal;font-size:medium;line-height:1.25;font-family:sans-serif;letter-spacing:0px;word-spacing:0px;fill:#f5f70f;fill-opacity:1;stroke:#000000;stroke-width:0.61602426;stroke-miterlimit:4;stroke-dasharray:none;stroke-opacity:1"
         d="M 5.2381777,-0.61010446 V 0.40475197 H 0.90106887 Q 0.96258793,2.5472267 1.485502,3.6748449 q 0.5280404,1.116342 1.4662094,1.116342 0.5434202,0 1.0509542,-0.2931807 0.5126607,-0.2931807 1.015068,-0.8795422 v 1.9620557 q -0.507534,0.4735996 -1.040701,0.7216757 -0.5331671,0.248076 -1.0817139,0.248076 -1.3739305,0 -2.17880768,-1.7590845 -0.79975055,-1.7590844 -0.79975055,-4.75854896 0,-3.10095014 0.75873773,-4.91641554 0.7638643,-1.8267416 2.055769,-1.8267416 1.1586131,0 1.8301985,1.6463227 0.676712,1.6350464 0.676712,4.45409204 z M 4.2948822,-1.2190183 q -0.010253,-1.7027035 -0.4357616,-2.71756 -0.4203817,-1.0148564 -1.1176001,-1.0148564 -0.7894974,0 -1.2662718,0.9810278 -0.4716477,0.9810279 -0.54342023,2.7626648 z" />
      <path
         inkscape:connector-curvature="0"
         id="path1148"
         style="font-style:normal;font-weight:normal;font-size:medium;line-height:1.25;font-family:sans-serif;letter-spacing:0px;word-spacing:0px;fill:#f5f70f;fill-opacity:1;stroke:#000000;stroke-width:0.61602426;stroke-miterlimit:4;stroke-dasharray:none;stroke-opacity:1"
         d="m 11.559284,-1.3994372 v 7.6226993 h -0.943296 v -7.5550422 q 0,-1.7929131 -0.31785,-2.6837315 Q 9.9802885,-4.90633 9.3445893,-4.90633 q -0.7638638,0 -1.2047522,1.0712373 -0.4408884,1.0712374 -0.4408884,2.92053131 V 6.2232621 H 6.7505271 V -6.4060623 h 0.9484216 v 1.9620558 q 0.3383562,-1.1388944 0.794624,-1.7027036 0.461395,-0.5638091 1.0612075,-0.5638091 0.9894358,0 1.4969698,1.353142 0.507534,1.3418656 0.507534,3.95794 z" />
      <path
         inkscape:connector-curvature="0"
         id="path1150"
         style="font-style:normal;font-weight:normal;font-size:medium;line-height:1.25;font-family:sans-serif;letter-spacing:0px;word-spacing:0px;fill:#f5f70f;fill-opacity:1;stroke:#000000;stroke-width:0.61602426;stroke-miterlimit:4;stroke-dasharray:none;stroke-opacity:1"
         d="m 17.229311,-4.4891113 v -6.8333667 h 0.943295 V 6.2232621 H 17.229311 V 4.3288635 q -0.297344,1.1276182 -0.753612,1.6801512 -0.451141,0.5412567 -1.08684,0.5412567 -1.040701,0 -1.696907,-1.8267416 -0.651078,-1.8267414 -0.651078,-4.80365368 0,-2.97691212 0.651078,-4.80365372 0.656206,-1.8267416 1.696907,-1.8267416 0.635699,0 1.08684,0.5525329 0.456268,0.5412568 0.753612,1.668875 z m -3.214382,4.40898742 q 0,2.28906508 0.425508,3.59710228 0.430635,1.2967609 1.179119,1.2967609 0.748485,0 1.179119,-1.2967609 0.430636,-1.3080372 0.430636,-3.59710228 0,-2.28906512 -0.430636,-3.58582612 -0.430634,-1.3080371 -1.179119,-1.3080371 -0.748484,0 -1.179119,1.3080371 -0.425508,1.296761 -0.425508,3.58582612 z" />
      <path
         inkscape:connector-curvature="0"
         id="path1152"
         style="font-style:normal;font-weight:normal;font-size:medium;line-height:1.25;font-family:sans-serif;letter-spacing:0px;word-spacing:0px;fill:#f5f70f;fill-opacity:1;stroke:#000000;stroke-width:0.61602426;stroke-miterlimit:4;stroke-dasharray:none;stroke-opacity:1"
         d="m 22.340538,-4.9514347 q -0.758738,0 -1.199627,1.3080371 -0.440888,1.296761 -0.440888,3.56327372 0,2.26651268 0.435762,3.57454988 0.440888,1.2967609 1.204753,1.2967609 0.75361,0 1.194499,-1.3080371 0.440888,-1.3080372 0.440888,-3.56327368 0,-2.24396032 -0.440888,-3.55199752 -0.440889,-1.3193133 -1.194499,-1.3193133 z m 0,-1.7590845 q 1.230385,0 1.93273,1.7590845 0.702345,1.7590844 0.702345,4.87131082 0,3.10095018 -0.702345,4.87131078 -0.702345,1.7590845 -1.93273,1.7590845 -1.235513,0 -1.937858,-1.7590845 -0.697218,-1.7703606 -0.697218,-4.87131078 0,-3.11222642 0.697218,-4.87131082 0.702345,-1.7590845 1.937858,-1.7590845 z" />
      <path
         inkscape:connector-curvature="0"
         id="path1154"
         style="font-style:normal;font-weight:normal;font-size:medium;line-height:1.25;font-family:sans-serif;letter-spacing:0px;word-spacing:0px;fill:#f5f70f;fill-opacity:1;stroke:#000000;stroke-width:0.61602426;stroke-miterlimit:4;stroke-dasharray:none;stroke-opacity:1"
         d="m 30.312409,-4.4891113 v -6.8333667 h 0.943295 V 6.2232621 H 30.312409 V 4.3288635 q -0.297343,1.1276182 -0.753612,1.6801512 -0.451141,0.5412567 -1.08684,0.5412567 -1.040701,0 -1.696907,-1.8267416 -0.651079,-1.8267414 -0.651079,-4.80365368 0,-2.97691212 0.651079,-4.80365372 0.656206,-1.8267416 1.696907,-1.8267416 0.635699,0 1.08684,0.5525329 0.456269,0.5412568 0.753612,1.668875 z m -3.214382,4.40898742 q 0,2.28906508 0.425508,3.59710228 0.430635,1.2967609 1.179119,1.2967609 0.748484,0 1.179119,-1.2967609 0.430636,-1.3080372 0.430636,-3.59710228 0,-2.28906512 -0.430636,-3.58582612 -0.430635,-1.3080371 -1.179119,-1.3080371 -0.748484,0 -1.179119,1.3080371 -0.425508,1.296761 -0.425508,3.58582612 z" />
      <path
         inkscape:connector-curvature="0"
         id="path1156"
         style="font-style:normal;font-weight:normal;font-size:medium;line-height:1.25;font-family:sans-serif;letter-spacing:0px;word-spacing:0px;fill:#f5f70f;fill-opacity:1;stroke:#000000;stroke-width:0.61602426;stroke-miterlimit:4;stroke-dasharray:none;stroke-opacity:1"
         d="m 38.109977,-0.61010446 v 1.01485643 h -4.337109 q 0.06152,2.14247473 0.584433,3.27009293 0.52804,1.116342 1.46621,1.116342 0.543419,0 1.050953,-0.2931807 0.512661,-0.2931807 1.015069,-0.8795422 v 1.9620557 q -0.507535,0.4735996 -1.040702,0.7216757 -0.533167,0.248076 -1.081713,0.248076 -1.373931,0 -2.178808,-1.7590845 -0.799751,-1.7590844 -0.799751,-4.75854896 0,-3.10095014 0.758738,-4.91641554 0.763865,-1.8267416 2.055769,-1.8267416 1.158613,0 1.830198,1.6463227 0.676713,1.6350464 0.676713,4.45409204 z M 37.166681,-1.2190183 q -0.01026,-1.7027035 -0.435761,-2.71756 -0.420382,-1.0148564 -1.1176,-1.0148564 -0.789498,0 -1.266272,0.9810278 -0.471648,0.9810279 -0.54342,2.7626648 z" />
      <path
         inkscape:connector-curvature="0"
         id="path1158"
         style="font-style:normal;font-weight:normal;font-size:medium;line-height:1.25;font-family:sans-serif;letter-spacing:0px;word-spacing:0px;fill:#f5f70f;fill-opacity:1;stroke:#000000;stroke-width:0.61602426;stroke-miterlimit:4;stroke-dasharray:none;stroke-opacity:1"
         d="m 42.98538,-4.4665589 q -0.158925,-0.2029713 -0.348609,-0.2931807 -0.184558,-0.101486 -0.410129,-0.101486 -0.79975,0 -1.230385,1.1501706 -0.425508,1.1388944 -0.425508,3.28136901 V 6.2232621 H 39.622326 V -6.4060623 h 0.948423 v 1.9620558 q 0.297343,-1.1501706 0.774117,-1.7027036 0.476774,-0.5638091 1.158613,-0.5638091 0.09741,0 0.215318,0.033829 0.117911,0.022552 0.261457,0.078933 z" />
      <path
         inkscape:connector-curvature="0"
         id="path1160"
         style="font-style:normal;font-weight:normal;font-size:medium;line-height:1.25;font-family:sans-serif;letter-spacing:0px;word-spacing:0px;fill:#f5f70f;fill-opacity:1;stroke:#000000;stroke-width:0.61602426;stroke-miterlimit:4;stroke-dasharray:none;stroke-opacity:1"
         d="m 48.270913,-3.9816831 q 0.353736,-1.3982465 0.84589,-2.0635413 0.492154,-0.6652948 1.158613,-0.6652948 0.897156,0 1.384184,1.3869704 0.487027,1.3756943 0.487027,3.9241116 v 7.6226993 h -0.948422 v -7.5550422 q 0,-1.8154654 -0.292217,-2.6950076 -0.292216,-0.8795423 -0.892029,-0.8795423 -0.733105,0 -1.158613,1.0712373 -0.425508,1.0712374 -0.425508,2.92053131 V 6.2232621 h -0.948422 v -7.5550422 q 0,-1.8267416 -0.292217,-2.6950076 -0.292217,-0.8795423 -0.902283,-0.8795423 -0.722851,0 -1.148359,1.0825135 -0.425509,1.0712374 -0.425509,2.90925511 V 6.2232621 H 43.764626 V -6.4060623 h 0.948422 v 1.9620558 q 0.322976,-1.1614468 0.774118,-1.7139798 0.451141,-0.5525329 1.07146,-0.5525329 0.625447,0 1.061208,0.6991234 0.440888,0.6991232 0.651079,2.0297127 z" />
      <path
         inkscape:connector-curvature="0"
         id="path1162"
         style="font-style:normal;font-weight:normal;font-size:medium;line-height:1.25;font-family:sans-serif;letter-spacing:0px;word-spacing:0px;fill:#f5f70f;fill-opacity:1;stroke:#000000;stroke-width:0.61602426;stroke-miterlimit:4;stroke-dasharray:none;stroke-opacity:1"
         d="m 54.033218,-6.4060623 h 0.943295 V 6.2232621 h -0.943295 z m 0,-4.9164157 h 0.943295 v 2.6273507 h -0.943295 z" />
      <path
         inkscape:connector-curvature="0"
         id="path1164"
         style="font-style:normal;font-weight:normal;font-size:medium;line-height:1.25;font-family:sans-serif;letter-spacing:0px;word-spacing:0px;fill:#f5f70f;fill-opacity:1;stroke:#000000;stroke-width:0.61602426;stroke-miterlimit:4;stroke-dasharray:none;stroke-opacity:1"
         d="m 60.605525,-6.0339482 v 1.9620557 q -0.399875,-0.4510472 -0.830511,-0.6765709 -0.430634,-0.2255237 -0.892029,-0.2255237 -0.702345,0 -1.056081,0.4735996 -0.348609,0.4735998 -0.348609,1.4207991 0,0.7216756 0.251204,1.1388944 0.251204,0.4059425 1.009941,0.7780566 l 0.322976,0.1578666 q 1.004815,0.47359961 1.425197,1.34186568 0.425508,0.85698982 0.425508,2.40182692 0,1.7590844 -0.635699,2.7852171 -0.630573,1.0261325 -1.737919,1.0261325 -0.461395,0 -0.963803,-0.2029712 Q 57.07842,6.1556051 56.524746,5.7609386 V 3.618464 q 0.522914,0.5976377 1.030448,0.9020946 0.507534,0.2931807 1.004815,0.2931807 0.666459,0 1.025321,-0.496152 0.358863,-0.5074282 0.358863,-1.4207989 0,-0.8457137 -0.261457,-1.2967612 Q 59.426405,1.14898 58.549756,0.73176126 L 58.221653,0.56261852 Q 57.345003,0.15667596 56.955381,-0.67776156 56.565759,-1.5234753 56.565759,-2.989379 q 0,-1.7816368 0.57418,-2.7513885 0.57418,-0.9697517 1.63026,-0.9697517 0.522914,0 0.984309,0.1691428 0.461395,0.1691427 0.851017,0.5074282 z" />
      <path
         style="opacity:1;fill:#f5f70f;fill-opacity:1;stroke:#000000;stroke-width:0.61602426;stroke-miterlimit:4;stroke-dasharray:none;stroke-opacity:1"
         d="M 39.088608,9.7600603 103.25935,53.964642 100.7211,54.454729 36.550303,10.250126 Z"
         id="rect970-3-6"
         inkscape:connector-curvature="0" />
    </g>
    <g
       id="stele"
       style="fill:#0609f9;fill-opacity:1;stroke:#000000;stroke-width:0.73615843;stroke-miterlimit:4;stroke-dasharray:none;stroke-opacity:1"
       transform="matrix(0.86307286,0,0,0.81134499,-43.733431,-11.228565)">
      <path
         id="path119-3"
         d="m 132.38119,112.07627 c -9.87,-0.19 -8.05,-6.65 -6.4,-7.98 3.01,-2.41001 11.44999,0.38 13.38,3.37 0.95,1.48 0.88,2.96 1.02,4.61 0,0 -8,0 -8,0 z"
         style="fill:#0609f9;fill-opacity:1;stroke:#000000;stroke-width:0.73615843;stroke-miterlimit:4;stroke-dasharray:none;stroke-opacity:1"
         inkscape:connector-curvature="0" />
      <path
         id="path117-6"
         d="m 121.38119,113.55627 c -2.59,-0.43 -4.95,0.52 -6.68,0 -6.72,-2.8 5.07,-7.78 6.68,-8.48 3.26,7.23 2.9,8.5 11,10 -4.88,3.25 -6.33,-0.31 -11,-1.52 z"
         style="fill:#0609f9;fill-opacity:1;stroke:#000000;stroke-width:0.73615843;stroke-miterlimit:4;stroke-dasharray:none;stroke-opacity:1"
         inkscape:connector-curvature="0" />
      <path
         id="path115-7"
         d="m 156.38119,123.23627 c -1.63,0.18 -3.13,0.71 -4.82,0 -4.6,-1.37 -7.71,-9.78 -8.18,-14.16 9.16,0.32 10.29,6.24 13,14.16 z"
         style="fill:#0609f9;fill-opacity:1;stroke:#000000;stroke-width:0.73615843;stroke-miterlimit:4;stroke-dasharray:none;stroke-opacity:1"
         inkscape:connector-curvature="0" />
      <path
         id="path113-5"
         d="m 102.88281,121.8753 c -2.80326,0.40149 -6.255311,-0.66533 -4.712902,-3.92315 1.407751,-2.99398 5.251522,-4.23287 8.287372,-5.08173 8.89944,0.74562 1.73827,8.24778 -3.57447,9.00488 z"
         style="fill:#0609f9;fill-opacity:1;stroke:#000000;stroke-width:0.73615843;stroke-miterlimit:4;stroke-dasharray:none;stroke-opacity:1"
         inkscape:connector-curvature="0" />
      <path
         id="path111-3"
         d="m 133.60334,117.1195 c 0.84,-3.96 5.74,-2.89 8.68,-2.98 2.64,5.07 4.42,6.8 1,12 -0.73,-4.98 -0.05,-6.44 -4,-10 0,0 2,4 2,4 0,0 -4,0 -4,0 0,0 1,-5 1,-5 -2.9,1.73 -2.82,1.63 -3,5 -1.14,-0.89 -2.09,-1.13 -1.68,-3.02 z"
         style="fill:#0609f9;fill-opacity:1;stroke:#000000;stroke-width:0.73615843;stroke-miterlimit:4;stroke-dasharray:none;stroke-opacity:1"
         inkscape:connector-curvature="0" />
      <path
         id="path109-5"
         d="m 116.22417,116.24064 c 0,0 0,5.92028 0,5.92028 0,0 -4.39607,0 -4.39607,0 0,0 1.46536,-5.92028 1.46536,-5.92028 0,0 2.93071,0 2.93071,0 z"
         style="fill:#0609f9;fill-opacity:1;stroke:#000000;stroke-width:0.73615843;stroke-miterlimit:4;stroke-dasharray:none;stroke-opacity:1"
         inkscape:connector-curvature="0" />
      <path
         id="path107-6"
         d="m 122.38118,116.07627 c -1.58999,2.26 -1.57999,2.39 -3.99999,1 0,0 3.99999,-1 3.99999,-1 z"
         style="fill:#0609f9;fill-opacity:1;stroke:#000000;stroke-width:0.73615843;stroke-miterlimit:4;stroke-dasharray:none;stroke-opacity:1"
         inkscape:connector-curvature="0" />
      <path
         id="path105-2"
         d="m 125.94878,118.38961 c 0,0 -1.8396,7.37451 -1.8396,7.37451 0,0 -1.83961,-7.37451 -1.83961,-7.37451 0,0 3.67921,0 3.67921,0 z"
         style="fill:#0609f9;fill-opacity:1;stroke:#000000;stroke-width:0.73615843;stroke-miterlimit:4;stroke-dasharray:none;stroke-opacity:1"
         inkscape:connector-curvature="0" />
      <path
         id="path103-9"
         d="m 111.29053,129.25028 c 0,0 -2.15086,-6.90308 -2.15086,-6.90308 4.12964,2.53879 5.14054,4.11883 2.15086,6.90308 z"
         style="fill:#0609f9;fill-opacity:1;stroke:#000000;stroke-width:0.73615843;stroke-miterlimit:4;stroke-dasharray:none;stroke-opacity:1"
         inkscape:connector-curvature="0" />
      <path
         id="path101-1"
         d="m 121.38119,121.07627 c 0,0 -6,4 -6,4 0,0 6,-4 6,-4 z"
         style="fill:#0609f9;fill-opacity:1;stroke:#000000;stroke-width:0.73615843;stroke-miterlimit:4;stroke-dasharray:none;stroke-opacity:1"
         inkscape:connector-curvature="0" />
      <path
         id="path99-2"
         d="m 131.19122,119.87672 c 0,0 -3.25202,2.39419 -3.25202,2.39419 0,0 3.25202,5.98545 3.25202,5.98545 -6.16258,-1.8914 -4.60161,-4.14193 -3.25202,-8.37964 0,0 3.25202,0 3.25202,0 z"
         style="fill:#0609f9;fill-opacity:1;stroke:#000000;stroke-width:0.73615843;stroke-miterlimit:4;stroke-dasharray:none;stroke-opacity:1"
         inkscape:connector-curvature="0" />
      <path
         id="path97-7"
         d="m 103.09477,134.2444 c -6.1021,-3.17586 -5.611624,-6.25891 -5.770308,-11.34234 9.246908,1.51575 7.991868,5.73304 5.770308,11.34234 z"
         style="fill:#0609f9;fill-opacity:1;stroke:#000000;stroke-width:0.73615843;stroke-miterlimit:4;stroke-dasharray:none;stroke-opacity:1"
         inkscape:connector-curvature="0" />
      <path
         id="path95-0"
         d="m 108.38119,128.07627 c 0,0 -1,-4 -1,-4 0,0 1,4 1,4 z"
         style="fill:#0609f9;fill-opacity:1;stroke:#000000;stroke-width:0.73615843;stroke-miterlimit:4;stroke-dasharray:none;stroke-opacity:1"
         inkscape:connector-curvature="0" />
      <path
         id="path93-9"
         d="m 127.22329,131.80164 c 0,0 -7.87989,-7.3914 -7.87989,-7.3914 0,0 7.87989,7.3914 7.87989,7.3914 z"
         style="fill:#0609f9;fill-opacity:1;stroke:#000000;stroke-width:0.73615843;stroke-miterlimit:4;stroke-dasharray:none;stroke-opacity:1"
         inkscape:connector-curvature="0" />
      <path
         id="path91-3"
         d="m 139.7961,130.52325 c -3.00584,2.67961 -9.68859,-0.57822 -5.11692,-7.46057 7.38178,-2.75011 7.8012,5.06304 5.11692,7.46057 z"
         style="fill:#0609f9;fill-opacity:1;stroke:#000000;stroke-width:0.73615843;stroke-miterlimit:4;stroke-dasharray:none;stroke-opacity:1"
         inkscape:connector-curvature="0" />
      <path
         id="path89-6"
         d="m 149.53987,130.89029 c -3.40248,-2.80059 -3.01854,-2.84601 -2.64784,-7.56918 0,0 2.64784,7.56918 2.64784,7.56918 z"
         style="fill:#0609f9;fill-opacity:1;stroke:#000000;stroke-width:0.73615843;stroke-miterlimit:4;stroke-dasharray:none;stroke-opacity:1"
         inkscape:connector-curvature="0" />
      <path
         id="path87-0"
         d="m 151.43119,133.07627 c 1.37,-13.21 13.65,-3.84 4.84,3.69 -1.81001,1.54 -2.75,1.68 -4.84,2.31 0,0 0,-6 0,-6 z"
         style="fill:#0609f9;fill-opacity:1;stroke:#000000;stroke-width:0.73615843;stroke-miterlimit:4;stroke-dasharray:none;stroke-opacity:1"
         inkscape:connector-curvature="0" />
      <path
         id="path85-6"
         d="m 113.25278,131.10972 c 1.98076,-11.30392 12.2961,1.20926 4.68178,3.83808 -1.53058,0.49948 -3.22837,0.13144 -4.68178,0 0,0 0,-3.83808 0,-3.83808 z"
         style="fill:#0609f9;fill-opacity:1;stroke:#000000;stroke-width:0.73615843;stroke-miterlimit:4;stroke-dasharray:none;stroke-opacity:1"
         inkscape:connector-curvature="0" />
      <path
         id="path83-2"
         d="m 132.38119,133.07627 c 0,0 -3,-3 -3,-3 0,0 3,3 3,3 z"
         style="fill:#0609f9;fill-opacity:1;stroke:#000000;stroke-width:0.73615843;stroke-miterlimit:4;stroke-dasharray:none;stroke-opacity:1"
         inkscape:connector-curvature="0" />
      <path
         id="path81-6"
         d="m 111.38119,131.07627 c 0,0 -3,4 -3,4 0,0 -1,-4 -1,-4 0,0 4,0 4,0 z"
         style="fill:#0609f9;fill-opacity:1;stroke:#000000;stroke-width:0.73615843;stroke-miterlimit:4;stroke-dasharray:none;stroke-opacity:1"
         inkscape:connector-curvature="0" />
      <path
         id="path79-1"
         d="m 149.03587,133.12747 c 0,0 0,3.78051 0,3.78051 -4.81509,0.88842 -5.16874,0.7372 -6.80097,-5.67076 0,0 6.80097,1.89025 6.80097,1.89025 z"
         style="fill:#0609f9;fill-opacity:1;stroke:#000000;stroke-width:0.73615843;stroke-miterlimit:4;stroke-dasharray:none;stroke-opacity:1"
         inkscape:connector-curvature="0" />
      <path
         id="path77-8"
         d="m 132.38119,134.07627 c 0,0 -3,3 -3,3 0,0 3,-3 3,-3 z"
         style="fill:#0609f9;fill-opacity:1;stroke:#000000;stroke-width:0.73615843;stroke-miterlimit:4;stroke-dasharray:none;stroke-opacity:1"
         inkscape:connector-curvature="0" />
      <path
         id="path75-7"
         d="m 110.38119,141.07627 c 0,0 1,-6 1,-6 1.94,3.06 1.42,3.47 -1,6 z"
         style="fill:#0609f9;fill-opacity:1;stroke:#000000;stroke-width:0.73615843;stroke-miterlimit:4;stroke-dasharray:none;stroke-opacity:1"
         inkscape:connector-curvature="0" />
      <path
         id="path73-9"
         d="m 123.65404,132.59496 c 0,0 3.33348,8.52291 3.33348,8.52291 0,0 -5.7747,-5.82034 -5.7747,-5.82034 0,0 2.44122,-2.70257 2.44122,-2.70257 z"
         style="fill:#0609f9;fill-opacity:1;stroke:#000000;stroke-width:0.73615843;stroke-miterlimit:4;stroke-dasharray:none;stroke-opacity:1"
         inkscape:connector-curvature="0"
         inkscape:transform-center-x="-2.3661804"
         inkscape:transform-center-y="1.6825592" />
      <path
         id="path71-2"
         d="m 140.97283,135.05205 c 1.31908,5.29478 0.60881,5.99364 -4.34864,9.47612 0,0 1.44955,-9.47612 1.44955,-9.47612 0,0 2.89909,0 2.89909,0 z"
         style="fill:#0609f9;fill-opacity:1;stroke:#000000;stroke-width:0.73615843;stroke-miterlimit:4;stroke-dasharray:none;stroke-opacity:1"
         inkscape:connector-curvature="0" />
      <path
         id="path69-0"
         d="m 104.05096,136.46903 c 9.10077,2.90687 -0.44125,13.33448 -4.509012,4.60151 -0.730819,-1.55857 -0.675663,-3.22848 -0.827342,-4.60151 1.764994,-0.1608 3.612724,-0.22265 5.336354,0 z"
         style="fill:#0609f9;fill-opacity:1;stroke:#000000;stroke-width:0.73615843;stroke-miterlimit:4;stroke-dasharray:none;stroke-opacity:1"
         inkscape:connector-curvature="0" />
      <path
         id="path67-2"
         d="m 136.38119,139.07627 c 0,0 -3,-3 -3,-3 0,0 3,3 3,3 z"
         style="fill:#0609f9;fill-opacity:1;stroke:#000000;stroke-width:0.73615843;stroke-miterlimit:4;stroke-dasharray:none;stroke-opacity:1"
         inkscape:connector-curvature="0" />
      <path
         id="path65-3"
         d="m 149.47904,138.70078 c 2.33,6.41 0.1,8.98 -5,13 -6.42,-7.08 -3.69,-10.64 5,-13 z"
         style="fill:#0609f9;fill-opacity:1;stroke:#000000;stroke-width:0.73615843;stroke-miterlimit:4;stroke-dasharray:none;stroke-opacity:1"
         inkscape:connector-curvature="0" />
      <path
         id="path63-7"
         d="m 118.98737,136.6948 c 0,0 -7.38652,6.57713 -7.38652,6.57713 0,0 7.38652,-6.57713 7.38652,-6.57713 z"
         style="fill:#0609f9;fill-opacity:1;stroke:#000000;stroke-width:0.73615843;stroke-miterlimit:4;stroke-dasharray:none;stroke-opacity:1"
         inkscape:connector-curvature="0" />
      <path
         id="path61-5"
         d="m 128.35966,149.03454 c 0,0 -6.42858,0 -6.42858,0 0,0 0,-6.77763 0,-6.77763 -2.40428,1.58145 -2.31428,-1.84125 -2.57142,-3.38881 5.25857,3.38881 6.87857,4.68786 9,10.16644 z"
         style="fill:#0609f9;fill-opacity:1;stroke:#000000;stroke-width:0.73615843;stroke-miterlimit:4;stroke-dasharray:none;stroke-opacity:1"
         inkscape:connector-curvature="0" />
      <path
         id="path59-9"
         d="m 131.38119,140.07627 c 0,0 0,4 0,4 0,0 -4,0 -4,0 1.07,-3.07 0.93,-2.93 4,-4 z"
         style="fill:#0609f9;fill-opacity:1;stroke:#000000;stroke-width:0.73615843;stroke-miterlimit:4;stroke-dasharray:none;stroke-opacity:1"
         inkscape:connector-curvature="0" />
      <path
         id="path57-2"
         d="m 135.52997,141.79786 c 0,0 -2.29307,3.17017 -2.29307,3.17017 0,0 -0.0846,-5.11626 -0.0846,-5.11626 0,0 2.37762,1.94609 2.37762,1.94609 z"
         style="fill:#0609f9;fill-opacity:1;stroke:#000000;stroke-width:0.73615843;stroke-miterlimit:4;stroke-dasharray:none;stroke-opacity:1"
         inkscape:connector-curvature="0" />
      <path
         id="path55-2"
         d="m 117.82234,148.16261 c 0,0 -2.08965,4.05324 -2.08965,4.05324 3.66734,-1.33757 7.4496,-2.513 11.43039,-1.87462 1.92248,0.30399 4.26289,1.32744 3.01955,3.63778 -1.31648,2.46235 -5.76744,2.43195 -8.181,2.07729 -6.2376,-0.91198 -14.41858,-6.40412 -13.58272,-12.96023 0,0 9.40343,5.06654 9.40343,5.06654 z"
         style="fill:#0609f9;fill-opacity:1;stroke:#000000;stroke-width:0.73615843;stroke-miterlimit:4;stroke-dasharray:none;stroke-opacity:1"
         inkscape:connector-curvature="0" />
      <path
         id="path53-8"
         d="m 140.07832,149.38043 c 4.61891,3.13579 4.35243,7.26532 -2.10961,7.86156 0,0 -5.54046,0 -5.54046,0 0,0 2.22063,-8.80009 2.22063,-8.80009 0,0 -5.55157,-1.10415 -5.55157,-1.10415 3.67514,0.0331 7.79441,-0.11042 10.98101,2.04268 z"
         style="fill:#0609f9;fill-opacity:1;stroke:#000000;stroke-width:0.73615843;stroke-miterlimit:4;stroke-dasharray:none;stroke-opacity:1"
         inkscape:connector-curvature="0" />
      <path
         id="path1085"
         style="font-style:normal;font-weight:normal;font-size:medium;line-height:1.25;font-family:sans-serif;letter-spacing:0px;word-spacing:0px;fill:#0609f9;fill-opacity:1;stroke:#000000;stroke-width:0.73615843;stroke-miterlimit:4;stroke-dasharray:none;stroke-opacity:1"
         d="m 11.137005,195.99297 v 2.21088 q -0.659363,-0.50824 -1.3694454,-0.76237 -0.710083,-0.25412 -1.470886,-0.25412 -1.1581112,0 -1.7413936,0.53366 -0.5748292,0.53366 -0.5748292,1.60098 0,0.8132 0.414215,1.28333 0.414215,0.45742 1.6653134,0.87673 l 0.5325624,0.17788 q 1.6568594,0.53367 2.3500364,1.51204 0.701629,0.96567 0.701629,2.70643 0,1.98216 -1.048217,3.13843 -1.0397645,1.15627 -2.865692,1.15627 -0.760803,0 -1.5892331,-0.22872 -0.8199769,-0.216 -1.7329404,-0.66072 v -2.41418 q 0.8622436,0.67343 1.6991269,1.0165 0.8368833,0.33036 1.6568601,0.33036 1.0989377,0 1.6906734,-0.55907 0.5917361,-0.57178 0.5917361,-1.60099 0,-0.95296 -0.431122,-1.46121 -0.4226686,-0.50825 -1.8681943,-0.97838 l -0.5410156,-0.19059 q -1.4455257,-0.45742 -2.0879816,-1.39769 -0.6424559,-0.95296 -0.6424559,-2.60477 0,-2.00758 0.9467771,-3.10032 0.9467771,-1.09273 2.6881708,-1.09273 0.8622436,0 1.6230466,0.1906 0.7608029,0.19059 1.4032589,0.57177 z"
         inkscape:connector-curvature="0" />
      <path
         id="path1087"
         style="font-style:normal;font-weight:normal;font-size:medium;line-height:1.25;font-family:sans-serif;letter-spacing:0px;word-spacing:0px;fill:#0609f9;fill-opacity:1;stroke:#000000;stroke-width:0.73615843;stroke-miterlimit:4;stroke-dasharray:none;stroke-opacity:1"
         d="m 15.66801,191.53309 v 4.04058 h 3.203827 v 1.81699 H 15.66801 v 7.72537 q 0,1.74075 0.312775,2.2363 0.321228,0.49554 1.293365,0.49554 h 1.597687 v 1.95676 H 17.27415 q -1.800567,0 -2.48529,-1.00379 -0.684723,-1.0165 -0.684723,-3.68481 v -7.72537 h -1.141204 v -1.81699 h 1.141204 v -4.04058 z"
         inkscape:connector-curvature="0" />
      <path
         id="path1089"
         style="font-style:normal;font-weight:normal;font-size:medium;line-height:1.25;font-family:sans-serif;letter-spacing:0px;word-spacing:0px;fill:#0609f9;fill-opacity:1;stroke:#000000;stroke-width:0.73615843;stroke-miterlimit:4;stroke-dasharray:none;stroke-opacity:1"
         d="m 29.024332,202.10466 v 1.14356 h -7.151549 q 0.10144,2.41418 0.963684,3.6848 0.870696,1.25792 2.417663,1.25792 0.896057,0 1.73294,-0.33037 0.845337,-0.33036 1.673767,-0.99108 v 2.21088 q -0.836883,0.53366 -1.716034,0.8132 -0.87915,0.27954 -1.78366,0.27954 -2.265503,0 -3.592681,-1.98217 -1.318726,-1.98217 -1.318726,-5.36202 0,-3.49421 1.251098,-5.53991 1.259552,-2.05841 3.389801,-2.05841 1.910461,0 3.017852,1.85511 1.115845,1.8424 1.115845,5.01895 z m -1.55542,-0.68613 q -0.01691,-1.91864 -0.718536,-3.0622 -0.693176,-1.14356 -1.842835,-1.14356 -1.301818,0 -2.087981,1.10544 -0.77771,1.10544 -0.896057,3.11302 z"
         inkscape:connector-curvature="0" />
      <path
         id="path1091"
         style="font-style:normal;font-weight:normal;font-size:medium;line-height:1.25;font-family:sans-serif;letter-spacing:0px;word-spacing:0px;fill:#0609f9;fill-opacity:1;stroke:#000000;stroke-width:0.73615843;stroke-miterlimit:4;stroke-dasharray:none;stroke-opacity:1"
         d="m 31.577247,190.03376 h 1.55542 v 19.77087 h -1.55542 z"
         inkscape:connector-curvature="0" />
      <path
         id="path1093"
         style="font-style:normal;font-weight:normal;font-size:medium;line-height:1.25;font-family:sans-serif;letter-spacing:0px;word-spacing:0px;fill:#0609f9;fill-opacity:1;stroke:#000000;stroke-width:0.73615843;stroke-miterlimit:4;stroke-dasharray:none;stroke-opacity:1"
         d="m 44.477088,202.10466 v 1.14356 h -7.151549 q 0.101441,2.41418 0.963684,3.6848 0.870697,1.25792 2.417663,1.25792 0.896057,0 1.732941,-0.33037 0.845336,-0.33036 1.673766,-0.99108 v 2.21088 q -0.836883,0.53366 -1.716033,0.8132 -0.879151,0.27954 -1.783661,0.27954 -2.265502,0 -3.592681,-1.98217 -1.318725,-1.98217 -1.318725,-5.36202 0,-3.49421 1.251098,-5.53991 1.259552,-2.05841 3.3898,-2.05841 1.910461,0 3.017853,1.85511 1.115844,1.8424 1.115844,5.01895 z m -1.555419,-0.68613 q -0.01691,-1.91864 -0.718537,-3.0622 -0.693176,-1.14356 -1.842834,-1.14356 -1.301818,0 -2.087981,1.10544 -0.777711,1.10544 -0.896058,3.11302 z"
         inkscape:connector-curvature="0" />
    </g>
  </g>
</svg>
