<?xml version="1.0" encoding="UTF-8" standalone="no"?>
<!-- Created with Inkscape (http://www.inkscape.org/) -->

<svg
   xmlns:dc="http://purl.org/dc/elements/1.1/"
   xmlns:cc="http://creativecommons.org/ns#"
   xmlns:rdf="http://www.w3.org/1999/02/22-rdf-syntax-ns#"
   xmlns:svg="http://www.w3.org/2000/svg"
   xmlns="http://www.w3.org/2000/svg"
   xmlns:sodipodi="http://sodipodi.sourceforge.net/DTD/sodipodi-0.dtd"
   xmlns:inkscape="http://www.inkscape.org/namespaces/inkscape"
   version="1.1"
   id="svg873"
   width="377.33334"
   height="978.66669"
   viewBox="0 0 377.33334 978.66669"
   sodipodi:docname="arab_final.svg"
   inkscape:version="0.92.2 (unknown)">
  <metadata
     id="metadata879">
    <rdf:RDF>
      <cc:Work
         rdf:about="">
        <dc:format>image/svg+xml</dc:format>
        <dc:type
           rdf:resource="http://purl.org/dc/dcmitype/StillImage" />
        <dc:title />
      </cc:Work>
    </rdf:RDF>
  </metadata>
  <defs
     id="defs877" />
  <sodipodi:namedview
     pagecolor="#ffffff"
     bordercolor="#666666"
     borderopacity="1"
     objecttolerance="10"
     gridtolerance="10"
     guidetolerance="10"
     inkscape:pageopacity="0"
     inkscape:pageshadow="2"
     inkscape:window-width="1853"
     inkscape:window-height="1056"
     id="namedview875"
     showgrid="false"
     showguides="false"
     inkscape:zoom="1.9291553"
     inkscape:cx="191.13009"
     inkscape:cy="901.567"
     inkscape:window-x="67"
     inkscape:window-y="24"
     inkscape:window-maximized="1"
     inkscape:current-layer="layer1" />
  <g
     inkscape:groupmode="layer"
     id="layer1"
     inkscape:label="Layer 1">
    <path
       style="opacity:1;fill:#4de0d7;fill-opacity:1;stroke:none;stroke-width:0.69999999;stroke-miterlimit:4;stroke-dasharray:none;stroke-opacity:1"
       d="m 213.861,18.365516 c 0.82074,-0.82074 2.66136,-0.82074 3.4821,0 3.81842,17.86123 -1.04271,60.49976 -0.2749,60.57023 0,0 -3.07864,4.08586 -3.2072,2.9323 -1.19325,-10.70703 -0.94371,-57.20907 0,-63.50253 z"
       id="rect1432"
       inkscape:connector-curvature="0"
       sodipodi:nodetypes="cccsc" />
    <path
       style="opacity:1;fill:#4de0d7;fill-opacity:1;stroke:none;stroke-width:1.506;stroke-miterlimit:4;stroke-dasharray:none;stroke-opacity:1"
       d="m 245.92361,58.914366 c 3.29862,-2.71353 19.42151,-18.04212 21.0581,-14.06095 -3.11026,8.74822 -14.55457,16.77161 -18.52417,20.25774 -3.33967,2.01521 -26.62291,28.73242 -29.27081,26.57437 -2.75535,-3.67265 15.53021,-21.97212 26.73688,-32.77116 z"
       id="rect1441-5"
       inkscape:connector-curvature="0"
       sodipodi:nodetypes="ccccc" />
    <g
       id="S5"
       style="fill:#fa0006;fill-opacity:1;stroke:none">
      <path
         sodipodi:nodetypes="ccccccccccccccccccccccccccccccccccccc"
         inkscape:connector-curvature="0"
         id="rect1429"
         d="m 172.97387,35.490726 c 1.69709,-0.58188 4.27832,1.9579 4.27832,1.9579 0,0 -0.50104,2.00537 0.0552,4.58291 0.14037,0.65044 1.26873,-1.42127 1.43895,-0.65107 0.65425,2.96035 -0.93054,8.42867 -0.0696,12.76652 0.19167,0.96579 1.17227,-0.32103 1.3844,0.67007 0.48892,2.28429 -0.48186,5.25668 0.0452,7.67279 0.17146,0.78607 1.32059,-0.30601 1.50217,0.47942 0.35962,1.5556 -0.63853,4.03976 -0.28022,5.6124 0.1613,0.708 1.94686,-0.0787 2.11561,0.61865 0.38299,1.58263 -0.22657,3.68472 0.11087,5.23698 0.15246,0.70129 1.7963,-0.4214 1.94956,0.25799 0.3897,1.72747 -0.59067,4.2417 -0.34012,5.90811 0.12891,0.85739 1.30472,-0.91206 1.44729,-0.13079 0.28894,1.58346 -0.30861,4.08371 -0.20849,5.68293 0.0416,0.66489 1.40256,-0.0247 1.47679,0.52052 0.26515,1.94734 -0.64809,4.41037 -0.79426,4.67845 -1.61926,-0.10188 -1.58887,-1.7001 -1.82229,-2.60182 -0.70614,-0.41476 -1.95503,0.55956 -2.31539,-0.0167 -0.57868,-0.92528 0.97351,-2.12446 0.27372,-2.94445 -0.53098,-0.62219 -2.0979,0.87756 -2.43289,0.0992 -0.52652,-1.22332 1.30785,-4.27428 0.88098,-5.20309 -0.64045,-1.39351 -1.61438,0.89709 -1.93799,0.1254 -0.66548,-0.59552 0.77553,-4.40676 0.21028,-5.39937 -0.56525,-0.99262 -1.71127,0.5094 -2.04321,-0.53958 -0.43809,-0.78051 0.86064,-5.0483 0.28531,-6.09033 -0.57535,-1.04203 -2.05287,0.9473 -2.34153,-0.0836 -0.24363,-0.87011 1.91471,-4.04565 1.4218,-5.0193 -0.49292,-0.97364 -2.47075,0.38419 -2.69291,-0.49052 0,0 1.23129,-5.73461 0.56349,-7.95208 -0.42531,-1.41227 -2.2953,-1.14158 -2.2953,-1.14158 l 0.73462,-5.25454 -2.05235,-0.17003 0.79479,-3.36613 c 0,0 -1.65375,0.54614 -1.84538,-1.10269 -0.49639,-4.27102 1.91988,-8.5128 2.50267,-8.71262 z"
         style="opacity:1;fill:#fa0006;fill-opacity:1;stroke:none;stroke-width:0.69999999;stroke-miterlimit:4;stroke-dasharray:none;stroke-opacity:1" />
      <path
         sodipodi:nodetypes="ccccccc"
         inkscape:connector-curvature="0"
         id="rect1441-5-3"
         d="m 241.15365,50.152676 c 1.5369,-1.33261 11.75485,-10.84433 14.4498,-11.91821 0.88058,-0.35089 -5.099,5.11014 -4.46905,5.58309 0.0586,0.71925 6.38373,-3.11036 5.89335,-2.34963 -1.85908,2.88397 -13.44741,10.47359 -15.4045,12.2849 -1.99992,1.25452 -9.28489,9.05153 -10.53936,7.29871 -1.17953,-2.86786 3.00282,-3.73619 10.06976,-10.89886 z"
         style="opacity:1;fill:#fa0006;fill-opacity:1;stroke:none;stroke-width:0.32199219;stroke-miterlimit:4;stroke-dasharray:none;stroke-opacity:1" />
    </g>
    <path
       style="opacity:1;fill:#4de0d7;fill-opacity:1;stroke:none;stroke-width:0.50599998;stroke-miterlimit:4;stroke-dasharray:none;stroke-opacity:1"
       d="m 185.78095,92.745316 c 0.13844,-0.90583 2.80908,-1.107 2.74225,-0.19309 -1.09923,15.032904 2.75083,39.747514 3.38554,48.080584 -0.60084,0.69187 -2.70319,1.1086 -2.74225,0.19309 -0.49668,-11.64273 -5.11122,-36.78886 -3.38554,-48.080584 z"
       id="rect1528"
       inkscape:connector-curvature="0"
       sodipodi:nodetypes="sscss" />
    <path
       style="opacity:1;fill:#4de0d7;fill-opacity:1;stroke:none;stroke-width:1.14788246;stroke-miterlimit:4;stroke-dasharray:none;stroke-opacity:1"
       d="m 267.44762,88.896546 c 1.8998,-0.66699 5.53316,3.94667 3.81746,5.03449 -16.93834,10.739604 -36.12676,26.854684 -51.96044,40.207134 -1.37671,1.16096 -4.16793,2.89262 -5.44098,4.08779 -11.42923,17.4461 -17.65526,22.62193 -19.35181,29.7668 -1.94882,-0.1688 -4.41931,-1.44285 -2.9011,-2.83526 6.4618,-5.92637 10.4551,-18.12583 21.22315,-29.39213 1.12997,-2.15829 0.33533,-6.11201 1.24955,-8.1463 16.46787,-20.08623 39.47949,-33.847834 53.36417,-38.722524 z"
       id="rect1528-5"
       inkscape:connector-curvature="0"
       sodipodi:nodetypes="sscccsccs" />
    <path
       style="opacity:1;fill:#4de0d7;fill-opacity:1;stroke:none;stroke-width:0.57144564;stroke-miterlimit:4;stroke-dasharray:none;stroke-opacity:1"
       d="m 108.21039,114.75045 c -1.40835,-2.55129 1.35053,-4.48538 6.03801,-3.42499 5.20825,3.35306 39.12304,38.52539 40.58155,61.19631 1.01846,1.84395 -0.91597,4.71622 0.0164,6.40821 37.61378,60.45506 10.24385,23.92022 -1.02101,0.30825 -0.66793,-0.97425 -4.20699,-0.39291 -4.77417,-1.21803 -4.16783,-17.83166 -26.35303,-50.70996 -40.84073,-63.26975 z"
       id="rect1546"
       inkscape:connector-curvature="0"
       sodipodi:nodetypes="ccccccc" />
    <path
       style="opacity:1;fill:#4de0d7;fill-opacity:1;stroke:none;stroke-width:0.50599998;stroke-miterlimit:4;stroke-dasharray:none;stroke-opacity:1"
       d="m 60.098716,219.7776 c 10.899237,-5.83434 62.403744,-11.7182 78.622184,7.33073 0.60104,0.55436 -0.81627,2.25726 0.10676,3.12149 15.13147,9.71761 51.13871,49.67674 -0.50483,1.40631 -0.88673,-0.76076 -2.5119,1.04635 -3.45056,0.23719 -7.60153,-4.05676 -13.64342,-6.78316 -20.71302,-7.85631 -19.062523,-2.89367 -36.269758,2.23525 -52.044581,0.15903 -1.425494,-1.42549 -3.441447,-2.97295 -2.015953,-4.39844 z"
       id="rect1549"
       inkscape:connector-curvature="0"
       sodipodi:nodetypes="cccccscc" />
    <path
       style="opacity:1;fill:#4de0d7;fill-opacity:1;stroke:none;stroke-width:1.14788246;stroke-miterlimit:4;stroke-dasharray:none;stroke-opacity:1"
       d="m 264.2301,161.64055 c 1.8998,-0.66699 5.53316,3.94667 3.81746,5.03449 -16.93834,10.7396 -45.84604,31.58473 -61.67972,44.93718 -1.37671,1.16096 -3.58477,1.27274 -4.85782,2.46791 -17.70326,19.60129 -23.24413,24.47033 -22.65637,24.4536 -1.94882,-0.1688 -2.41235,-0.66185 -1.92917,-1.15059 5.56878,-5.63281 10.36089,-11.50956 23.16701,-24.14372 1.12997,-2.15829 1.24246,-3.26102 2.15668,-5.29531 16.46787,-20.08623 48.09725,-41.42887 61.98193,-46.30356 z"
       id="rect1528-5-6"
       inkscape:connector-curvature="0"
       sodipodi:nodetypes="sscccsccs" />
    <path
       style="opacity:1;fill:#4de0d7;fill-opacity:1;stroke:none;stroke-width:1.14788246;stroke-miterlimit:4;stroke-dasharray:none;stroke-opacity:1"
       d="m 259.64178,205.73161 c 1.80638,-0.88945 10.90419,-0.28106 9.49879,1.18585 -5.77252,6.02514 -54.82173,33.32389 -70.65988,46.67823 -1.37671,1.16096 -3.76804,0.81457 -5.04109,2.00974 -17.70326,19.60129 -19.57875,19.88861 -18.99099,19.87188 -1.94882,-0.1688 -2.32072,-0.75348 -1.83754,-1.24222 5.56878,-5.63281 6.05408,-6.74458 18.8602,-19.37874 1.12997,-2.15829 1.05919,-3.07775 1.97341,-5.11204 19.28913,-18.67956 52.31074,-37.17511 66.1971,-44.0127 z"
       id="rect1528-5-6-9"
       inkscape:connector-curvature="0"
       sodipodi:nodetypes="sscccsccs" />
    <path
       style="opacity:1;fill:#4de0d7;fill-opacity:1;stroke:none;stroke-width:0.50599998;stroke-miterlimit:4;stroke-dasharray:none;stroke-opacity:1"
       d="m 172.33178,313.67939 c 42.84745,-24.33856 64.49275,18.94208 61.29971,53.0053 -12.3327,-4.15341 -35.53995,-18.15021 -37.10162,-22.7418 -7.1366,-20.98291 -26.1916,-29.13113 -24.19809,-30.2635 z"
       id="rect1597"
       inkscape:connector-curvature="0"
       sodipodi:nodetypes="scss" />
    <path
       style="opacity:1;fill:#4de0d7;fill-opacity:1;stroke:none;stroke-width:0.24856521;stroke-miterlimit:4;stroke-dasharray:none;stroke-opacity:1"
       d="m 110.62498,327.27832 c 23.60146,-7.03367 38.61887,10.79984 34.30699,31.19453 -2.85652,-2.84344 -6.65648,-17.35253 -11.75611,-19.61965 -5.15487,-2.65599 -10.81371,-5.84456 -15.30838,-7.25815 -2.63402,-0.82842 -6.16414,0.79779 -7.66279,0.31182 -0.95857,-0.75735 -0.64265,-2.65463 0.42029,-4.62855 z"
       id="rect1597-1"
       inkscape:connector-curvature="0"
       sodipodi:nodetypes="cccccc" />
    <path
       style="opacity:1;fill:#4de0d7;fill-opacity:1;stroke:none;stroke-width:0.50599998;stroke-miterlimit:4;stroke-dasharray:none;stroke-opacity:1"
       d="m 73.164782,333.51588 c 3.468013,-11.86424 8.40213,-13.95445 13.393342,-15.66403 4.521959,-0.71372 9.850265,-0.92587 18.456306,5.1672 v 5.21474 c -4.19393,-0.42268 -11.052072,-4.77758 -16.763235,-5.23083 -10.553803,-0.83759 -14.991197,12.1469 -15.086413,10.51292 z"
       id="rect1617"
       inkscape:connector-curvature="0"
       sodipodi:nodetypes="cccccc" />
    <path
       style="opacity:1;fill:#4de0d7;fill-opacity:1;stroke:none;stroke-width:0.50599998;stroke-miterlimit:4;stroke-dasharray:none;stroke-opacity:1"
       d="m 103.62498,328.18091 c 0.81331,-0.83313 1.4634,4.29839 1.09962,6.04786 -6.908935,7.42101 -6.795781,19.6203 -6.241941,29.82858 -3.533858,8.19058 -5.835167,11.23426 -3.562929,15.3471 -1.915675,1.56572 -4.595289,-0.6327 -6.139495,-2.56576 -4.378449,-4.91307 -5.66967,-17.52407 -2.24578,-27.40942 2.819836,-8.14134 10.938548,-17.40125 17.090525,-21.24836 z"
       id="rect1635"
       inkscape:connector-curvature="0"
       sodipodi:nodetypes="ccccccc" />
    <g
       id="S4"
       style="fill:#df03f9;fill-opacity:1;stroke:none">
      <path
         sodipodi:nodetypes="cccccc"
         inkscape:connector-curvature="0"
         id="rect1435"
         d="m 226.32324,19.648396 c 1.59828,-1.59828 4.26631,-0.68194 5.86459,0.91634 0.28777,5.05275 0.47104,6.67643 -3.84864,10.99611 -1.59828,1.59828 -3.89977,3.2477 -5.49805,1.64941 -2.96615,-1.28625 -4.06037,-6.89685 3.04315,-9.55822 0.62757,-1.60809 -0.56099,-3.0037 0.43895,-4.00364 z"
         style="opacity:1;fill:#df03f9;fill-opacity:1;stroke:none;stroke-width:0.69999999;stroke-miterlimit:4;stroke-dasharray:none;stroke-opacity:1" />
      <path
         sodipodi:nodetypes="ccccc"
         inkscape:connector-curvature="0"
         id="rect1438"
         d="m 244.46684,17.449166 c 2.07344,-2.07344 0.67557,2.14173 2.74902,4.21518 1.94386,1.94386 7.44192,-0.47771 5.49806,1.46615 -2.07345,2.07345 -6.3569,3.90613 -8.43035,1.83268 -1.94386,-1.94385 -1.76059,-5.57015 0.18327,-7.51401 z"
         style="opacity:1;fill:#df03f9;fill-opacity:1;stroke:none;stroke-width:0.69999999;stroke-miterlimit:4;stroke-dasharray:none;stroke-opacity:1" />
      <path
         sodipodi:nodetypes="ccccc"
         inkscape:connector-curvature="0"
         id="rect1441"
         d="m 244.6501,31.194306 c 1.3391,-1.3391 3.79242,-2.25544 5.13152,-0.91634 2.59181,2.59181 -1.07356,8.22103 -3.66537,10.81284 -1.3391,1.3391 -3.24262,1.52237 -4.58172,0.18327 -2.59181,-2.59181 0.52376,-7.48796 3.11557,-10.07977 z"
         style="opacity:1;fill:#df03f9;fill-opacity:1;stroke:none;stroke-width:0.69999999;stroke-miterlimit:4;stroke-dasharray:none;stroke-opacity:1" />
      <path
         sodipodi:nodetypes="ccccc"
         inkscape:connector-curvature="0"
         id="rect1441-3"
         d="m 236.94111,27.995316 c 0.22927,-1.12646 1.07111,-2.39004 2.03536,-2.1222 1.86629,0.5184 1.77768,4.62414 1.33392,6.80439 -0.22927,1.12647 -1.02726,1.83214 -1.99151,1.5643 -1.8663,-0.5184 -1.82152,-4.06624 -1.37777,-6.24649 z"
         style="opacity:1;fill:#df03f9;fill-opacity:1;stroke:none;stroke-width:0.39597255;stroke-miterlimit:4;stroke-dasharray:none;stroke-opacity:1" />
      <path
         sodipodi:nodetypes="ccccc"
         inkscape:connector-curvature="0"
         id="rect1441-3-6"
         d="m 233.60202,35.983206 c 0.23073,-0.98335 1.07793,-2.08641 2.04833,-1.8526 1.87817,0.45254 1.789,4.03669 1.34241,5.93995 -0.23073,0.98336 -1.0338,1.59938 -2.00419,1.36556 -1.87819,-0.45254 -1.83312,-3.54965 -1.38655,-5.45291 z"
         style="opacity:1;fill:#df03f9;fill-opacity:1;stroke:none;stroke-width:0.37114221;stroke-miterlimit:4;stroke-dasharray:none;stroke-opacity:1" />
      <path
         sodipodi:nodetypes="ccccc"
         inkscape:connector-curvature="0"
         id="rect1441-3-6-7"
         d="m 224.40772,37.114396 c 0.56124,-2.20381 2.62199,-4.67589 4.98243,-4.15188 4.56851,1.01419 4.35161,9.04667 3.26532,13.3121 -0.56124,2.20381 -2.51465,3.58439 -4.87506,3.06039 -4.56857,-1.0142 -4.45895,-7.95518 -3.37269,-12.22061 z"
         style="opacity:1;fill:#df03f9;fill-opacity:1;stroke:none;stroke-width:0.86654836;stroke-miterlimit:4;stroke-dasharray:none;stroke-opacity:1" />
      <path
         sodipodi:nodetypes="ccccc"
         inkscape:connector-curvature="0"
         id="rect1441-3-6-2"
         d="m 243.48883,42.358916 c 1.02635,-0.44253 2.56481,-0.41496 2.99547,0.60328 0.83351,1.97076 -2.41256,4.25319 -4.39903,5.10968 -1.02633,0.44252 -2.10264,0.13331 -2.53329,-0.88491 -0.83353,-1.97078 1.9504,-3.97154 3.93685,-4.82805 z"
         style="opacity:1;fill:#df03f9;fill-opacity:1;stroke:none;stroke-width:0.4108777;stroke-miterlimit:4;stroke-dasharray:none;stroke-opacity:1" />
      <path
         inkscape:connector-curvature="0"
         id="path1638"
         d="m 106.08845,304.69489 a 2.68443,2.1319286 0 0 1 -2.68444,2.13193 2.68443,2.1319286 0 0 1 -2.68443,-2.13193 2.68443,2.1319286 0 0 1 2.68443,-2.13193 2.68443,2.1319286 0 0 1 2.68444,2.13193 z"
         style="opacity:1;fill:#df03f9;fill-opacity:1;stroke:none;stroke-width:0.27089384;stroke-miterlimit:4;stroke-dasharray:none;stroke-opacity:1" />
      <path
         inkscape:connector-curvature="0"
         id="path1638-7"
         d="m 105.52918,311.10549 a 2.68443,2.1319286 0 0 1 -2.68443,2.13193 2.68443,2.1319286 0 0 1 -2.68444,-2.13193 2.68443,2.1319286 0 0 1 2.68444,-2.13193 2.68443,2.1319286 0 0 1 2.68443,2.13193 z"
         style="opacity:1;fill:#df03f9;fill-opacity:1;stroke:none;stroke-width:0.27089384;stroke-miterlimit:4;stroke-dasharray:none;stroke-opacity:1" />
      <path
         inkscape:connector-curvature="0"
         id="path1638-7-0"
         d="m 115.78222,288.21056 a 2.68443,2.1319286 0 0 1 -2.68443,2.13193 2.68443,2.1319286 0 0 1 -2.68443,-2.13193 2.68443,2.1319286 0 0 1 2.68443,-2.13193 2.68443,2.1319286 0 0 1 2.68443,2.13193 z"
         style="opacity:1;fill:#df03f9;fill-opacity:1;stroke:none;stroke-width:0.27089384;stroke-miterlimit:4;stroke-dasharray:none;stroke-opacity:1" />
      <path
         inkscape:connector-curvature="0"
         id="path1638-7-0-9"
         d="m 114.33089,303.19991 a 1.2011585,3.6105608 39.066044 0 1 -3.30101,2.31161 1.2011585,3.6105608 39.066044 0 1 1.09451,-3.39406 1.2011585,3.6105608 39.066044 0 1 3.30103,-2.31161 1.2011585,3.6105608 39.066044 0 1 -1.09453,3.39406 z"
         style="opacity:1;fill:#df03f9;fill-opacity:1;stroke:none;stroke-width:0.23581651;stroke-miterlimit:4;stroke-dasharray:none;stroke-opacity:1" />
      <path
         inkscape:connector-curvature="0"
         id="path1638-7-0-3"
         d="m 115.00289,310.01046 a 2.2169515,3.3060348 0 0 1 -2.21695,3.30604 2.2169515,3.3060348 0 0 1 -2.21695,-3.30604 2.2169515,3.3060348 0 0 1 2.21695,-3.30603 2.2169515,3.3060348 0 0 1 2.21695,3.30603 z"
         style="opacity:1;fill:#df03f9;fill-opacity:1;stroke:none;stroke-width:0.30656216;stroke-miterlimit:4;stroke-dasharray:none;stroke-opacity:1" />
      <path
         inkscape:connector-curvature="0"
         id="path1638-6"
         d="m 107.96536,287.2204 a 2.0196524,1.9711396 0 0 1 -2.01966,1.97114 2.0196524,1.9711396 0 0 1 -2.01965,-1.97114 2.0196524,1.9711396 0 0 1 2.01965,-1.97114 2.0196524,1.9711396 0 0 1 2.01966,1.97114 z"
         style="opacity:1;fill:#df03f9;fill-opacity:1;stroke:none;stroke-width:0.22593513;stroke-miterlimit:4;stroke-dasharray:none;stroke-opacity:1" />
    </g>
    <path
       style="opacity:1;fill:#4de0d7;fill-opacity:1;stroke:none;stroke-width:0.506;stroke-miterlimit:4;stroke-dasharray:none;stroke-opacity:1"
       d="m 158.98649,487.05225 c 1.11525,-0.33437 0.88071,9.65254 -0.28562,11.0063 -11.72384,1.19154 -31.8117,25.81099 -33.52745,27.98699 -6.19162,10.20952 -39.633583,26.13435 -47.749063,20.76687 6.731144,-4.76832 11.342593,-18.13033 10.517885,-22.19688 -0.520781,-6.56032 12.867508,-27.6653 20.654618,-34.6513 6.24021,-6.7919 42.06799,-8.98505 50.38963,-2.91198 z"
       id="rect1635-0"
       inkscape:connector-curvature="0"
       sodipodi:nodetypes="ccccccc" />
    <g
       id="S2"
       style="fill:#1dfa11;fill-opacity:1;stroke:none">
      <path
         sodipodi:nodetypes="cccccccc"
         inkscape:connector-curvature="0"
         id="rect1635-0-6"
         d="m 179.05414,625.47961 c 2.35666,0.8036 2.57453,12.45755 -2.85138,9.90669 -17.98438,-20.00011 -43.0169,-29.08043 -55.70294,-27.72663 -11.1415,-0.30921 -28.036402,4.78235 -41.042927,15.09133 -16.968862,14.53746 -53.05934,10.89005 -58.021312,11.7234 -1.206793,-3.30217 4.844612,-17.94706 16.382476,-26.04552 5.415064,-4.0319 28.324141,-38.45745 53.093137,-39.78282 10.715956,-8.28381 80.701416,50.46711 88.142946,56.83355 z"
         style="opacity:1;fill:#1dfa11;fill-opacity:1;stroke:none;stroke-width:0.50599998;stroke-miterlimit:4;stroke-dasharray:none;stroke-opacity:1" />
      <path
         sodipodi:nodetypes="scccccs"
         inkscape:connector-curvature="0"
         id="rect1746"
         d="m 74.687214,660.43642 c 4.415704,-22.5122 26.053126,-40.55426 48.432396,-35.50787 9.20964,2.43695 33.61999,7.31118 50.07894,10.10161 2.12115,1.51413 2.1545,3.05077 1.70786,5.20257 -1.18259,5.69733 -7.15484,-1.91737 -14.20095,3.04418 -11.84672,15.43021 -43.89031,44.93129 -63.000516,42.05338 -12.700374,-2.26604 -25.500896,-12.23416 -23.01773,-24.89387 z"
         style="opacity:1;fill:#1dfa11;fill-opacity:1;stroke:none;stroke-width:0.50599998;stroke-miterlimit:4;stroke-dasharray:none;stroke-opacity:1" />
      <path
         sodipodi:nodetypes="ccsccccc"
         inkscape:connector-curvature="0"
         id="rect1635-0-2"
         d="m 171.70523,600.22318 c -1.2087,4.63799 0.36447,18.01768 -0.68095,16.93579 -2.78431,-1.92352 -9.25511,-11.61599 -18.23275,-16.59102 -8.27052,-4.58317 -16.43083,-9.65822 -17.63269,-12.74873 -6.08979,-6.23028 -4.20341,-30.71279 0.50112,-40.00572 7.02787,3.67995 13.32989,13.65377 17.36476,13.69799 4.26845,5.33627 5.48821,8.02527 10.51757,14.91799 5.16463,5.71575 -3.00697,14.9801 8.16294,23.7937 z"
         style="opacity:1;fill:#1dfa11;fill-opacity:1;stroke:none;stroke-width:0.43442881;stroke-miterlimit:4;stroke-dasharray:none;stroke-opacity:1" />
      <path
         sodipodi:nodetypes="cccsccccc"
         inkscape:connector-curvature="0"
         id="rect1635-0-2-6"
         d="m 184.68855,621.99252 c -0.6783,1.46555 -0.0702,8.36652 -0.8225,11.45793 -0.40535,1.66568 -2.40123,0.84586 -2.50527,0.59025 -0.90533,-1.44009 0.20339,-7.14649 -2.86164,-11.14408 -2.82361,-3.68271 -5.28467,-2.42375 -5.40671,-4.23489 -1.73957,-4.21452 -1.94793,-23.93694 1.07316,-28.10486 2.42488,3.01645 6.26798,10.14087 7.90612,10.78405 0,0 1.66987,2.60456 2.89876,7.00479 1.56879,3.78711 -0.85901,6.99978 -0.28192,13.64681 z"
         style="opacity:1;fill:#1dfa11;fill-opacity:1;stroke:none;stroke-width:0.209529;stroke-miterlimit:4;stroke-dasharray:none;stroke-opacity:1" />
      <path
         sodipodi:nodetypes="cccccccc"
         inkscape:connector-curvature="0"
         id="rect1779"
         d="m 234.02862,558.55589 c 8.14109,6.80701 -0.9627,22.47737 -13.07926,37.21823 -17.61987,9.20405 -34.32375,32.34152 -33.91197,34.35499 0,0 -2.57027,-4.18331 -2.04113,-5.95099 2.24473,-2.66688 4.75698,-6.05074 6.88705,-10.47041 3.31439,-6.87705 4.14836,-10.25294 4.71948,-14.01427 0.50278,-5.73707 0.12141,-19.0293 2.77077,-22.62701 12.78778,-17.36526 20.01906,-28.23244 34.65506,-18.51054 z"
         style="opacity:1;fill:#1dfa11;fill-opacity:1;stroke:none;stroke-width:0.50599998;stroke-miterlimit:4;stroke-dasharray:none;stroke-opacity:1" />
      <path
         sodipodi:nodetypes="ccsscccc"
         inkscape:connector-curvature="0"
         id="rect1782"
         d="m 229.62208,597.12744 c 30.94192,-35.02057 62.6268,-28.12837 87.78559,-18.51012 2.82431,1.07974 -11.73767,14.2609 -17.32696,21.39135 -0.93127,1.18806 15.21243,8.59538 25.92505,22.18648 9.08796,11.52989 20.96374,15.89899 28.97196,17.08404 -34.90203,26.56319 -62.76065,6.98845 -94.38327,-24.74125 -34.93896,-10.23667 -76.2886,15.07349 -71.65799,14.84475 -5.38555,-6.4144 39.92362,-32.25525 40.68562,-32.25525 z"
         style="opacity:1;fill:#1dfa11;fill-opacity:1;stroke:none;stroke-width:0.50599998;stroke-miterlimit:4;stroke-dasharray:none;stroke-opacity:1" />
      <path
         sodipodi:nodetypes="sccscss"
         inkscape:connector-curvature="0"
         id="rect1597-18"
         d="m 188.98516,630.1952 c 7.02694,-1.66813 27.48792,-4.41549 38.04478,-1.47545 12.21578,4.59545 18.32108,12.80606 20.68115,23.89123 -15.63904,11.15995 -35.29055,6.13034 -38.63358,1.56097 -3.82708,-5.231 -5.93227,-11.39749 -9.97157,-14.94399 -3.01591,-2.64797 -8.42665,-3.00207 -10.8058,-4.02288 -2.07816,-0.89167 0.24248,-4.90483 0.68502,-5.00988 z"
         style="opacity:1;fill:#1dfa11;fill-opacity:1;stroke:none;stroke-width:0.36337447;stroke-miterlimit:4;stroke-dasharray:none;stroke-opacity:1" />
      <path
         sodipodi:nodetypes="ccccccccc"
         inkscape:connector-curvature="0"
         id="rect1800"
         d="m 200.8586,667.90905 c -2.39319,-18.86855 -12.6829,-21.52634 -14.38286,-24.72956 -0.60124,-3.04367 3.88973,-5.47817 6.16794,-4.34822 5.18753,2.57292 15.14112,17.90906 22.09846,22.95525 0,0 26.6724,5.40547 36.15996,12.41502 7.62601,5.6342 15.18076,25.51624 15.18076,25.51624 0.53077,5.49191 3.73494,16.9295 -0.61346,21.06164 -3.39608,3.22719 -8.29625,3.55958 -20.60082,4.30408 -30.80886,-9.14483 -41.05395,-32.51682 -44.00998,-57.17445 z"
         style="opacity:1;fill:#1dfa11;fill-opacity:1;stroke:none;stroke-width:0.50599998;stroke-miterlimit:4;stroke-dasharray:none;stroke-opacity:1" />
    </g>
    <path
       style="opacity:1;fill:#0909ef;fill-opacity:1;stroke:none;stroke-width:0.36417931;stroke-miterlimit:4;stroke-dasharray:none;stroke-opacity:1"
       d="m 236.13754,41.503666 c 8.01334,-16.36334 15.62831,-27.86531 2.53705,2.41478 -9.4272,20.11924 -19.03354,44.12465 -28.84815,66.314514 -6.05483,22.74042 -12.61565,40.76034 -18.76602,56.27529 -3.18941,12.97042 -10.85327,41.57933 -14.47985,72.97241 -1.33201,11.53038 -3.32339,23.84804 -4.3377,35.63474 0.0327,13.57237 -0.29548,26.87348 -0.79484,39.04603 -4.80227,29.48071 -6.0218,125.66996 -3.99159,182.49195 0.34933,9.77708 1.82803,26.42994 5.04843,43.00735 6.29031,12.22044 10.88116,24.71261 13.92301,35.74975 4.97858,18.06439 3.21596,34.04535 0.55547,36.74365 l -3.36891,-8.58954 c 0.49022,-1.50716 1.27645,-8.29216 -4.2773,-27.00031 -3.15622,-10.63195 -7.523,-23.10575 -13.36691,-36.35767 -3.82846,-17.45674 -6.47865,-34.11319 -5.87763,-44.35619 -2.38459,-58.93279 0.14172,-156.91202 2.25149,-180.87069 0.57299,-19.74921 1.45564,-41.63906 2.88886,-60.266 3.56401,-15.78275 7.37883,-37.82567 8.46705,-43.23174 3.94583,-14.45127 7.48117,-36.19906 17.49844,-70.33748 4.7154,-12.44645 10.24211,-25.29295 16.71547,-37.95544 9.73828,-26.951724 20.32201,-50.528994 28.22363,-61.685354 z"
       id="S1"
       inkscape:connector-curvature="0"
       sodipodi:nodetypes="cccccccccccccccccccccc" />
    <path
       style="opacity:1;fill:#4de0d7;fill-opacity:1;stroke:none;stroke-width:0.50599998;stroke-miterlimit:4;stroke-dasharray:none;stroke-opacity:1"
       d="m 106.99343,288.96987 c 0.97743,-0.97743 3.03987,-0.78304 4.0173,0.19439 -0.73224,15.818 -1.86477,40.5542 -0.38347,63.20846 2.57434,47.35739 25.40226,99.92915 29.49912,108.47975 0.65193,0.79488 19.56162,22.3176 18.86011,26.19978 l -9.76665,-3.74157 c -3.50934,-3.65309 -12.70261,-15.31821 -14.76629,-18.41142 -6.74636,-13.96924 -29.15164,-65.05984 -28.7865,-112.43507 -0.79527,-24.22131 -0.28793,-47.8097 1.32638,-63.49432 z"
       id="rect1806"
       inkscape:connector-curvature="0"
       sodipodi:nodetypes="ccccccccc" />
    <path
       style="opacity:1;fill:#0b1010;fill-opacity:1;stroke:none;stroke-width:0.506;stroke-miterlimit:4;stroke-dasharray:none;stroke-opacity:1"
       d="m 176.39639,643.50546 c -1.25433,-4.51771 -0.14739,-6.55135 0.38141,-7.01986 1.81494,-1.81911 22.33873,-4.94954 7.1901,6.82547 0,0 1.17988,17.85723 -0.36842,28.14655 -6.67296,8.71425 -11.95504,23.62151 -9.83038,29.27747 4.62647,8.40749 17.27988,25.17176 17.80222,27.45732 1.53821,4.30966 5.07421,28.20378 4.02353,38.37451 1.8202,3.05506 -8.78322,25.09735 -8.38482,28.52275 0.4016,7.5181 0.0834,24.2998 -0.3755,28.1315 -4.22502,8.8713 -3.77053,16.1936 -2.70213,24.8825 4.66039,6.9166 6.66458,16.4576 8.12608,25.9361 2.60609,17.8898 -1.67871,27.9936 -0.49011,39.7679 1.68449,16.6865 8.47899,22.8169 7.94476,30.7415 -4.87386,-8.2848 -9.13358,-19.06 -12.62554,-31.4905 -1.06917,-7.0307 -0.56085,-30.2239 -0.20787,-38.8218 -1.10474,-10.0309 -8.56536,-22.6067 -9.72509,-24.9806 0.16009,-8.5764 -1.95459,-19.8875 2.90702,-27.4759 -0.59174,-7.2356 1.23756,-18.6955 1.13995,-26.9514 -0.11644,-9.849 8.24389,-19.57155 7.96985,-27.87482 -0.62357,-18.89411 -3.25924,-32.45226 -4.18286,-34.60341 -4.68379,-3.66039 -15.67282,-22.99747 -18.7623,-32.32352 -1.1075,-6.62202 3.35219,-19.72203 10.47224,-30.19083 1.45437,-8.453 -0.30214,-26.33093 -0.30214,-26.33093 z"
       id="S3"
       inkscape:connector-curvature="0"
       sodipodi:nodetypes="ccccccccccccccccccccccc" />
    <rect
       style="opacity:0.455;fill:#0a0a10;fill-opacity:1;stroke:none;stroke-width:0.69999999;stroke-miterlimit:4;stroke-dasharray:none;stroke-opacity:1"
       id="rect868"
       width="5.589705"
       height="0"
       x="146.06499"
       y="699.91528" />
    <path
       style="opacity:1;fill:#4de0d7;fill-opacity:1;stroke:none;stroke-width:0.506;stroke-miterlimit:4;stroke-dasharray:none;stroke-opacity:1"
       d="m 166.38276,700.93368 0.22728,1.05379 c 0,0 -6.81567,6.9105 -6.87886,10.38865 -0.0817,4.49531 -0.7549,9.66077 0.0111,15.7195 0.39579,1.95349 1.16667,4.12017 2.0538,4.65568 2.11449,3.76203 2.8571,8.00821 3.48165,11.66156 0.34234,8.96481 -0.5825,13.4592 -0.45452,13.28643 l -0.5251,0.57272 c 0.13503,0.30383 0.76044,-6.90362 -0.0758,-13.98173 -0.45885,-3.88357 -1.19958,-8.06248 -2.79684,-10.43526 -1.47207,-1.00985 -2.66988,-4.63936 -2.65447,-5.62106 -0.76488,-6.50278 0.0107,-11.31213 0.16913,-16.12978 0.12895,-3.92204 7.4427,-11.1705 7.4427,-11.1705 z"
       id="rect872"
       inkscape:connector-curvature="0"
       sodipodi:nodetypes="ccccccccccccc" />
    <path
       style="opacity:1;fill:#4de0d7;fill-opacity:1;stroke:none;stroke-width:0.506;stroke-miterlimit:4;stroke-dasharray:none;stroke-opacity:1"
       d="m 181.82897,673.91033 0.63963,-1.00797 c 0,0 2.20714,4.75727 3.38101,8.37287 1.57034,4.04131 1.75593,5.53959 2.03022,12.23722 0.39579,1.95349 0.61686,5.31142 1.50399,5.84693 1.7395,3.84856 2.50636,5.70313 4.26054,9.0958 -0.0679,1.9335 6.40854,6.00008 6.23478,6.27641 l -1.2158,-0.24977 c -0.64386,-1.27921 -5.05489,-2.34006 -6.02858,-5.59942 -0.62909,-2.26632 -2.08753,-5.44571 -3.62155,-8.4193 -1.47207,-1.00985 -2.34916,-6.79277 -2.33375,-7.77447 0.0969,-6.7721 0.36514,-2.94672 -0.56394,-7.42452 -0.42086,-2.36426 -1.99563,-7.1386 -1.99563,-7.1386 z"
       id="rect872-3"
       inkscape:connector-curvature="0"
       sodipodi:nodetypes="cccccccccccccc" />
    <path
       style="opacity:1;fill:#4de0d7;fill-opacity:1;stroke:none;stroke-width:0.506;stroke-miterlimit:4;stroke-dasharray:none;stroke-opacity:1"
       d="m 176.47049,836.15015 0.22728,1.05379 c 0,0 -6.81567,6.9105 -6.87886,10.38865 -0.0817,4.49531 -3.18472,11.02147 -2.41872,17.0802 0.17898,4.47018 0.12995,6.388 0.62831,7.18269 1.60505,4.39882 -0.32228,8.43489 0.43627,11.92074 0.34234,8.96481 -3.10951,12.48727 -2.98153,12.3145 l -0.10393,-1.01476 c 0.13503,0.30383 3.22265,-4.83017 2.38641,-11.90828 -0.45885,-3.88357 1.00346,-8.80763 -0.5938,-11.18041 -0.72692,-1.04224 -0.40205,-6.19444 -0.38664,-7.17614 -0.76488,-6.50278 2.08415,-12.67283 2.24258,-17.49048 0.12895,-3.92204 7.4427,-11.1705 7.4427,-11.1705 z"
       id="rect872-6"
       inkscape:connector-curvature="0"
       sodipodi:nodetypes="cccccccccccccc" />
    <path
       sodipodi:nodetypes="ccccccccccccccccc"
       inkscape:connector-curvature="0"
       id="path920"
       d="m 195.68648,764.96332 -0.002,-1.46615 c 0,0 3.94819,1.55008 5.12206,5.16568 1.57034,4.04131 3.5428,6.22684 3.81709,12.92447 0.39579,1.95349 0.20451,7.6481 0.26693,8.91668 0.68234,4.71909 1.00966,7.32301 1.62808,10.71568 -0.30664,1.2973 5.64386,6.25433 8.20954,13.11494 0.60377,9.42127 1.41355,19.02313 1.265,19.33873 l -0.55364,-0.43991 c -0.23852,-1.56323 -0.50058,-10.07559 -1.43894,-17.89211 -2.02736,-6.90993 -7.89086,-11.92301 -8.36197,-13.50004 -0.23329,-1.40874 -1.15452,-4.56767 -1.48522,-9.91285 -0.55573,-2.24691 -0.37902,-6.93022 -0.36361,-7.91192 0.0969,-6.7721 -0.91774,-5.19176 -1.84682,-9.66956 -0.42086,-2.36426 -1.67491,-4.61866 -1.67491,-4.61866 -1.22274,-2.38769 -2.40874,-4.87184 -4.58178,-4.76498 z"
       style="opacity:1;fill:#4de0d7;fill-opacity:1;stroke:none;stroke-width:0.506;stroke-miterlimit:4;stroke-dasharray:none;stroke-opacity:1" />
    <path
       sodipodi:nodetypes="ccccccccccccccccccc"
       inkscape:connector-curvature="0"
       id="path920-5"
       d="m 192.82343,878.72961 -0.002,-0.74786 c 0,0 3.57908,0.79068 4.6432,2.63494 1.42353,2.06141 3.21159,3.17621 3.46024,6.59257 0.35878,0.99645 0.18539,3.90118 0.24197,4.54827 0.61855,2.40713 0.59129,12.5151 1.15189,14.24565 -0.27797,0.66173 2.02225,3.35223 4.34807,6.85172 0.26085,2.40797 -0.16662,7.40474 0.0414,8.19402 0.86107,1.40569 3.24207,3.42776 3.48066,5.04872 0.14628,0.34909 -0.54744,-0.32448 -0.56102,-0.28438 l -3.83884,-4.56567 c -0.21622,-0.79738 0.72873,-4.32946 -0.1219,-8.31655 -1.83782,-3.52465 -3.8162,-4.70485 -4.24327,-5.50926 -0.21148,-0.71858 -0.62541,-12.21117 -0.92519,-14.93767 -0.0178,-1.17851 -0.34359,-3.535 -0.32962,-4.03575 0.0878,-3.45434 -0.83194,-2.64824 -1.67416,-4.93229 -0.38152,-1.20598 -1.51833,-2.35591 -1.51833,-2.35591 -1.10842,-1.21793 -2.18355,-2.48505 -4.15343,-2.43055 z"
       style="opacity:1;fill:#4de0d7;fill-opacity:1;stroke:none;stroke-width:0.506;stroke-miterlimit:4;stroke-dasharray:none;stroke-opacity:1" />
  </g>
</svg>
