<?xml version="1.0" encoding="UTF-8" standalone="no"?>
<svg
   xmlns:dc="http://purl.org/dc/elements/1.1/"
   xmlns:cc="http://creativecommons.org/ns#"
   xmlns:rdf="http://www.w3.org/1999/02/22-rdf-syntax-ns#"
   xmlns:svg="http://www.w3.org/2000/svg"
   xmlns="http://www.w3.org/2000/svg"
   xmlns:sodipodi="http://sodipodi.sourceforge.net/DTD/sodipodi-0.dtd"
   xmlns:inkscape="http://www.inkscape.org/namespaces/inkscape"
   width="2.58333in"
   height="1.99in"
   viewBox="0 0 775 597"
   version="1.1"
   id="svg3"
   sodipodi:docname="brain_final.svg"
   inkscape:version="0.92.3 (unknown)">
  <metadata
     id="metadata9">
    <rdf:RDF>
      <cc:Work
         rdf:about="">
        <dc:format>image/svg+xml</dc:format>
        <dc:type
           rdf:resource="http://purl.org/dc/dcmitype/StillImage" />
        <dc:title />
      </cc:Work>
    </rdf:RDF>
  </metadata>
  <defs
     id="defs7" />
  <sodipodi:namedview
     pagecolor="#ffffff"
     bordercolor="#666666"
     borderopacity="1"
     objecttolerance="10"
     gridtolerance="10"
     guidetolerance="10"
     inkscape:pageopacity="0"
     inkscape:pageshadow="2"
     inkscape:window-width="1855"
     inkscape:window-height="1056"
     id="namedview5"
     showgrid="false"
     inkscape:zoom="3.4940788"
     inkscape:cx="90.978994"
     inkscape:cy="75.410773"
     inkscape:window-x="65"
     inkscape:window-y="24"
     inkscape:window-maximized="1"
     inkscape:current-layer="layer1" />
  <g
     inkscape:groupmode="layer"
     id="layer1"
     inkscape:label="Layer 1">
    <path
       style="opacity:1;fill:#c0cad8;fill-opacity:1;stroke:#160909;stroke-width:3.29689765;stroke-miterlimit:4;stroke-dasharray:none;stroke-opacity:1"
       d="m 208.53151,76.537014 c 78.17451,-86.557066 253.84435,-96.521019 355.51547,-10.137419 20.4767,17.397721 39.63195,41.327915 55.11384,79.744945 21.90132,85.32433 -7.27983,168.89653 -43.98893,226.4076 -34.63656,54.26407 -33.11598,119.39802 -14.98919,189.6596 -16.66674,9.44816 -210.5516,9.28396 -258.22499,4.38985 -8.02124,-9.10708 8.55162,-43.09937 -2.25583,-50.85492 -29.06914,-15.09236 -72.91549,-12.99283 -100.64665,-17.63787 -38.23563,-6.40456 -33.69625,-21.41898 -33.22925,-42.06426 -0.78199,-2.64704 -4.4407,-5.39556 -4.8123,-8.25095 -0.42369,-3.25554 2.43306,-6.59614 2.37201,-9.97367 -0.0681,-3.76377 -5.21399,-15.92638 -4.96337,-19.71525 1.43661,-21.71862 12.23986,-34.40216 8.79284,-42.20976 -20.10162,-13.31721 -60.60633,5.1988 -54.59918,-9.05791 13.99265,-33.20846 27.32079,-51.76493 31.61977,-60.66815 14.05903,-29.11707 10.87634,-139.3368 10.87634,-139.3368 0,0 3.05675,-26.26224 11.22835,-37.74363 5.41599,-14.78956 27.10723,-35.850156 42.19107,-52.551406 z"
       id="rect5480"
       inkscape:connector-curvature="0"
       sodipodi:nodetypes="cscscccscccccssccc" />
    <path
       style="opacity:1;fill:#14f40a;fill-opacity:1;stroke:#160909;stroke-width:3.12500423;stroke-miterlimit:4;stroke-dasharray:none;stroke-opacity:1"
       d="m 491.76005,51.4928 c 25.97901,1.753834 83.04971,37.917292 70.21188,67.81607 -24.69328,57.50947 -39.6909,83.71942 -49.71229,86.13533 -23.99831,5.78538 -27.78941,-71.55484 -114.0361,-40.98493 -33.1486,11.7494 57.91072,-115.371554 93.53651,-112.96647 z"
       id="S2"
       inkscape:connector-curvature="0"
       sodipodi:nodetypes="sssss" />
    <path
       style="opacity:1;fill:#0c0af4;fill-opacity:1;stroke:#160909;stroke-width:3.12500423;stroke-miterlimit:4;stroke-dasharray:none;stroke-opacity:1"
       d="m 562.88444,117.07807 c 47.12897,0.003 56.51049,154.57714 20.97429,167.74935 -11.65658,7.20945 -49.9003,-36.61228 -82.606,-30.39189 -12.56661,2.39006 48.6561,-107.66027 61.63171,-137.35746 z"
       id="S5"
       inkscape:connector-curvature="0"
       sodipodi:nodetypes="ccsc" />
    <path
       style="opacity:1;fill:#0c0c14;fill-opacity:1;stroke:#160909;stroke-width:3.12500423;stroke-miterlimit:4;stroke-dasharray:none;stroke-opacity:1"
       d="m 438.55573,273.61617 c 11.53259,-29.10114 92.34498,-22.13456 114.47951,0 25.08588,25.08584 17.03649,73.29502 -8.04932,98.38083 -22.1346,22.13456 -67.30259,23.02894 -89.43719,0.89438 -25.08581,-25.08585 -29.04931,-68.85269 -16.993,-99.27521 z"
       id="cerebellum"
       inkscape:connector-curvature="0"
       sodipodi:nodetypes="sssss" />
    <path
       style="opacity:1;fill:#9f0af4;fill-opacity:1;stroke:#160909;stroke-width:3.12500423;stroke-miterlimit:4;stroke-dasharray:none;stroke-opacity:1"
       d="m 361.66132,267.98239 c -5.2152,-17.4217 40.7535,-39.18634 70.6554,-25.93677 4.9457,2.19145 23.79039,20.39008 11.3103,26.73267 -18.3291,9.31516 3.9083,67.72204 -6.8385,75.22568 -11.1341,7.7741 -26.13409,10.7741 -31.303,2.68312 -11.8847,-18.60348 -25.0798,-64.51195 -10.9124,-89.90006 5.6671,-10.15555 -31.262,16.70648 -32.9118,11.19536 z"
       id="S4"
       inkscape:connector-curvature="0"
       sodipodi:nodetypes="sssssss" />
    <path
       style="opacity:1;fill:#0af4ef;fill-opacity:1;stroke:#160909;stroke-width:3.12500423;stroke-miterlimit:4;stroke-dasharray:none;stroke-opacity:1"
       d="m 329.96432,239.21448 c 4.9813,-4.42481 22.0997,-4.45878 25.7475,8.97482 3.4946,12.86937 -6.5505,23.0298 1.1332,23.59911 11.9853,0.88806 33.1106,-21.94967 33.5598,-12.00339 0.9079,20.10168 0.5838,53.63178 -5.3662,59.81621 -15.9478,16.5761 -51.2926,-7.0834 -68.4899,-22.35929 -13.4989,-11.99077 -0.083,-46.03669 13.4156,-58.02746 z"
       id="rect5477"
       inkscape:connector-curvature="0"
       sodipodi:nodetypes="sssssss" />
    <path
       style="opacity:1;fill:#f40af4;fill-opacity:1;stroke:#160909;stroke-width:3.12500423;stroke-miterlimit:4;stroke-dasharray:none;stroke-opacity:1"
       d="m 448.91572,257.10191 c -3.22428,0.26434 -18.1565,-36.89477 -71.2613,-14.32383 -21.3172,-5.18757 -41.0609,-5.79208 -44.8906,-9.74635 -10.952,-11.30826 -13.566,-27.56371 2.6767,-37.76347 20.2971,-12.74575 38.806,-26.30467 58.1926,-28.58301 42.36591,-4.9789 76.27332,-2.44872 85.0213,19.09283 -18.88649,20.56902 -28.78729,-8.39824 -80.728,-9.13248 -42.7714,15.57822 -56.1891,27.22467 -52.5765,35.48918 5.9088,16.44319 40.2959,6.95248 79.4745,0.8733 40.82961,-6.33537 87.2643,-8.39483 80.83001,3.77 l -4.00001,36.00001 z"
       id="S3"
       inkscape:connector-curvature="0"
       sodipodi:nodetypes="scsccccccccs" />
    <path
       style="opacity:1;fill:#f4d30a;fill-opacity:1;stroke:#160909;stroke-width:3.12500423;stroke-miterlimit:4;stroke-dasharray:none;stroke-opacity:1"
       d="m 350.65442,194.77807 c -1.3885,-1.45293 26.996,-20.8082 47.272,-18.13247 22.1272,2.92004 64.72801,17.13248 64.72801,17.13248 0,0 22.7075,3.44132 17.4718,5.89437 -38.09181,17.84708 -118.60811,22.26879 -115.47181,23.10564 -26.3393,-5.86849 -21.6196,-16.70243 -14,-28.00002 z"
       id="rect5486"
       inkscape:connector-curvature="0"
       sodipodi:nodetypes="cscscc" />
    <path
       style="opacity:1;fill:#f40aa0;fill-opacity:1;stroke:#160909;stroke-width:3.12500423;stroke-miterlimit:4;stroke-dasharray:none;stroke-opacity:1"
       d="m 407.65442,349.77807 33.00001,-3.00001 c 13.81371,11.64121 22.33041,34.8223 28.37351,63.39203 9.68798,45.80162 13.01889,105.45258 21.6265,153.60799 l -24,1 C 459.89733,479.54543 395.44402,350.78916 407.65442,349.77807 Z"
       id="rect5489"
       inkscape:connector-curvature="0"
       sodipodi:nodetypes="ccsccc" />
    <path
       style="fill:#0a6a1b;fill-opacity:1;stroke:#160909;stroke-width:3.12500423;stroke-linecap:butt;stroke-linejoin:miter;stroke-opacity:1;stroke-miterlimit:4;stroke-dasharray:none"
       d="m 397.63007,288.46923 c 11.04623,1.73968 52.21429,-46.33796 53.71151,-68.40617 -10.44661,19.8902 -40.50232,49.52677 -55.83795,52.7943 -5.01413,1.06835 -12.11412,13.36913 2.12644,15.61187 z"
       id="hippocampus"
       inkscape:connector-curvature="0"
       sodipodi:nodetypes="scss" />
    <g
       id="frontal"
       style="stroke:#160909;stroke-opacity:1">
      <path
         sodipodi:nodetypes="ssssass"
         inkscape:connector-curvature="0"
         id="frontal1"
         d="m 173.97312,188.50668 c -14.90539,-54.02496 83.6654,-145.010624 166.0953,-158.333643 30.3212,-4.900755 176.57711,-1.974473 137.90431,24.145693 -92.75221,62.64628 -72.48831,107.22935 -94.50711,115.1011 -101.7415,36.37275 -34.7205,78.45195 -70.9185,92.74142 -20.7356,8.18552 -49.738,-10.36728 -65.9588,-11.0509 -36.4421,-1.53585 -64.1592,-31.95471 -72.6152,-62.60367 z"
         style="opacity:1;fill:#8d430a;fill-opacity:1;stroke:#160909;stroke-width:3.12500429;stroke-miterlimit:4;stroke-dasharray:none;stroke-opacity:1" />
      <path
         style="fill:#f6c70a;fill-opacity:1;stroke-width:0.76139194;stroke:#160909;stroke-opacity:1"
         inkscape:connector-curvature="0"
         id="path887"
         d="m 374.83672,40.343276 c 5.60246,5.407486 11.42553,5.223557 18.87183,5.164701 14.82954,-0.125072 23.65479,-5.915128 39.39839,-5.885699 4.82237,0.0074 9.12465,0.809283 13.39545,3.038491 3.71133,1.942281 5.12966,3.987562 9.4556,5.054344 -1.8596,-5.834198 -11.20488,-9.902689 -17.33528,-10.940043 0,0 -11.03155,0 -11.03155,0 -6.80016,0.01471 -13.16695,2.604423 -19.69919,3.987562 -6.57954,1.390495 -11.38613,1.83928 -18.12326,1.802495 -3.6483,-0.02207 -8.23427,-0.669499 -11.22066,-2.795707 -2.93912,-2.089424 -2.28511,-3.266563 -6.9026,-6.032842 -0.51218,2.920779 1.07952,4.561417 3.19127,6.606698 z" />
      <path
         style="fill:#f6c70a;fill-opacity:1;stroke-width:0.76139194;stroke:#160909;stroke-opacity:1"
         inkscape:connector-curvature="0"
         id="path885"
         d="m 325.15535,51.268604 c -4.47566,-1.802496 -5.87824,-3.295992 -11.03155,-2.817777 3.05731,3.089991 8.36034,5.260343 12.60749,6.621411 -4.51506,11.550684 -13.00148,12.404111 -22.85107,17.509956 0,0 -8.66764,5.628198 -8.66764,5.628198 0,0 -6.20131,3.170921 -6.20131,3.170921 -2.81305,2.015852 -8.32882,10.057189 -8.21063,13.419393 0,0 1.4735,9.564264 1.4735,9.564264 0,0 8.58097,13.08096 8.58097,13.08096 0.94556,0.94171 6.34314,4.77478 7.50934,5.29713 1.7808,0.80929 3.62465,0.69158 5.51577,1.0815 1.63897,0.33843 2.9864,0.95643 4.72781,0.95643 1.64685,0 3.15187,-0.60329 4.7278,-0.97114 0,0 10.24358,-2.30278 10.24358,-2.30278 0,0 9.45562,-2.19978 9.45562,-2.19978 6.1225,-0.55179 11.22066,3.56085 13.1433,8.60048 0.86677,2.2807 1.26863,3.4137 1.05588,5.8857 -0.59098,6.89362 -7.85604,11.16811 -1.5917,13.24282 0,0 4.12895,-8.82855 4.12895,-8.82855 1.54442,-4.28184 2.10388,-9.23319 4.51506,-13.24283 0,0 4.64113,-5.88569 4.64113,-5.88569 2.21419,-3.53142 0.96132,-4.08321 4.57809,-7.59991 2.26935,-2.20714 9.52653,-7.74705 12.07955,-9.22583 4.04227,-2.354283 8.61247,-3.78157 8.66764,-8.924197 -6.28799,4.134703 -19.88042,12.426187 -24.18273,17.657097 -2.06448,2.50878 -1.91476,4.0832 -3.49858,6.59198 -2.89972,4.59085 -5.67336,4.12735 -6.2013,10.32941 0,0 -1.57594,0 -1.57594,0 -0.28367,-3.29599 -0.66977,-4.13471 -3.19915,-6.6067 -8.10819,-7.93834 -17.57168,-4.46577 -27.31096,-1.92021 -2.6003,0.68421 -7.96635,2.44992 -10.46421,2.21449 0,0 -8.66765,-1.79514 -8.66765,-1.79514 -5.64972,-2.56027 -7.52509,-6.37862 -10.56664,-11.02097 -0.98496,-1.48614 -2.59242,-3.56084 -3.15976,-5.14998 -0.65401,-1.84664 -0.3467,-3.89928 -0.54369,-5.819487 0,0 -0.52006,-3.869847 -0.52006,-3.869847 0.40974,-3.472567 3.84528,-6.032843 4.54658,-10.174905 6.71348,-1.412567 8.19486,-3.575562 13.39544,-6.797982 7.9506,-4.929274 26.00294,-9.740833 26.79091,-20.423377 5.80732,1.221282 8.21062,4.421631 13.39545,3.678562 0,0 0,-1.471425 0,-1.471425 0,0 -17.33529,-7.482195 -17.33529,-7.482195 z" />
      <path
         style="fill:#f6c70a;fill-opacity:1;stroke-width:0.76139194;stroke:#160909;stroke-opacity:1"
         inkscape:connector-curvature="0"
         id="path883"
         d="m 401.04454,64.768926 c 0,0 -6.33527,-4.016989 -6.33527,-4.016989 0,0 -8.88039,-4.693845 -8.88039,-4.693845 -6.44559,-3.560848 -11.07884,-6.694983 -18.91123,-7.511624 -5.53154,-0.581212 -16.02727,2.280708 -21.27514,4.318631 0,0 0,1.471425 0,1.471425 5.96492,1.206568 14.32526,-4.348058 20.48717,-3.487276 8.17122,1.140354 12.71779,4.966059 19.16337,8.57105 0,0 12.92267,6.937768 12.92267,6.937768 4.59386,2.42785 12.99358,4.355418 17.55592,1.221282 -5.36606,-1.419925 -8.86464,-0.09564 -14.7271,-2.810422 z" />
      <path
         style="fill:#f6c70a;fill-opacity:1;stroke-width:0.76139194;stroke:#160909;stroke-opacity:1"
         inkscape:connector-curvature="0"
         id="path881"
         d="m 461.47378,55.11638 c 0,0 -6.30374,1.419925 -6.30374,1.419925 0,0 -6.23282,0 -6.23282,0 0,0 -6.38255,1.441995 -6.38255,1.441995 -3.49071,0.206001 -12.07955,-2.074708 -14.75864,-4.068488 -3.38825,-2.516136 -1.83596,-3.943418 -7.29658,-5.458985 1.99356,7.05548 5.7364,8.92419 12.60749,11.035685 2.90759,0.890211 3.95559,1.361068 7.0917,1.456709 6.54801,0.206001 6.15403,-0.934354 10.24359,-1.361068 4.85387,-0.50764 4.05803,0.485571 9.67623,-1.029997 4.75145,-1.280138 8.66767,0.934356 11.59889,-3.435776 0,0 -10.24357,0 -10.24357,0 z" />
      <path
         style="fill:#f6c70a;fill-opacity:1;stroke-width:0.76139194;stroke:#160909;stroke-opacity:1"
         inkscape:connector-curvature="0"
         id="path879"
         d="m 373.22138,65.372211 c -1.7808,6.996625 -1.63109,4.914559 -1.57593,12.50711 0.0788,10.461832 6.86321,8.909479 11.81952,9.895333 1.64685,0.331071 2.96275,0.956426 4.72779,0.956426 0,0 6.30376,-1.287496 6.30376,-1.287496 0,0 6.30374,0 6.30374,0 0,0 5.51578,-1.28014 5.51578,-1.28014 0,0 7.0917,-0.720998 7.0917,-0.720998 0,0 5.51578,-0.397285 5.51578,-0.397285 3.61677,-0.551785 2.76577,-1.199211 7.87967,-1.28014 4.74356,-0.06621 8.21063,1.177141 11.03156,-2.94285 0,0 -11.03156,0 -11.03156,0 -7.37539,0.01471 -4.8066,0.610643 -8.73856,1.28014 0,0 -4.65689,0.382571 -4.65689,0.382571 0,0 -14.18341,2.700065 -14.18341,2.700065 0,0 -6.30376,0 -6.30376,0 0,0 -3.93983,0.816639 -3.93983,0.816639 -2.04083,0.161858 -3.51433,-0.463497 -5.51577,-0.669497 -6.66621,-0.698927 -8.55734,-1.029997 -8.66765,-8.188479 0,0 0.78797,-11.771399 0.78797,-11.771399 0,0 -2.36391,0 -2.36391,0 z" />
      <path
         style="fill:#f6c70a;fill-opacity:1;stroke-width:0.76139194;stroke:#160909;stroke-opacity:1"
         inkscape:connector-curvature="0"
         id="path875"
         d="m 344.06658,80.822171 c 0,0 -7.09171,0 -7.09171,0 0,0 -11.03155,2.207138 -11.03155,2.207138 0,0 0,1.471425 0,1.471425 7.18626,1.633282 6.745,-0.110357 11.81951,-0.64007 4.31807,-0.456141 5.17695,0.448785 10.24358,-0.831355 3.84529,-0.971141 5.09028,-0.43407 6.30375,-3.678563 0,0 -10.24358,1.471425 -10.24358,1.471425 z" />
      <path
         style="fill:#f6c70a;fill-opacity:1;stroke-width:0.76139194;stroke:#160909;stroke-opacity:1"
         inkscape:connector-curvature="0"
         id="path873"
         d="m 253.45028,88.179295 c -2.41118,6.518415 -4.90904,7.151124 -9.77868,11.53597 0,0 -5.98067,6.121125 -5.98067,6.121125 7.34386,-2.04528 17.59532,-10.093969 18.12326,-17.657095 0,0 -2.36391,0 -2.36391,0 z" />
      <path
         style="fill:#f6c70a;fill-opacity:1;stroke-width:0.76139194;stroke:#160909;stroke-opacity:1"
         inkscape:connector-curvature="0"
         id="path871"
         d="m 348.79438,94.602064 c -2.22994,0.198642 -4.12107,0.176571 -6.30374,0.721001 -8.14759,2.045281 -15.05806,8.136975 -25.97141,6.739125 -6.57166,-0.83871 -5.33455,-8.887408 -11.85104,-10.940043 0.4255,3.031133 0.87464,4.016991 2.63181,6.621412 1.27651,1.88342 3.34886,4.958701 5.28726,6.179981 2.34815,1.48614 5.87036,1.21392 8.62825,1.17714 10.25934,-0.16186 17.44561,-6.775909 25.21497,-7.320339 4.09743,-0.286928 8.09243,-0.250141 11.58313,2.089423 2.67121,1.795136 2.29298,3.288636 5.75216,4.495206 -1.04011,-7.415982 -7.43054,-10.425044 -14.97139,-9.762906 z" />
      <path
         style="fill:#f6c70a;fill-opacity:1;stroke-width:0.76139194;stroke:#160909;stroke-opacity:1"
         inkscape:connector-curvature="0"
         id="path867"
         d="m 247.33565,128.51841 c 0,0 4.64113,10.55012 4.64113,10.55012 1.40258,2.00113 3.18339,3.83305 5.41334,5.04698 1.66262,0.91228 4.16835,1.19186 4.56233,3.17092 0.50431,2.48671 -3.63252,7.18791 -5.2321,9.10076 -4.05804,4.84099 -4.94056,5.76799 -4.846,11.98476 0.0788,4.78213 2.43482,10.8959 8.66764,9.56426 0,0 0,-1.47143 0,-1.47143 -1.49714,-0.77249 -2.37178,-1.11828 -3.56949,-2.36899 -7.62753,-7.98248 2.46634,-15.3911 6.68197,-21.90951 0,0 3.19127,-6.62142 3.19127,-6.62142 -5.49214,-3.97285 -7.51722,-3.24449 -10.14115,-5.37805 -2.46634,-2.00114 -3.26219,-4.39221 -4.31018,-7.12905 -2.22995,-5.84156 -3.25431,-10.60162 -0.47278,-16.59768 2.37178,-5.10584 7.23354,-6.70969 8.62036,-11.3594 -9.49501,2.60442 -14.90047,14.75103 -13.20634,23.41773 z" />
      <path
         style="fill:#f6c70a;fill-opacity:1;stroke-width:0.76139194;stroke:#160909;stroke-opacity:1"
         inkscape:connector-curvature="0"
         id="path865"
         d="m 229.77973,110.80245 c -2.19055,1.70686 -4.8854,2.78099 -6.76076,4.73799 -5.79157,5.65028 -3.13611,10.93269 0,16.7816 2.02508,3.48728 2.91548,4.89249 6.79228,6.62141 -1.32379,-4.71592 -6.8238,-11.21225 -6.91048,-15.44996 -0.13395,-6.65819 9.60533,-11.01361 14.79016,-17.6571 -4.71993,1.33165 -4.40474,2.25128 -7.9112,4.96606 z" />
      <path
         style="fill:#f6c70a;fill-opacity:1;stroke-width:0.76139194;stroke:#160909;stroke-opacity:1"
         inkscape:connector-curvature="0"
         id="path863"
         d="m 334.04363,168.90166 c 0,0 10.02295,-3.0017 10.02295,-3.0017 0,0 7.09171,-3.96549 7.09171,-3.96549 10.84243,-6.12113 19.80951,-12.56597 28.26441,-21.51959 1.83596,-1.94228 11.42552,-16.5241 12.67051,-19.12853 1.48139,-3.11206 3.56162,-5.92984 -0.74857,-7.35712 -2.88396,8.54898 -2.3639,6.11377 -6.66621,13.24283 0,0 -6.30374,10.27054 -6.30374,10.27054 -8.22638,10.1234 -23.63903,19.78331 -35.66342,25.74993 0,0 -22.28372,7.71763 -22.28372,7.71763 -6.07524,1.39049 -7.87968,-0.71364 -9.45562,3.34749 13.33242,0 11.46493,-1.57443 23.0717,-5.35599 z" />
      <path
         style="fill:#f6c70a;fill-opacity:1;stroke-width:0.76139194;stroke:#160909;stroke-opacity:1"
         inkscape:connector-curvature="0"
         id="path859"
         d="m 230.79621,164.06067 c -14.75076,-2.39842 -13.67912,-21.02666 -21.84247,-29.34021 -5.63397,-5.73855 -17.2171,-5.1647 -20.11681,2.75157 0,0 9.45561,-3.97285 9.45561,-3.97285 4.23926,-0.52971 8.77796,2.95021 10.63756,6.1947 4.33383,7.56312 5.17695,15.6486 11.05519,22.40244 4.61749,5.31185 16.95707,7.20263 20.85751,0.38993 0,0 -0.78797,-0.73571 -0.78797,-0.73571 -2.38754,0.69893 -6.96563,2.68535 -9.25862,2.31013 z" />
      <path
         style="fill:#f6c70a;fill-opacity:1;stroke-width:0.76139194;stroke:#160909;stroke-opacity:1"
         inkscape:connector-curvature="0"
         id="path857"
         d="m 276.30135,132.32204 c 2.13539,7.56313 5.83096,7.64405 12.60749,10.08662 0,0 5.51576,2.24392 5.51576,2.24392 0,0 18.91123,0 18.91123,0 5.21635,0.17657 10.66909,0.59593 15.75936,-0.55914 0,0 0,-1.47142 0,-1.47142 0,0 -28.36684,-0.73572 -28.36684,-0.73572 0,0 -18.91123,-4.41427 -18.91123,-4.41427 -0.93768,-2.93549 -2.37178,-4.27449 -5.51577,-5.14999 z" />
      <path
         style="fill:#f6c70a;fill-opacity:1;stroke-width:0.76139194;stroke:#160909;stroke-opacity:1"
         inkscape:connector-curvature="0"
         id="path849"
         d="m 307.03209,155.8207 c 0,0 -7.87968,0 -7.87968,0 0,0 -13.39545,3.03113 -13.39545,3.03113 -7.17838,2.75892 -14.09674,10.01304 -14.09674,17.61295 0,1.97907 0.63825,3.30335 1.15043,5.14999 0.36247,1.32429 0.4649,2.4205 1.13467,3.67857 4.86965,9.08604 11.70921,8.96097 21.26726,8.82854 3.77436,-0.0589 5.20058,-0.0662 6.30374,-3.67856 -13.93915,2.30278 -9.3453,0.53707 -21.27513,0 -0.89041,-5.82684 -2.93912,-2.30278 -5.06663,-10.29997 -0.30731,-1.14772 -0.83525,-2.43521 -0.82737,-3.61235 0.008,-1.12564 0.51218,-2.15564 0.87464,-3.20771 1.82809,-5.30448 2.58454,-5.39277 7.16263,-8.82854 4.91692,-3.69328 6.20918,-3.42107 12.04014,-4.39956 5.68913,-0.95643 3.47494,-1.25071 10.24359,-1.2875 6.45346,-0.0368 4.73569,-0.93436 8.69916,-1.37578 3.97924,-0.44879 4.79084,0.39728 9.4241,-0.83136 0,0 0,-1.47143 0,-1.47143 -7.26506,-1.64799 -9.07739,-0.47085 -15.75936,0.69158 z" />
      <path
         style="fill:#f6c70a;fill-opacity:1;stroke-width:0.76139194;stroke:#160909;stroke-opacity:1"
         inkscape:connector-curvature="0"
         id="path847"
         d="m 191.57906,161.25025 c -0.80373,2.31014 0.36247,5.65028 1.21347,7.85741 2.44269,6.34185 10.23569,17.18625 17.31953,19.12853 -1.44199,-4.58349 -3.78224,-5.34864 -6.88684,-8.82855 -3.08096,-3.44314 -8.00575,-10.49862 -8.73069,-15.02325 -0.60673,-3.75214 2.96276,-3.72271 3.01004,-8.51955 -2.12751,1.22864 -5.09815,3.04585 -5.92551,5.38541 z" />
      <path
         style="fill:#f6c70a;fill-opacity:1;stroke-width:0.76139194;stroke:#160909;stroke-opacity:1"
         inkscape:connector-curvature="0"
         id="path843"
         d="m 229.44091,190.12696 c -4.87753,7.42334 -12.00863,7.05549 -20.11682,6.93777 -8.20275,-0.13243 -6.35101,-2.90606 -16.54733,-2.94285 2.30874,3.38428 4.72781,3.45785 8.66764,4.65706 7.39903,2.25129 20.76296,2.40578 26.94851,-2.62649 4.08955,-3.32542 7.99787,-13.13247 4.57021,-17.48052 0,0 -3.52221,11.45503 -3.52221,11.45503 z" />
      <path
         style="fill:#f6c70a;fill-opacity:1;stroke-width:0.76139194;stroke:#160909;stroke-opacity:1"
         inkscape:connector-curvature="0"
         id="path839"
         d="m 243.11215,205.89328 c -0.75645,3.35485 0.18123,3.14885 0,5.06169 0,0 -3.5301,8.91684 -3.5301,8.91684 -3.39614,4.89985 -8.55733,5.94457 -13.71064,8.09284 1.40258,0.58858 2.30875,1.133 3.93984,1.11829 4.24715,-0.0441 11.45705,-5.09849 13.38757,-8.50484 0.73281,-1.29485 0.89041,-2.95757 1.38683,-4.38484 0.64613,-1.87607 1.98567,-3.89928 1.89112,-5.8857 -0.0709,-1.58914 -0.9692,-3.02378 -1.69413,-4.41428 0,0 -1.67049,0 -1.67049,0 z" />
      <path
         style="fill:#f6c70a;fill-opacity:1;stroke-width:0.76139194;stroke:#160909;stroke-opacity:1"
         inkscape:connector-curvature="0"
         id="path837"
         d="m 295.77203,229.20064 c -4.50717,-7.16583 -4.93268,-9.3141 -12.37897,-14.67745 -5.48425,-3.95077 -6.54801,-4.31127 -13.39546,-4.21563 -4.0659,0.0662 -8.88827,1.11828 -11.34673,4.45842 -1.44986,1.96435 -1.50502,5.06169 -0.89041,7.31297 0.70918,2.58235 2.35603,4.41428 3.79801,6.62142 2.74213,4.17149 4.95632,8.94627 9.24286,11.98476 3.0258,2.14092 5.64185,4.06849 9.43986,2.72948 -3.50646,-1.90548 -2.947,-1.90548 -5.76793,-3.86985 -7.14687,-4.96604 -5.39757,-4.9219 -9.76292,-11.58011 -1.26862,-1.93492 -2.7894,-3.70063 -3.56161,-5.8857 -3.14399,-8.82119 8.92768,-10.42504 13.44273,-9.21111 2.41118,0.65478 4.49929,2.50877 6.4377,3.91398 4.8854,3.52408 5.34242,3.22242 8.88827,8.36505 2.55301,3.70063 8.01364,13.55183 10.81092,16.06061 1.25287,-5.4222 -2.33239,-7.83534 -4.95632,-12.00684 z" />
    </g>
    <g
       id="g1002"
       style="fill:#f6c70a;fill-opacity:1;stroke:#160909;stroke-opacity:1">
      <path
         style="fill:#f6c70a;fill-opacity:1;stroke:#160909;stroke-width:0.76139194;stroke-opacity:1"
         inkscape:connector-curvature="0"
         id="path877"
         d="m 488.98173,82.094955 c 0,0 -3.7586,3.001706 -3.7586,3.001706 -1.85173,1.831923 -2.15904,3.031136 -4.85389,4.929271 0,0 -10.23571,6.20206 -10.23571,6.20206 0,0 -5.69699,2.420489 -5.69699,2.420489 0,0 -10.98427,9.041909 -10.98427,9.041909 0,0 -2.59242,3.29599 -2.59242,3.29599 -1.56018,1.90549 -3.75861,3.64178 -4.86176,5.8857 -1.64685,4.49521 -0.7722,10.06454 0,14.71425 0.21275,3.16356 2.13538,7.43805 3.65616,10.29997 0,0 1.57593,0 1.57593,0 0.9692,-4.17884 -0.68551,-5.65763 -1.84382,-9.56426 -0.92981,-3.40635 -1.3632,-11.42561 0,-14.71425 1.22134,-3.18563 6.88683,-8.18112 9.73926,-10.49126 2.57666,-2.08942 4.74357,-4.66441 7.86392,-6.08434 0,0 4.72781,-1.912847 4.72781,-1.912847 1.56806,-0.794572 3.0258,-1.890781 4.72781,-2.420496 1.86748,-0.581212 3.63254,-0.323715 5.51578,-0.522358 6.1619,-0.654781 0.74068,-1.353711 13.39545,-1.375783 8.88039,-0.01473 4.27867,-1.464069 14.18343,-1.471423 0,0 0,-2.207136 0,-2.207136 0,0 -22.85107,0.926999 -22.85107,0.926999 0,0 -4.72781,1.280137 -4.72781,1.280137 0,0 5.89399,-6.356556 5.89399,-6.356556 4.47566,-3.928704 6.05948,-3.833061 8.28943,-9.829117 0,0 -0.78797,-0.735713 -0.78797,-0.735713 -3.93197,1.861352 -3.5301,3.097349 -6.37466,5.687058 z" />
      <path
         style="fill:#f6c70a;fill-opacity:1;stroke:#160909;stroke-width:0.76139194;stroke-opacity:1"
         inkscape:connector-curvature="0"
         id="path869"
         d="m 535.59647,94.436402 c 0,0 -4.55445,8.306188 -4.55445,8.306188 0,0 0,18.91517 0,18.91517 -2.2851,0.13243 -3.71133,0.21335 -5.64973,1.18449 -3.39613,1.6995 -7.91119,8.48277 -8.36822,12.05833 0,0 0.44914,7.35713 0.44914,7.35713 0.0473,4.04641 -1.04012,9.92475 1.57595,13.24282 1.40257,-4.60556 0.70129,-10.58691 0.78796,-15.44996 0.0315,-1.56707 0.0236,-2.89871 0.66189,-4.38485 1.21348,-2.85456 9.10103,-9.8659 11.9456,-11.80083 1.03223,7.40127 9.72352,13.63275 16.54731,7.35713 -6.48496,-0.007 -13.53728,-0.95643 -13.48212,-8.76234 0,0 1.66262,-6.68762 1.66262,-6.68762 0,0 -3.04944,1.47142 -3.04944,1.47142 0,0 0,-12.50711 0,-12.50711 0,0 3.8374,-10.299968 3.8374,-10.299968 0,0 -2.36391,0 -2.36391,0 z" />
      <path
         style="fill:#f6c70a;fill-opacity:1;stroke:#160909;stroke-width:0.76139194;stroke-opacity:1"
         inkscape:connector-curvature="0"
         id="path861"
         d="m 500.87217,120.99207 c -4.31019,1.47878 -10.86609,9.2994 -13.75005,12.8014 -2.35602,2.86192 -5.40546,4.5467 -2.79728,8.09283 1.86749,-3.01642 9.12467,-11.47711 11.81952,-13.97118 1.31591,-1.21392 3.47493,-3.48727 5.50002,-3.22977 3.03366,0.38992 3.69555,3.9802 4.29442,6.16527 0.83525,3.03849 2.93124,17.89988 2.52937,20.59994 -0.68553,4.49521 -9.86536,9.91741 -12.32381,14.71425 5.39757,0.21336 8.72279,-5.19413 12.60748,-8.09283 -2.83668,6.27562 -1.45773,17.88517 -1.57593,25.01422 -0.10244,5.75327 -1.54442,4.33334 -1.57595,11.7714 0,0 2.36391,0 2.36391,0 0,0 1.57595,-9.56426 1.57595,-9.56426 0,0 0,-16.92139 0,-16.92139 0,0 2.09598,-15.44996 2.09598,-15.44996 0,0 -0.72494,-8.82855 -0.72494,-8.82855 0,0 -1.26862,-5.14999 -1.26862,-5.14999 0,0 -2.0566,-13.00739 -2.0566,-13.00739 0,0 -2.77363,-5.38542 -2.77363,-5.38542 -1.32379,0.0442 -2.67121,0.007 -3.93984,0.44143 z" />
      <path
         style="fill:#f6c70a;fill-opacity:1;stroke:#160909;stroke-width:0.76139194;stroke-opacity:1"
         inkscape:connector-curvature="0"
         id="path853"
         d="m 502.34566,149.97914 c 0.39398,-3.29599 0.53581,-5.45163 -3.04944,-6.62141 0,12.71311 -3.50644,10.99154 -5.51576,19.86424 0,0 0.78796,0.73571 0.78796,0.73571 4.40474,-2.23657 7.24143,-9.42448 7.77724,-13.97854 z" />
      <path
         style="fill:#f6c70a;fill-opacity:1;stroke:#160909;stroke-width:0.76139194;stroke-opacity:1"
         inkscape:connector-curvature="0"
         id="path851"
         d="m 579.66895,152.64978 c 0,0 -3.93197,0.70628 -3.93197,0.70628 -3.65616,1.32428 -7.8718,6.62877 -9.64473,9.86591 0,0 -13.89975,28.69278 -13.89975,28.69278 -2.62394,5.38541 -7.56448,10.92533 -14.28585,11.03568 0,0 -3.15188,0 -3.15188,0 1.58382,4.21564 7.00504,3.50935 10.24359,1.24336 6.40618,-4.4952 10.83455,-11.16812 13.39545,-18.16474 3.33311,1.67007 3.4513,1.10357 6.30374,2.11885 1.7414,0.618 9.4635,4.95135 10.66121,6.16527 2.09599,2.14092 3.8768,6.59198 4.83023,9.37298 1.0874,3.18563 1.7099,12.29375 -3.71131,12.36733 -1.56018,0.0221 -3.46707,-1.55972 -4.68842,-2.37636 -3.16763,-2.11149 -6.75288,-5.34127 -10.24359,-6.31241 1.27653,4.26713 5.68126,6.90834 9.34531,9.38033 1.47351,1.00058 3.14399,2.68535 4.97995,2.89871 2.37966,0.27957 4.36534,-1.10357 5.76793,-2.75892 3.57738,-4.20827 3.16763,-9.83648 1.60745,-14.67011 -1.1662,-3.59763 -3.67192,-9.11547 -7.10746,-11.27111 0,0 -4.95632,-2.50143 -4.95632,-2.50143 -5.1218,-2.96491 -4.6175,-3.81834 -11.21279,-3.88455 1.14256,-4.7895 6.68985,-16.80368 9.47137,-21.29888 2.36391,-3.82571 4.03439,-2.86928 5.50003,-7.39391 0,0 10.17266,-0.91228 10.17266,-0.91228 0,0 6.37465,0 6.37465,0 0,0 0,-1.29486 0,-1.29486 -6.65044,-2.83249 -5.1139,-2.28807 -11.8195,-1.00792 z" />
      <path
         style="fill:#f6c70a;fill-opacity:1;stroke:#160909;stroke-width:0.76139194;stroke-opacity:1"
         inkscape:connector-curvature="0"
         id="path841"
         d="m 590.7005,202.95043 c -0.70917,6.5037 1.76504,6.89363 4.38109,11.77141 0,0 4.58597,10.83703 4.58597,10.83703 0.55159,1.46407 2.07235,3.82571 1.86749,5.26035 -0.77221,5.40012 -7.15475,5.40749 -10.03082,6.69499 -2.80518,1.25807 -3.28583,2.72949 -4.91692,4.81156 -2.7185,3.45784 -7.26508,6.76855 -6.1304,11.38882 0,0 1.57593,0 1.57593,0 1.71778,-2.9355 7.09171,-10.99155 9.6605,-12.80139 2.13538,-1.50821 4.01075,-0.88287 6.09885,-1.61857 3.53011,-1.236 7.97425,-6.13585 7.17839,-9.85855 0,0 -6.81592,-16.05325 -6.81592,-16.05325 -2.19054,-3.89927 -4.6175,-4.21563 -5.09028,-10.4324 0,0 -2.36388,0 -2.36388,0 z" />
      <path
         style="fill:#f6c70a;fill-opacity:1;stroke:#160909;stroke-width:0.76139194;stroke-opacity:1"
         inkscape:connector-curvature="0"
         id="path835"
         d="m 519.67593,218.02899 c 0,0 0,16.92139 0,16.92139 0,0 0.78796,9.56427 0.78796,9.56427 2.79729,-6.19472 1.57595,-19.33453 1.57595,-26.48566 0,0 -2.36391,0 -2.36391,0 z" />
      <path
         style="fill:#f6c70a;fill-opacity:1;stroke:#160909;stroke-width:0.71020234;stroke-opacity:1"
         inkscape:connector-curvature="0"
         id="path833"
         d="m 472.97898,245.20221 c 2.05032,-5.82019 5.44819,-4.50438 9.51986,-4.94995 0,0 4.47737,-1.13478 4.47737,-1.13478 2.94869,-0.51518 7.07106,0.30631 10.24434,-3.75248 5.99881,-7.65116 -4.04268,-15.41371 -11.03404,-17.7181 -1.6446,-0.4038 -4.8034,-0.38988 -6.52045,0 0,0 -18.83685,5.91763 -18.83685,5.91763 -3.94849,1.88669 -3.76736,2.91705 -8.69391,3.53665 0,0 0,2.08858 0,2.08858 7.49852,-0.0696 5.31779,-1.07909 10.89638,-3.36956 0,0 11.56293,-3.82907 11.56293,-3.82907 3.77461,-1.21138 7.63615,-2.75692 11.5919,-1.18352 4.31075,1.72655 12.37436,6.15434 9.1866,11.80047 -2.25319,3.99614 -5.54963,3.14678 -9.1866,3.72462 0,0 -5.07145,1.12088 -5.07145,1.12088 -1.68084,0.18797 -3.44136,-0.0487 -5.07147,0.49429 -5.89014,1.98415 -6.96238,8.31255 -3.62246,12.82388 0.007,-1.90061 -0.087,-3.74552 0.55785,-5.56954 z" />
      <path
         style="fill:#f6c70a;fill-opacity:1;stroke:#160909;stroke-width:0.76139194;stroke-opacity:1"
         inkscape:connector-curvature="0"
         id="path827"
         d="m 563.49984,238.53684 c -8.3761,-6.29769 -19.67555,-8.14432 -29.53303,-3.95078 0,0 0,1.47144 0,1.47144 4.59385,0.927 4.81448,-0.6548 10.24358,-0.55915 1.87537,-0.19864 4.52294,-0.25015 6.30373,0 5.57095,1.47142 14.03371,5.97398 15.37327,11.59482 0.96131,4.04643 -2.1354,4.39957 -1.18984,10.29997 5.3109,-3.70063 5.64185,-13.72103 -1.19771,-18.8563 z" />
      <path
         style="fill:#f6c70a;fill-opacity:1;stroke:#160909;stroke-width:0.76139194;stroke-opacity:1"
         inkscape:connector-curvature="0"
         id="path823"
         d="m 327.44691,261.85893 c -2.66333,2.5382 -3.97136,3.02377 -4.60173,6.5699 4.85388,-1.44934 6.10675,-5.09112 10.24358,-7.66611 2.95488,-1.84665 14.42769,-5.13527 18.12326,-5.57671 0,0 -0.78797,-2.94284 -0.78797,-2.94284 -9.48713,2.34691 -15.71208,2.70005 -22.97714,9.61576 z" />
      <path
         style="fill:#f6c70a;fill-opacity:1;stroke:#160909;stroke-width:0.76139194;stroke-opacity:1"
         inkscape:connector-curvature="0"
         id="path821"
         d="m 343.33234,266.2217 c -1.26863,5.41485 -2.95488,3.79627 -5.87036,6.50369 -0.99284,0.927 -1.24499,1.85401 -1.9778,2.87664 -1.99356,2.79571 -4.19198,3.73007 -4.47565,7.54105 -0.3152,1.16242 -0.22064,2.56765 0,3.67856 0,0 6.42193,10.84441 6.42193,10.84441 2.75789,3.00907 4.75145,2.19978 5.90188,6.8127 7.02079,1.5965 6.60317,0.38257 12.60748,-0.54443 5.64185,-0.87551 9.40046,-0.93436 14.97139,-3.13413 0,0 -0.78796,-2.94286 -0.78796,-2.94286 -3.23855,1.28014 -11.55949,3.45784 -14.97139,3.06058 0,0 -6.30374,-1.61858 -6.30374,-1.61858 -1.82021,-0.3605 -5.50002,-0.64743 -6.91837,-1.45671 -2.18266,-1.2507 -4.61748,-6.85683 -6.22494,-9.20376 -0.93768,-1.37579 -2.11963,-2.33957 -2.19843,-4.09057 0,0 1.15831,-5.08377 1.15831,-5.08377 0,0 3.15188,0 3.15188,0 2.43482,-7.56312 7.34386,-4.18619 13.39545,-12.50711 0,0 -4.72781,0.73572 -4.72781,0.73572 0,0 -3.15187,-1.47143 -3.15187,-1.47143 z" />
      <path
         style="fill:#f6c70a;fill-opacity:1;stroke:#160909;stroke-width:0.76139194;stroke-opacity:1"
         inkscape:connector-curvature="0"
         id="Selection"
         d="m 358.25,285.35022 c 0,0 0,2.20714 0,2.20714 6.13826,-0.0662 18.13901,-2.03791 23.63902,-4.41428 0,0 0,-1.47142 0,-1.47142 0,0 -23.63902,3.67856 -23.63902,3.67856 z" />
    </g>
  </g>
</svg>
