<?xml version="1.0" encoding="UTF-8" standalone="no"?>
<!-- Created with Inkscape (http://www.inkscape.org/) -->

<svg
   xmlns:dc="http://purl.org/dc/elements/1.1/"
   xmlns:cc="http://creativecommons.org/ns#"
   xmlns:rdf="http://www.w3.org/1999/02/22-rdf-syntax-ns#"
   xmlns:svg="http://www.w3.org/2000/svg"
   xmlns="http://www.w3.org/2000/svg"
   xmlns:sodipodi="http://sodipodi.sourceforge.net/DTD/sodipodi-0.dtd"
   xmlns:inkscape="http://www.inkscape.org/namespaces/inkscape"
   version="1.1"
   id="svg1090"
   width="576"
   height="330.23999"
   viewBox="0 0 576 330.23999"
   sodipodi:docname="elegans_final.svg"
   inkscape:version="0.92.2 (unknown)">
  <metadata
     id="metadata1096">
    <rdf:RDF>
      <cc:Work
         rdf:about="">
        <dc:format>image/svg+xml</dc:format>
        <dc:type
           rdf:resource="http://purl.org/dc/dcmitype/StillImage" />
        <dc:title></dc:title>
      </cc:Work>
    </rdf:RDF>
  </metadata>
  <defs
     id="defs1094" />
  <sodipodi:namedview
     pagecolor="#ffffff"
     bordercolor="#666666"
     borderopacity="1"
     objecttolerance="10"
     gridtolerance="10"
     guidetolerance="10"
     inkscape:pageopacity="0"
     inkscape:pageshadow="2"
     inkscape:window-width="1853"
     inkscape:window-height="1056"
     id="namedview1092"
     showgrid="false"
     inkscape:zoom="2.021284"
     inkscape:cx="290.85918"
     inkscape:cy="180.10768"
     inkscape:window-x="67"
     inkscape:window-y="24"
     inkscape:window-maximized="1"
     inkscape:current-layer="layer1" />
  <rect
     style="opacity:0.65399996;fill:#0c0af4;fill-opacity:1;stroke:none;stroke-width:0;stroke-miterlimit:4;stroke-dasharray:none;stroke-opacity:1"
     id="rect1917"
     width="0"
     height="24.736759"
     x="123.18903"
     y="212.98779" />
  <g
     inkscape:groupmode="layer"
     id="layer1"
     inkscape:label="Layer 1">
    <path
       style="opacity:1;fill:#a9e9ef;fill-opacity:1;stroke:none;stroke-width:0;stroke-miterlimit:4;stroke-dasharray:none;stroke-opacity:1"
       d="M 78.257557,126.65216 C 77.689468,115.56244 144.7819,75.889707 230.60874,70.154527 c 35.10867,-0.46789 71.12088,7.19599 108.20815,24.5355 30.08449,6.388493 57.4202,14.388343 105.86964,10.011183 21.69192,2.04457 44.67443,0.21738 65.06931,6.15305 -13.6698,6.83387 -24.11445,10.44259 -33.18429,12.67651 -37.95633,5.40247 -73.56802,7.67703 -107.29844,3.3799 -25.18762,-3.20881 -49.32623,-10.84811 -72.60875,-19.44668 C 266.69116,98.049597 235.97102,94.112697 204.02162,99.190447 120.3757,116.09862 124.0155,122.1479 81.755861,132.42435 l 1.285685,-4.93104 z"
       id="rect1928"
       inkscape:connector-curvature="0"
       sodipodi:nodetypes="ccccccsccccc" />
    <path
       style="opacity:1;fill:#f40a0a;fill-opacity:1;stroke:none;stroke-width:0;stroke-miterlimit:4;stroke-dasharray:none;stroke-opacity:1"
       d="m 364.93619,120.24439 c -5.96293,-0.65747 -15.08586,-2.62441 -20.68618,-4.99132 -9.37391,-5.57316 -16.42772,-15.957313 -24.60335,-18.997203 -27.50426,-7.5899 -53.7786,-11.08327 -58.39601,-11.72836 -5.41967,-0.72395 -15.48548,-0.71042 -22.26228,-0.81941 19.65983,1.72183 39.0716,5.67622 58.43343,10.08003 9.22903,0.71673 21.94502,2.45554 27.32468,7.285173 0.5697,4.25507 2.94431,7.25337 -2.2537,9.29009 -19.0537,-0.87221 -35.96544,-8.1703 -53.94816,-12.255443 -12.23935,-1.3593 -25.37251,-2.7186 -34.07723,-4.07789 -8.62831,-2.4592 -17.0124,-6.83848 -12.35244,-16.62914 4.66775,-2.33598 5.48564,-4.68143 13.29178,-4.71149 13.25863,-0.80188 31.68315,2.64756 57.72291,6.10564 17.45512,4.55424 33.92065,9.72461 46.95004,18.44454 6.93021,7.342153 16.99341,11.778803 29.73703,12.990533 10.8754,6.44709 20.53513,7.8715 20.71296,8.68279 -3.45119,-0.31214 -9.6227,0.30474 -25.59348,1.33146 z"
       id="S3"
       inkscape:connector-curvature="0"
       sodipodi:nodetypes="ccccccccccccccccc" />
    <path
       style="opacity:1;fill:#f4e90a;fill-opacity:1;stroke:none;stroke-width:0;stroke-miterlimit:4;stroke-dasharray:none;stroke-opacity:1"
       d="m 326.2421,101.30826 c 8.82831,9.31759 11.76563,9.83705 20.65873,16.08952 -10.37252,-0.99982 -18.01466,-3.303 -25.18263,-5.9051 5.077,-1.39619 4.86847,-5.91799 4.5239,-10.18442 z"
       id="rect1922"
       inkscape:connector-curvature="0"
       sodipodi:nodetypes="cccc" />
    <path
       style="opacity:1;fill:#0a0a14;fill-opacity:1;stroke:none;stroke-width:0;stroke-miterlimit:4;stroke-dasharray:none;stroke-opacity:1"
       d="m 371.07924,110.52803 c 26.00082,3.97911 55.46887,4.68363 84.29048,5.99867 19.35073,4.60507 25.26041,8.04959 12.24469,6.8026 -13.72433,-1.43156 -26.94002,0.94402 -40.07355,0.98947 l -19.66788,0.47931 -40.68978,-4.18982 c 5.79588,-1.27376 16.06181,-1.49039 24.74509,-1.80169 -7.87941,-2.3463 -15.85705,-4.64894 -20.84905,-8.27854 z"
       id="S4"
       inkscape:connector-curvature="0"
       sodipodi:nodetypes="cccccccc" />
    <path
       style="opacity:1;fill:#ed0af4;fill-opacity:1;stroke:none;stroke-width:0;stroke-miterlimit:4;stroke-dasharray:none;stroke-opacity:1"
       d="m 476.57155,123.53077 c 3.59159,-0.45923 20.89269,-5.06782 33.18429,-12.67651 2.15026,0.0858 8.69816,2.11704 9.63011,6.213 -12.91095,14.12224 -28.96574,17.97286 -38.00795,15.39756 -3.85093,-1.75141 -4.53173,-5.23198 -4.80645,-8.93405 z"
       id="S5"
       inkscape:connector-curvature="0"
       sodipodi:nodetypes="ccccc" />
    <path
       style="opacity:1;fill:#0af412;fill-opacity:1;stroke:none;stroke-width:0;stroke-miterlimit:4;stroke-dasharray:none;stroke-opacity:1"
       d="m 155.18921,86.718897 c 14.98094,-7.75262 57.49889,-15.20191 70.49215,-13.25721 -13.58081,10.57904 0.82141,22.44902 8.78603,20.56837 -1.2854,1.18141 -22.84471,-0.60153 -26.83745,-0.23032 l -47.24601,11.966443 c -4.81928,-5.984543 -6.30735,-12.404713 -5.19472,-19.047293 z"
       id="S2"
       inkscape:connector-curvature="0"
       sodipodi:nodetypes="ccccccc" />
    <path
       style="opacity:1;fill:#f4e90a;fill-opacity:1;stroke:none;stroke-width:0;stroke-miterlimit:4;stroke-dasharray:none;stroke-opacity:1"
       d="m 338.81689,94.690027 c 0.89892,1.27506 35.07476,10.792343 39.5688,10.620023 11.78335,1.71277 71.8407,4.31328 81.20492,8.42512 l 10.89134,6.74757 c -14.36325,-9.4699 -116.24596,0.63193 -131.66506,-25.792713 z"
       id="rect1925"
       inkscape:connector-curvature="0"
       sodipodi:nodetypes="ccccc" />
    <path
       style="opacity:1;fill:#0c0af4;fill-opacity:1;stroke:none;stroke-width:0;stroke-miterlimit:4;stroke-dasharray:none;stroke-opacity:1"
       d="m 85.759159,121.0118 c 0.990197,-2.50814 7.274452,-3.60983 13.767491,-7.42351 2.9634,-1.74055 4.67251,-5.36511 8.11028,-7.27236 2.75273,-1.52719 7.43555,1.00287 10.43623,-0.42233 4.0956,-1.94524 8.07584,-2.53524 11.79175,-4.63078 2.57823,-1.453963 4.32955,-7.202913 6.60353,-8.680033 5.63588,-3.66094 10.88414,-3.8071 13.58796,-2.82172 5.89135,2.58008 8.55485,11.554533 5.97477,17.445883 -1.37492,0.86496 -4.29434,3.81207 -9.69546,4.2025 -3.36261,0.24307 -8.54407,-3.0255 -12.29657,-2.14357 -5.20654,0.39265 -9.11826,3.25052 -14.47771,7.37972 -1.55929,3.30349 -3.95678,4.85649 -6.30142,5.52665 -2.86784,0.81969 -5.78748,0.0825 -8.72881,0.9325 -4.651474,1.34413 -10.536859,4.03031 -15.071167,5.20785 -4.404573,0.30601 -6.280958,-1.40945 -3.700874,-7.3008 z"
       id="S1"
       inkscape:connector-curvature="0"
       sodipodi:nodetypes="ccccccccccccccc" />
  </g>
</svg>
