<?xml version="1.0" encoding="UTF-8" standalone="no"?>
<svg
   xmlns:dc="http://purl.org/dc/elements/1.1/"
   xmlns:cc="http://creativecommons.org/ns#"
   xmlns:rdf="http://www.w3.org/1999/02/22-rdf-syntax-ns#"
   xmlns:svg="http://www.w3.org/2000/svg"
   xmlns="http://www.w3.org/2000/svg"
   xmlns:sodipodi="http://sodipodi.sourceforge.net/DTD/sodipodi-0.dtd"
   xmlns:inkscape="http://www.inkscape.org/namespaces/inkscape"
   width="3.91667in"
   height="3.36111in"
   viewBox="0 0 282 242"
   version="1.1"
   id="svg3"
   sodipodi:docname="test1.svg"
   inkscape:version="0.92.2 (unknown)">
  <metadata
     id="metadata9">
    <rdf:RDF>
      <cc:Work
         rdf:about="">
        <dc:format>image/svg+xml</dc:format>
        <dc:type
           rdf:resource="http://purl.org/dc/dcmitype/StillImage" />
        <dc:title></dc:title>
      </cc:Work>
    </rdf:RDF>
  </metadata>
  <defs
     id="defs7" />
  <sodipodi:namedview
     pagecolor="#ffffff"
     bordercolor="#666666"
     borderopacity="1"
     objecttolerance="10"
     gridtolerance="10"
     guidetolerance="10"
     inkscape:pageopacity="0"
     inkscape:pageshadow="2"
     inkscape:window-width="1853"
     inkscape:window-height="1056"
     id="namedview5"
     showgrid="false"
     inkscape:zoom="1.4628104"
     inkscape:cx="196.55887"
     inkscape:cy="114.51079"
     inkscape:window-x="67"
     inkscape:window-y="24"
     inkscape:window-maximized="1"
     inkscape:current-layer="layer1" />
  <g
     inkscape:groupmode="layer"
     id="layer1"
     inkscape:label="Layer 1">
    <path
       style="fill:#13e3e5;fill-opacity:1;stroke:none;stroke-width:1"
       d="m 42.791186,38.576272 c 5.48,5.82 16.82,22.05 22.09,25.39999 4.06,2.58 13.2,1.17 18.390001,8.77 2.700001,3.97 -0.830003,17.440008 -5.600004,18.990008 -3.739997,1.21 -11.949997,-5.2 -14.659997,-7.67001 -4.45,-4.059988 -3.19,-6.859988 -9.45,-14.489988 -4.55,-5.55 -9.489999,-11 -14.68,-15.96 0,0 -8.71,-8.08 -8.71,-8.08 -4.16,-4.58 -9.039999,-9.63 -2.179999,-14.1 6.729999,-1.71 10.43,2.5 14.799999,7.14 z"
       id="path137"
       inkscape:connector-curvature="0" />
    <path
       style="fill:#13e3e5;fill-opacity:1;stroke:none;stroke-width:1"
       d="m 91.871185,46.196272 c 3.470003,1.41 8.580005,7.49 8.020003,11.38 -0.42,2.96 -4.85,6.81 -6.92,9 -1.510006,1.59 -3.890004,4.74 -6.180002,4.96999 -4.959999,0.51 -9.84,-7.70999 -10.35,-11.96999 -0.93,-7.7 3.460003,-11.84 10.44,-13.38 1.929998,-0.3 3.039998,-0.58 4.989999,0 z"
       id="path135"
       inkscape:connector-curvature="0" />
    <path
       style="fill:#13e3e5;fill-opacity:1;stroke:none;stroke-width:1"
       d="m 212.83119,82.316272 c -4.3,1.729988 -12.06001,3.539998 -15.21,-0.89001 -1,-1.39999 -1.49,-3.10999 -1.03,-4.80999 1.08,-4.01 8.63,-8.73001 12.28999,-10.25 11.67001,-1.04001 11.47001,12.92 3.95001,15.95 z"
       id="path133"
       inkscape:connector-curvature="0" />
    <path
       style="fill:#13e3e5;fill-opacity:1;stroke:none;stroke-width:1"
       d="m 200.88119,96.57627 c -0.02,-3.72 -0.85,-8.18 3.15,-9.97 11.83,-5.319998 17.28,2.47 23.85,3.27 7.18,0.88 24.43,-5.36 37,-2.3 -1.5,6.67 -6.08,7.34 -12,9.33 0,0 -19,5.78 -19,5.78 0,0 -8.99001,1.63 -8.99001,1.63 -3.69999,1.46 -4.92999,4.33 -8.09999,6.1 -3.43,1.91 -9.03,2.12 -12.91,2.16 -1.44,-7.96 -2.96001,-6.46 -3,-16 z"
       id="path131"
       inkscape:connector-curvature="0" />
    <path
       style="fill:#13e3e5;fill-opacity:1;stroke:none;stroke-width:1"
       d="m 73.731186,94.75627 c 1.3,3.06 -2.36,9.15 -5.06,10.61 -1.65,0.88 -3.02,0.72 -4.79,0.59 -3.34,-0.24 -9.84,-0.4 -12.09,-3.08 -4.64,-5.51 2.39,-14.86 8.09,-16.34 3.91,0.46 12.23,4.43 13.85,8.22 z"
       id="path129"
       inkscape:connector-curvature="0" />
    <path
       style="fill:#13e3e5;fill-opacity:1;stroke:none;stroke-width:1"
       d="m 214.79119,147.57627 c -0.49,7.39 -4.81,15.54 -11.91,18.52 -5.47,2.29 -11.44,-3.74 -13.26,-8.52 -0.74,-1.94 -0.92,-5.94001 -0.59,-7.99 0.82,-5.23 8.52,-10.47 12.85,-13.01 7.96,-2.13 13.45,2.88 12.91,11 z"
       id="path127"
       inkscape:connector-curvature="0" />
    <path
       style="fill:#13e3e5;fill-opacity:1;stroke:none;stroke-width:1"
       d="m 80.881184,152.02626 c 2.210003,0.56001 4.140001,1.87001 5.570004,3.66001 3.990001,5.01 -0.05002,8.17 -3.410003,11.89 -2.529999,2.8 -4.830002,6.3 -9.149999,5.29 -4.95,-1.16 -11.64,-11.21 -8.95,-16.02 1.63,-2.91 6.92,-4.09 9.94,-4.82001 2.11,-0.25999 3.869997,-0.56999 5.999998,0 z"
       id="path125"
       inkscape:connector-curvature="0" />
    <path
       style="fill:#13e3e5;fill-opacity:1;stroke:none;stroke-width:1"
       d="m 187.88119,180.72627 c -7.13,2.4 -12.71,-2.35 -11.34,-7.15 1.18,-4.17 7.52,-9.37 11.34,-11.04 11.43,0.41 11.17,14.42 0,18.19 z"
       id="path123"
       inkscape:connector-curvature="0" />
    <path
       style="fill:#13e3e5;fill-opacity:1;stroke:none;stroke-width:1"
       d="m 126.47119,184.41627 c 1.91,2.11 1,5.65 0,8.16 -4.08,13.15 -17.82,6.48999 -19.26,0.96 -0.46,-1.7 -0.32,-5.22 0,-6.96 0.6,-3.12 2.33,-6.12 3.67,-9 0,0 15.59,6.84 15.59,6.84 z"
       id="path121"
       inkscape:connector-curvature="0" />
    <g
       id="S5"
       style="fill:#8909f9;fill-opacity:1;stroke:none"
       transform="translate(7.5000025,-16.500003)">
      <path
         id="path119"
         d="m 132.38119,112.07627 c -9.87,-0.19 -8.05,-6.65 -6.4,-7.98 3.01,-2.41001 11.44999,0.38 13.38,3.37 0.95,1.48 0.88,2.96 1.02,4.61 0,0 -8,0 -8,0 z"
         style="fill:#8909f9;fill-opacity:1;stroke:none;stroke-width:1"
         inkscape:connector-curvature="0" />
      <path
         id="path117"
         d="m 121.38119,113.55627 c -2.59,-0.43 -4.95,0.52 -6.68,0 -6.72,-2.8 5.07,-7.78 6.68,-8.48 3.26,7.23 2.9,8.5 11,10 -4.88,3.25 -6.33,-0.31 -11,-1.52 z"
         style="fill:#8909f9;fill-opacity:1;stroke:none;stroke-width:1"
         inkscape:connector-curvature="0" />
      <path
         id="path115"
         d="m 156.38119,123.23627 c -1.63,0.18 -3.13,0.71 -4.82,0 -4.6,-1.37 -7.71,-9.78 -8.18,-14.16 9.16,0.32 10.29,6.24 13,14.16 z"
         style="fill:#8909f9;fill-opacity:1;stroke:none;stroke-width:1"
         inkscape:connector-curvature="0" />
      <path
         id="path113"
         d="m 104.40119,120.62627 c -2.29,0.35 -5.110002,-0.58 -3.85,-3.42 1.15,-2.61 4.29,-3.69 6.77,-4.43 7.27,0.65 1.42,7.19 -2.92,7.85 z"
         style="fill:#8909f9;fill-opacity:1;stroke:none;stroke-width:1"
         inkscape:connector-curvature="0" />
      <path
         id="path111"
         d="m 133.70119,118.05627 c 0.84,-3.96 5.74,-2.89 8.68,-2.98 2.64,5.07 4.42,6.8 1,12 -0.73,-4.98 -0.05,-6.44 -4,-10 0,0 2,4 2,4 0,0 -4,0 -4,0 0,0 1,-5 1,-5 -2.9,1.73 -2.82,1.63 -3,5 -1.14,-0.89 -2.09,-1.13 -1.68,-3.02 z"
         style="fill:#8909f9;fill-opacity:1;stroke:none;stroke-width:1"
         inkscape:connector-curvature="0" />
      <path
         id="path109"
         d="m 116.38119,116.07627 c 0,0 0,5 0,5 0,0 -3,0 -3,0 0,0 1,-5 1,-5 0,0 2,0 2,0 z"
         style="fill:#8909f9;fill-opacity:1;stroke:none;stroke-width:1"
         inkscape:connector-curvature="0" />
      <path
         id="path107"
         d="m 122.38118,116.07627 c -1.58999,2.26 -1.57999,2.39 -3.99999,1 0,0 3.99999,-1 3.99999,-1 z"
         style="fill:#8909f9;fill-opacity:1;stroke:none;stroke-width:1"
         inkscape:connector-curvature="0" />
      <path
         id="path105"
         d="m 126.38119,118.07627 c 0,0 -1,5 -1,5 0,0 -1,-5 -1,-5 0,0 2,0 2,0 z"
         style="fill:#8909f9;fill-opacity:1;stroke:none;stroke-width:1"
         inkscape:connector-curvature="0" />
      <path
         id="path103"
         d="m 111.38119,129.07627 c 0,0 -1,-9 -1,-9 1.92,3.31 2.39,5.37 1,9 z"
         style="fill:#8909f9;fill-opacity:1;stroke:none;stroke-width:1"
         inkscape:connector-curvature="0" />
      <path
         id="path101"
         d="m 121.38119,121.07627 c 0,0 -6,4 -6,4 0,0 6,-4 6,-4 z"
         style="fill:#8909f9;fill-opacity:1;stroke:none;stroke-width:1"
         inkscape:connector-curvature="0" />
      <path
         id="path99"
         d="m 131.38119,121.07627 c 0,0 -2,2 -2,2 0,0 2,5 2,5 -3.79,-1.58 -2.83,-3.46 -2,-7 0,0 2,0 2,0 z"
         style="fill:#8909f9;fill-opacity:1;stroke:none;stroke-width:1"
         inkscape:connector-curvature="0" />
      <path
         id="path97"
         d="m 103.38119,134.07627 c -4.230002,-3.08 -3.890002,-6.07 -4.000002,-11 6.410002,1.47 5.540002,5.56 4.000002,11 z"
         style="fill:#8909f9;fill-opacity:1;stroke:none;stroke-width:1"
         inkscape:connector-curvature="0" />
      <path
         id="path95"
         d="m 108.38119,128.07627 c 0,0 -1,-4 -1,-4 0,0 1,4 1,4 z"
         style="fill:#8909f9;fill-opacity:1;stroke:none;stroke-width:1"
         inkscape:connector-curvature="0" />
      <path
         id="path93"
         d="m 125.38119,128.07627 c 0,0 -4,-4 -4,-4 0,0 4,4 4,4 z"
         style="fill:#8909f9;fill-opacity:1;stroke:none;stroke-width:1"
         inkscape:connector-curvature="0" />
      <path
         id="path91"
         d="m 138.77119,130.37627 c -2.15,1.9 -6.93,-0.41 -3.66,-5.29 5.28,-1.95 5.58,3.59 3.66,5.29 z"
         style="fill:#8909f9;fill-opacity:1;stroke:none;stroke-width:1"
         inkscape:connector-curvature="0" />
      <path
         id="path89"
         d="m 149.38119,130.07627 c -2.57,-1.85 -2.28,-1.88 -2,-5 0,0 2,5 2,5 z"
         style="fill:#8909f9;fill-opacity:1;stroke:none;stroke-width:1"
         inkscape:connector-curvature="0" />
      <path
         id="path87"
         d="m 151.43119,133.07627 c 1.37,-13.21 13.65,-3.84 4.84,3.69 -1.81001,1.54 -2.75,1.68 -4.84,2.31 0,0 0,-6 0,-6 z"
         style="fill:#8909f9;fill-opacity:1;stroke:none;stroke-width:1"
         inkscape:connector-curvature="0" />
      <path
         id="path85"
         d="m 115.45119,132.13627 c 1.54,-8.6 9.56,0.92 3.64,2.92 -1.19,0.38 -2.51,0.1 -3.64,0 0,0 0,-2.92 0,-2.92 z"
         style="fill:#8909f9;fill-opacity:1;stroke:none;stroke-width:1"
         inkscape:connector-curvature="0" />
      <path
         id="path83"
         d="m 132.38119,133.07627 c 0,0 -3,-3 -3,-3 0,0 3,3 3,3 z"
         style="fill:#8909f9;fill-opacity:1;stroke:none;stroke-width:1"
         inkscape:connector-curvature="0" />
      <path
         id="path81"
         d="m 111.38119,131.07627 c 0,0 -3,4 -3,4 0,0 -1,-4 -1,-4 0,0 4,0 4,0 z"
         style="fill:#8909f9;fill-opacity:1;stroke:none;stroke-width:1"
         inkscape:connector-curvature="0" />
      <path
         id="path79"
         d="m 148.38119,133.07627 c 0,0 0,2 0,2 -3.54,0.47 -3.8,0.39 -5,-3 0,0 5,1 5,1 z"
         style="fill:#8909f9;fill-opacity:1;stroke:none;stroke-width:1"
         inkscape:connector-curvature="0" />
      <path
         id="path77"
         d="m 132.38119,134.07627 c 0,0 -3,3 -3,3 0,0 3,-3 3,-3 z"
         style="fill:#8909f9;fill-opacity:1;stroke:none;stroke-width:1"
         inkscape:connector-curvature="0" />
      <path
         id="path75"
         d="m 110.38119,141.07627 c 0,0 1,-6 1,-6 1.94,3.06 1.42,3.47 -1,6 z"
         style="fill:#8909f9;fill-opacity:1;stroke:none;stroke-width:1"
         inkscape:connector-curvature="0" />
      <path
         id="path73"
         d="m 127.38119,135.07627 c 0,0 -3,5 -3,5 0,0 1,-5 1,-5 0,0 2,0 2,0 z"
         style="fill:#8909f9;fill-opacity:1;stroke:none;stroke-width:1"
         inkscape:connector-curvature="0" />
      <path
         id="path71"
         d="m 141.38119,135.07627 c 0.91,4.47 0.42,5.06 -3,8 0,0 1,-8 1,-8 0,0 2,0 2,0 z"
         style="fill:#8909f9;fill-opacity:1;stroke:none;stroke-width:1"
         inkscape:connector-curvature="0" />
      <path
         id="path69"
         d="m 105.25119,136.28627 c 6.6,2.35 -0.32,10.78 -3.27,3.72 -0.53,-1.26 -0.49,-2.61 -0.6,-3.72 1.28,-0.13 2.62,-0.18 3.87,0 z"
         style="fill:#8909f9;fill-opacity:1;stroke:none;stroke-width:1"
         inkscape:connector-curvature="0" />
      <path
         id="path67"
         d="m 136.38119,139.07627 c 0,0 -3,-3 -3,-3 0,0 3,3 3,3 z"
         style="fill:#8909f9;fill-opacity:1;stroke:none;stroke-width:1"
         inkscape:connector-curvature="0" />
      <path
         id="path65"
         d="m 149.38119,138.07627 c 2.33,6.41 0.1,8.98 -5,13 -6.42,-7.08 -3.69,-10.64 5,-13 z"
         style="fill:#8909f9;fill-opacity:1;stroke:none;stroke-width:1"
         inkscape:connector-curvature="0" />
      <path
         id="path63"
         d="m 118.38119,139.07627 c 0,0 -5,4 -5,4 0,0 5,-4 5,-4 z"
         style="fill:#8909f9;fill-opacity:1;stroke:none;stroke-width:1"
         inkscape:connector-curvature="0" />
      <path
         id="path61"
         d="m 127.38119,148.07627 c 0,0 -5.00001,0 -5.00001,0 0,0 0,-6 0,-6 -1.86999,1.4 -1.79999,-1.63 -1.99999,-3 4.09,3 5.35,4.15 7,9 z"
         style="fill:#8909f9;fill-opacity:1;stroke:none;stroke-width:1"
         inkscape:connector-curvature="0" />
      <path
         id="path59"
         d="m 131.38119,140.07627 c 0,0 0,4 0,4 0,0 -4,0 -4,0 1.07,-3.07 0.93,-2.93 4,-4 z"
         style="fill:#8909f9;fill-opacity:1;stroke:none;stroke-width:1"
         inkscape:connector-curvature="0" />
      <path
         id="path57"
         d="m 136.38119,141.07627 c 0,0 0,4 0,4 0,0 -3,-4 -3,-4 0,0 3,0 3,0 z"
         style="fill:#8909f9;fill-opacity:1;stroke:none;stroke-width:1"
         inkscape:connector-curvature="0" />
      <path
         id="path55"
         d="m 118.38119,148.07627 c 0,0 -2,4 -2,4 3.51,-1.32 7.13,-2.48 10.94,-1.85 1.84,0.3 4.08,1.31 2.89,3.59 -1.26,2.43 -5.52,2.4 -7.83001,2.05 -5.96999,-0.9 -13.79999,-6.32 -12.99999,-12.79 0,0 9,5 9,5 z"
         style="fill:#8909f9;fill-opacity:1;stroke:none;stroke-width:1"
         inkscape:connector-curvature="0" />
      <path
         id="path53"
         d="m 139.27119,148.92627 c 4.16,2.84 3.92,6.58 -1.90001,7.12 0,0 -4.98999,0 -4.98999,0 0,0 2,-7.97 2,-7.97 0,0 -5,-1 -5,-1 3.31,0.03 7.02,-0.1 9.89,1.85 z"
         style="fill:#8909f9;fill-opacity:1;stroke:none;stroke-width:1"
         inkscape:connector-curvature="0" />
    </g>
    <g
       id="S4"
       style="fill:#f9f309;fill-opacity:1;stroke:none"
       transform="translate(7.5000025,-16.500003)">
      <path
         id="path51"
         d="m 189.45119,102.07626 c 1.62999,4.13001 3.69,12.55001 -1.35,15.12001 -2.51,1.29 -12.06,3.21 -14.68,2.27 -2.81,-1.01 -5.98,-5.13 -8.04,-7.39 -7,-7.66 -13.53,-13.559998 -5.33,-22.890008 1.79,-2.04 2.12,-2.10999 4.37,-3.36999 11.57999,-2.81 21.03,6.07999 25.03,16.259988 z"
         style="fill:#f9f309;fill-opacity:1;stroke:none;stroke-width:1"
         inkscape:connector-curvature="0" />
      <path
         id="path49"
         d="m 195.29119,137.07627 c -0.48,8.43 -1.04,13.75 -7.91,19.38 -1.58,1.29 -4,3.25 -6,3.67 -5.22,1.12 -13.34001,-5.98 -13.77,-11.05 -0.39,-4.7 3.64,-22.49 7.05,-25.49 2.32999,-2.06 5.76,-2.52 8.72,-3.07 10.78,-1.24 12.41,7.62 11.91,16.56 z"
         style="fill:#f9f309;fill-opacity:1;stroke:none;stroke-width:1"
         inkscape:connector-curvature="0" />
      <path
         id="path47"
         d="m 172.38119,158.21627 c 13.03,9.67 6.11,21.58 -5,29.21 -3.9,2.68 -10.27,3.11 -15,3.48 -2.39,0.17999 -4.75,0.14 -6.72001,-1.43 -3.82999,-3.04 -5.08999,-12.94 -3.57999,-17.4 2.85999,-8.46 15.44,-17.03 24.3,-17 2.94999,0.94 3.47,1.26 6,3.14 z"
         style="fill:#f9f309;fill-opacity:1;stroke:none;stroke-width:1"
         inkscape:connector-curvature="0" />
    </g>
    <g
       id="S3"
       style="fill:#e52113;fill-opacity:1;stroke:none"
       transform="translate(7.5000025,-16.500003)">
      <path
         id="path45"
         d="m 154.63119,74.096272 c 1.48,1.88 5.07,6.73999 5.45,8.98 0.61,3.64 -4.18,10.73 -7.75,11.69 -5.64,1.50999 -20.48,-1.01001 -24.67,-5.08 -2.16,-2.1 -2.99,-4.75 -3.61,-7.61 -1.81,-8.3 0.69,-11.21 8.33,-14.35 8.34,-1.73 16.74,-0.66 22.25,6.37 z"
         style="fill:#e52113;fill-opacity:1;stroke:none;stroke-width:1"
         inkscape:connector-curvature="0" />
      <path
         id="path43"
         d="m 118.95119,73.576272 c 3.12,1.64 4.42,14.37 2.6,17.19999 -1.71,2.68 -18.3,13.210008 -22.170002,15.790008 -2.12,1.41 -6.6,4.47 -9,4.79 -3.58,0.48 -11.97,-3.74 -12.970005,-7.38 -0.900001,-3.23001 1.29,-8.079998 2.760001,-10.899998 7.250004,-13.97 12.379994,-17.34 27.210006,-19.5 2.51,-0.38 9.42,-1.01 11.57,0 z"
         style="fill:#e52113;fill-opacity:1;stroke:none;stroke-width:1"
         inkscape:connector-curvature="0" />
      <path
         id="path41"
         d="m 86.781188,114.28627 c 0.98,2.25 0.66,18.26 0.6,21.79 -0.12,7.02 -4.790001,9.13999 -11.000003,11.63 -7.129999,2.87 -10.869999,-4.63 -11.789999,-10.63 -1.53,-10.02 0.85,-22.12 9.790003,-27.89 4.029999,-0.83 10.579999,0.91 12.399999,5.1 z"
         style="fill:#e52113;fill-opacity:1;stroke:none;stroke-width:1"
         inkscape:connector-curvature="0" />
    </g>
    <g
       id="S2"
       style="fill:#13e522;fill-opacity:1;stroke:none"
       transform="translate(7.5000025,-16.500003)">
      <path
         id="path39"
         d="m 130.20119,64.896272 c -2.12,3.79 -7.73001,5.63 -11.82,6 -1.82,0.17 -4.1,0.18 -5.7,-0.84 -2.63,-1.68 -7.17,-12.9 -6.38,-15.98 1.18,-4.57 5.96,-7.15 10.08,-8.47 13.65,-1.9 16.21,15.01 13.82,19.29 z"
         style="fill:#13e522;fill-opacity:1;stroke:none;stroke-width:1"
         inkscape:connector-curvature="0" />
      <path
         id="path37"
         d="m 96.561188,72.036272 c -4.16001,-1.33 -8.28,-9.9 -5.54,-13.73 2.88,-4.05 8.59,-3.65 12.030002,-0.66 4.04,3.51 5.08,8.37 5.33,13.43 -2.83,0.51 -9.200002,1.8 -11.820002,0.96 z"
         style="fill:#13e522;fill-opacity:1;stroke:none;stroke-width:1"
         inkscape:connector-curvature="0" />
      <path
         id="path35"
         d="m 62.381186,130.07627 c -0.01,2.41 0.06,5.66 -0.89,7.9 -0.9,2.12 -2.15,3.15 -4.16,4.18 -7.5,3.83 -12.4,1 -13.84,-7.08 -0.53,-3.02 -1.16,-8.78 2.2,-10.2 3.14,-1.72 12.82,0.02 16.69,0 0,0 0,5.2 0,5.2 z"
         style="fill:#13e522;fill-opacity:1;stroke:none;stroke-width:1"
         inkscape:connector-curvature="0" />
      <path
         id="path33"
         d="m 63.291186,143.66627 c 5.23,1.87 10.860001,15.13 8.49,20.1 -0.9,1.88 -13.09,6.24 -15.4,6.45 -9.2,0.87 -11.35,-13.6 -8.42,-19.93 1.65,-3.56 7.87,-5.64 11.42,-6.62 1.52,-0.18 2.31,-0.51 3.91,0 z"
         style="fill:#13e522;fill-opacity:1;stroke:none;stroke-width:1"
         inkscape:connector-curvature="0" />
      <path
         id="path31"
         d="m 165.17119,193.09627 c 8.65,5.14 2.53,18.85 -9.79,20.77 -2.73,0.42 -8.4,0.43999 -10.79,-0.96 -3.76,-2.22 -7.91,-12.32 -5.22,-16.26 2.21,-3.24 9.37,-3.6 13.01,-4.15001 3.18,-0.37999 10.03999,-1.02999 12.79,0.60001 z"
         style="fill:#13e522;fill-opacity:1;stroke:none;stroke-width:1"
         inkscape:connector-curvature="0" />
      <path
         id="path29"
         d="m 134.73119,200.10627 c 2.48999,1.62 5.67,11.05 4.88,13.93 -0.93,3.37 -5.02,5.26 -8.23,5.67 -10.04,1.31 -13.5,-9.18 -8.15,-16.4 2.07,-2.81 4.93,-3.17 8.11,-3.74 1.34,0.02 2.1,-0.3 3.39,0.54 z"
         style="fill:#13e522;fill-opacity:1;stroke:none;stroke-width:1"
         inkscape:connector-curvature="0" />
    </g>
    <g
       id="S1"
       style="fill:#132fe5;fill-opacity:1;stroke:none"
       transform="translate(7.5000025,-16.500003)">
      <path
         inkscape:connector-curvature="0"
         id="path968"
         d="m 89.760757,146.14056 c -5.07111,-0.2339 -13.848639,3.44063 -15.348637,7.96875 -0.669998,2.01001 0.290179,6.85039 0.930176,8.9004 2.808721,9.00892 7.387198,12.27736 15.262212,15.54199 h 0.648925 1.354982 c 0.553081,0.0248 1.091893,0.39478 1.40039,0.83935 -0.04677,-0.029 -0.148431,-0.14089 -0.140625,-0.0864 0.01659,0.11579 0.134847,0.19552 0.172852,0.30615 0.01105,0.0322 -0.06289,0.0793 -0.03369,0.0967 0.0378,0.0225 0.08374,-0.0591 0.124512,-0.0425 0.08869,0.0361 0.164768,0.0964 0.2417,0.15528 4.818604,-1.49156 12.627066,-6.93323 13.478036,-11.80958 0.42,-2.4 -1.40991,-5.08049 -2.64991,-7.00049 -3.18,-4.91003 -8.439985,-13.75005 -14.479985,-14.77005 -0.301875,-0.0512 -0.622864,-0.084 -0.960938,-0.0996 z"
         style="fill:#132fe5;fill-opacity:1;stroke:none;stroke-width:1" />
      <path
         inkscape:connector-curvature="0"
         id="path980"
         d="m 115.63021,168.77841 c -0.88467,-3.2e-4 -1.64853,0.0723 -2.24853,0.22851 -4.01,1.05 -13.26003,9.28032 -13.27003,13.57031 -0.01,2.30001 2.06954,5.11903 3.26954,6.99903 l -2.1211,-2.35693 c 0.039,0.0813 0.0662,0.17313 0.10693,0.25048 0.1228,0.23346 0.30448,0.63551 0.37793,0.89063 0.036,0.12513 0.0466,0.25721 0.0703,0.38525 0.0405,0.17096 0.0652,0.34775 0.15381,0.50245 0.0335,0.0584 0.0906,0.10004 0.12452,0.1582 0.0555,0.0951 0.0959,0.1995 0.14355,0.29883 0.14341,0.35022 0.20404,0.71421 0.17871,1.09131 -0.009,0.14019 -0.0541,0.26013 -0.0762,0.3955 0.28073,0.22973 0.55407,0.84095 0.60938,1.18946 0.0136,0.0859 0.003,0.17371 0.004,0.26074 0.0274,0.31785 0.0554,0.32559 0.21826,0.51123 0.0655,-0.18603 0.15667,-0.41107 0.20947,-0.57714 l 16.00049,5.75976 c 5.54,1.26999 16.51946,7.5e-4 20.68946,-4.1792 4.33,-4.35 1.29082,-15.47081 -2.90917,-19.07081 -3.22875,-2.77375 -15.33908,-6.30543 -21.53175,-6.30761 z"
         style="fill:#132fe5;fill-opacity:1;stroke:none;stroke-width:1" />
      <path
         inkscape:connector-curvature="0"
         id="path978"
         d="m 88.922868,181.477 c 0.06182,0.0249 0.119426,0.0498 0.18164,0.0747 -3.99999,1.15 -8.480393,0.85977 -11.900394,3.50977 -7.099997,5.51 -5.320008,12.78025 -6.750002,17.49024 -1.350001,4.49001 -6.200628,10.25951 -9.140628,13.99952 -3.18,4.05999 -12.979711,15.91013 -12.449711,20.89014 0.36,3.43998 4.260725,4.80005 7.240725,4.04004 4.33,-1.11999 8.879596,-7.46067 11.579594,-10.93067 l 12.750004,-17.68946 c 3.72,-3.38 6.869553,-1.59923 10.539554,-3.19922 3.307389,-1.44643 7.244816,-9.03395 8.76416,-13.1045 -0.15013,-0.1726 -0.30999,-0.36004 -0.38379,-0.52294 -0.0575,-0.12693 -0.0256,-0.29059 -0.063,-0.42041 0.0183,-0.38261 -0.16725,-0.72076 -0.36914,-1.03711 -0.0483,-0.0757 -0.11957,-0.13649 -0.15967,-0.21679 -0.0405,-0.0811 -0.0515,-0.17402 -0.0776,-0.26075 0.0211,-0.1121 0.0593,-0.22109 0.0688,-0.33545 0.0266,-0.31849 -0.0223,-0.62455 -0.14209,-0.92138 -0.254898,-0.56429 0.0678,0.11495 -0.281247,-0.49073 -0.08769,-0.15216 -0.133284,-0.39453 -0.169923,-0.56543 -0.01752,-0.10543 -0.02354,-0.21359 -0.05273,-0.3164 -0.07478,-0.26342 -0.231522,-0.59497 -0.353027,-0.83789 -0.05536,-0.11068 -0.178407,-0.20292 -0.175783,-0.32667 9.75e-4,-0.046 0.03995,-0.0851 0.08203,-0.12304 -0.141838,-0.0219 -0.3253,-0.0277 -0.273926,-0.12158 0.01128,-0.0206 0.03278,-0.0308 0.05127,-0.0439 -0.0064,7.5e-4 -0.01442,0.005 -0.0205,0.006 0.02457,-0.0418 0.04575,-0.0871 0.07471,-0.12598 0.01529,-0.0205 0.04851,0.036 0.04834,0.0264 -0.0023,-0.13381 -0.06551,-0.25697 -0.140625,-0.37646 l -6.295908,-6.99481 c 0.05408,-0.0134 0.114865,-0.0352 0.169921,-0.0498 -0.0045,-0.004 -0.01957,-0.0121 -0.02344,-0.0161 -0.100188,-0.10332 -0.159685,-0.24119 -0.222656,-0.37061 -0.007,-0.0143 0.0019,-0.0127 0.0015,-0.0205 -0.211465,-0.31375 -0.670985,-0.59826 -1.038575,-0.61817 z"
         style="fill:#132fe5;fill-opacity:1;stroke:none;stroke-width:1" />
    </g>
    <path
       style="fill:none;stroke:none;stroke-width:1"
       d="m 53.10043,197.90339 c -0.02636,-0.004 -0.05657,0.002 -0.08936,0.0103 0.0542,0.003 0.102568,0.0223 0.152344,0.0395 -0.0012,-0.003 0.0017,-0.006 0,-0.009 -0.0144,-0.0254 -0.03664,-0.0375 -0.06298,-0.041 z"
       id="Selection #5"
       inkscape:connector-curvature="0" />
    <path
       style="opacity:1;fill:#13e3e5;fill-opacity:1;stroke:none;stroke-width:0;stroke-miterlimit:4;stroke-dasharray:none;stroke-opacity:1"
       d="m 161.08621,37.195701 c 0,6.181992 -4.52455,12.009206 -11.01222,11.556027 -5.56775,-0.38892 -10.10586,-5.011493 -10.10586,-11.193485 0,-6.181992 4.53992,-11.607387 10.10586,-11.193485 9.75055,0.725083 11.01222,4.648951 11.01222,10.830943 z"
       id="path143"
       inkscape:connector-curvature="0"
       sodipodi:nodetypes="sssss" />
    <path
       style="opacity:1;fill:#13e3e5;fill-opacity:1;stroke:none;stroke-width:0;stroke-miterlimit:4;stroke-dasharray:none;stroke-opacity:1"
       d="m 160.35811,50.956177 c -2.37604,-5.947878 6.19459,-16.253908 12.58985,-15.902461 8.4164,0.462518 15.56043,6.555841 15.96638,13.850085 0.38382,6.896446 -7.78054,18.074774 -12.77111,17.624536 -5.28999,-0.47725 -12.53158,-7.427662 -15.78512,-15.57216 z"
       id="rect146"
       inkscape:connector-curvature="0"
       sodipodi:nodetypes="sssss" />
    <path
       style="opacity:1;fill:#13e3e5;fill-opacity:1;stroke:none;stroke-width:0;stroke-miterlimit:4;stroke-dasharray:none;stroke-opacity:1"
       d="m 196.9909,50.301346 c 6.97419,2.609292 11.50049,5.376513 11.00301,8.467849 -0.65218,7.566795 -8.11416,11.728685 -14.27301,16.542141 l -8.91648,-9.654667 c 3.13985,-6.156042 3.72827,-15.182434 12.18648,-15.355323 z"
       id="rect149"
       inkscape:connector-curvature="0"
       sodipodi:nodetypes="ccccc" />
    <path
       style="opacity:1;fill:#13e3e5;fill-opacity:1;stroke:none;stroke-width:0;stroke-miterlimit:4;stroke-dasharray:none;stroke-opacity:1"
       d="m 207.94479,115.36883 c 3.04858,-3.90585 15.7761,-1.05748 15.7761,-1.05748 0,0 3.39889,14.51127 -2.81522,20.09093 -3.68668,3.31028 -9.67674,1.45015 -13.41406,-1.08762 -4.36479,-2.96385 -2.76996,-13.81633 0.45318,-17.94583 z"
       id="rect152"
       inkscape:connector-curvature="0"
       sodipodi:nodetypes="scsss" />
  </g>
</svg>
