<?xml version="1.0" encoding="UTF-8" standalone="no"?>
<svg
              xmlns:dc="http://purl.org/dc/elements/1.1/"
              xmlns:cc="http://creativecommons.org/ns#"
              xmlns:rdf="http://www.w3.org/1999/02/22-rdf-syntax-ns#"
              xmlns:svg="http://www.w3.org/2000/svg"
              xmlns="http://www.w3.org/2000/svg"
              xmlns:sodipodi="http://sodipodi.sourceforge.net/DTD/sodipodi-0.dtd"
              xmlns:inkscape="http://www.inkscape.org/namespaces/inkscape"
              width="6.1526852in"
              height="5.2089553in"
              viewBox="0 0 442.9932 375.04459"
              version="1.1"
              id="svg3"
              sodipodi:docname="arabidopsis_thaliana.organ_shm.svg"
              inkscape:version="0.92.3 (unknown)">
             <metadata
                           id="metadata9">
                          <rdf:RDF>
                                       <cc:Work
                                                     rdf:about="">
                                                    <dc:format>image/svg+xml</dc:format>
                                                    <dc:type
                                                                  rdf:resource="http://purl.org/dc/dcmitype/StillImage" />
                                                    <dc:title />
                                       </cc:Work>
                          </rdf:RDF>
             </metadata>
             <defs
                           id="defs7" />
             <sodipodi:namedview
                           pagecolor="#ffffff"
                           bordercolor="#666666"
                           borderopacity="1"
                           objecttolerance="10"
                           gridtolerance="10"
                           guidetolerance="10"
                           inkscape:pageopacity="0"
                           inkscape:pageshadow="2"
                           inkscape:window-width="1855"
                           inkscape:window-height="1056"
                           id="namedview5"
                           showgrid="false"
                           inkscape:zoom="1.1327994"
                           inkscape:cx="-48.688176"
                           inkscape:cy="261.88137"
                           inkscape:window-x="65"
                           inkscape:window-y="24"
                           inkscape:window-maximized="1"
                           inkscape:current-layer="container"
                           fit-margin-top="0"
                           fit-margin-left="0"
                           fit-margin-right="0"
                           fit-margin-bottom="0" />
             <g
                           inkscape:groupmode="layer"
                           id="container"
                           inkscape:label="Layer 1"
                           transform="translate(-35.44556,-195.44148)">
                          <g
                                        id="root_total"
                                        style="fill:#e485e9;fill-opacity:1;stroke:none;stroke-width:0.27674988;stroke-miterlimit:4;stroke-dasharray:none;stroke-opacity:1">
                                       <path
                                                     id="path825"
                                                     d="M 111.81198,297.65444 C 111.81198,297.65444 111.81198,309.50929 111.81198,309.50929 111.86448,315.30569 116.11521,320.54054 111.81198,326.35565 111.81198,326.35565 114.4359,327.60353 114.4359,327.60353 112.36301,328.78901 113.50878,330.03689 113.56126,332.59504 113.64876,337.73006 114.89946,348.99217 111.81198,353.18504 111.81198,353.18504 116.18518,354.43292 116.18518,354.43292 116.18518,354.43292 111.81198,354.43292 111.81198,354.43292 115.31054,359.16862 114.42716,371.79091 114.4359,377.51867 114.4449,379.97075 116.10646,387.38315 114.4359,388.92428 113.64873,389.66053 112.8703,389.69173 111.81198,389.99746 110.27262,385.4739 111.01606,378.62928 110.93734,373.77504 110.93734,373.77504 110.0627,365.03989 110.0627,365.03989 110.0627,365.03989 110.0627,362.54413 110.0627,362.54413 110.019,357.61501 109.18807,358.91904 108.52334,356.19867 107.62246,352.53614 107.69243,344.531 110.0627,341.33019 106.97523,338.34152 108.37465,329.68125 108.31343,325.73171 108.31343,325.73171 105.75948,307.63747 105.75948,307.63747 105.75948,307.63747 105.75948,297.65444 105.75948,297.65444 105.75948,297.65444 111.81198,297.65444 111.81198,297.65444 Z"
                                                     style="fill:#e485e9;fill-opacity:1;stroke:none;stroke-width:0.27674988;stroke-miterlimit:4;stroke-dasharray:none;stroke-opacity:1"
                                                     inkscape:connector-curvature="0" />
                                       <path
                                                     id="path823"
                                                     d="M 116.29888,405.59594 C 116.29888,405.59594 117.88198,410.58745 117.88198,410.58745 117.88198,410.58745 117.88198,418.69866 117.88198,418.69866 117.88198,418.69866 118.8091,429.30563 118.8091,429.30563 118.8091,429.30563 119.68374,449.89563 119.68374,449.89563 119.68374,449.89563 120.55838,460.50259 120.55838,460.50259 120.55838,460.50259 120.55838,519.77682 120.55838,519.77682 120.55838,519.77682 119.68374,529.13591 119.68374,529.13591 119.68374,529.13591 119.68374,561.58076 119.68374,561.58076 119.68374,561.58076 117.93446,570.31591 117.93446,570.31591 113.98109,569.30512 112.82657,566.24158 112.70412,563.44633 112.70412,563.44633 116.18518,541.6147 116.18518,541.6147 116.18518,541.6147 116.18518,521.64864 116.18518,521.64864 116.18518,521.64864 117.05982,512.28955 117.05982,512.28955 117.05982,512.28955 117.05982,457.3829 117.05982,457.3829 117.05982,457.3829 116.18518,448.64775 116.18518,448.64775 116.18518,448.64775 115.31054,438.04078 115.31054,438.04078 115.31054,438.04078 115.31054,423.69018 115.31054,423.69018 115.31054,423.69018 114.2085,411.83533 114.2085,411.83533 113.20266,407.44904 110.51752,404.52276 115.31054,400.60442 115.31054,400.60442 116.29888,405.59594 116.29888,405.59594 Z"
                                                     style="fill:#e485e9;fill-opacity:1;stroke:none;stroke-width:0.27674988;stroke-miterlimit:4;stroke-dasharray:none;stroke-opacity:1"
                                                     inkscape:connector-curvature="0" />
                          </g>
                          <g
                                        id="shoot_total"
                                        style="fill:#a5ebd8;fill-opacity:1;stroke:none;stroke-width:0.27674988;stroke-miterlimit:4;stroke-dasharray:none;stroke-opacity:1">
                                       <path
                                                     id="path821"
                                                     d="M 119.68374,256.85504 C 126.21729,254.61509 138.82959,248.94349 141.86459,244.30762 146.74508,236.83906 145.52933,233.01432 147.72468,229.33307 153.18242,220.16117 160.73931,211.41354 172.1621,205.34261 172.1621,205.34261 178.28457,202.7595 178.28457,202.7595 181.81812,201.23085 184.92309,199.65852 188.92893,198.72885 193.24091,197.72431 196.67824,197.71807 201.0252,197.4061 203.75407,197.21268 205.10976,196.8508 208.02231,197.00054 214.91447,197.35619 230.43932,199.19057 235.60844,202.28531 240.35773,205.13047 241.31109,207.96315 243.26153,211.7567 245.91169,216.88549 246.60265,221.38409 246.50644,226.83732 246.34026,235.75341 236.4306,243.22196 227.26438,248.46929 223.03112,250.89018 211.4509,255.18912 206.26429,256.03144 206.26429,256.03144 194.90272,257.0547 194.90272,257.0547 191.0718,257.46026 187.15342,258.9078 183.67235,258.50848 183.67235,258.50848 179.0805,257.57257 179.0805,257.57257 179.0805,257.57257 158.31656,255.41374 158.31656,255.41374 151.84423,254.35928 149.50894,252.40635 141.54972,253.3173 135.26106,254.04107 127.8966,257.32299 122.30766,259.5255 118.59044,260.98551 113.98109,262.72007 111.96067,265.52779 110.75367,267.21243 110.93734,269.29015 110.93734,271.13701 110.93734,271.13701 110.93734,291.10306 110.93734,291.10306 110.98104,293.72985 111.1735,294.19156 111.81198,296.71852 109.66037,297.13656 106.50292,297.74802 104.80612,296.2568 103.72157,295.29593 103.94023,292.93744 103.94023,291.727 103.94023,291.727 103.94023,273.00882 103.94023,273.00882 103.90523,270.88743 103.67784,268.03603 102.20844,266.15173 98.806096,261.80911 87.164647,258.40865 80.324967,258.95771 73.59899,259.4943 67.546486,262.29579 61.95754,264.89761 61.95754,264.89761 68.954655,240.56398 68.954655,240.56398 73.030475,242.41084 75.671885,247.23389 79.721466,249.86692 83.945974,252.60601 98.412509,258.15283 103.94023,259.9061 100.98395,254.39048 95.456228,249.6111 93.986833,243.68368 93.164672,240.39552 93.55826,236.85154 97.94895,234.94853 97.94895,234.94853 97.94895,241.81186 97.94895,241.81186 98.946039,245.73644 103.95772,253.12388 106.56415,256.7864 111.54959,249.44264 114.62832,243.20324 111.81198,234.94853 115.31054,236.50838 115.10937,237.88104 116.25515,240.50783 116.84116,241.85554 117.63708,242.92871 117.8295,244.36377 118.39802,248.51921 113.5875,254.97698 110.93734,258.65822 114.57584,258.67692 116.43883,257.97189 119.68374,256.85504 Z"
                                                     style="fill:#a5ebd8;fill-opacity:1;stroke:none;stroke-width:0.27674988;stroke-miterlimit:4;stroke-dasharray:none;stroke-opacity:1"
                                                     inkscape:connector-curvature="0" />
                                       <path
                                                     inkscape:connector-curvature="0"
                                                     id="Selection #2"
                                                     d="M 71.141253,226.21338 C 71.272449,232.89577 70.126671,230.81805 69.505677,234.34955 69.505677,234.34955 67.817623,244.30762 67.817623,244.30762 67.817623,244.30762 65.167466,251.17095 65.167466,251.17095 65.167466,251.17095 62.735969,259.88114 62.735969,259.88114 62.735969,259.88114 60.733044,264.32983 60.733044,264.32983 60.733044,264.32983 59.517296,268.64125 59.517296,268.64125 58.205337,272.79045 51.91668,279.48531 45.601784,280.15293 44.053672,280.32139 42.610517,279.85968 41.272319,279.34181 32.552165,275.99125 36.199411,270.7564 37.161514,265.52155 37.161514,265.52155 39.689222,252.41883 39.689222,252.41883 39.689222,252.41883 41.508472,246.80337 41.508472,246.80337 42.881655,240.78236 43.283989,235.21058 45.811697,229.33307 48.103252,223.99839 49.528914,218.8197 58.021663,216.64215 65.902163,216.26779 71.02755,220.90365 71.141253,226.21338 Z"
                                                     style="fill:#a5ebd8;fill-opacity:1;stroke:none;stroke-width:0.27674988;stroke-miterlimit:4;stroke-dasharray:none;stroke-opacity:1" />
                          </g>
                          <path
                                        style="fill:none;fill-opacity:1;stroke:#000000;stroke-width:0.27674989;stroke-miterlimit:4;stroke-dasharray:none;stroke-opacity:1"
                                        d="M 163.41571,547.23015 C 163.41571,556.25228 164.05417,561.26253 161.66641,570.31589 156.10372,568.96194 156.33987,565.14966 156.41859,561.58074 156.51479,557.58751 157.25824,558.26138 157.94046,555.34134 157.94046,555.34134 159.04251,547.23015 159.04251,547.23015 159.04251,547.23015 163.41571,547.23015 163.41571,547.23015 Z"
                                        id="rootTipTot"
                                        inkscape:connector-curvature="0" />
                          <g
                                        id="g4759"
                                        style="opacity:1;fill:#8aa312;fill-opacity:1;stroke:none;stroke-width:0.27674988;stroke-miterlimit:4;stroke-dasharray:none;stroke-opacity:1">
                                       <path
                                                     inkscape:connector-curvature="0"
                                                     id="path818"
                                                     d="M 99.4826,403.95217 129.65256,395.27704 130.36896,396.37272 101.40474,404.88028 Z"
                                                     style="opacity:1;fill:#8aa312;fill-opacity:1;stroke:none;stroke-width:0.27674988;stroke-miterlimit:4;stroke-dasharray:none;stroke-opacity:1" />
                                       <path
                                                     inkscape:connector-curvature="0"
                                                     id="path819"
                                                     d="M 97.981903,394.04454 128.15187,385.36941 128.86827,386.46509 99.904044,394.97265 Z"
                                                     style="opacity:1;fill:#8aa312;fill-opacity:1;stroke:none;stroke-width:0.27674988;stroke-miterlimit:4;stroke-dasharray:none;stroke-opacity:1" />
                          </g>
                          <g
                                        id="root_p35S"
                                        style="fill:#8a5012;fill-opacity:1;stroke:none;stroke-width:0.27674988;stroke-miterlimit:4;stroke-dasharray:none;stroke-opacity:1">
                                       <path
                                                     id="path825-6"
                                                     d="M 343.59736,296.26912 C 343.59736,296.26912 343.59736,308.12397 343.59736,308.12397 343.64986,313.92037 347.90059,319.15522 343.59736,324.97033 343.59736,324.97033 346.22128,326.21821 346.22128,326.21821 344.14839,327.40369 345.29416,328.65157 345.34664,331.20972 345.43414,336.34474 346.68484,347.60685 343.59736,351.79972 343.59736,351.79972 347.97056,353.0476 347.97056,353.0476 347.97056,353.0476 343.59736,353.0476 343.59736,353.0476 347.09592,357.7833 346.21253,370.40559 346.22128,376.13335 346.23028,378.58543 347.89184,385.99783 346.22128,387.53896 345.43411,388.27521 344.65568,388.30641 343.59736,388.61214 342.058,384.08858 342.80144,377.24396 342.72272,372.38972 342.72272,372.38972 341.84808,363.65457 341.84808,363.65457 341.84808,363.65457 341.84808,361.15881 341.84808,361.15881 341.80438,356.22969 340.97344,357.53372 340.30872,354.81335 339.40784,351.15082 339.47781,343.14568 341.84808,339.94487 338.76061,336.9562 340.16003,328.29593 340.09881,324.34639 340.09881,324.34639 337.54486,306.25215 337.54486,306.25215 337.54486,306.25215 337.54486,296.26912 337.54486,296.26912 337.54486,296.26912 343.59736,296.26912 343.59736,296.26912 Z"
                                                     style="fill:#8a5012;fill-opacity:1;stroke:none;stroke-width:0.27674988;stroke-miterlimit:4;stroke-dasharray:none;stroke-opacity:1"
                                                     inkscape:connector-curvature="0" />
                                       <path
                                                     id="path823-7"
                                                     d="M 348.08426,404.21062 C 348.08426,404.21062 349.66736,409.20213 349.66736,409.20213 349.66736,409.20213 349.66736,417.31334 349.66736,417.31334 349.66736,417.31334 350.59448,427.92031 350.59448,427.92031 350.59448,427.92031 351.46912,448.51031 351.46912,448.51031 351.46912,448.51031 352.34376,459.11727 352.34376,459.11727 352.34376,459.11727 352.34376,518.3915 352.34376,518.3915 352.34376,518.3915 351.46912,527.75059 351.46912,527.75059 351.46912,527.75059 351.46912,560.19544 351.46912,560.19544 351.46912,560.19544 349.71984,568.93059 349.71984,568.93059 345.76647,567.9198 344.61194,564.85626 344.48949,562.06101 344.48949,562.06101 347.97056,540.22938 347.97056,540.22938 347.97056,540.22938 347.97056,520.26332 347.97056,520.26332 347.97056,520.26332 348.8452,510.90423 348.8452,510.90423 348.8452,510.90423 348.8452,455.99758 348.8452,455.99758 348.8452,455.99758 347.97056,447.26243 347.97056,447.26243 347.97056,447.26243 347.09592,436.65546 347.09592,436.65546 347.09592,436.65546 347.09592,422.30486 347.09592,422.30486 347.09592,422.30486 345.99387,410.45001 345.99387,410.45001 344.98804,406.06372 342.3029,403.13744 347.09592,399.2191 347.09592,399.2191 348.08426,404.21062 348.08426,404.21062 Z"
                                                     style="fill:#8a5012;fill-opacity:1;stroke:none;stroke-width:0.27674988;stroke-miterlimit:4;stroke-dasharray:none;stroke-opacity:1"
                                                     inkscape:connector-curvature="0" />
                          </g>
                          <g
                                        id="shoot_p35S"
                                        style="fill:#541ad0;fill-opacity:1;stroke:none;stroke-width:0.27674989;stroke-miterlimit:4;stroke-dasharray:none;stroke-opacity:1">
                                       <path
                                                     id="path821-3"
                                                     d="M 351.46912,255.46975 C 358.00267,253.2298 370.61497,247.5582 373.64997,242.92233 378.53046,235.45377 377.31471,231.62903 379.51005,227.94778 384.9678,218.77588 392.52469,210.02825 403.94748,203.95732 403.94748,203.95732 410.06995,201.37421 410.06995,201.37421 413.6035,199.84556 416.70847,198.27323 420.71431,197.34356 425.02629,196.33902 428.46362,196.33278 432.81058,196.02081 435.53945,195.82739 436.89514,195.46551 439.80769,195.61525 446.69985,195.9709 462.2247,197.80528 467.39382,200.90002 472.14311,203.74518 473.09646,206.57786 475.04691,210.37141 477.69707,215.5002 478.38803,219.9988 478.29182,225.45203 478.12564,234.36812 468.21598,241.83667 459.04976,247.084 454.8165,249.50489 443.23628,253.80383 438.04967,254.64615 438.04967,254.64615 426.6881,255.66941 426.6881,255.66941 422.85718,256.07497 418.9388,257.52251 415.45773,257.12319 415.45773,257.12319 410.86587,256.18728 410.86587,256.18728 410.86587,256.18728 390.10194,254.02845 390.10194,254.02845 383.62961,252.97399 381.29432,251.02106 373.3351,251.93201 367.04644,252.65578 359.68198,255.9377 354.09303,258.14021 350.37582,259.60022 345.76647,261.33478 343.74605,264.1425 342.53905,265.82714 342.72272,267.90486 342.72272,269.75172 342.72272,269.75172 342.72272,289.71777 342.72272,289.71777 342.76642,292.34456 342.95888,292.80627 343.59736,295.33323 341.44575,295.75127 338.2883,296.36273 336.5915,294.87151 335.50695,293.91064 335.72561,291.55215 335.72561,290.34171 335.72561,290.34171 335.72561,271.62353 335.72561,271.62353 335.69061,269.50214 335.46322,266.65074 333.99382,264.76644 330.59148,260.42382 318.95003,257.02336 312.11035,257.57242 305.38437,258.10901 299.33186,260.9105 293.74292,263.51232 293.74292,263.51232 300.74003,239.17869 300.74003,239.17869 304.81585,241.02555 307.45726,245.8486 311.50684,248.48163 315.73135,251.22072 330.19789,256.76754 335.72561,258.52081 332.76933,253.00519 327.24161,248.22581 325.77221,242.29839 324.95005,239.01023 325.34364,235.46625 329.73433,233.56324 329.73433,233.56324 329.73433,240.42657 329.73433,240.42657 330.73142,244.35115 335.7431,251.73859 338.34953,255.40111 343.33497,248.05735 346.4137,241.81795 343.59736,233.56324 347.09592,235.12309 346.89475,236.49575 348.04053,239.12254 348.62654,240.47025 349.42246,241.54342 349.61488,242.97848 350.1834,247.13392 345.37288,253.59169 342.72272,257.27293 346.36122,257.29163 348.2242,256.5866 351.46912,255.46975 Z"
                                                     style="fill:#541ad0;fill-opacity:1;stroke:none;stroke-width:0.27674989;stroke-miterlimit:4;stroke-dasharray:none;stroke-opacity:1"
                                                     inkscape:connector-curvature="0" />
                                       <path
                                                     inkscape:connector-curvature="0"
                                                     id="Selection #2-5"
                                                     d="M 302.92663,224.82809 C 303.05783,231.51048 301.91205,229.43276 301.29106,232.96426 301.29106,232.96426 299.603,242.92233 299.603,242.92233 299.603,242.92233 296.95284,249.78566 296.95284,249.78566 296.95284,249.78566 294.52135,258.49585 294.52135,258.49585 294.52135,258.49585 292.51842,262.94454 292.51842,262.94454 292.51842,262.94454 291.30267,267.25596 291.30267,267.25596 289.99072,271.40516 283.70206,278.10002 277.38716,278.76764 275.83905,278.9361 274.3959,278.47439 273.0577,277.95652 264.33754,274.60596 267.98479,269.37111 268.94689,264.13626 268.94689,264.13626 271.4746,251.03354 271.4746,251.03354 271.4746,251.03354 273.29385,245.41808 273.29385,245.41808 274.66703,239.39707 275.06937,233.82529 277.59708,227.94778 279.88863,222.6131 281.31429,217.43441 289.80704,215.25686 297.68754,214.8825 302.81293,219.51836 302.92663,224.82809 Z"
                                                     style="fill:#541ad0;fill-opacity:1;stroke:none;stroke-width:0.27674989;stroke-miterlimit:4;stroke-dasharray:none;stroke-opacity:1" />
                          </g>
                          <path
                                        style="fill:none;fill-opacity:1;stroke:#000000;stroke-width:0.27674989;stroke-miterlimit:4;stroke-dasharray:none;stroke-opacity:1"
                                        d="M 395.20107,545.84482 C 395.20107,554.86699 395.83955,559.87722 393.45178,568.93056 387.88907,567.57661 388.12523,563.76435 388.20395,560.19542 388.30025,556.20221 389.04362,556.87607 389.72583,553.95603 389.72583,553.95603 390.82788,545.84482 390.82788,545.84482 390.82788,545.84482 395.20107,545.84482 395.20107,545.84482 Z"
                                        id="rootTip35S"
                                        inkscape:connector-curvature="0" />
                          <g
                                        id="g4777"
                                        style="opacity:1;fill:#252c05;fill-opacity:0.56862745;stroke:none;stroke-width:0.27674988;stroke-miterlimit:4;stroke-dasharray:none;stroke-opacity:1">
                                       <path
                                                     inkscape:connector-curvature="0"
                                                     id="path818-9"
                                                     d="M 331.26795,402.56685 361.43792,393.89172 362.15432,394.9874 333.1901,403.49496 Z"
                                                     style="opacity:1;fill:#252c05;fill-opacity:0.56862745;stroke:none;stroke-width:0.27674988;stroke-miterlimit:4;stroke-dasharray:none;stroke-opacity:1" />
                                       <path
                                                     inkscape:connector-curvature="0"
                                                     id="path819-1"
                                                     d="M 329.76726,392.65922 359.93723,383.98409 360.65363,385.07977 331.6894,393.58733 Z"
                                                     style="opacity:1;fill:#252c05;fill-opacity:0.56862745;stroke:none;stroke-width:0.27674988;stroke-miterlimit:4;stroke-dasharray:none;stroke-opacity:1" />
                          </g>
             </g>
</svg>
