<?xml version="1.0" encoding="UTF-8" standalone="no"?>
<svg
              xmlns:dc="http://purl.org/dc/elements/1.1/"
              xmlns:cc="http://creativecommons.org/ns#"
              xmlns:rdf="http://www.w3.org/1999/02/22-rdf-syntax-ns#"
              xmlns:svg="http://www.w3.org/2000/svg"
              xmlns="http://www.w3.org/2000/svg"
              xmlns:sodipodi="http://sodipodi.sourceforge.net/DTD/sodipodi-0.dtd"
              xmlns:inkscape="http://www.inkscape.org/namespaces/inkscape"
              width="4.6028233in"
              height="3.6197786in"
              viewBox="0 0 331.4032 260.62391"
              version="1.1"
              id="svg3"
              sodipodi:docname="arabidopsis_thaliana.organ_shm1.svg"
              inkscape:version="0.92.3 (unknown)">
             <metadata
                           id="metadata9">
                          <rdf:RDF>
                                       <cc:Work
                                                     rdf:about="">
                                                    <dc:format>image/svg+xml</dc:format>
                                                    <dc:type
                                                                  rdf:resource="http://purl.org/dc/dcmitype/StillImage" />
                                                    <dc:title></dc:title>
                                       </cc:Work>
                          </rdf:RDF>
             </metadata>
             <defs
                           id="defs7" />
             <sodipodi:namedview
                           pagecolor="#ffffff"
                           bordercolor="#666666"
                           borderopacity="1"
                           objecttolerance="10"
                           gridtolerance="10"
                           guidetolerance="10"
                           inkscape:pageopacity="0"
                           inkscape:pageshadow="2"
                           inkscape:window-width="1855"
                           inkscape:window-height="1056"
                           id="namedview5"
                           showgrid="false"
                           inkscape:zoom="1.1327994"
                           inkscape:cx="271.75854"
                           inkscape:cy="98.528535"
                           inkscape:window-x="65"
                           inkscape:window-y="24"
                           inkscape:window-maximized="1"
                           inkscape:current-layer="container"
                           fit-margin-top="0"
                           fit-margin-left="0"
                           fit-margin-right="0"
                           fit-margin-bottom="0" />
             <g
                           inkscape:groupmode="layer"
                           id="container"
                           inkscape:label="Layer 1"
                           transform="translate(-15.840367,-312.51798)">
                          <path
                                        inkscape:connector-curvature="0"
                                        style="fill:#e485e9;fill-opacity:1;stroke:#000000;stroke-width:0.36315507;stroke-miterlimit:4;stroke-dasharray:none;stroke-opacity:1"
                                        d="M 86.00335,418.24594 C 86.00335,418.24594 86.00335,437.79614 86.00335,437.79614 86.058205,447.35498 90.496562,455.98788 86.00335,465.57745 86.00335,465.57745 88.743133,467.63563 88.743133,467.63563 86.578703,469.59074 87.775106,471.648 87.829911,475.8671 87.9212,484.33485 89.22716,502.90765 86.00335,509.82155 86.00335,509.82155 90.569616,511.87949 90.569616,511.87949 90.569616,511.87949 86.00335,511.87949 86.00335,511.87949 89.656344,519.68956 88.733989,540.50537 88.743133,549.95067 88.752538,553.99446 90.487471,566.2184 88.743133,568.7596 87.921149,569.97396 87.108402,570.02567 86.00335,570.52955 84.396031,563.06987 85.172336,551.78239 85.09009,543.77703 85.09009,543.77703 84.17689,529.3716 84.17689,529.3716 84.17689,529.3716 84.17689,525.25628 84.17689,525.25628 84.131228,517.12784 83.263641,519.27769 82.569506,514.79192 81.628918,508.75162 81.701958,495.55041 84.17689,490.27246 80.953095,485.3434 82.414313,471.06151 82.350359,464.54866 82.350359,464.54866 79.683703,434.70896 79.683703,434.70896 79.683703,434.70896 79.683703,418.24594 79.683703,418.24594 79.683703,418.24594 86.00335,418.24594 86.00335,418.24594 Z"
                                        id="root_total" />
                          <g
                                        id="shoot_totalA">
                                       <path
                                                     id="path821"
                                                     d="M 93.836714,359.38545 C 99.998368,356.13539 101.88141,354.7836 104.74365,350.63683 109.34633,339.80041 109.91213,340.05799 113.24613,335.39966 118.90984,327.48618 121.1334,316.24687 140.74149,312.73757 146.73739,311.66447 160.6297,326.0846 162.45654,331.59298 183.61733,395.39793 138.51901,355.20262 102.6844,361.38287 96.75369,362.43304 99.940495,361.70596 96.311278,363.26006 92.805649,365.37848 88.458664,367.89521 86.553253,371.96906 85.414954,374.41339 85.588171,377.42802 85.588171,380.10771 V 409.07724 C 85.629384,412.88854 85.810885,413.55847 86.413025,417.22492 84.383884,417.83147 81.406164,418.71862 79.805942,416.555 78.783129,415.1608 78.989347,411.73881 78.989347,409.98252 V 382.82354 C 78.956333,379.74561 78.741885,375.60839 77.356131,372.87436 74.147447,366.57347 63.168644,361.6396 56.718287,362.43626 50.375158,363.21482 44.667169,367.27965 39.396353,371.0547 L 45.995183,335.74807 C 49.839004,338.42778 52.330065,345.42567 56.149136,349.24608 60.133177,353.22029 73.776267,361.26843 78.989347,363.81233 76.201338,355.80952 76.728447,356.39599 75.699861,350.47592 75.474819,349.18069 86.093746,335.63458 85.548539,336.82318 L 79.572119,349.85234 C 78.409714,352.3865 79.005835,353.97173 81.463909,359.28583 83.061517,355.66522 84.665516,352.8661 85.326011,349.56257 86.061738,345.88274 85.983774,345.86377 85.754592,343.4675 88.435735,347.7539 88.576332,347.31141 89.039342,353.2215 87.933903,357.25747 88.087475,356.66045 85.588171,362.00171 89.019565,362.02883 90.776511,361.00595 93.836714,359.38545 Z"
                                                     style="fill:#a5ebd8;fill-opacity:1;stroke:#000000;stroke-width:0.32373238;stroke-miterlimit:4;stroke-dasharray:none;stroke-opacity:1"
                                                     inkscape:connector-curvature="0"
                                                     sodipodi:nodetypes="ccssscccscccscccccccssscscccc" />
                                       <path
                                                     inkscape:connector-curvature="0"
                                                     id="Selection #2"
                                                     d="M 46.570898,326.35385 C 47.557057,333.57225 46.116915,331.46129 45.929932,335.35943 45.929932,335.35943 45.467305,346.3437 45.467305,346.3437 45.467305,346.3437 43.623349,354.09383 43.623349,354.09383 43.623349,354.09383 42.239057,363.81691 42.239057,363.81691 42.239057,363.81691 40.751339,368.87487 40.751339,368.87487 40.751339,368.87487 40.053627,373.68913 40.053627,373.68913 39.236554,378.33943 33.638682,386.34653 27.245803,387.83181 25.679187,388.20113 24.139931,387.87559 22.70118,387.47649 13.328884,384.90224 16.403202,378.7947 16.723037,373.01134 16.723037,373.01134 17.64626,358.52136 17.64626,358.52136 17.64626,358.52136 18.796872,352.2225 18.796872,352.2225 19.438216,345.53842 19.140897,339.45796 20.984869,332.78984 22.655764,326.73789 23.458285,320.95937 31.892827,317.57644 39.929104,316.21959 45.777609,320.61936 46.570898,326.35385 Z"
                                                     style="fill:#a5ebd8;fill-opacity:1;stroke:#000000;stroke-width:0.29365799;stroke-miterlimit:4;stroke-dasharray:none;stroke-opacity:1" />
                          </g>
                          <path
                                        style="fill:#35e4df;fill-opacity:1;stroke:#000000;stroke-width:0.29217955;stroke-miterlimit:4;stroke-dasharray:none;stroke-opacity:1"
                                        d="M 123.65215,544.3663 C 123.65215,554.15148 124.30786,559.58563 121.85413,569.40471 116.13755,567.93491 116.38022,563.80094 116.46108,559.93139 116.55992,555.60032 117.32405,556.33183 118.02521,553.16323 118.02521,553.16323 119.15771,544.3663 119.15771,544.3663 119.15771,544.3663 123.65215,544.3663 123.65215,544.3663 Z"
                                        id="rootTipTot"
                                        inkscape:connector-curvature="0" />
                          <path
                                        style="fill:#e75012;fill-opacity:1;stroke:#000000;stroke-width:0.31914419;stroke-miterlimit:4;stroke-dasharray:none;stroke-opacity:1"
                                        d="M 310.78972,543.7106 C 310.78972,554.40115 311.50592,560.3358 308.82637,571.05956 302.58207,569.45695 302.84656,564.94075 302.93511,560.71316 303.04412,555.98261 303.87732,556.77985 304.64393,553.31994 304.64393,553.31994 305.88071,543.7106 305.88071,543.7106 305.88071,543.7106 310.78972,543.7106 310.78972,543.7106 Z"
                                        id="rootTip35S"
                                        inkscape:connector-curvature="0" />
                          <path
                                        inkscape:connector-curvature="0"
                                        style="fill:#8a5012;fill-opacity:1;stroke:#000000;stroke-width:0.36315507;stroke-miterlimit:4;stroke-dasharray:none;stroke-opacity:1"
                                        d="M 265.03184,420.10286 C 265.03184,420.10286 265.03184,439.6529 265.03184,439.6529 265.0867,449.21195 269.52498,457.84479 265.03184,467.43469 265.03184,467.43469 267.77161,469.49235 267.77161,469.49235 265.60698,471.44769 266.80363,473.50467 266.85844,477.72404 266.94976,486.19175 268.25563,504.76446 265.03184,511.67864 265.03184,511.67864 269.59812,513.73644 269.59812,513.73644 269.59812,513.73644 265.03184,513.73644 265.03184,513.73644 268.68482,521.54639 267.76261,542.36232 267.77161,551.80758 267.78088,555.85137 269.51611,568.07537 267.77161,570.61664 266.94972,571.83098 266.13684,571.88251 265.03184,572.38653 263.42456,564.92695 264.20093,553.63926 264.11871,545.63416 264.11871,545.63416 263.20543,531.22856 263.20543,531.22856 263.20543,531.22856 263.20543,527.11326 263.20543,527.11326 263.15967,518.98479 262.29214,521.1348 261.59824,516.64882 260.65739,510.60837 260.73029,497.40734 263.20543,492.12955 259.98163,487.20033 261.44272,472.91864 261.379,466.40534 261.379,466.40534 258.71214,436.56596 258.71214,436.56596 258.71214,436.56596 258.71214,420.10286 258.71214,420.10286 258.71214,420.10286 265.03184,420.10286 265.03184,420.10286 Z"
                                        id="root_p35S" />
                          <g
                                        id="shoot_p35SA">
                                       <path
                                                     id="path821-5"
                                                     d="M 273.03065,361.24238 C 279.19231,357.99232 281.07535,356.64053 283.93759,352.49376 288.54027,341.65734 289.10607,341.91492 292.44007,337.25659 298.10378,329.34311 300.32734,318.1038 319.93543,314.5945 325.93133,313.5214 339.82364,327.94153 341.65048,333.44991 362.81127,397.25486 317.71295,357.05955 281.87834,363.2398 275.94763,364.28997 279.13443,363.56289 275.50522,365.11699 271.99959,367.23541 267.6526,369.75214 265.74719,373.82599 264.60889,376.27032 264.78211,379.28495 264.78211,381.96464 V 410.93417 C 264.82332,414.74547 265.00483,415.4154 265.60696,419.08185 263.57782,419.6884 260.6001,420.57555 258.99988,418.41193 257.97707,417.01773 258.18329,413.59574 258.18329,411.83945 V 384.68047 C 258.15027,381.60254 257.93582,377.46532 256.55007,374.73129 253.34139,368.4304 242.36258,363.49653 235.91223,364.29319 229.5691,365.07175 223.86111,369.13658 218.59029,372.91163 L 225.18912,337.605 C 229.03294,340.28471 231.524,347.2826 235.34308,351.10301 239.32712,355.07722 252.97021,363.12536 258.18329,365.66926 255.39528,357.66645 255.92239,358.25292 254.8938,352.33285 254.66876,351.03762 265.28769,337.49151 264.74248,338.68011 L 258.76606,351.70927 C 257.60365,354.24343 258.19977,355.82866 260.65785,361.14276 262.25546,357.52215 263.85946,354.72303 264.51995,351.4195 265.25568,347.73967 265.17771,347.7207 264.94853,345.32443 267.62968,349.61083 267.77027,349.16834 268.23328,355.07843 267.12784,359.1144 267.28142,358.51738 264.78211,363.85864 268.2135,363.88576 269.97045,362.86288 273.03065,361.24238 Z"
                                                     style="fill:#541ad0;fill-opacity:1;stroke:#000000;stroke-width:0.32373238;stroke-miterlimit:4;stroke-dasharray:none;stroke-opacity:1"
                                                     inkscape:connector-curvature="0"
                                                     sodipodi:nodetypes="ccssscccscccscccccccssscscccc" />
                                       <path
                                                     inkscape:connector-curvature="0"
                                                     id="Selection #2-6"
                                                     d="M 225.76484,328.21078 C 226.751,335.42918 225.31086,333.31822 225.12387,337.21636 225.12387,337.21636 224.66124,348.20063 224.66124,348.20063 224.66124,348.20063 222.81729,355.95076 222.81729,355.95076 222.81729,355.95076 221.433,365.67384 221.433,365.67384 221.433,365.67384 219.94528,370.7318 219.94528,370.7318 219.94528,370.7318 219.24757,375.54606 219.24757,375.54606 218.43049,380.19636 212.83262,388.20346 206.43974,389.68874 204.87313,390.05806 203.33387,389.73252 201.89512,389.33342 192.52282,386.75917 195.59714,380.65163 195.91698,374.86827 195.91698,374.86827 196.8402,360.37829 196.8402,360.37829 196.8402,360.37829 197.99081,354.07943 197.99081,354.07943 198.63216,347.39535 198.33484,341.31489 200.17881,334.64677 201.8497,328.59482 202.65222,322.8163 211.08677,319.43337 219.12304,318.07652 224.97155,322.47629 225.76484,328.21078 Z"
                                                     style="fill:#541ad0;fill-opacity:1;stroke:#000000;stroke-width:0.29365799;stroke-miterlimit:4;stroke-dasharray:none;stroke-opacity:1" />
                          </g>
             </g>
</svg>
