<?xml version="1.0" encoding="UTF-8" standalone="no"?>
<svg
              xmlns:dc="http://purl.org/dc/elements/1.1/"
              xmlns:cc="http://creativecommons.org/ns#"
              xmlns:rdf="http://www.w3.org/1999/02/22-rdf-syntax-ns#"
              xmlns:svg="http://www.w3.org/2000/svg"
              xmlns="http://www.w3.org/2000/svg"
              xmlns:sodipodi="http://sodipodi.sourceforge.net/DTD/sodipodi-0.dtd"
              xmlns:inkscape="http://www.inkscape.org/namespaces/inkscape"
              width="3.5595553in"
              height="3.7223983in"
              viewBox="0 0 256.28793 268.01252"
              version="1.1"
              id="svg3"
              sodipodi:docname="arabidopsis_thaliana.organ_shm1.svg"
              inkscape:version="0.92.3 (unknown)">
             <metadata
                           id="metadata9">
                          <rdf:RDF>
                                       <cc:Work
                                                     rdf:about="">
                                                    <dc:format>image/svg+xml</dc:format>
                                                    <dc:type
                                                                  rdf:resource="http://purl.org/dc/dcmitype/StillImage" />
                                                    <dc:title />
                                       </cc:Work>
                          </rdf:RDF>
             </metadata>
             <defs
                           id="defs7" />
             <sodipodi:namedview
                           pagecolor="#ffffff"
                           bordercolor="#666666"
                           borderopacity="1"
                           objecttolerance="10"
                           gridtolerance="10"
                           guidetolerance="10"
                           inkscape:pageopacity="0"
                           inkscape:pageshadow="2"
                           inkscape:window-width="1855"
                           inkscape:window-height="1056"
                           id="namedview5"
                           showgrid="false"
                           inkscape:zoom="1.1327994"
                           inkscape:cx="-68.554275"
                           inkscape:cy="147.02686"
                           inkscape:window-x="65"
                           inkscape:window-y="24"
                           inkscape:window-maximized="1"
                           inkscape:current-layer="container"
                           fit-margin-top="0"
                           fit-margin-left="0"
                           fit-margin-right="0"
                           fit-margin-bottom="0" />
             <g
                           inkscape:groupmode="layer"
                           id="container"
                           inkscape:label="Layer 1"
                           transform="translate(-11.512738,-302.80693)">
                          <path
                                        inkscape:connector-curvature="0"
                                        style="fill:none;fill-opacity:1;stroke:#000000;stroke-width:0.07499997;stroke-miterlimit:4;stroke-dasharray:none;stroke-opacity:1"
                                        d="M 121.22259,418.24594 C 121.22259,418.24594 121.22259,437.79614 121.22259,437.79614 121.32242,447.35498 129.39994,455.98788 121.22259,465.57745 121.22259,465.57745 126.20882,467.63563 126.20882,467.63563 122.2697,469.59074 124.44707,471.648 124.54681,475.8671 124.71296,484.33485 127.08971,502.90765 121.22259,509.82155 121.22259,509.82155 129.53289,511.87949 129.53289,511.87949 129.53289,511.87949 121.22259,511.87949 121.22259,511.87949 127.87079,519.68956 126.19217,540.50537 126.20882,549.95067 126.22594,553.99446 129.38339,566.2184 126.20882,568.7596 124.71286,569.97396 123.23371,570.02567 121.22259,570.52955 118.29738,563.06987 119.7102,551.78239 119.56052,543.77703 119.56052,543.77703 117.89856,529.3716 117.89856,529.3716 117.89856,529.3716 117.89856,525.25628 117.89856,525.25628 117.81546,517.12784 116.23651,519.27769 114.97323,514.79192 113.26143,508.75162 113.39435,495.55041 117.89856,490.27246 112.03148,485.3434 114.69079,471.06151 114.5744,464.54866 114.5744,464.54866 109.72127,434.70896 109.72127,434.70896 109.72127,434.70896 109.72127,418.24594 109.72127,418.24594 109.72127,418.24594 121.22259,418.24594 121.22259,418.24594 Z"
                                        id="root_total" />
                          <g
                                        id="shoot_totalA"
                                        style="stroke:#000000;stroke-opacity:1;stroke-width:0.59999977;stroke-miterlimit:4;stroke-dasharray:none">
                                       <path
                                                     id="path821"
                                                     d="M 130.38432,361.49216 C 141.59679,358.23824 147.94739,349.23249 149.47004,347.35972 158.1276,336.71144 158.04872,334.60349 161.63257,330.71807 166.59096,326.78394 162.64223,306.55671 198.32763,303.0474 203.52091,302.53669 227.0403,311.35203 237.97205,315.34011 250.01013,319.7318 258.60399,328.71574 260.36222,331.59298 299.07499,394.94433 181.81195,366.85733 155.89556,363.42447 149.87507,362.627 139.36643,363.99191 132.85008,365.83493 126.3665,367.66868 125.6911,367.89521 122.22338,371.96906 120.15175,374.41339 120.467,377.42802 120.467,380.10771 V 409.07724 C 120.542,412.88854 120.87232,413.55847 121.96818,417.22492 118.27528,417.83147 112.85603,418.71862 109.94373,416.555 108.08228,415.1608 108.45759,411.73881 108.45759,409.98252 V 382.82354 C 108.3975,379.74561 108.00722,375.60839 105.48524,372.87436 99.645655,366.57347 92.146415,365.61895 80.407203,366.41561 68.863138,367.19417 66.371404,366.10925 56.778876,369.8843 L 64.458005,345.81348 C 71.453499,348.49319 76.241784,351.74581 83.192234,355.56622 90.442919,359.54043 98.970133,361.26843 108.45759,363.81233 103.3836,355.80952 104.3429,356.39599 102.47094,350.47592 102.06138,349.18069 121.38711,335.63458 120.39487,336.82318 L 109.51819,349.85234 C 107.40269,352.3865 108.48759,353.97173 112.96112,359.28583 115.86866,355.66522 118.78783,352.8661 119.98988,349.56257 121.32886,345.88274 121.18697,345.86377 120.76987,343.4675 125.64937,347.7539 125.90525,347.31141 126.74789,353.2215 124.73607,357.25747 125.01556,356.66045 120.467,362.00171 126.7119,362.02883 124.81363,363.1088 130.38432,361.49216 Z"
                                                     style="fill:#a5ebd8;fill-opacity:1;stroke:#000000;stroke-width:0.59999977;stroke-miterlimit:4;stroke-dasharray:none;stroke-opacity:1"
                                                     inkscape:connector-curvature="0"
                                                     sodipodi:nodetypes="sscssssscscccscccccccssscscccs" />
                                       <path
                                                     inkscape:connector-curvature="0"
                                                     id="Selection #2"
                                                     d="M 67.370079,327.36328 C 69.164821,334.58168 66.54386,332.47072 66.203564,336.36886 66.203564,336.36886 65.361614,347.35313 65.361614,347.35313 65.361614,347.35313 62.005739,355.10326 62.005739,355.10326 62.005739,355.10326 59.486422,364.82634 59.486422,364.82634 59.486422,364.82634 56.778876,369.8843 56.778876,369.8843 56.778876,369.8843 55.509087,374.69856 55.509087,374.69856 54.02207,379.34886 43.834322,387.35596 32.199716,388.84124 29.348581,389.21056 26.54724,388.88502 23.92881,388.48592 6.871867,385.91167 12.466917,379.80413 13.048995,374.02077 13.048995,374.02077 14.729199,359.53079 14.729199,359.53079 14.729199,359.53079 16.823234,353.23193 16.823234,353.23193 17.990437,346.54785 17.449337,340.46739 20.805241,333.79927 23.846156,327.74732 25.30669,321.9688 40.656985,318.58587 55.282464,317.22902 65.926346,321.62879 67.370079,327.36328 Z"
                                                     style="fill:#a5ebd8;fill-opacity:1;stroke:#000000;stroke-width:0.59999977;stroke-miterlimit:4;stroke-dasharray:none;stroke-opacity:1" />
                          </g>
             </g>
</svg>
