<?xml version="1.0" encoding="UTF-8" standalone="no"?>
<svg
   xmlns:dc="http://purl.org/dc/elements/1.1/"
   xmlns:cc="http://creativecommons.org/ns#"
   xmlns:rdf="http://www.w3.org/1999/02/22-rdf-syntax-ns#"
   xmlns:svg="http://www.w3.org/2000/svg"
   xmlns="http://www.w3.org/2000/svg"
   xmlns:sodipodi="http://sodipodi.sourceforge.net/DTD/sodipodi-0.dtd"
   xmlns:inkscape="http://www.inkscape.org/namespaces/inkscape"
   width="3.00001in"
   height="3.4000101in"
   viewBox="0 0 900.0042 1020.003"
   version="1.1"
   id="svg3"
   sodipodi:docname="brain_final.svg"
   inkscape:version="0.92.3 (unknown)">
  <metadata
     id="metadata9">
    <rdf:RDF>
      <cc:Work
         rdf:about="">
        <dc:format>image/svg+xml</dc:format>
        <dc:type
           rdf:resource="http://purl.org/dc/dcmitype/StillImage" />
        <dc:title />
      </cc:Work>
    </rdf:RDF>
  </metadata>
  <defs
     id="defs7" />
  <sodipodi:namedview
     pagecolor="#ffffff"
     bordercolor="#666666"
     borderopacity="1"
     objecttolerance="10"
     gridtolerance="10"
     guidetolerance="10"
     inkscape:pageopacity="0"
     inkscape:pageshadow="2"
     inkscape:window-width="1855"
     inkscape:window-height="1056"
     id="namedview5"
     showgrid="false"
     inkscape:zoom="1.7470394"
     inkscape:cx="49.876861"
     inkscape:cy="146.26042"
     inkscape:window-x="65"
     inkscape:window-y="24"
     inkscape:window-maximized="1"
     inkscape:current-layer="layer1" />
  <g
     inkscape:groupmode="layer"
     id="layer1"
     inkscape:label="Layer 1"
     transform="translate(0,423.00362)">
    <path
       style="opacity:1;fill:#c0cad8;fill-opacity:1;stroke:#160909;stroke-width:5.31679249;stroke-miterlimit:4;stroke-dasharray:none;stroke-opacity:1"
       d="m 196.62579,-261.9119 c 123.27994,-142.74594 400.30847,-159.17803 560.64224,-16.71816 32.2914,28.69152 62.499,68.1561 86.9136,131.51171 34.538,140.712968 -11.4801,278.53641 -69.3699,373.38103 -54.6213,89.48982 -52.2233,196.90574 -23.6377,312.77789 -26.2831,15.58149 -332.03645,15.31072 -407.21661,7.23961 -12.64938,-15.01903 13.48576,-71.07754 -3.55741,-83.86763 -45.84158,-24.88965 -114.98657,-21.4272 -158.71816,-29.08759 -60.29698,-10.5621 -53.13846,-35.3232 -52.402,-69.37044 -1.23318,-4.36537 -7.00291,-8.89811 -7.58892,-13.60708 -0.66816,-5.36889 3.8369,-10.87805 3.74062,-16.44813 -0.10743,-6.20703 -8.22238,-26.26506 -7.82716,-32.51349 2.26551,-35.81734 19.30208,-56.73446 13.86618,-69.6104 -31.699932,-21.96213 -95.57522,8.57363 -86.10203,-14.93789 22.06619,-54.76586 43.08445,-85.36834 49.863878,-100.05113 22.170852,-48.018532 17.151802,-229.78785 17.151802,-229.78785 0,0 4.82045,-43.31048 17.70692,-62.24508 8.54094,-24.39026 42.74768,-59.12243 66.53465,-86.66537 z"
       id="rect5480"
       inkscape:connector-curvature="0"
       sodipodi:nodetypes="cscscccscccccssccc" />
    <path
       style="opacity:1;fill:#dd89e2;fill-opacity:1;stroke:#160909;stroke-width:5.03958654;stroke-miterlimit:4;stroke-dasharray:none;stroke-opacity:1"
       d="m 643.27265,-303.21366 c 40.96853,2.89234 130.96808,62.53146 110.72298,111.83915 -38.9409,94.841988 -62.5919,138.066228 -78.39538,142.050438 -37.84502,9.54098 -43.82352,-118.004958 -179.83317,-67.590458 -52.2748,19.376568 91.32427,-190.26549 147.50557,-186.29913 z"
       id="S2"
       inkscape:connector-curvature="0"
       sodipodi:nodetypes="sssss" />
    <path
       style="opacity:1;fill:#0c0af4;fill-opacity:1;stroke:#160909;stroke-width:5.03958654;stroke-miterlimit:4;stroke-dasharray:none;stroke-opacity:1"
       d="m 755.43473,-195.05344 c 74.3216,0.005 89.1161,254.921528 33.076,276.644528 -18.3821,11.889503 -78.6919,-60.37928 -130.26829,-50.1209 -19.81732,3.94157 76.72989,-177.548378 97.19229,-226.523628 z"
       id="S5"
       inkscape:connector-curvature="0"
       sodipodi:nodetypes="ccsc" />
    <path
       style="opacity:1;fill:#0c0c14;fill-opacity:1;stroke:#160909;stroke-width:5.03958654;stroke-miterlimit:4;stroke-dasharray:none;stroke-opacity:1"
       d="m 559.37029,63.102008 c 18.18673,-47.99225 145.62654,-36.5033 180.53234,0 39.5601,41.370422 26.8663,120.874792 -12.6936,162.245162 -34.9059,36.5033 -106.13513,37.97827 -141.04104,1.47496 -39.55993,-41.37042 -45.81029,-113.5487 -26.7977,-163.720122 z"
       id="cerebellum"
       inkscape:connector-curvature="0"
       sodipodi:nodetypes="sssss" />
    <path
       style="opacity:1;fill:#9f0af4;fill-opacity:1;stroke:#160909;stroke-width:5.03958654;stroke-miterlimit:4;stroke-dasharray:none;stroke-opacity:1"
       d="m 438.10905,53.811038 c -8.22429,-28.73107 64.26761,-64.62431 111.42244,-42.77372 7.79929,3.61403 37.51706,33.62637 17.83615,44.08628 -28.9047,15.36213 6.16333,111.684082 -10.78421,124.058752 -17.5583,12.82069 -41.21303,17.76815 -49.36431,4.42488 -18.74199,-30.68001 -39.55045,-106.390162 -17.20869,-148.259062 8.93692,-16.74808 -49.29967,27.55156 -51.90138,18.46287 z"
       id="S4"
       inkscape:connector-curvature="0"
       sodipodi:nodetypes="sssssss" />
    <path
       style="opacity:1;fill:#0af4ef;fill-opacity:1;stroke:#160909;stroke-width:5.03958654;stroke-miterlimit:4;stroke-dasharray:none;stroke-opacity:1"
       d="m 388.12338,6.368318 c 7.85544,-7.29718997 34.85088,-7.35320997 40.6034,14.80087 5.51092,21.22357 -10.33003,37.97968 1.78704,38.91857 18.90062,1.46455 52.21489,-36.1984 52.92326,-19.79544 1.43175,33.15076 0.92066,88.447072 -8.46239,98.646152 -25.14943,27.33654 -80.88762,-11.68162 -108.0075,-36.87391 -21.28753,-19.774629 -0.1308,-75.921602 21.15619,-95.696242 z"
       id="rect5477"
       inkscape:connector-curvature="0"
       sodipodi:nodetypes="sssssss" />
    <path
       style="opacity:1;fill:#f4b5f4;fill-opacity:1;stroke:#160909;stroke-width:5.03958654;stroke-miterlimit:4;stroke-dasharray:none;stroke-opacity:1"
       d="m 575.70784,35.867458 c -5.08463,0.43594 -28.63251,-60.84517 -112.37793,-23.6222 -33.61688,-8.55512 -64.75239,-9.55203 -70.79175,-16.07325 -17.27113,-18.64906 -21.39336,-45.4568 4.22112,-62.27777 32.00819,-21.0197 61.19643,-43.380448 91.76879,-47.137778 66.81036,-8.21097 120.28179,-4.03832 134.07723,31.487018 -29.7837,33.92147 -45.3971,-13.84999 -127.30678,-15.06088 -67.4498,25.6909 -88.6093,44.89767 -82.91228,58.52713 9.31807,27.11735 63.54599,11.4657 125.33001,1.44021 64.38763,-10.44801 137.61443,-13.84437 127.46764,6.2173 l -6.3079,59.36957 z"
       id="S3"
       inkscape:connector-curvature="0"
       sodipodi:nodetypes="scsccccccccs" />
    <path
       style="opacity:1;fill:#f4d30a;fill-opacity:1;stroke:#160909;stroke-width:5.03958654;stroke-miterlimit:4;stroke-dasharray:none;stroke-opacity:1"
       d="m 420.75134,-66.914152 c -2.18964,-2.39611 42.57226,-34.315928 74.54718,-29.90325 34.89425,4.8156 102.07506,28.25411 102.07506,28.25411 0,0 35.80935,5.67526 27.55273,9.72073 -60.07017,29.43257 -187.04309,36.72465 -182.09718,38.10475 -41.53667,-9.67805 -34.09378,-27.54488 -22.07779,-46.17634 z"
       id="rect5486"
       inkscape:connector-curvature="0"
       sodipodi:nodetypes="cscscc" />
    <path
       style="opacity:1;fill:#f4b88f;fill-opacity:1;stroke:#160909;stroke-width:5.03958654;stroke-miterlimit:4;stroke-dasharray:none;stroke-opacity:1"
       d="m 510.63944,188.70473 52.04048,-4.94749 c 21.78399,19.19816 35.2147,57.42735 44.74457,104.54324 15.27779,75.53393 20.53058,173.90759 34.10465,253.32324 l -37.84762,1.64919 C 593.02567,402.71111 491.38383,190.37217 510.63944,188.70473 Z"
       id="rect5489"
       inkscape:connector-curvature="0"
       sodipodi:nodetypes="ccsccc" />
    <path
       style="fill:#0a6a1b;fill-opacity:1;stroke:#160909;stroke-width:5.03958654;stroke-linecap:butt;stroke-linejoin:miter;stroke-miterlimit:4;stroke-dasharray:none;stroke-opacity:1"
       d="m 494.83119,87.597001 c 17.41973,2.869 82.34111,-76.418443 84.70219,-112.812333 -16.47413,32.80202 -63.8715,81.67728 -88.05554,87.06595 -7.90723,1.76188 -19.10378,22.047763 3.35335,25.746383 z"
       id="hippocampus"
       inkscape:connector-curvature="0"
       sodipodi:nodetypes="scss" />
    <g
       id="frontal">
      <path
         sodipodi:nodetypes="ssssass"
         inkscape:connector-curvature="0"
         id="frontal1"
         d="m 142.12775,-77.256647 c -23.50556,-89.095493 131.93899,-239.144883 261.92963,-261.116593 47.81604,-8.0821 278.45927,-3.25621 217.47289,39.81997 -146.26875,103.31338 -114.31291,176.83773 -149.0362,189.81946 C 312.04935,-48.749532 417.74039,20.645557 360.65673,44.211097 327.95702,57.710281 282.2207,27.113853 256.64076,25.986458 199.17215,23.453605 155.46272,-26.711786 142.12775,-77.256647 Z"
         style="opacity:1;fill:#8d430a;fill-opacity:1;stroke:#160909;stroke-width:5.03958654;stroke-miterlimit:4;stroke-dasharray:none;stroke-opacity:1" />
      <path
         style="fill:#f6c70a;fill-opacity:1;stroke:#160909;stroke-width:1.22787046;stroke-opacity:1"
         inkscape:connector-curvature="0"
         id="path887"
         d="m 458.88643,-321.60095 c 8.83499,8.91778 18.01788,8.61445 29.76057,8.51739 23.38595,-0.20626 37.30323,-9.75496 62.13063,-9.70642 7.60481,0.0122 14.38943,1.33463 21.12441,5.01094 5.85271,3.20312 8.0894,6.5761 14.91133,8.33539 -2.93255,-9.62149 -17.66991,-16.33106 -27.33745,-18.04182 0,0 -17.39658,0 -17.39658,0 -10.72375,0.0243 -20.76407,4.2951 -31.06531,6.57611 -10.37583,2.29314 -17.95574,3.03325 -28.58009,2.97259 -5.75331,-0.0364 -12.98531,-1.10411 -17.6948,-4.61055 -4.63495,-3.44579 -3.60358,-5.38707 -10.88529,-9.94909 -0.8077,4.81681 1.70238,7.52248 5.03258,10.89546 z" />
      <path
         style="fill:#f6c70a;fill-opacity:1;stroke:#160909;stroke-width:1.22787046;stroke-opacity:1"
         inkscape:connector-curvature="0"
         id="path885"
         d="m 380.5397,-303.5834 c -7.05804,-2.97259 -9.26989,-5.4356 -17.39657,-4.64695 4.82133,5.09588 13.18412,8.67512 19.88181,10.91973 -7.12018,19.04886 -20.50313,20.45629 -36.03578,28.87662 0,0 -13.66872,9.28177 -13.66872,9.28177 0,0 -9.77937,5.22933 -9.77937,5.22933 -4.43614,3.32445 -13.13442,16.58586 -12.94803,22.13065 0,0 2.32368,15.77295 2.32368,15.77295 0,0 13.53205,21.57252 13.53205,21.57252 1.49114,1.55302 10.00304,7.87435 11.84211,8.73578 2.8083,1.33465 5.71602,1.14052 8.69828,1.78356 2.58463,0.55813 4.70951,1.5773 7.45569,1.5773 2.59705,0 4.97044,-0.99491 7.45566,-1.60156 0,0 16.15396,-3.79764 16.15396,-3.79764 0,0 14.91136,-3.62777 14.91136,-3.62777 9.65509,-0.90999 17.69481,5.87239 20.72678,14.18352 1.36688,3.76122 2.00061,5.62971 1.6651,9.70642 -0.93196,11.36865 -12.38885,18.41794 -2.51008,21.83946 0,0 6.51129,-14.55965 6.51129,-14.55965 2.43552,-7.06141 3.31778,-15.22695 7.12017,-21.83946 0,0 7.31899,-9.70641 7.31899,-9.70641 3.49174,-5.82386 1.51599,-6.73385 7.21958,-12.53343 3.57872,-3.63991 15.02318,-12.77608 19.04925,-15.21481 6.3746,-3.88258 13.58173,-6.2364 13.66873,-14.71738 -9.91606,6.81876 -31.3511,20.4927 -38.13578,29.11927 -3.25565,4.13737 -3.01954,6.73383 -5.5172,10.8712 -4.57281,7.57102 -8.9468,6.80663 -9.77935,17.03479 0,0 -2.48523,0 -2.48523,0 -0.44735,-5.4356 -1.05622,-6.81878 -5.04501,-10.89547 -12.78649,-13.09155 -27.71026,-7.36474 -43.06895,-3.16672 -4.10063,1.12836 -12.56281,4.04029 -16.50189,3.65203 0,0 -13.66875,-2.96046 -13.66875,-2.96046 -8.90951,-4.22228 -11.86694,-10.51933 -16.66342,-18.17528 -1.55326,-2.45087 -4.0882,-5.87237 -4.98289,-8.49311 -1.03136,-3.04539 -0.54674,-6.43051 -0.85739,-9.59723 0,0 -0.82013,-6.38198 -0.82013,-6.38198 0.64616,-5.72679 6.06395,-9.94908 7.16989,-16.77998 10.58705,-2.32954 12.92316,-5.89666 21.12439,-11.21092 12.53797,-8.12914 41.00622,-16.06414 42.24884,-33.6813 9.15805,2.01408 12.94802,7.29195 21.12441,6.06651 0,0 0,-2.4266 0,-2.4266 0,0 -27.33748,-12.3393 -27.33748,-12.3393 z" />
      <path
         style="fill:#f6c70a;fill-opacity:1;stroke:#160909;stroke-width:1.22787046;stroke-opacity:1"
         inkscape:connector-curvature="0"
         id="path883"
         d="m 500.21574,-281.31928 c 0,0 -9.99062,-6.62464 -9.99062,-6.62464 0,0 -14.00423,-7.74087 -14.00423,-7.74087 -10.16459,-5.87239 -17.47115,-11.04106 -29.82271,-12.38783 -8.72315,-0.95851 -25.27474,3.76124 -33.55055,7.12209 0,0 0,2.42661 0,2.42661 9.40658,1.98981 22.5907,-7.17062 32.30794,-5.75106 12.88588,1.88062 20.05575,8.1898 30.22033,14.13498 0,0 20.37884,11.44145 20.37884,11.44145 7.24444,4.0039 20.49067,7.18276 27.6854,2.01409 -8.46219,-2.34168 -13.97939,-0.15773 -23.2244,-4.63482 z" />
      <path
         style="fill:#f6c70a;fill-opacity:1;stroke:#160909;stroke-width:1.22787046;stroke-opacity:1"
         inkscape:connector-curvature="0"
         id="path881"
         d="m 595.51169,-297.23782 c 0,0 -9.9409,2.34167 -9.9409,2.34167 0,0 -9.82906,0 -9.82906,0 0,0 -10.06518,2.37808 -10.06518,2.37808 -5.50479,0.33972 -19.04925,-3.42152 -23.27414,-6.70957 -5.34321,-4.14949 -2.89527,-6.5033 -11.50659,-9.00271 3.14382,11.63558 9.04622,14.71737 19.88181,18.19955 4.58523,1.4681 6.23791,2.24461 11.1835,2.40234 10.32611,0.33973 9.70481,-1.54089 16.15398,-2.24461 7.65447,-0.83718 6.39945,0.80078 15.25926,-1.69863 7.49296,-2.11114 13.66878,1.5409 18.29126,-5.66612 0,0 -16.15394,0 -16.15394,0 z" />
      <path
         style="fill:#f6c70a;fill-opacity:1;stroke:#160909;stroke-width:1.22787046;stroke-opacity:1"
         inkscape:connector-curvature="0"
         id="path879"
         d="m 456.33906,-280.32437 c -2.80829,11.53851 -2.5722,8.10486 -2.48521,20.62615 0.12426,17.25317 10.82317,14.6931 18.63919,16.31893 2.59706,0.54599 4.67221,1.57729 7.45565,1.57729 0,0 9.94093,-2.12328 9.94093,-2.12328 0,0 9.9409,0 9.9409,0 0,0 8.69829,-2.11114 8.69829,-2.11114 0,0 11.1835,-1.18904 11.1835,-1.18904 0,0 8.6983,-0.65519 8.6983,-0.65519 5.70359,-0.90997 4.36157,-1.97768 12.42611,-2.11114 7.48052,-0.10919 12.94803,1.94128 17.3966,-4.85322 0,0 -17.3966,0 -17.3966,0 -11.63087,0.0243 -7.57993,1.00705 -13.78057,2.11115 0,0 -7.34384,0.63092 -7.34384,0.63092 0,0 -22.36701,4.45282 -22.36701,4.45282 0,0 -9.94093,0 -9.94093,0 0,0 -6.21305,1.34677 -6.21305,1.34677 -3.21835,0.26693 -5.54204,-0.76438 -8.69828,-1.10411 -10.5125,-1.15264 -13.49479,-1.69862 -13.66874,-13.50406 0,0 1.24261,-19.41285 1.24261,-19.41285 0,0 -3.72785,0 -3.72785,0 z" />
      <path
         style="fill:#f6c70a;fill-opacity:1;stroke:#160909;stroke-width:1.22787046;stroke-opacity:1"
         inkscape:connector-curvature="0"
         id="path875"
         d="m 410.36241,-254.84501 c 0,0 -11.18351,0 -11.18351,0 0,0 -17.39658,3.63991 -17.39658,3.63991 0,0 0,2.42661 0,2.42661 11.33262,2.69353 10.63676,-0.182 18.63918,-1.05557 6.80953,-0.75225 8.16397,0.74011 16.15396,-1.37104 6.06396,-1.60156 8.02729,-0.71584 9.94091,-6.06651 0,0 -16.15396,2.4266 -16.15396,2.4266 z" />
      <path
         style="fill:#f6c70a;fill-opacity:1;stroke:#160909;stroke-width:1.22787046;stroke-opacity:1"
         inkscape:connector-curvature="0"
         id="path873"
         d="m 267.46196,-242.71198 c -3.8024,10.74988 -7.74148,11.79331 -15.42083,19.0246 0,0 -9.43142,10.09468 -9.43142,10.09468 11.58115,-3.37299 27.74754,-16.64651 28.58009,-29.11928 0,0 -3.72784,0 -3.72784,0 z" />
      <path
         style="fill:#f6c70a;fill-opacity:1;stroke:#160909;stroke-width:1.22787046;stroke-opacity:1"
         inkscape:connector-curvature="0"
         id="path871"
         d="m 417.81808,-232.11984 c -3.51658,0.32759 -6.49886,0.29119 -9.9409,1.18904 -12.84862,3.37299 -23.74632,13.41913 -40.9565,11.11386 -10.3634,-1.38316 -8.4125,-14.65671 -18.6889,-18.04182 0.67101,4.99881 1.37929,6.62464 4.15032,10.91973 2.01304,3.10605 5.2811,8.17766 8.33793,10.19174 3.70299,2.45088 9.25746,2.00194 13.60661,1.94129 16.17881,-0.26693 27.51145,-11.17452 39.7636,-12.07237 6.46159,-0.47319 12.76164,-0.41252 18.26641,3.44578 4.21246,2.96046 3.616,5.42347 9.07107,7.41329 -1.64024,-12.2301 -11.71784,-17.19251 -23.60964,-16.10054 z" />
      <path
         style="fill:#f6c70a;fill-opacity:1;stroke:#160909;stroke-width:1.22787046;stroke-opacity:1"
         inkscape:connector-curvature="0"
         id="path867"
         d="m 257.81928,-176.18655 c 0,0 7.31899,17.39877 7.31899,17.39877 2.21185,3.30017 5.02016,6.32129 8.53675,8.32325 2.62193,1.50449 6.57342,1.96556 7.19472,5.22933 0.79529,4.10097 -5.72842,11.85398 -8.25094,15.00856 -6.39946,7.98354 -7.79118,9.51231 -7.64206,19.76472 0.12427,7.88647 3.83967,17.969018 13.66873,15.772938 0,0 0,-2.426615 0,-2.426615 -2.36097,-1.273955 -3.74026,-1.844216 -5.62903,-3.906833 -12.02849,-13.16434 3.88938,-25.38229 10.53736,-36.13216 0,0 5.03258,-10.91974 5.03258,-10.91974 -8.66101,-6.55184 -11.85453,-5.35066 -15.99243,-8.86923 -3.88938,-3.30019 -5.14442,-7.24344 -6.79708,-11.75691 -3.5166,-9.63363 -5.132,-17.4837 -0.74557,-27.37213 3.74026,-8.42032 11.40718,-11.06531 13.59417,-18.7334 -14.97348,4.29509 -23.4978,24.32672 -20.82619,38.61945 z" />
      <path
         style="fill:#f6c70a;fill-opacity:1;stroke:#160909;stroke-width:1.22787046;stroke-opacity:1"
         inkscape:connector-curvature="0"
         id="path865"
         d="m 230.13388,-205.4029 c -3.45446,2.81487 -7.7042,4.58628 -10.66161,7.81367 -9.13322,9.31818 -4.9456,18.02969 0,27.67545 3.19352,5.75106 4.59766,8.06847 10.71131,10.91972 -2.08759,-7.77728 -10.76102,-18.49073 -10.89771,-25.47936 -0.21124,-10.98038 15.14745,-18.16314 23.32384,-29.11928 -7.44325,2.19609 -6.9462,3.7127 -12.47583,8.1898 z" />
      <path
         style="fill:#f6c70a;fill-opacity:1;stroke:#160909;stroke-width:1.22787046;stroke-opacity:1"
         inkscape:connector-curvature="0"
         id="path863"
         d="m 394.55638,-109.58835 c 0,0 15.80603,-4.95026 15.80603,-4.95026 0,0 11.18351,-6.53971 11.18351,-6.53971 17.09834,-10.09469 31.23929,-20.72322 44.57253,-35.48912 2.89528,-3.20312 18.01786,-27.25079 19.98119,-31.5459 2.33613,-5.13226 5.61662,-9.77922 -1.18048,-12.13302 -4.54796,14.09858 -3.72784,10.08255 -10.51251,21.83947 0,0 -9.9409,16.9377 -9.9409,16.9377 -12.97287,16.69505 -37.27837,32.62573 -56.24064,42.46561 0,0 -35.14107,12.72756 -35.14107,12.72756 -9.58056,2.29313 -12.42613,-1.1769 -14.91136,5.52053 21.02501,0 18.08001,-2.59648 36.3837,-8.83286 z" />
      <path
         style="fill:#f6c70a;fill-opacity:1;stroke:#160909;stroke-width:1.22787046;stroke-opacity:1"
         inkscape:connector-curvature="0"
         id="path859"
         d="m 231.73685,-117.57189 c -23.26171,-3.95536 -21.57175,-34.6762 -34.44523,-48.38653 -8.88468,-9.46375 -27.15109,-8.51738 -31.72388,4.53777 0,0 14.91134,-6.55185 14.91134,-6.55185 6.68525,-0.87357 13.84271,4.86535 16.77526,10.21602 6.83439,12.47275 8.16397,25.80695 17.43386,36.94508 7.28171,8.76006 26.74103,11.87824 32.89196,0.64305 0,0 -1.24261,-1.2133 -1.24261,-1.2133 -3.76512,1.15265 -10.98469,4.42856 -14.6007,3.80976 z" />
      <path
         style="fill:#f6c70a;fill-opacity:1;stroke:#160909;stroke-width:1.22787046;stroke-opacity:1"
         inkscape:connector-curvature="0"
         id="path857"
         d="m 303.49773,-169.91378 c 3.36747,12.47277 9.19533,12.60622 19.88181,16.63439 0,0 8.69826,3.70057 8.69826,3.70057 0,0 29.82271,0 29.82271,0 8.2261,0.29119 16.82498,0.98278 24.85226,-0.92211 0,0 0,-2.4266 0,-2.4266 0,0 -44.73405,-1.21331 -44.73405,-1.21331 0,0 -29.82271,-7.27981 -29.82271,-7.27981 -1.47871,-4.84108 -3.74026,-7.0493 -8.69828,-8.49313 z" />
      <path
         style="fill:#f6c70a;fill-opacity:1;stroke:#160909;stroke-width:1.22787046;stroke-opacity:1"
         inkscape:connector-curvature="0"
         id="path849"
         d="m 351.95961,-131.16087 c 0,0 -12.42613,0 -12.42613,0 0,0 -21.12441,4.9988 -21.12441,4.9988 -11.32019,4.54989 -22.23033,16.51305 -22.23033,29.046473 0,3.263792 1.00651,5.447734 1.81421,8.493128 0.57161,2.183958 0.73314,3.991777 1.78936,6.066529 7.67936,14.984281 18.46523,14.778021 33.53813,14.559624 5.9521,-0.09714 8.20123,-0.109174 9.94089,-6.066513 -21.98181,3.797639 -14.73739,0.885711 -33.55054,0 -1.40416,-9.609358 -4.63494,-3.797639 -7.98999,-16.986239 -0.48462,-1.892767 -1.31718,-4.016037 -1.30475,-5.957322 0.0126,-1.856354 0.8077,-3.55498 1.37929,-5.29001 2.88287,-8.7479 4.07578,-8.89351 11.29536,-14.55962 7.7539,-6.09079 9.79177,-5.64187 18.9871,-7.25556 8.97167,-1.5773 5.47993,-2.06261 16.15398,-2.12328 10.177,-0.0607 7.46811,-1.5409 13.71844,-2.26887 6.27519,-0.74013 7.55508,0.65517 14.86165,-1.37105 0,0 0,-2.42661 0,-2.42661 -11.45688,-2.71779 -14.3149,-0.7765 -24.85226,1.14052 z" />
      <path
         style="fill:#f6c70a;fill-opacity:1;stroke:#160909;stroke-width:1.22787046;stroke-opacity:1"
         inkscape:connector-curvature="0"
         id="path847"
         d="m 169.89203,-122.2067 c -1.26747,3.80977 0.57161,9.31818 1.91363,12.95808 3.85208,10.458686 16.14151,28.342774 27.31262,31.545893 -2.274,-7.558881 -5.96454,-8.820732 -10.86044,-14.55964 -4.85862,-5.678269 -12.62494,-17.313843 -13.76816,-24.775653 -0.9568,-6.18786 4.67223,-6.13933 4.74679,-14.05005 -3.35505,2.02621 -8.0397,5.02307 -9.34444,8.88137 z" />
      <path
         style="fill:#f6c70a;fill-opacity:1;stroke:#160909;stroke-width:1.22787046;stroke-opacity:1"
         inkscape:connector-curvature="0"
         id="path843"
         d="m 229.59956,-74.584555 c -7.69178,12.242232 -18.93741,11.635591 -31.7239,11.441452 -12.9356,-0.218397 -10.01544,-4.792541 -26.09487,-4.853213 3.64084,5.581199 7.45568,5.702528 13.66873,7.68021 11.66815,3.712724 32.74285,3.967502 42.49736,-4.331487 6.44916,-5.484131 12.61252,-21.657468 7.20715,-28.828073 0,0 -5.55447,18.891111 -5.55447,18.891111 z" />
      <path
         style="fill:#f6c70a;fill-opacity:1;stroke:#160909;stroke-width:1.22787046;stroke-opacity:1"
         inkscape:connector-curvature="0"
         id="path839"
         d="m 251.15889,-48.583463 c -1.19291,5.532665 0.2858,5.19294 0,8.347508 0,0 -5.56691,14.705244 -5.56691,14.705244 -5.35566,8.080608 -13.49477,9.803513 -21.62146,13.346341 2.21185,0.970659 3.64086,1.868492 6.21306,1.844233 6.69769,-0.07273 18.06759,-8.408197 21.11199,-14.025793 1.15563,-2.135407 1.40416,-4.877489 2.18701,-7.231277 1.01893,-3.093929 3.13137,-6.430514 2.98226,-9.706427 -0.11181,-2.620737 -1.52841,-4.98668 -2.67161,-7.279829 0,0 -2.63434,0 -2.63434,0 z" />
      <path
         style="fill:#f6c70a;fill-opacity:1;stroke:#160909;stroke-width:1.22787046;stroke-opacity:1"
         inkscape:connector-curvature="0"
         id="path837"
         d="m 334.20268,-10.146032 c -7.10774,-11.817559 -7.77876,-15.360387 -19.52144,-24.205378 -8.64857,-6.515429 -10.32611,-7.109949 -21.12442,-6.952224 -6.41186,0.109174 -14.01666,1.844216 -17.89362,7.352622 -2.2864,3.239516 -2.37339,8.347507 -1.40416,12.060215 1.11837,4.258693 3.71542,7.279829 5.9894,10.919743 4.3243,6.87943 7.81604,14.7537785 14.57584,19.764717 4.77164,3.530707 8.89711,6.709567 14.88651,4.501333 -5.52963,-3.14243 -4.64737,-3.14243 -9.09593,-6.381979 -11.2705,-8.1897657 -8.51188,-8.116972 -15.39597,-19.097387 -2.00059,-3.190981 -4.39884,-6.10291 -5.6166,-9.706427 -4.95802,-14.547502 14.07881,-17.192498 21.19897,-15.190541 3.80239,1.079834 7.09531,4.137349 10.15215,6.454757 7.7042,5.811751 8.42491,5.314267 14.01666,13.795257 4.02605,6.10291 12.63738,22.3490576 17.04865,26.4864227 1.97575,-8.94204389 -3.67815,-12.9216839 -7.81604,-19.8011307 z" />
    </g>
    <g
       id="g1002">
      <path
         style="fill:#f6c70a;fill-opacity:1;stroke:#160909;stroke-width:1.22787046;stroke-opacity:1"
         inkscape:connector-curvature="0"
         id="path877"
         d="m 638.89128,-252.74599 c 0,0 -5.92725,4.95028 -5.92725,4.95028 -2.92015,3.02112 -3.40477,4.99881 -7.6545,8.12912 0,0 -16.14156,10.22816 -16.14156,10.22816 0,0 -8.98406,3.99176 -8.98406,3.99176 0,0 -17.32202,14.9115 -17.32202,14.9115 0,0 -4.0882,5.43559 -4.0882,5.43559 -2.46038,3.14245 -5.92727,6.00586 -7.66692,9.70643 -2.59705,7.4133 -1.21775,16.59798 0,24.26607 0.33551,5.2172 3.36746,12.26649 5.76571,16.98624 0,0 2.48521,0 2.48521,0 1.52842,-6.89155 -1.08103,-9.33031 -2.90767,-15.77294 -1.4663,-5.6176 -2.14975,-18.84259 0,-24.26607 1.92603,-5.25359 10.86042,-13.49193 15.35866,-17.3017 4.06335,-3.44578 7.48053,-7.69234 12.40127,-10.03402 0,0 7.45568,-3.15458 7.45568,-3.15458 2.47281,-1.31037 4.77164,-3.11819 7.45568,-3.99177 2.94499,-0.95851 5.72846,-0.53386 8.6983,-0.86145 9.71722,-1.07983 1.16804,-2.23248 21.12441,-2.26888 14.00423,-0.0243 6.7474,-2.41447 22.36704,-2.4266 0,0 0,-3.63991 0,-3.63991 0,0 -36.03577,1.52877 -36.03577,1.52877 0,0 -7.45568,2.11114 -7.45568,2.11114 0,0 9.29473,-10.48294 9.29473,-10.48294 7.05804,-6.47904 9.5557,-6.32131 13.0723,-16.20973 0,0 -1.24262,-1.21331 -1.24262,-1.21331 -6.20065,3.06966 -5.56691,5.10801 -10.05274,9.37884 z" />
      <path
         style="fill:#f6c70a;fill-opacity:1;stroke:#160909;stroke-width:1.22787046;stroke-opacity:1"
         inkscape:connector-curvature="0"
         id="path869"
         d="m 712.40198,-232.39304 c 0,0 -7.18229,13.69818 -7.18229,13.69818 0,0 0,31.19404 0,31.19404 -3.60357,0.21839 -5.85271,0.35184 -8.90953,1.9534 -5.35565,2.80274 -12.47582,13.9894 -13.19655,19.88605 0,0 0.70828,12.13304 0.70828,12.13304 0.0746,6.67315 -1.64025,16.36744 2.48525,21.83945 2.21183,-7.59528 1.10592,-17.45944 1.2426,-25.47936 0.0497,-2.58434 0.0372,-4.78042 1.04379,-7.2313 1.91364,-4.70761 14.35218,-16.27039 18.83802,-19.46139 1.62781,12.20584 15.33384,22.48251 26.09484,12.13305 -10.22667,-0.0115 -21.34807,-1.57731 -21.26108,-14.45045 0,0 2.62192,-11.02892 2.62192,-11.02892 0,0 -4.80892,2.4266 -4.80892,2.4266 0,0 0,-20.62616 0,-20.62616 0,0 6.05152,-16.98623 6.05152,-16.98623 0,0 -3.72785,0 -3.72785,0 z" />
      <path
         style="fill:#f6c70a;fill-opacity:1;stroke:#160909;stroke-width:1.22787046;stroke-opacity:1"
         inkscape:connector-curvature="0"
         id="path861"
         d="m 657.64232,-188.59865 c -6.7971,2.43874 -17.13565,15.33614 -21.68361,21.11148 -3.71541,4.71975 -8.52432,7.49821 -4.41127,13.34633 2.94501,-4.97454 14.38946,-18.92753 18.6392,-23.04063 2.07517,-2.00194 5.47991,-5.75105 8.67344,-5.32639 4.78403,0.64304 5.82782,6.56396 6.77223,10.16748 1.31718,5.01094 4.62252,29.51966 3.98878,33.97248 -1.08107,7.41329 -15.55752,16.35534 -19.43445,24.26606 8.51188,0.35187 13.7557,-8.56592 19.88179,-13.34632 -4.4734,10.34946 -2.29882,29.495403 -2.48521,41.252306 -0.16155,9.488029 -2.43553,7.146346 -2.48525,19.412853 0,0 3.72785,0 3.72785,0 0,0 2.48524,-15.772939 2.48524,-15.772939 0,0 0,-27.90598 0,-27.90598 0,0 3.30533,-25.47937 3.30533,-25.47937 0,0 -1.14322,-14.55964 -1.14322,-14.55964 0,0 -2.00059,-8.49313 -2.00059,-8.49313 0,0 -3.24323,-21.45119 -3.24323,-21.45119 0,0 -4.37397,-8.88139 -4.37397,-8.88139 -2.08759,0.0729 -4.21245,0.0115 -6.21306,0.72799 z" />
      <path
         style="fill:#f6c70a;fill-opacity:1;stroke:#160909;stroke-width:1.22787046;stroke-opacity:1"
         inkscape:connector-curvature="0"
         id="path853"
         d="m 659.96599,-140.7945 c 0.6213,-5.4356 0.84496,-8.99058 -4.80892,-10.91973 0,20.96588 -5.5296,18.12675 -8.69827,32.7592 0,0 1.24261,1.2133 1.24261,1.2133 6.9462,-3.68845 11.41961,-15.54242 12.26458,-23.05277 z" />
      <path
         style="fill:#f6c70a;fill-opacity:1;stroke:#160909;stroke-width:1.22787046;stroke-opacity:1"
         inkscape:connector-curvature="0"
         id="path851"
         d="m 781.90358,-136.3902 c 0,0 -6.20065,1.16476 -6.20065,1.16476 -5.76571,2.18394 -12.41371,10.93186 -15.20959,16.27041 0,0 -21.91968,47.318816 -21.91968,47.318816 -4.13791,8.881372 -11.92907,18.017554 -22.52856,18.199538 0,0 -4.97046,0 -4.97046,0 2.49766,6.95224 11.04683,5.787459 16.15397,2.050492 10.10245,-7.413278 17.08592,-18.417952 21.12441,-29.956457 5.25627,2.754203 5.44265,1.819957 9.9409,3.494311 2.74616,1.019177 14.92379,8.165539 16.81256,10.16748 3.30534,3.530708 6.11365,10.871192 7.61719,15.45749 1.71482,5.253595 2.69649,20.274289 -5.85267,20.395634 -2.46038,0.03645 -5.46752,-2.572219 -7.39357,-3.918984 -4.9953,-3.482173 -10.64918,-8.808578 -16.15397,-10.410138 2.01306,7.037156 8.95925,11.392918 14.7374,15.469611 2.3237,1.650111 4.95802,4.428556 7.8533,4.78042 3.75269,0.461054 6.88407,-1.819957 9.09594,-4.549885 5.64147,-6.940086 4.9953,-16.221872 2.53492,-24.193273 -1.83908,-5.933047 -5.79056,-15.032816 -11.20835,-18.587799 0,0 -7.81604,-4.125243 -7.81604,-4.125243 -8.077,-4.889594 -7.28172,-6.297032 -17.68239,-6.406222 1.8018,-7.898624 10.54979,-27.711861 14.9362,-35.125141 3.72785,-6.30918 6.36217,-4.73188 8.67346,-12.19369 0,0 16.04212,-1.50449 16.04212,-1.50449 0,0 10.05272,0 10.05272,0 0,0 0,-2.13543 0,-2.13543 -10.48764,-4.67121 -8.06454,-3.77338 -18.63916,-1.66221 z" />
      <path
         style="fill:#f6c70a;fill-opacity:1;stroke:#160909;stroke-width:1.22787046;stroke-opacity:1"
         inkscape:connector-curvature="0"
         id="path841"
         d="m 799.30016,-53.436676 c -1.11835,10.725604 2.78344,11.368659 6.90891,19.41287 0,0 7.232,17.871934 7.232,17.871934 0.86985,2.414477 3.26806,6.3091855 2.945,8.6751281 -1.21776,8.9056306 -11.28293,8.9177848 -15.81844,11.0410709 -4.42373,2.0747514 -5.1817,4.5013499 -7.75391,7.935004 -4.28703,5.702512 -11.45691,11.162383 -9.66754,18.781921 0,0 2.48522,0 2.48522,0 2.70891,-4.841092 11.18351,-18.126761 15.23445,-21.1114664 3.36746,-2.4872708 6.32489,-1.4559888 9.61779,-2.6692715 5.56693,-2.0383546 12.57526,-10.1189628 11.32021,-16.2582691 0,0 -10.7486,-26.474285 -10.7486,-26.474285 -3.45445,-6.430497 -7.28173,-6.952224 -8.02729,-17.204636 0,0 -3.7278,0 -3.7278,0 z" />
      <path
         style="fill:#f6c70a;fill-opacity:1;stroke:#160909;stroke-width:1.22787046;stroke-opacity:1"
         inkscape:connector-curvature="0"
         id="path835"
         d="m 687.29555,-28.569805 c 0,0 0,27.90598097 0,27.90598097 0,0 1.2426,15.77295603 1.2426,15.77295603 4.41128,-10.2160485 2.48525,-31.885621 2.48525,-43.678937 0,0 -3.72785,0 -3.72785,0 z" />
      <path
         style="fill:#f6c70a;fill-opacity:1;stroke:#160909;stroke-width:1.14531875;stroke-opacity:1"
         inkscape:connector-curvature="0"
         id="path833"
         d="m 613.6552,16.243024 c 3.23333,-9.5983903 8.59171,-7.4284167 15.01267,-8.1632304 0,0 7.06074,-1.8714272 7.06074,-1.8714272 4.65004,-0.8496112 11.15095,0.5051525 16.15516,-6.18841812 9.46003,-12.61794228 -6.37524,-25.41958428 -17.4005,-29.21987928 -2.59351,-0.665928 -7.57489,-0.642972 -10.28265,0 0,0 -29.70541,9.759085 -29.70541,9.759085 -6.2267,3.111442 -5.94107,4.810665 -13.71016,5.832481 0,0 0,3.44439 0,3.44439 11.82505,-0.114781 8.38607,-1.779586 17.18342,-5.556924 0,0 18.23456,-6.314727 18.23456,-6.314727 5.9525,-1.997752 12.04208,-4.546586 18.28024,-1.951807 6.79798,2.847348 19.51417,10.149456 14.48712,19.4607951 -3.55325,6.5902511 -8.75168,5.18952544 -14.48712,6.1424727 0,0 -7.9976,1.848504 -7.9976,1.848504 -2.65066,0.3099915 -5.42697,-0.080314 -7.99763,0.8151604 -9.28865,3.2721693 -10.97956,13.7086768 -5.71256,21.1485558 0.011,-3.134399 -0.13719,-6.17694 0.87972,-9.185031 z" />
      <path
         style="fill:#f6c70a;fill-opacity:1;stroke:#160909;stroke-width:1.22787046;stroke-opacity:1"
         inkscape:connector-curvature="0"
         id="path827"
         d="M 756.40515,5.2508015 C 743.19618,-5.1350604 725.37712,-8.180438 709.83204,-1.2646439 c 0,0 0,2.4266315 0,2.4266315 7.24442,1.5287659 7.59235,-1.0798662 16.15396,-0.9221246 2.95743,-0.32758799 7.1326,-0.41253593 9.94088,0 8.7853,2.4265985 22.13094,9.852014 24.2434,19.121646 1.51597,6.673187 -3.36749,7.255569 -1.87636,16.986239 8.37521,-6.10291 8.89711,-22.628094 -1.88877,-31.0969465 z" />
      <path
         style="fill:#f6c70a;fill-opacity:1;stroke:#160909;stroke-width:1.22787046;stroke-opacity:1"
         inkscape:connector-curvature="0"
         id="path823"
         d="m 384.15346,43.712524 c -4.20003,4.185883 -6.26277,4.986663 -7.25686,10.834778 7.65449,-2.390185 9.63025,-8.396042 16.15397,-12.642597 4.65979,-3.045411 22.75223,-8.468852 28.58009,-9.196855 0,0 -1.24262,-4.853197 -1.24262,-4.853197 -14.96105,3.870417 -24.7777,4.452799 -36.23458,15.857871 z" />
      <path
         style="fill:#f6c70a;fill-opacity:1;stroke:#160909;stroke-width:1.22787046;stroke-opacity:1"
         inkscape:connector-curvature="0"
         id="path821"
         d="m 409.20453,50.907405 c -2.00061,8.929922 -4.6598,6.260634 -9.25747,10.725587 -1.56569,1.528766 -1.96333,3.057549 -3.11896,4.744023 -3.14381,4.610557 -6.61068,6.151461 -7.05802,12.436355 -0.49707,1.917009 -0.34795,4.23445 0,6.066512 0,0 10.12728,17.884108 10.12728,17.884108 4.34914,4.96242 7.49296,3.62777 9.30717,11.23519 11.07167,2.63287 10.41309,0.63092 19.88179,-0.89785 8.89711,-1.44385 14.82438,-1.5409 23.60964,-5.16866 0,0 -1.2426,-4.85323 -1.2426,-4.85323 -5.10714,2.11115 -18.22913,5.70251 -23.60964,5.04737 0,0 -9.9409,-2.66929 -9.9409,-2.66929 -2.87044,-0.59452 -8.67344,-1.06771 -10.91016,-2.40234 -3.44202,-2.0626 -7.28169,-11.307972 -9.81663,-15.178422 -1.4787,-2.26889 -3.34262,-3.858311 -3.46688,-6.74598 0,0 1.82663,-8.383921 1.82663,-8.383921 0,0 4.97047,0 4.97047,0 3.83967,-12.472751 11.58115,-6.903673 21.12441,-20.626153 0,0 -7.45568,1.213316 -7.45568,1.213316 0,0 -4.97045,-2.426615 -4.97045,-2.426615 z" />
      <path
         style="fill:#f6c70a;fill-opacity:1;stroke:#160909;stroke-width:1.22787046;stroke-opacity:1"
         inkscape:connector-curvature="0"
         id="Selection"
         d="m 432.72944,82.453284 c 0,0 0,3.639914 0,3.639914 9.67994,-0.109174 28.60493,-3.360828 37.27835,-7.279828 0,0 0,-2.426599 0,-2.426599 0,0 -37.27835,6.066513 -37.27835,6.066513 z" />
    </g>
  </g>
</svg>
