<?xml version="1.0" encoding="UTF-8" standalone="no"?>
<!-- Created with Inkscape (http://www.inkscape.org/) -->
<svg xmlns:dc="http://purl.org/dc/elements/1.1/" xmlns:cc="http://creativecommons.org/ns#" xmlns:rdf="http://www.w3.org/1999/02/22-rdf-syntax-ns#" xmlns:svg="http://www.w3.org/2000/svg" xmlns="http://www.w3.org/2000/svg" xmlns:sodipodi="http://sodipodi.sourceforge.net/DTD/sodipodi-0.dtd" xmlns:inkscape="http://www.inkscape.org/namespaces/inkscape" id="svg3619" version="1.1" inkscape:version="0.92.3 (unknown)" width="118.43517" height="137.11394" viewBox="0 0 118.43517 137.11394" preserveAspectRatio="none" sodipodi:docname="gallus_gallus.svg">
  <metadata id="metadata">
    <rdf:RDF>
      <cc:Work rdf:about="">
        <dc:format>image/svg+xml</dc:format>
        <dc:type rdf:resource="http://purl.org/dc/dcmitype/StillImage"/>
        <dc:title/>
      </cc:Work>
    </rdf:RDF>
  </metadata>
  <defs id="defs3623"/>
  <sodipodi:namedview pagecolor="#ffffff" bordercolor="#666666" borderopacity="1" objecttolerance="10" gridtolerance="10" guidetolerance="10" inkscape:pageopacity="0" inkscape:pageshadow="2" inkscape:window-width="1855" inkscape:window-height="1056" id="namedview3621" showgrid="false" inkscape:zoom="4.9844864" inkscape:cx="29.930246" inkscape:cy="63.162877" inkscape:window-x="65" inkscape:window-y="24" inkscape:window-maximized="1" inkscape:current-layer="container" fit-margin-top="0" fit-margin-left="0" fit-margin-right="0" fit-margin-bottom="0"/>
  <g inkscape:label="EFO" id="container" inkscape:groupmode="layer" transform="translate(-3.2870277,-10.238369)" label="EFO" groupmode="layer">
    <g id="chicken_outline" style="fill:none;fill-opacity:1;stroke-width:0.2;stroke-miterlimit:4;stroke-dasharray:none;stroke:#000000;stroke-opacity:1" ontology="NULL">
      <path id="path844" d="m 68.518324,146.89168 c -0.05644,-0.83395 0.05704,-1.23218 0.826215,-2.89992 l 0.760888,-1.64968 -1.180263,0.81204 c -3.320452,2.28453 -7.771049,3.2258 -9.449493,1.99849 -0.343239,-0.25098 -0.431916,-0.53951 -0.312289,-1.01614 0.130397,-0.51955 0.514386,-0.79552 1.749676,-1.25748 0.870437,-0.32554 1.582616,-0.73075 1.582616,-0.9005 0,-0.75189 3.499663,-2.89089 5.392074,-3.29568 1.912883,-0.40915 2.834332,-3.70499 2.873283,-10.27705 0.01418,-2.39115 -0.06821,-4.68487 -0.183125,-5.09714 -0.15697,-0.56326 -0.124257,-0.72143 0.131599,-0.6363 0.190921,0.0635 0.4354,0.79749 0.556527,1.67081 0.272918,1.96773 0.03904,8.72578 -0.36811,10.6383 -0.798541,3.7507 -3.202362,6.17676 -7.87583,7.94869 -3.473337,1.3169 -3.744381,1.58703 -1.889967,1.88356 1.559076,0.24931 3.857805,-0.481 6.541686,-2.07828 3.737402,-2.2243 4.225152,-1.92785 2.586563,1.57204 -0.506681,1.08222 -0.921237,2.05641 -0.921237,2.16487 0,0.38622 2.163387,-1.91091 3.320059,-3.5253 1.357502,-1.89472 1.775346,-2.17497 3.242882,-2.17497 1.416163,0 1.391106,-0.31677 -0.238393,-3.01446 -1.77085,-2.93175 -2.127795,-4.43664 -2.125592,-8.96159 0.002,-3.35566 0.309202,-6.56997 0.662475,-6.92324 0.356824,-0.35683 0.394528,0.29526 0.119528,2.06766 -0.169524,1.09265 -0.248985,3.53172 -0.183367,5.62912 0.12993,4.15307 0.532633,5.61799 2.181811,7.93655 0.997637,1.40258 1.569182,2.82154 1.358072,3.37168 -0.07337,0.19096 -0.681109,0.40895 -1.35072,0.48443 -1.390429,0.15673 -1.950158,0.58526 -3.182799,2.43677 -1.39093,2.08927 -2.975146,3.55334 -3.844969,3.55334 -0.525615,0 -0.75791,-0.13722 -0.7798,-0.46062 z" style="fill:none;fill-opacity:1;stroke:#000000;stroke-width:0.2;stroke-miterlimit:4;stroke-dasharray:none;stroke-opacity:1" inkscape:connector-curvature="0"/>
      <path id="path842" d="m 65.619641,140.87181 c 1.045594,-0.66895 1.850312,-1.26705 1.788264,-1.3291 -0.119719,-0.11971 -4.122603,2.24311 -4.122603,2.4335 0,0.29184 0.583385,0.0159 2.334339,-1.1044 z" style="fill:none;fill-opacity:1;stroke:#000000;stroke-width:0.2;stroke-miterlimit:4;stroke-dasharray:none;stroke-opacity:1" inkscape:connector-curvature="0"/>
      <path id="path840" d="m 45.655834,143.01608 c -0.224415,-0.27041 -0.266253,-0.86894 -0.137991,-1.97408 0.183256,-1.57892 0.181031,-1.58601 -0.498742,-1.58601 -0.375552,0 -1.36435,0.23392 -2.197328,0.51982 -4.559269,1.56482 -9.34364,2.12157 -10.684046,1.24332 -1.21813,-0.79816 -0.518278,-1.85273 1.534381,-2.31209 0.890497,-0.1993 1.360703,-0.4296 1.284182,-0.62902 -0.145701,-0.37968 1.497898,-1.83561 2.865003,-2.53785 0.664473,-0.34133 1.889284,-0.57812 3.735769,-0.72223 2.416062,-0.18856 2.862233,-0.30215 3.70179,-0.94251 1.715464,-1.30846 5.203815,-6.58402 7.117503,-10.76406 0.376708,-0.82284 0.79005,-1.4311 0.918542,-1.35169 0.624313,0.38585 -4.488952,9.4603 -6.521765,11.57409 -0.556877,0.57906 -1.48151,1.373 -2.05474,1.76432 -1.819859,1.24228 -5.952931,3.0394 -8.675326,3.77213 -3.153502,0.84878 -3.783302,1.13139 -3.259881,1.46289 1.058937,0.67064 4.409367,0.14457 10.256371,-1.61036 1.301056,-0.39051 2.251903,-0.53459 2.732293,-0.41401 0.735473,0.18459 0.73656,0.1882 0.605944,2.01375 -0.07196,1.00585 -0.04234,1.82883 0.06587,1.82883 0.21104,0 1.928183,-1.91308 2.706387,-3.0152 0.587945,-0.83268 1.511273,-0.86855 3.194227,-0.12409 2.11997,0.93776 2.444474,-0.25851 0.749069,-2.76143 -1.96512,-2.90109 -1.913558,-3.59082 0.67824,-9.07244 1.13714,-2.40503 2.1402,-4.58007 2.229025,-4.8334 0.245395,-0.6999 0.775699,-0.57352 0.552183,0.1316 -0.103253,0.32572 -1.087759,2.48733 -2.187796,4.80358 -2.42873,5.11396 -2.527232,5.87327 -1.04581,8.06169 1.567435,2.31547 1.829175,3.12657 1.383627,4.28766 -0.213167,0.5555 -1.482052,0.53804 -3.102136,-0.0427 l -1.287825,-0.46162 -0.686249,0.91012 c -1.159293,1.53748 -2.833297,3.16904 -3.251489,3.16904 -0.218471,0 -0.542147,-0.17462 -0.719286,-0.38807 z" style="fill:none;fill-opacity:1;stroke:#000000;stroke-width:0.2;stroke-miterlimit:4;stroke-dasharray:none;stroke-opacity:1" inkscape:connector-curvature="0"/>
      <path id="path838" d="m 39.662205,137.02622 c 1.411463,-0.58143 2.566298,-1.1689 2.566298,-1.30549 0,-0.1366 -0.207279,-0.1915 -0.460618,-0.12199 -0.253339,0.0696 -1.112063,0.27123 -1.908273,0.44828 -1.575662,0.35038 -2.919483,0.97529 -3.948151,1.83595 l -0.658024,0.55055 0.921236,-0.17509 c 0.506677,-0.0963 2.076067,-0.6508 3.487532,-1.23221 z" style="fill:none;fill-opacity:1;stroke:#000000;stroke-width:0.2;stroke-miterlimit:4;stroke-dasharray:none;stroke-opacity:1" inkscape:connector-curvature="0"/>
      <path id="path836" d="m 66.312225,122.24238 c -1.6,-0.50602 -2.709956,-1.15069 -3.95138,-2.29501 l -1.12747,-1.03926 -0.578709,0.93637 c -0.642415,1.03945 -1.503881,1.57621 -2.971671,1.85157 -1.078222,0.20228 -1.398502,-0.23892 -0.362245,-0.499 0.685233,-0.17198 3.332457,-2.23351 3.332457,-2.59515 0,-0.12685 -0.292974,-0.66178 -0.651056,-1.18874 -0.358081,-0.52697 -0.59913,-1.01003 -0.535664,-1.07352 0.06348,-0.0635 1.004984,0.7154 2.092266,1.73079 2.166294,2.02308 5.728477,4.01371 7.182452,4.01371 0.456534,0 0.903271,0.11845 0.992741,0.26321 0.231471,0.37451 -2.13517,0.30191 -3.421721,-0.10497 z" style="fill:none;fill-opacity:1;stroke:#000000;stroke-width:0.2;stroke-miterlimit:4;stroke-dasharray:none;stroke-opacity:1" inkscape:connector-curvature="0"/>
      <path id="path834" d="m 48.746646,122.09993 c -1.925576,-0.61903 -4.185082,-2.72989 -5.274191,-4.92723 -0.347299,-0.7007 -1.023969,-2.26234 -1.503717,-3.47031 -0.479744,-1.20797 -1.366494,-2.86619 -1.970556,-3.68494 C 37.574265,106.73207 32.673115,102.99629 25.430391,98.91354 16.427773,93.838708 10.506378,87.026132 7.9359078,78.786087 6.3655024,73.7519 6.282802,67.151842 7.7198862,61.54584 10.083792,52.324325 11.338053,48.908268 15.472556,40.430929 c 3.782734,-7.756082 3.96836,-8.259765 3.979407,-10.797979 0.0054,-1.240121 0.111962,-2.003123 0.272083,-1.948121 0.148858,0.05113 0.251323,0.993954 0.235847,2.170151 -0.0329,2.500509 -0.421037,3.548601 -4.400844,11.883569 -3.721954,7.794944 -4.544112,10.067888 -6.8313495,18.886052 -1.0846116,4.181582 -1.0923353,4.244858 -1.0921273,8.949135 1.904e-4,4.334589 0.060659,4.956958 0.7105288,7.313231 0.3906752,1.416483 1.074261,3.44966 1.5190776,4.518165 0.7614434,1.829068 3.3911154,6.022606 4.9332904,7.867109 2.497378,2.986961 7.345002,6.906177 10.979407,8.876615 5.830713,3.161204 12.13449,7.978114 14.42044,11.019104 0.635402,0.84527 1.484508,2.35015 1.886897,3.34416 1.426144,3.52299 2.600121,5.73103 3.656257,6.8768 1.711861,1.85715 3.803676,2.68948 5.548479,2.20772 0.879572,-0.24287 1.52546,-0.006 0.9511,0.34936 -0.469377,0.29009 -2.757347,0.39088 -3.494403,0.15393 z" style="fill:none;fill-opacity:1;stroke:#000000;stroke-width:0.2;stroke-miterlimit:4;stroke-dasharray:none;stroke-opacity:1" inkscape:connector-curvature="0"/>
      <path id="path832" d="m 75.129752,121.95184 c 0,-0.0727 0.479521,-0.5655 1.065603,-1.09498 0.586074,-0.5295 1.545047,-1.64621 2.13103,-2.48159 1.466461,-2.09058 2.585873,-2.79952 5.198565,-3.29228 1.189473,-0.22436 2.553434,-0.57119 3.031019,-0.77073 1.190753,-0.49752 2.442851,-1.99681 2.79377,-3.34529 0.160599,-0.61716 0.403327,-1.55247 0.539387,-2.07848 0.352207,-1.36165 0.80357,-1.64464 2.333989,-1.46339 0.851071,0.1008 1.379686,0.0458 1.550342,-0.16129 0.142421,-0.17283 0.437839,-1.35381 0.656477,-2.62436 0.668553,-3.88513 1.416209,-5.110352 5.758686,-9.437094 2.17159,-2.16369 4.82567,-5.150712 6.20225,-6.980229 1.32347,-1.758924 2.76484,-3.453356 3.20309,-3.765413 0.43824,-0.312049 1.91734,-0.96266 3.28687,-1.445769 2.67749,-0.944513 4.87966,-2.16702 6.66561,-3.700304 2.0834,-1.788658 1.41037,-2.296703 -3.47809,-2.62549 -1.44247,-0.09697 -3.01185,-0.339004 -3.48753,-0.53775 -0.75753,-0.316513 -0.86488,-0.482667 -0.86488,-1.338705 0,-1.064323 0.51854,-2.065114 2.78351,-5.372349 0.79234,-1.156957 2.0914,-3.350068 2.88679,-4.873585 1.18304,-2.266027 1.3957,-2.864325 1.1688,-3.288289 -0.15254,-0.285046 -0.50162,-0.518268 -0.77573,-0.518268 -0.27409,0 -0.6845,-0.186148 -0.91202,-0.413662 -0.37607,-0.376078 -0.35166,-0.519469 0.26878,-1.578174 0.62509,-1.066625 0.64373,-1.179367 0.22175,-1.341283 -0.25338,-0.09727 -1.1302,-0.03851 -1.94849,0.130516 -2.69609,0.556862 -2.82091,0.511515 -2.95804,-1.074561 -0.12453,-1.440423 -1.5231,-4.145561 -2.14329,-4.145561 -0.17047,0 -0.92553,0.414559 -1.6779,0.921238 -2.28481,1.538674 -2.72941,1.196889 -1.33165,-1.023721 1.14274,-1.815499 1.16134,-3.232362 0.0657,-5.008213 -1.23801,-2.006673 -2.46303,-2.862503 -4.28603,-2.994374 -1.40146,-0.101368 -1.78882,0.01002 -4.851623,1.389324 -3.99429,1.799401 -5.014623,2.427907 -8.07022,4.971079 -4.154241,3.457578 -8.640302,6.102534 -11.868025,6.997329 -2.26693,0.628446 -7.5348,1.054698 -13.105795,1.060484 C 58.98515,58.652645 56.144061,57.81401 50.34252,54.264 44.927634,50.950598 43.515842,49.918181 42.325101,48.401062 39.84437,45.240352 38.872454,42.455832 38.139458,36.409277 37.711559,32.87976 36.365582,27.039215 35.232979,23.797466 33.740025,19.5243 30.676269,15.922604 27.169248,14.317891 20.421136,11.230155 13.954845,12.160436 10.209876,16.757786 c -1.3787018,1.692497 -2.603643,3.996591 -2.8647872,5.3886 -0.1001636,0.533926 -0.287381,0.970784 -0.4160366,0.970784 -0.3502625,0 -0.2695498,-0.767451 0.2352928,-2.237278 C 7.5927862,19.6325 7.5923581,19.515768 7.1562236,18.642605 6.2380101,16.804541 6.8488484,15.239683 8.8954148,14.1871 c 0.677532,-0.348477 1.7580902,-1.196146 2.4012412,-1.88373 0.64315,-0.687577 1.437062,-1.437651 1.764249,-1.666814 0.815198,-0.570983 1.879492,-0.522682 2.453287,0.111351 0.612124,0.676393 0.29752,1.021087 -0.375799,0.411736 -0.73102,-0.661565 -1.334952,-0.363797 -2.891241,1.4255 -0.840164,0.965964 -1.950718,1.877202 -2.9126026,2.389892 -1.7651164,0.94079 -2.1766284,1.668247 -1.7769282,3.14115 l 0.2499929,0.921229 0.5624336,-0.764012 c 2.5423793,-3.453546 4.0148773,-4.652275 7.0252833,-5.719133 3.37548,-1.196224 9.118276,-0.508078 13.008914,1.558839 0.727005,0.386224 2.221685,1.592976 3.321508,2.681657 1.616312,1.599946 2.234575,2.458816 3.224885,4.479927 1.551889,3.16723 3.409974,10.094729 3.988777,14.871378 0.536765,4.429701 0.974717,6.098674 2.298335,8.758577 1.273663,2.55952 3.002137,4.425201 5.621923,6.068206 10.171585,6.379108 11.555355,6.878611 19.057778,6.879302 5.197553,5.26e-4 9.816416,-0.35454 11.976046,-0.920531 3.252522,-0.852418 7.892059,-3.588007 12.585459,-7.420723 2.518869,-2.056951 3.351602,-2.556324 7.155297,-4.290869 2.811197,-1.281945 3.767557,-1.572483 5.176177,-1.572483 2.29087,0 3.98933,1.258601 5.36681,3.976926 0.84538,1.668282 0.81168,2.65746 -0.14843,4.358713 -0.43554,0.771716 -0.72374,1.403133 -0.64047,1.403133 0.0833,0 0.53836,-0.295133 1.01128,-0.655839 0.47291,-0.360714 1.22926,-0.729719 1.68076,-0.820025 0.77903,-0.155801 0.87517,-0.07867 1.88379,1.511272 0.80962,1.276244 1.06348,1.942006 1.06537,2.794105 0.004,1.299614 0.0749,1.320263 2.37415,0.681013 2.54594,-0.707836 3.49845,0.08178 2.47834,2.05442 -0.22781,0.440563 -0.37589,0.81962 -0.32902,0.842359 1.54465,0.749435 1.66702,0.878188 1.74686,1.838004 0.1002,1.204212 -1.68162,4.716301 -4.78003,9.421857 -2.05888,3.126852 -2.36525,3.977496 -1.5536,4.313795 0.25335,0.104977 2.03556,0.344543 3.96049,0.532379 2.27358,0.221875 3.7261,0.489783 4.14557,0.764623 1.02786,0.673482 0.84386,1.593234 -0.60456,3.021892 -1.90314,1.877194 -3.96298,3.07069 -7.02654,4.071283 -2.91372,0.951651 -3.78537,1.619678 -5.95044,4.560494 -1.04301,1.416682 -3.89344,4.60197 -6.33433,7.078395 -4.991678,5.064412 -5.461591,5.806662 -6.115341,9.659382 -0.50336,2.96643 -0.680225,3.18081 -2.471634,2.99592 -1.627114,-0.16792 -1.905885,0.0997 -2.417854,2.32103 -0.40997,1.77881 -1.293352,3.28271 -2.34425,3.9909 -0.478371,0.32238 -1.779463,0.77461 -2.891303,1.00497 -4.17792,0.86562 -4.309912,0.94741 -6.801353,4.2151 -1.156568,1.5169 -2.183164,2.48022 -2.655873,2.49217 -0.180965,0.005 -0.329016,-0.0512 -0.329016,-0.12398 z" style="fill:none;fill-opacity:1;stroke:#000000;stroke-width:0.2;stroke-miterlimit:4;stroke-dasharray:none;stroke-opacity:1" inkscape:connector-curvature="0"/>
      <path id="path830" d="M 12.333189,33.675718 C 11.41952,33.118561 11.099024,32.448171 10.52308,29.889446 10.302463,28.909319 9.9271039,27.810007 9.6889503,27.446538 9.4507952,27.083068 9.3393088,26.70231 9.4412019,26.600415 c 0.3216951,-0.321689 1.1881871,1.066737 1.6042531,2.570582 0.789064,2.852035 1.804016,4.211358 3.14444,4.211358 0.199817,0 1.160546,-0.415536 2.134951,-0.923441 0.974408,-0.507897 1.828904,-0.866193 1.898885,-0.796207 0.417777,0.41778 -3.261934,2.502927 -4.421911,2.505725 -0.361914,7.62e-4 -1.022797,-0.220846 -1.468631,-0.492714 z" style="fill:none;fill-opacity:1;stroke:#000000;stroke-width:0.2;stroke-miterlimit:4;stroke-dasharray:none;stroke-opacity:1" inkscape:connector-curvature="0"/>
      <path id="path828" d="m 3.2881262,29.368405 c 0.00805,-0.470485 0.2219177,-1.365894 0.4751761,-1.989789 0.497744,-1.226182 2.2489199,-3.208605 2.8343221,-3.208605 0.552029,0 0.4476903,0.186018 -0.6714357,1.197079 -0.627873,0.567252 -1.1949164,1.410137 -1.4476557,2.151886 -0.5848251,1.716376 -0.5296341,1.826311 0.4399491,0.876444 0.4704876,-0.460917 1.4772653,-1.194333 2.2372859,-1.6298 0.7600184,-0.435484 1.3818518,-0.85482 1.3818518,-0.931861 0,-0.07703 -0.3009786,-0.497792 -0.6688431,-0.93497 -0.8844883,-1.051157 -0.5912692,-1.28906 0.4083778,-0.331335 1.2152518,1.164289 1.0504597,1.779383 -0.8073161,3.013356 -0.8768096,0.582389 -1.8941165,1.415318 -2.2606827,1.850966 -0.4016488,0.477334 -0.9186574,0.79207 -1.3011089,0.79207 -0.5435331,0 -0.6325162,-0.122785 -0.6199206,-0.855441 z" style="fill:none;fill-opacity:1;stroke:#000000;stroke-width:0.2;stroke-miterlimit:4;stroke-dasharray:none;stroke-opacity:1" inkscape:connector-curvature="0"/>
      <path id="path826" d="m 13.497598,28.540962 c -1.154891,-0.412539 -3.285531,-1.635103 -3.525076,-2.022701 -0.3431246,-0.555179 0.14363,-0.558209 1.078371,-0.0069 1.633988,0.96409 3.941378,1.606603 5.76954,1.606603 1.986628,0 2.288235,0.376873 0.497986,0.622246 -1.75976,0.24121 -2.728846,0.190621 -3.820821,-0.199438 z" style="fill:none;fill-opacity:1;stroke:#000000;stroke-width:0.2;stroke-miterlimit:4;stroke-dasharray:none;stroke-opacity:1" inkscape:connector-curvature="0"/>
      <path id="path859" d="m 12.219868,22.059302 c -0.32899,-0.614732 0.102759,-1.737473 0.845501,-2.198676 0.614453,-0.381535 0.943023,0.02056 0.363227,0.444509 -0.731588,0.534945 -0.45345,1.608202 0.44349,1.711307 1.005779,0.115618 0.629314,0.574315 -0.471354,0.574315 -0.629885,0 -0.981014,-0.158029 -1.180864,-0.531455 z" style="fill:none;fill-opacity:1;stroke:#000000;stroke-width:0.2;stroke-miterlimit:4;stroke-dasharray:none;stroke-opacity:1" inkscape:connector-curvature="0"/>
    </g>
    <path inkscape:label="UBERON_0000955" inkscape:connector-curvature="0" id="brain" d="M 26.888444,23.126197 C 26.663467,22.961817 26.126683,22.628507 25.695584,22.385497 25.264483,22.142477 24.831439,21.897277 24.733265,21.840617 24.565463,21.743817 24.510054,21.743717 23.808603,21.839857 22.939224,21.958237 22.346898,21.927957 22.101724,21.752557 21.887287,21.599167 21.671998,21.303427 21.556922,21.004167 L 21.459382,20.750507 20.483354,20.634887 C 19.552998,20.524667 19.236734,20.445757 19.25044,20.327117 19.26388,20.210657 19.536326,20.076197 19.952685,19.980607 20.193116,19.925507 20.391422,19.866897 20.393373,19.850757 20.395473,19.834457 20.297533,19.780857 20.176061,19.731777 19.796809,19.578007 18.771526,18.698557 18.152373,17.995987 17.953477,17.770277 17.951939,17.764397 17.977375,17.325627 18.002275,16.896217 18.009275,16.875657 18.210461,16.639947 18.880919,15.854467 20.071975,14.976687 20.652617,14.840107 21.333342,14.680017 22.787306,14.758907 23.634376,15.001897 24.885813,15.360867 25.647584,16.269787 25.53295,17.267227 25.51061,17.461507 25.45209,17.762867 25.40288,17.936937 25.35367,18.111017 25.32248,18.265057 25.33357,18.279287 25.3446,18.293387 25.42462,18.261087 25.511242,18.207387 25.698159,18.091417 26.069108,18.116487 26.211718,18.254687 26.338104,18.377347 26.384509,18.379487 26.397939,18.262687 26.415879,18.107337 26.593869,17.943147 26.727164,17.958947 26.794864,17.966947 26.94135,18.058247 27.052707,18.161957 27.223031,18.320497 27.278251,18.344517 27.400534,18.313317 27.730687,18.229117 28.112088,18.418047 28.205494,18.712267 28.230494,18.791067 28.284524,18.859467 28.325526,18.864317 28.366526,18.869317 28.467995,18.919417 28.551003,18.976227 28.740151,19.105477 28.801476,19.323527 28.705173,19.524427 28.641603,19.657027 28.648633,19.681817 28.774113,19.767567 29.026925,19.940317 29.074355,20.092547 28.965144,20.380597 28.919094,20.502107 28.932154,20.530357 29.064474,20.595377 29.25763,20.690377 29.28309,20.868217 29.145094,21.158747 29.04373,21.372187 29.043778,21.390617 29.146394,21.590187 29.275922,21.842227 29.2744,21.858767 29.094854,22.150077 29.016554,22.277127 28.868465,22.557017 28.765775,22.772067 28.580537,23.159967 28.576229,23.164167 28.220582,23.303827 27.992041,23.393627 27.759788,23.441067 27.579821,23.434887 27.324378,23.426887 27.258627,23.396687 26.88849,23.126317 L 26.88849,23.126317 Z" style="fill:#66a8f2;fill-opacity:1;stroke:#000000;stroke-width:0.2;stroke-miterlimit:4;stroke-dasharray:none;stroke-opacity:1" ontology="UBERON_0000955"/>
    <path inkscape:label="UBERON_0000948" inkscape:connector-curvature="0" id="heart" d="M 33.915469,84.75233 C 32.748638,83.85425 32.096221,82.9941 31.725585,81.86518 31.178161,80.19778 30.702216,78.30089 30.526215,77.08511 30.391383,76.1537 30.424073,75.99647 30.835949,75.59563 31.10109,75.33759 31.689225,75.07144 32.222391,74.96823 32.840205,74.84866 33.218902,74.66211 33.360342,74.40775 33.592254,73.99062 34.062931,74.04729 35.671052,74.68597 36.568765,75.0425 36.571493,75.04963 35.931928,75.36664 35.677301,75.49283 35.482689,75.6258 35.499451,75.66211 35.516221,75.69841 36.024198,75.91193 36.628308,76.13652 37.659052,76.51973 37.743371,76.57807 37.997792,77.08393 38.540791,78.16358 38.453024,80.17237 37.7269,83.28414 37.394455,84.70883 36.965722,85.25497 36.006755,85.47524 35.34,85.62841 34.820304,85.44874 33.915469,84.75233 Z" style="fill:#e7f528;fill-opacity:1;stroke:#000000;stroke-width:0.2;stroke-miterlimit:4;stroke-dasharray:none;stroke-opacity:1" ontology="UBERON_0000948"/>
    <path inkscape:label="UBERON_0002113" inkscape:connector-curvature="0" id="kidney" d="M 78.352935,66.84728 C 69.023657,66.26044 67.545439,66.17094 64.856458,66.03003 62.661294,65.91488 62.123156,65.87296 61.643898,65.7792 60.514495,65.55828 59.847494,65.13288 59.716115,64.54974 59.680005,64.38968 59.693875,64.073987 59.741665,63.967997 59.783825,63.874497 59.961187,63.728627 60.207203,63.585317 61.097899,63.066457 62.614334,62.828087 64.647207,62.887337 67.734992,62.977337 74.95955,63.542737 78.621113,63.980947 80.016783,64.147987 80.493401,64.245317 80.997378,64.46629 81.351885,64.62171 81.517857,64.73417 81.741704,64.97064 82.004812,65.24858 82.065593,65.38411 82.066439,65.69475 82.066964,65.91229 82.059439,65.94578 81.977209,66.10791 81.865757,66.32681 81.664832,66.52158 81.401915,66.66556 81.158669,66.79877 81.005611,66.85278 80.719092,66.90649 80.412086,66.96399 80.073906,66.95559 78.352893,66.84729 Z" style="fill:#9f35f2;fill-opacity:1;stroke:#000000;stroke-width:0.2;stroke-miterlimit:4;stroke-dasharray:none;stroke-opacity:1" ontology="UBERON_0002113"/>
    <path inkscape:label="UBERON_0002107" inkscape:connector-curvature="0" id="liver" d="M 51.80635,104.74974 C 51.268713,104.60528 50.948931,104.39008 50.302771,103.73788 49.829677,103.26035 48.481732,102.06278 47.749163,101.46913 45.835032,99.91803 44.5388,99.10358 43.035129,98.50723 41.602529,97.93907 39.935227,96.7231 38.03514,94.86067 37.253594,94.09461 34.754402,91.17105 34.30403,90.49599 33.69216,89.57889 33.275578,88.57323 33.106883,87.60606 32.983475,86.89851 32.996102,86.76418 33.216131,86.44411 33.656789,85.80303 34.364334,85.30727 34.840964,85.30563 34.943478,85.30539 35.027053,85.30469 35.026689,85.29963 35.026425,85.2987 34.981589,85.14885 34.927289,84.97155 34.42418,83.32885 35.14703,81.86103 36.739338,81.29196 37.407634,81.05313 37.80535,81.01831 38.623709,81.12702 39.383471,81.22779 39.703353,81.32426 40.645234,81.73565 41.412006,82.07055 42.723999,82.75641 43.328348,83.13826 44.918043,84.14269 46.215026,85.55149 48.578492,88.84109 49.711985,90.41873 52.962832,95.10935 53.164455,95.45812 53.674432,96.34028 54.418328,97.25278 56.578425,99.64581 57.523146,100.69243 57.898767,101.19371 58.098548,101.67527 58.297053,102.15349 58.248551,102.38743 57.912809,102.57117 57.262605,102.927 56.628966,103.10334 56.065219,103.08539 L 55.734064,103.07539 55.702074,103.28088 C 55.600759,103.93167 54.5823,104.59634 53.382572,104.79466 53.164807,104.83076 52.855519,104.85506 52.695262,104.84896 52.535003,104.84296 52.33159,104.83476 52.243219,104.83126 52.154859,104.82626 51.958264,104.79136 51.806353,104.75056 L 51.806353,104.75056 Z" style="fill:#c45b26;fill-opacity:1;stroke:#000000;stroke-width:0.2;stroke-miterlimit:4;stroke-dasharray:none;stroke-opacity:1" ontology="UBERON_0002107"/>
    <g inkscape:label="UBERON_0014892" transform="matrix(0.26130833,-0.03158279,0.03158279,0.26130833,-23.682251,0.64112685)" style="fill:none;fill-opacity:1;stroke:#000000;stroke-width:0.75984948;stroke-miterlimit:4;stroke-dasharray:none;stroke-opacity:1" id="skeletal.muscle.organ" ontology="UBERON_0014892">
      <path d="M 299.99168,492.88016 C 299.39907,492.09553 297.86074,489.60588 296.57317,487.34761 294.85031,484.32588 292.97545,482.13684 289.47311,479.05774 278.30673,469.24076 256.66765,445.7894 254.09971,440.72182 251.40927,435.4125 250.15804,429.65586 250.14103,422.50887 250.12343,415.10388 251.024,410.92524 253.99341,404.63432 L 255.86831,400.66219 264.45486,417.68557 C 272.39172,433.42089 274.19283,436.46931 288.25874,457.97424 296.62827,470.77015 304.82008,483.22414 306.46278,485.64977 309.30394,489.8451 309.67906,491.16984 308.02585,491.16984 307.62011,491.16984 305.88887,491.87564 304.17864,492.7383 L 301.06914,494.30677 299.99168,492.88016 299.99168,492.88016 Z" id="path3037" inkscape:connector-curvature="0" style="fill:none;fill-opacity:1;stroke:#000000;stroke-width:0.75984948;stroke-miterlimit:4;stroke-dasharray:none;stroke-opacity:1"/>
      <path d="M 296.03043,465.25582 C 284.16561,447.08598 275.11569,432.23776 271.46796,424.95612 269.24988,420.52834 265.15666,412.94396 262.37192,408.10193 L 257.30875,399.29823 258.6495,398.41974 C 259.38692,397.93656 260.20606,397.54124 260.46982,397.54124 262.17359,397.54124 275.49559,416.35311 282.57147,428.75077 291.07441,443.64879 295.63876,453.26063 297.46102,460.10591 298.43778,463.77509 299.61078,467.8367 300.06768,469.1317 300.52459,470.42671 300.78959,471.59509 300.65657,471.7281 300.52356,471.86112 298.44179,468.94859 296.03043,465.25582 Z" id="path3039" inkscape:connector-curvature="0" style="fill:none;fill-opacity:1;stroke:#000000;stroke-width:0.75984948;stroke-miterlimit:4;stroke-dasharray:none;stroke-opacity:1"/>
      <path d="M 310.09823,484.77031 C 305.95138,477.90612 301.9293,467.78208 298.10007,454.56957 296.55708,449.24557 286.90787,430.16027 281.34073,421.42105 276.3053,413.5165 270.2053,405.16295 265.80679,400.14832 264.19013,398.30521 262.86742,396.61351 262.86742,396.38899 262.86742,395.44014 275.10778,393.5739 281.34828,393.57128 295.08489,393.56528 306.60565,401.70842 314.08778,416.71165 316.2604,421.71632 317.06272,424.40402 317.22993,429.19547 317.49999,436.93404 316.55663,443.33773 313.95961,451.39512 311.43736,459.22049 310.71589,467.58041 311.61211,478.59616 312.00165,483.38422 312.22319,487.3989 312.10441,487.51768 311.98564,487.63645 311.08285,486.40014 310.09823,484.77031 Z" id="path3041" inkscape:connector-curvature="0" sodipodi:nodetypes="csssscccsssc" style="fill:none;fill-opacity:1;stroke:#000000;stroke-width:0.75984948;stroke-miterlimit:4;stroke-dasharray:none;stroke-opacity:1"/>
    </g>
    <path inkscape:label="UBERON_0001155" sodipodi:nodetypes="cccscccc" inkscape:connector-curvature="0" id="colon" d="M 99.337291,87.63107 C 94.396591,86.65764 92.863494,87.76099 91.961537,88.5091 89.307718,90.89641 85.967888,98.68767 85.967888,98.68767 85.663965,99.55421 85.111566,100.78645 85.194465,101.17311 85.40315,102.14646 86.710141,101.69258 86.710141,101.69258 89.253029,98.56927 90.237532,92.4065 93.486548,91.16901 94.763302,91.16901 96.76805,91.6949 96.76805,91.6949 99.039411,91.32575 99.795046,88.5042 99.337291,87.63107 Z" style="fill:none;fill-opacity:1;stroke:#000000;stroke-width:0.2;stroke-miterlimit:4;stroke-dasharray:none;stroke-opacity:1" ontology="UBERON_0001155"/>
    <path inkscape:label="UBERON_0002106" inkscape:connector-curvature="0" id="spleen" d="M 48.871103,84.85617 C 47.66528,84.85617 47.239696,85.70734 47.239696,85.70734 46.459458,86.62944 47.026904,87.6934 47.026904,87.6934 47.949003,88.97016 49.225757,88.18992 49.225757,88.18992 50.928095,87.19689 50.715303,85.99107 50.715303,85.99107 50.502511,84.71431 48.871103,84.85617 48.871103,84.85617 Z" style="fill:none;fill-opacity:1;stroke:#000000;stroke-width:0.2;stroke-miterlimit:4;stroke-dasharray:none;stroke-opacity:1" ontology="UBERON_0002106"/>
    <path inkscape:label="UBERON_0002048" sodipodi:nodetypes="ccccccccccccccccccccccc" inkscape:connector-curvature="0" id="lung" d="m 38.911276,59.485207 c -0.960505,2.07791 -0.19382,3.75453 -0.19382,3.75453 1.06545,2.384393 5.511953,2.697063 5.511953,2.697063 1.672172,0.1932 3.008874,0.69102 3.008874,0.69102 2.141349,0.93415 5.139685,0.0789 5.139685,0.0789 v 0 c 0.871634,-0.1413 1.753604,-0.13795 2.631427,-0.21098 1.019543,-0.22555 1.137442,-1.49952 1.137442,-1.49952 0.251517,-2.717803 -0.201938,-3.628583 -0.201938,-3.628583 -0.290466,-0.87451 -1.549805,-1.54208 -2.009303,-1.33811 -0.699955,0.60582 -0.149294,1.66352 -0.213235,2.11137 -0.102181,1.1041 -0.754808,0.68534 -0.754808,0.68534 -0.561556,-0.3297 -0.348687,-2.87299 -0.348687,-2.87299 -0.205066,-1.1045 -1.163555,-1.53867 -1.163555,-1.53867 -2.268741,-1.46525 -2.202357,-0.22459 -2.202357,-0.22459 -0.07534,0.57094 -0.316553,0.87995 -0.410901,1.06933 -0.322343,0.99283 -0.225345,1.60491 -0.225345,1.60491 -0.596581,-1.10331 -1.099644,-1.87428 -1.336791,-2.98715 -0.409757,-1.19452 -1.714149,-1.39984 -1.714149,-1.39984 -0.982111,-0.16014 -1.85763,0.90992 -2.440025,2.29324 -0.85462,-1.84831 -1.595923,-2.5843 -2.188595,-2.91391 -1.572584,-0.43922 -1.978795,0.62974 -1.978795,0.62974 -0.152959,0.40883 0.42798,2.34048 -0.04708,2.99894 z" style="fill:none;fill-opacity:1;stroke:#000000;stroke-width:0.2;stroke-miterlimit:4;stroke-dasharray:none;stroke-opacity:1" ontology="UBERON_0002048"/>
  </g>
</svg>
