<?xml version="1.0" encoding="UTF-8" standalone="no"?>
<svg
   xmlns:dc="http://purl.org/dc/elements/1.1/"
   xmlns:cc="http://creativecommons.org/ns#"
   xmlns:rdf="http://www.w3.org/1999/02/22-rdf-syntax-ns#"
   xmlns:svg="http://www.w3.org/2000/svg"
   xmlns="http://www.w3.org/2000/svg"
   xmlns:sodipodi="http://sodipodi.sourceforge.net/DTD/sodipodi-0.dtd"
   xmlns:inkscape="http://www.inkscape.org/namespaces/inkscape"
   width="6.7638898in"
   height="6.6805601in"
   viewBox="0 0 486.99992 481.00008"
   version="1.1"
   id="svg3"
   sodipodi:docname="organ_final.svg"
   inkscape:version="0.92.3 (unknown)">
  <metadata
     id="metadata9">
    <rdf:RDF>
      <cc:Work
         rdf:about="">
        <dc:format>image/svg+xml</dc:format>
        <dc:type
           rdf:resource="http://purl.org/dc/dcmitype/StillImage" />
        <dc:title />
      </cc:Work>
    </rdf:RDF>
  </metadata>
  <defs
     id="defs7" />
  <sodipodi:namedview
     pagecolor="#ffffff"
     bordercolor="#666666"
     borderopacity="1"
     objecttolerance="10"
     gridtolerance="10"
     guidetolerance="10"
     inkscape:pageopacity="0"
     inkscape:pageshadow="2"
     inkscape:window-width="1688"
     inkscape:window-height="1388"
     id="namedview5"
     showgrid="false"
     inkscape:zoom="0.80101014"
     inkscape:cx="-85.546395"
     inkscape:cy="278.57142"
     inkscape:window-x="1752"
     inkscape:window-y="24"
     inkscape:window-maximized="0"
     inkscape:current-layer="layer1" />
  <g
     inkscape:groupmode="layer"
     id="layer1"
     inkscape:label="Layer 1"
     transform="translate(0,-143.99997)">
    <g
       id="rootTot">
      <path
         id="path825"
         d="m 111.81198,297.65444 c 0,0 0,11.85485 0,11.85485 0.0525,5.7964 4.30323,11.03125 0,16.84636 0,0 2.62392,1.24788 2.62392,1.24788 -2.07289,1.18548 -0.92712,2.43336 -0.87464,4.99151 0.0875,5.13502 1.3382,16.39713 -1.74928,20.59 0,0 4.3732,1.24788 4.3732,1.24788 0,0 -4.3732,0 -4.3732,0 3.49856,4.7357 2.61518,17.35799 2.62392,23.08575 0.009,2.45208 1.67056,9.86448 0,11.40561 -0.78717,0.73625 -1.5656,0.76745 -2.62392,1.07318 -1.53936,-4.52356 -0.79592,-11.36818 -0.87464,-16.22242 0,0 -0.87464,-8.73515 -0.87464,-8.73515 0,0 0,-2.49576 0,-2.49576 -0.0437,-4.92912 -0.87463,-3.62509 -1.53936,-6.34546 -0.90088,-3.66253 -0.83091,-11.66767 1.53936,-14.86848 -3.08747,-2.98867 -1.68805,-11.64894 -1.74927,-15.59848 0,0 -2.55395,-18.09424 -2.55395,-18.09424 0,0 0,-9.98303 0,-9.98303 0,0 6.0525,0 6.0525,0 z"
         style="fill:#8a5012;fill-opacity:1;stroke:#000000;stroke-width:0.27702358;stroke-miterlimit:4;stroke-dasharray:none;stroke-opacity:1"
         inkscape:connector-curvature="0" />
      <path
         id="path823"
         d="m 116.29888,405.59594 c 0,0 1.5831,4.99151 1.5831,4.99151 0,0 0,8.11121 0,8.11121 0,0 0.92712,10.60697 0.92712,10.60697 0,0 0.87464,20.59 0.87464,20.59 0,0 0.87464,10.60696 0.87464,10.60696 0,0 0,59.27423 0,59.27423 0,0 -0.87464,9.35909 -0.87464,9.35909 0,0 0,32.44485 0,32.44485 0,0 -1.74928,8.73515 -1.74928,8.73515 -3.95337,-1.01079 -5.10789,-4.07433 -5.23034,-6.86958 0,0 3.48106,-21.83163 3.48106,-21.83163 0,0 0,-19.96606 0,-19.96606 0,0 0.87464,-9.35909 0.87464,-9.35909 0,0 0,-54.90665 0,-54.90665 0,0 -0.87464,-8.73515 -0.87464,-8.73515 0,0 -0.87464,-10.60697 -0.87464,-10.60697 0,0 0,-14.3506 0,-14.3506 0,0 -1.10204,-11.85485 -1.10204,-11.85485 -1.00584,-4.38629 -3.69098,-7.31257 1.10204,-11.23091 0,0 0.98834,4.99152 0.98834,4.99152 z"
         style="fill:#8a5012;fill-opacity:1;stroke:#000000;stroke-width:0.27702358;stroke-miterlimit:4;stroke-dasharray:none;stroke-opacity:1"
         inkscape:connector-curvature="0" />
    </g>
    <g
       id="shootTot">
      <path
         id="path821"
         d="m 119.68374,256.85504 c 6.53355,-2.23995 19.14585,-7.91155 22.18085,-12.54742 4.88049,-7.46856 3.66474,-11.2933 5.86009,-14.97455 5.45774,-9.1719 13.01463,-17.91953 24.43742,-23.99046 0,0 6.12247,-2.58311 6.12247,-2.58311 3.53355,-1.52865 6.63852,-3.10098 10.64436,-4.03065 4.31198,-1.00454 7.74931,-1.01078 12.09627,-1.32275 2.72887,-0.19342 4.08456,-0.5553 6.99711,-0.40556 6.89216,0.35565 22.41701,2.19003 27.58613,5.28477 4.74929,2.84516 5.70265,5.67784 7.65309,9.47139 2.65016,5.12879 3.34112,9.62739 3.24491,15.08062 -0.16618,8.91609 -10.07584,16.38464 -19.24206,21.63197 -4.23326,2.42089 -15.81348,6.71983 -21.00009,7.56215 0,0 -11.36157,1.02326 -11.36157,1.02326 -3.83092,0.40556 -7.7493,1.8531 -11.23037,1.45378 0,0 -4.59185,-0.93591 -4.59185,-0.93591 0,0 -20.76394,-2.15883 -20.76394,-2.15883 -6.47233,-1.05446 -8.80762,-3.00739 -16.76684,-2.09644 -6.28866,0.72377 -13.65312,4.00569 -19.24206,6.2082 -3.71722,1.46001 -8.32657,3.19457 -10.34699,6.00229 -1.207,1.68464 -1.02333,3.76236 -1.02333,5.60922 0,0 0,19.96605 0,19.96605 0.0437,2.62679 0.23616,3.0885 0.87464,5.61546 -2.15161,0.41804 -5.30906,1.0295 -7.00586,-0.46172 -1.08455,-0.96087 -0.86589,-3.31936 -0.86589,-4.5298 0,0 0,-18.71818 0,-18.71818 -0.035,-2.12139 -0.26239,-4.97279 -1.73179,-6.85709 -3.402344,-4.34262 -15.043793,-7.74308 -21.883473,-7.19402 -6.725977,0.53659 -12.778481,3.33808 -18.367427,5.9399 0,0 6.997115,-24.33363 6.997115,-24.33363 4.07582,1.84686 6.71723,6.66991 10.766811,9.30294 4.224508,2.73909 18.691043,8.28591 24.218764,10.03918 -2.95628,-5.51562 -8.484002,-10.295 -9.953397,-16.22242 -0.822161,-3.28816 -0.428573,-6.83214 3.962117,-8.73515 0,0 0,6.86333 0,6.86333 0.997089,3.92458 6.00877,11.31202 8.6152,14.97454 4.98544,-7.34376 8.06417,-13.58316 5.24783,-21.83787 3.49856,1.55985 3.29739,2.93251 4.44317,5.5593 0.58601,1.34771 1.38193,2.42088 1.57435,3.85594 0.56852,4.15544 -4.242,10.61321 -6.89216,14.29445 3.6385,0.0187 5.50149,-0.68633 8.7464,-1.80318 z"
         style="fill:#541ad0;fill-opacity:1;stroke:#000000;stroke-width:0.27702358;stroke-miterlimit:4;stroke-dasharray:none;stroke-opacity:1"
         inkscape:connector-curvature="0" />
      <path
         inkscape:connector-curvature="0"
         id="Selection #2"
         d="m 71.141253,226.21338 c 0.131196,6.68239 -1.014582,4.60467 -1.635576,8.13617 0,0 -1.688054,9.95807 -1.688054,9.95807 0,0 -2.650157,6.86333 -2.650157,6.86333 0,0 -2.431497,8.71019 -2.431497,8.71019 0,0 -2.002925,4.44869 -2.002925,4.44869 0,0 -1.215748,4.31142 -1.215748,4.31142 -1.311959,4.1492 -7.600616,10.84406 -13.915512,11.51168 -1.548112,0.16846 -2.991267,-0.29325 -4.329465,-0.81112 -8.720154,-3.35056 -5.072908,-8.58541 -4.110805,-13.82026 0,0 2.527708,-13.10272 2.527708,-13.10272 0,0 1.81925,-5.61546 1.81925,-5.61546 1.373183,-6.02101 1.775517,-11.59279 4.303225,-17.4703 2.291555,-5.33468 3.717217,-10.51337 12.209966,-12.69092 7.8805,-0.37436 13.005887,4.2615 13.11959,9.57123 z"
         style="fill:#541ad0;fill-opacity:1;stroke:#000000;stroke-width:0.27702358;stroke-miterlimit:4;stroke-dasharray:none;stroke-opacity:1" />
    </g>
    <path
       style="fill:#e75012;fill-opacity:1;stroke:#000000;stroke-width:0.27702358;stroke-miterlimit:4;stroke-dasharray:none;stroke-opacity:1"
       d="m 163.41571,547.23015 c 0,9.02213 0.63846,14.03238 -1.7493,23.08574 -5.56269,-1.35395 -5.32654,-5.16623 -5.24782,-8.73515 0.0962,-3.99323 0.83965,-3.31936 1.52187,-6.2394 0,0 1.10205,-8.11119 1.10205,-8.11119 0,0 4.3732,0 4.3732,0 z"
       id="rootTipTot"
       inkscape:connector-curvature="0" />
    <g
       id="g4759">
      <path
         inkscape:connector-curvature="0"
         id="path818"
         d="m 99.4826,403.95217 30.16996,-8.67513 0.7164,1.09568 -28.96422,8.50756 z"
         style="opacity:1;fill:#8aa312;fill-opacity:1;stroke:#000000;stroke-width:0.27702358;stroke-miterlimit:4;stroke-dasharray:none;stroke-opacity:1" />
      <path
         inkscape:connector-curvature="0"
         id="path819"
         d="m 97.981903,394.04454 30.169967,-8.67513 0.7164,1.09568 -28.964226,8.50756 z"
         style="opacity:1;fill:#8aa312;fill-opacity:1;stroke:#000000;stroke-width:0.27702358;stroke-miterlimit:4;stroke-dasharray:none;stroke-opacity:1" />
    </g>
    <g
       id="root35S">
      <path
         id="path825-6"
         d="m 343.59736,296.26912 c 0,0 0,11.85485 0,11.85485 0.0525,5.7964 4.30323,11.03125 0,16.84636 0,0 2.62392,1.24788 2.62392,1.24788 -2.07289,1.18548 -0.92712,2.43336 -0.87464,4.99151 0.0875,5.13502 1.3382,16.39713 -1.74928,20.59 0,0 4.3732,1.24788 4.3732,1.24788 0,0 -4.3732,0 -4.3732,0 3.49856,4.7357 2.61517,17.35799 2.62392,23.08575 0.009,2.45208 1.67056,9.86448 0,11.40561 -0.78717,0.73625 -1.5656,0.76745 -2.62392,1.07318 -1.53936,-4.52356 -0.79592,-11.36818 -0.87464,-16.22242 0,0 -0.87464,-8.73515 -0.87464,-8.73515 0,0 0,-2.49576 0,-2.49576 -0.0437,-4.92912 -0.87464,-3.62509 -1.53936,-6.34546 -0.90088,-3.66253 -0.83091,-11.66767 1.53936,-14.86848 -3.08747,-2.98867 -1.68805,-11.64894 -1.74927,-15.59848 0,0 -2.55395,-18.09424 -2.55395,-18.09424 0,0 0,-9.98303 0,-9.98303 0,0 6.0525,0 6.0525,0 z"
         style="fill:#8a5012;fill-opacity:1;stroke:#000000;stroke-width:0.27702358;stroke-miterlimit:4;stroke-dasharray:none;stroke-opacity:1"
         inkscape:connector-curvature="0" />
      <path
         id="path823-7"
         d="m 348.08426,404.21062 c 0,0 1.5831,4.99151 1.5831,4.99151 0,0 0,8.11121 0,8.11121 0,0 0.92712,10.60697 0.92712,10.60697 0,0 0.87464,20.59 0.87464,20.59 0,0 0.87464,10.60696 0.87464,10.60696 0,0 0,59.27423 0,59.27423 0,0 -0.87464,9.35909 -0.87464,9.35909 0,0 0,32.44485 0,32.44485 0,0 -1.74928,8.73515 -1.74928,8.73515 -3.95337,-1.01079 -5.1079,-4.07433 -5.23035,-6.86958 0,0 3.48107,-21.83163 3.48107,-21.83163 0,0 0,-19.96606 0,-19.96606 0,0 0.87464,-9.35909 0.87464,-9.35909 0,0 0,-54.90665 0,-54.90665 0,0 -0.87464,-8.73515 -0.87464,-8.73515 0,0 -0.87464,-10.60697 -0.87464,-10.60697 0,0 0,-14.3506 0,-14.3506 0,0 -1.10205,-11.85485 -1.10205,-11.85485 -1.00583,-4.38629 -3.69097,-7.31257 1.10205,-11.23091 0,0 0.98834,4.99152 0.98834,4.99152 z"
         style="fill:#8a5012;fill-opacity:1;stroke:#000000;stroke-width:0.27702358;stroke-miterlimit:4;stroke-dasharray:none;stroke-opacity:1"
         inkscape:connector-curvature="0" />
    </g>
    <g
       id="shoot35S">
      <path
         id="path821-3"
         d="m 351.46912,255.46975 c 6.53355,-2.23995 19.14585,-7.91155 22.18085,-12.54742 4.88049,-7.46856 3.66474,-11.2933 5.86008,-14.97455 5.45775,-9.1719 13.01464,-17.91953 24.43743,-23.99046 0,0 6.12247,-2.58311 6.12247,-2.58311 3.53355,-1.52865 6.63852,-3.10098 10.64436,-4.03065 4.31198,-1.00454 7.74931,-1.01078 12.09627,-1.32275 2.72887,-0.19342 4.08456,-0.5553 6.99711,-0.40556 6.89216,0.35565 22.41701,2.19003 27.58613,5.28477 4.74929,2.84516 5.70264,5.67784 7.65309,9.47139 2.65016,5.12879 3.34112,9.62739 3.24491,15.08062 -0.16618,8.91609 -10.07584,16.38464 -19.24206,21.63197 -4.23326,2.42089 -15.81348,6.71983 -21.00009,7.56215 0,0 -11.36157,1.02326 -11.36157,1.02326 -3.83092,0.40556 -7.7493,1.8531 -11.23037,1.45378 0,0 -4.59186,-0.93591 -4.59186,-0.93591 0,0 -20.76393,-2.15883 -20.76393,-2.15883 -6.47233,-1.05446 -8.80762,-3.00739 -16.76684,-2.09644 -6.28866,0.72377 -13.65312,4.00569 -19.24207,6.2082 -3.71721,1.46001 -8.32656,3.19457 -10.34698,6.00229 -1.207,1.68464 -1.02333,3.76236 -1.02333,5.60922 0,0 0,19.96605 0,19.96605 0.0437,2.62679 0.23616,3.0885 0.87464,5.61546 -2.15161,0.41804 -5.30906,1.0295 -7.00586,-0.46172 -1.08455,-0.96087 -0.86589,-3.31936 -0.86589,-4.5298 0,0 0,-18.71818 0,-18.71818 -0.035,-2.12139 -0.26239,-4.97279 -1.73179,-6.85709 -3.40234,-4.34262 -15.04379,-7.74308 -21.88347,-7.19402 -6.72598,0.53659 -12.77849,3.33808 -18.36743,5.9399 0,0 6.99711,-24.33363 6.99711,-24.33363 4.07582,1.84686 6.71723,6.66991 10.76681,9.30294 4.22451,2.73909 18.69105,8.28591 24.21877,10.03918 -2.95628,-5.51562 -8.484,-10.295 -9.9534,-16.22242 -0.82216,-3.28816 -0.42857,-6.83214 3.96212,-8.73515 0,0 0,6.86333 0,6.86333 0.99709,3.92458 6.00877,11.31202 8.6152,14.97454 4.98544,-7.34376 8.06417,-13.58316 5.24783,-21.83787 3.49856,1.55985 3.29739,2.93251 4.44317,5.5593 0.58601,1.34771 1.38193,2.42088 1.57435,3.85594 0.56852,4.15544 -4.242,10.61321 -6.89216,14.29445 3.6385,0.0187 5.50148,-0.68633 8.7464,-1.80318 z"
         style="fill:#541ad0;fill-opacity:1;stroke:#000000;stroke-width:0.27702358;stroke-miterlimit:4;stroke-dasharray:none;stroke-opacity:1"
         inkscape:connector-curvature="0" />
      <path
         inkscape:connector-curvature="0"
         id="Selection #2-5"
         d="m 302.92663,224.82809 c 0.1312,6.68239 -1.01458,4.60467 -1.63557,8.13617 0,0 -1.68806,9.95807 -1.68806,9.95807 0,0 -2.65016,6.86333 -2.65016,6.86333 0,0 -2.43149,8.71019 -2.43149,8.71019 0,0 -2.00293,4.44869 -2.00293,4.44869 0,0 -1.21575,4.31142 -1.21575,4.31142 -1.31195,4.1492 -7.60061,10.84406 -13.91551,11.51168 -1.54811,0.16846 -2.99126,-0.29325 -4.32946,-0.81112 -8.72016,-3.35056 -5.07291,-8.58541 -4.11081,-13.82026 0,0 2.52771,-13.10272 2.52771,-13.10272 0,0 1.81925,-5.61546 1.81925,-5.61546 1.37318,-6.02101 1.77552,-11.59279 4.30323,-17.4703 2.29155,-5.33468 3.71721,-10.51337 12.20996,-12.69092 7.8805,-0.37436 13.00589,4.2615 13.11959,9.57123 z"
         style="fill:#541ad0;fill-opacity:1;stroke:#000000;stroke-width:0.27702358;stroke-miterlimit:4;stroke-dasharray:none;stroke-opacity:1" />
    </g>
    <path
       style="fill:#e75012;fill-opacity:1;stroke:#000000;stroke-width:0.27702358;stroke-miterlimit:4;stroke-dasharray:none;stroke-opacity:1"
       d="m 395.20107,545.84482 c 0,9.02217 0.63848,14.0324 -1.74929,23.08574 -5.56271,-1.35395 -5.32655,-5.16621 -5.24783,-8.73514 0.0963,-3.99321 0.83967,-3.31935 1.52188,-6.23939 0,0 1.10205,-8.11121 1.10205,-8.11121 0,0 4.37319,0 4.37319,0 z"
       id="rootTip35S"
       inkscape:connector-curvature="0" />
    <g
       id="g4777">
      <path
         inkscape:connector-curvature="0"
         id="path818-9"
         d="m 331.26795,402.56685 30.16997,-8.67513 0.7164,1.09568 -28.96422,8.50756 z"
         style="opacity:1;fill:#8aa312;fill-opacity:1;stroke:#000000;stroke-width:0.27702358;stroke-miterlimit:4;stroke-dasharray:none;stroke-opacity:1" />
      <path
         inkscape:connector-curvature="0"
         id="path819-1"
         d="m 329.76726,392.65922 30.16997,-8.67513 0.7164,1.09568 -28.96423,8.50756 z"
         style="opacity:1;fill:#8aa312;fill-opacity:1;stroke:#000000;stroke-width:0.27702358;stroke-miterlimit:4;stroke-dasharray:none;stroke-opacity:1" />
    </g>
  </g>
</svg>
