<?xml version="1.0" encoding="UTF-8" standalone="no"?>
<svg
              xmlns:dc="http://purl.org/dc/elements/1.1/"
              xmlns:cc="http://creativecommons.org/ns#"
              xmlns:rdf="http://www.w3.org/1999/02/22-rdf-syntax-ns#"
              xmlns:svg="http://www.w3.org/2000/svg"
              xmlns="http://www.w3.org/2000/svg"
              xmlns:sodipodi="http://sodipodi.sourceforge.net/DTD/sodipodi-0.dtd"
              xmlns:inkscape="http://www.inkscape.org/namespaces/inkscape"
              width="6.7638898in"
              height="6.6805601in"
              viewBox="0 0 486.99992 481.00008"
              version="1.1"
              id="svg3"
              sodipodi:docname="organ_final.svg"
              inkscape:version="0.92.3 (unknown)">
             <metadata
                           id="metadata9">
                          <rdf:RDF>
                                       <cc:Work
                                                     rdf:about="">
                                                    <dc:format>image/svg+xml</dc:format>
                                                    <dc:type
                                                                  rdf:resource="http://purl.org/dc/dcmitype/StillImage" />
                                                    <dc:title />
                                       </cc:Work>
                          </rdf:RDF>
             </metadata>
             <defs
                           id="defs7" />
             <sodipodi:namedview
                           pagecolor="#ffffff"
                           bordercolor="#666666"
                           borderopacity="1"
                           objecttolerance="10"
                           gridtolerance="10"
                           guidetolerance="10"
                           inkscape:pageopacity="0"
                           inkscape:pageshadow="2"
                           inkscape:window-width="1855"
                           inkscape:window-height="1056"
                           id="namedview5"
                           showgrid="false"
                           inkscape:zoom="1.1327994"
                           inkscape:cx="304.0106"
                           inkscape:cy="299.25599"
                           inkscape:window-x="65"
                           inkscape:window-y="24"
                           inkscape:window-maximized="1"
                           inkscape:current-layer="container" />
             <g
                           inkscape:groupmode="layer"
                           id="container"
                           inkscape:label="Layer 1"
                           transform="translate(0,-143.99997)">
                          <g
                                        id="root_total"
                                        style="fill:#e485e9;fill-opacity:1;stroke:#000000;stroke-width:0.27674988;stroke-miterlimit:4;stroke-dasharray:none;stroke-opacity:1">
                                       <path
                                                     id="path825"
                                                     d="M 111.81198,297.65444 C 111.81198,297.65444 111.81198,309.50929 111.81198,309.50929 111.86448,315.30569 116.11521,320.54054 111.81198,326.35565 111.81198,326.35565 114.4359,327.60353 114.4359,327.60353 112.36301,328.78901 113.50878,330.03689 113.56126,332.59504 113.64876,337.73006 114.89946,348.99217 111.81198,353.18504 111.81198,353.18504 116.18518,354.43292 116.18518,354.43292 116.18518,354.43292 111.81198,354.43292 111.81198,354.43292 115.31054,359.16862 114.42716,371.79091 114.4359,377.51867 114.4449,379.97075 116.10646,387.38315 114.4359,388.92428 113.64873,389.66053 112.8703,389.69173 111.81198,389.99746 110.27262,385.4739 111.01606,378.62928 110.93734,373.77504 110.93734,373.77504 110.0627,365.03989 110.0627,365.03989 110.0627,365.03989 110.0627,362.54413 110.0627,362.54413 110.019,357.61501 109.18807,358.91904 108.52334,356.19867 107.62246,352.53614 107.69243,344.531 110.0627,341.33019 106.97523,338.34152 108.37465,329.68125 108.31343,325.73171 108.31343,325.73171 105.75948,307.63747 105.75948,307.63747 105.75948,307.63747 105.75948,297.65444 105.75948,297.65444 105.75948,297.65444 111.81198,297.65444 111.81198,297.65444 Z"
                                                     style="fill:#e485e9;fill-opacity:1;stroke:#000000;stroke-width:0.27674988;stroke-miterlimit:4;stroke-dasharray:none;stroke-opacity:1"
                                                     inkscape:connector-curvature="0" />
                                       <path
                                                     id="path823"
                                                     d="M 116.29888,405.59594 C 116.29888,405.59594 117.88198,410.58745 117.88198,410.58745 117.88198,410.58745 117.88198,418.69866 117.88198,418.69866 117.88198,418.69866 118.8091,429.30563 118.8091,429.30563 118.8091,429.30563 119.68374,449.89563 119.68374,449.89563 119.68374,449.89563 120.55838,460.50259 120.55838,460.50259 120.55838,460.50259 120.55838,519.77682 120.55838,519.77682 120.55838,519.77682 119.68374,529.13591 119.68374,529.13591 119.68374,529.13591 119.68374,561.58076 119.68374,561.58076 119.68374,561.58076 117.93446,570.31591 117.93446,570.31591 113.98109,569.30512 112.82657,566.24158 112.70412,563.44633 112.70412,563.44633 116.18518,541.6147 116.18518,541.6147 116.18518,541.6147 116.18518,521.64864 116.18518,521.64864 116.18518,521.64864 117.05982,512.28955 117.05982,512.28955 117.05982,512.28955 117.05982,457.3829 117.05982,457.3829 117.05982,457.3829 116.18518,448.64775 116.18518,448.64775 116.18518,448.64775 115.31054,438.04078 115.31054,438.04078 115.31054,438.04078 115.31054,423.69018 115.31054,423.69018 115.31054,423.69018 114.2085,411.83533 114.2085,411.83533 113.20266,407.44904 110.51752,404.52276 115.31054,400.60442 115.31054,400.60442 116.29888,405.59594 116.29888,405.59594 Z"
                                                     style="fill:#e485e9;fill-opacity:1;stroke:#000000;stroke-width:0.27674988;stroke-miterlimit:4;stroke-dasharray:none;stroke-opacity:1"
                                                     inkscape:connector-curvature="0" />
                          </g>
                          <g
                                        id="shoot_total"
                                        style="fill:#a5ebd8;fill-opacity:1;stroke:#000000;stroke-width:0.27674988;stroke-miterlimit:4;stroke-dasharray:none;stroke-opacity:1">
                                       <path
                                                     id="path821"
                                                     d="M 119.68374,256.85504 C 126.21729,254.61509 138.82959,248.94349 141.86459,244.30762 146.74508,236.83906 145.52933,233.01432 147.72468,229.33307 153.18242,220.16117 160.73931,211.41354 172.1621,205.34261 172.1621,205.34261 178.28457,202.7595 178.28457,202.7595 181.81812,201.23085 184.92309,199.65852 188.92893,198.72885 193.24091,197.72431 196.67824,197.71807 201.0252,197.4061 203.75407,197.21268 205.10976,196.8508 208.02231,197.00054 214.91447,197.35619 230.43932,199.19057 235.60844,202.28531 240.35773,205.13047 241.31109,207.96315 243.26153,211.7567 245.91169,216.88549 246.60265,221.38409 246.50644,226.83732 246.34026,235.75341 236.4306,243.22196 227.26438,248.46929 223.03112,250.89018 211.4509,255.18912 206.26429,256.03144 206.26429,256.03144 194.90272,257.0547 194.90272,257.0547 191.0718,257.46026 187.15342,258.9078 183.67235,258.50848 183.67235,258.50848 179.0805,257.57257 179.0805,257.57257 179.0805,257.57257 158.31656,255.41374 158.31656,255.41374 151.84423,254.35928 149.50894,252.40635 141.54972,253.3173 135.26106,254.04107 127.8966,257.32299 122.30766,259.5255 118.59044,260.98551 113.98109,262.72007 111.96067,265.52779 110.75367,267.21243 110.93734,269.29015 110.93734,271.13701 110.93734,271.13701 110.93734,291.10306 110.93734,291.10306 110.98104,293.72985 111.1735,294.19156 111.81198,296.71852 109.66037,297.13656 106.50292,297.74802 104.80612,296.2568 103.72157,295.29593 103.94023,292.93744 103.94023,291.727 103.94023,291.727 103.94023,273.00882 103.94023,273.00882 103.90523,270.88743 103.67784,268.03603 102.20844,266.15173 98.806096,261.80911 87.164647,258.40865 80.324967,258.95771 73.59899,259.4943 67.546486,262.29579 61.95754,264.89761 61.95754,264.89761 68.954655,240.56398 68.954655,240.56398 73.030475,242.41084 75.671885,247.23389 79.721466,249.86692 83.945974,252.60601 98.412509,258.15283 103.94023,259.9061 100.98395,254.39048 95.456228,249.6111 93.986833,243.68368 93.164672,240.39552 93.55826,236.85154 97.94895,234.94853 97.94895,234.94853 97.94895,241.81186 97.94895,241.81186 98.946039,245.73644 103.95772,253.12388 106.56415,256.7864 111.54959,249.44264 114.62832,243.20324 111.81198,234.94853 115.31054,236.50838 115.10937,237.88104 116.25515,240.50783 116.84116,241.85554 117.63708,242.92871 117.8295,244.36377 118.39802,248.51921 113.5875,254.97698 110.93734,258.65822 114.57584,258.67692 116.43883,257.97189 119.68374,256.85504 Z"
                                                     style="fill:#a5ebd8;fill-opacity:1;stroke:#000000;stroke-width:0.27674988;stroke-miterlimit:4;stroke-dasharray:none;stroke-opacity:1"
                                                     inkscape:connector-curvature="0" />
                                       <path
                                                     inkscape:connector-curvature="0"
                                                     id="Selection #2"
                                                     d="M 71.141253,226.21338 C 71.272449,232.89577 70.126671,230.81805 69.505677,234.34955 69.505677,234.34955 67.817623,244.30762 67.817623,244.30762 67.817623,244.30762 65.167466,251.17095 65.167466,251.17095 65.167466,251.17095 62.735969,259.88114 62.735969,259.88114 62.735969,259.88114 60.733044,264.32983 60.733044,264.32983 60.733044,264.32983 59.517296,268.64125 59.517296,268.64125 58.205337,272.79045 51.91668,279.48531 45.601784,280.15293 44.053672,280.32139 42.610517,279.85968 41.272319,279.34181 32.552165,275.99125 36.199411,270.7564 37.161514,265.52155 37.161514,265.52155 39.689222,252.41883 39.689222,252.41883 39.689222,252.41883 41.508472,246.80337 41.508472,246.80337 42.881655,240.78236 43.283989,235.21058 45.811697,229.33307 48.103252,223.99839 49.528914,218.8197 58.021663,216.64215 65.902163,216.26779 71.02755,220.90365 71.141253,226.21338 Z"
                                                     style="fill:#a5ebd8;fill-opacity:1;stroke:#000000;stroke-width:0.27674988;stroke-miterlimit:4;stroke-dasharray:none;stroke-opacity:1" />
                          </g>
                          <path
                                        style="fill:#35e4df;fill-opacity:1;stroke:#000000;stroke-width:0.27674989;stroke-miterlimit:4;stroke-dasharray:none;stroke-opacity:1"
                                        d="m 163.41571,547.23015 c 0,9.02213 0.63846,14.03238 -1.7493,23.08574 -5.56269,-1.35395 -5.32654,-5.16623 -5.24782,-8.73515 0.0962,-3.99323 0.83965,-3.31936 1.52187,-6.2394 0,0 1.10205,-8.11119 1.10205,-8.11119 0,0 4.3732,0 4.3732,0 z"
                                        id="rootTipTot"
                                        inkscape:connector-curvature="0" />
                          <g
                                        id="g4759"
                                        style="opacity:1;fill:#8aa312;fill-opacity:1;stroke:#000000;stroke-width:0.27674988;stroke-miterlimit:4;stroke-dasharray:none;stroke-opacity:1">
                                       <path
                                                     inkscape:connector-curvature="0"
                                                     id="path818"
                                                     d="M 99.4826,403.95217 129.65256,395.27704 130.36896,396.37272 101.40474,404.88028 Z"
                                                     style="opacity:1;fill:#8aa312;fill-opacity:1;stroke:#000000;stroke-width:0.27674988;stroke-miterlimit:4;stroke-dasharray:none;stroke-opacity:1" />
                                       <path
                                                     inkscape:connector-curvature="0"
                                                     id="path819"
                                                     d="M 97.981903,394.04454 128.15187,385.36941 128.86827,386.46509 99.904044,394.97265 Z"
                                                     style="opacity:1;fill:#8aa312;fill-opacity:1;stroke:#000000;stroke-width:0.27674988;stroke-miterlimit:4;stroke-dasharray:none;stroke-opacity:1" />
                          </g>
                          <g
                                        id="root_p35S"
                                        style="fill:#8a5012;fill-opacity:1;stroke:#000000;stroke-width:0.27674988;stroke-miterlimit:4;stroke-dasharray:none;stroke-opacity:1">
                                       <path
                                                     id="path825-6"
                                                     d="M 343.59736,296.26912 C 343.59736,296.26912 343.59736,308.12397 343.59736,308.12397 343.64986,313.92037 347.90059,319.15522 343.59736,324.97033 343.59736,324.97033 346.22128,326.21821 346.22128,326.21821 344.14839,327.40369 345.29416,328.65157 345.34664,331.20972 345.43414,336.34474 346.68484,347.60685 343.59736,351.79972 343.59736,351.79972 347.97056,353.0476 347.97056,353.0476 347.97056,353.0476 343.59736,353.0476 343.59736,353.0476 347.09592,357.7833 346.21253,370.40559 346.22128,376.13335 346.23028,378.58543 347.89184,385.99783 346.22128,387.53896 345.43411,388.27521 344.65568,388.30641 343.59736,388.61214 342.058,384.08858 342.80144,377.24396 342.72272,372.38972 342.72272,372.38972 341.84808,363.65457 341.84808,363.65457 341.84808,363.65457 341.84808,361.15881 341.84808,361.15881 341.80438,356.22969 340.97344,357.53372 340.30872,354.81335 339.40784,351.15082 339.47781,343.14568 341.84808,339.94487 338.76061,336.9562 340.16003,328.29593 340.09881,324.34639 340.09881,324.34639 337.54486,306.25215 337.54486,306.25215 337.54486,306.25215 337.54486,296.26912 337.54486,296.26912 337.54486,296.26912 343.59736,296.26912 343.59736,296.26912 Z"
                                                     style="fill:#8a5012;fill-opacity:1;stroke:#000000;stroke-width:0.27674988;stroke-miterlimit:4;stroke-dasharray:none;stroke-opacity:1"
                                                     inkscape:connector-curvature="0" />
                                       <path
                                                     id="path823-7"
                                                     d="M 348.08426,404.21062 C 348.08426,404.21062 349.66736,409.20213 349.66736,409.20213 349.66736,409.20213 349.66736,417.31334 349.66736,417.31334 349.66736,417.31334 350.59448,427.92031 350.59448,427.92031 350.59448,427.92031 351.46912,448.51031 351.46912,448.51031 351.46912,448.51031 352.34376,459.11727 352.34376,459.11727 352.34376,459.11727 352.34376,518.3915 352.34376,518.3915 352.34376,518.3915 351.46912,527.75059 351.46912,527.75059 351.46912,527.75059 351.46912,560.19544 351.46912,560.19544 351.46912,560.19544 349.71984,568.93059 349.71984,568.93059 345.76647,567.9198 344.61194,564.85626 344.48949,562.06101 344.48949,562.06101 347.97056,540.22938 347.97056,540.22938 347.97056,540.22938 347.97056,520.26332 347.97056,520.26332 347.97056,520.26332 348.8452,510.90423 348.8452,510.90423 348.8452,510.90423 348.8452,455.99758 348.8452,455.99758 348.8452,455.99758 347.97056,447.26243 347.97056,447.26243 347.97056,447.26243 347.09592,436.65546 347.09592,436.65546 347.09592,436.65546 347.09592,422.30486 347.09592,422.30486 347.09592,422.30486 345.99387,410.45001 345.99387,410.45001 344.98804,406.06372 342.3029,403.13744 347.09592,399.2191 347.09592,399.2191 348.08426,404.21062 348.08426,404.21062 Z"
                                                     style="fill:#8a5012;fill-opacity:1;stroke:#000000;stroke-width:0.27674988;stroke-miterlimit:4;stroke-dasharray:none;stroke-opacity:1"
                                                     inkscape:connector-curvature="0" />
                          </g>
                          <g
                                        id="shoot_p35S"
                                        style="stroke-width:0.27674989;stroke-miterlimit:4;stroke-dasharray:none;stroke:#000000;stroke-opacity:1;fill:#541ad0;fill-opacity:1">
                                       <path
                                                     id="path821-3"
                                                     d="m 351.46912,255.46975 c 6.53355,-2.23995 19.14585,-7.91155 22.18085,-12.54742 4.88049,-7.46856 3.66474,-11.2933 5.86008,-14.97455 5.45775,-9.1719 13.01464,-17.91953 24.43743,-23.99046 0,0 6.12247,-2.58311 6.12247,-2.58311 3.53355,-1.52865 6.63852,-3.10098 10.64436,-4.03065 4.31198,-1.00454 7.74931,-1.01078 12.09627,-1.32275 2.72887,-0.19342 4.08456,-0.5553 6.99711,-0.40556 6.89216,0.35565 22.41701,2.19003 27.58613,5.28477 4.74929,2.84516 5.70264,5.67784 7.65309,9.47139 2.65016,5.12879 3.34112,9.62739 3.24491,15.08062 -0.16618,8.91609 -10.07584,16.38464 -19.24206,21.63197 -4.23326,2.42089 -15.81348,6.71983 -21.00009,7.56215 0,0 -11.36157,1.02326 -11.36157,1.02326 -3.83092,0.40556 -7.7493,1.8531 -11.23037,1.45378 0,0 -4.59186,-0.93591 -4.59186,-0.93591 0,0 -20.76393,-2.15883 -20.76393,-2.15883 -6.47233,-1.05446 -8.80762,-3.00739 -16.76684,-2.09644 -6.28866,0.72377 -13.65312,4.00569 -19.24207,6.2082 -3.71721,1.46001 -8.32656,3.19457 -10.34698,6.00229 -1.207,1.68464 -1.02333,3.76236 -1.02333,5.60922 0,0 0,19.96605 0,19.96605 0.0437,2.62679 0.23616,3.0885 0.87464,5.61546 -2.15161,0.41804 -5.30906,1.0295 -7.00586,-0.46172 -1.08455,-0.96087 -0.86589,-3.31936 -0.86589,-4.5298 0,0 0,-18.71818 0,-18.71818 -0.035,-2.12139 -0.26239,-4.97279 -1.73179,-6.85709 -3.40234,-4.34262 -15.04379,-7.74308 -21.88347,-7.19402 -6.72598,0.53659 -12.77849,3.33808 -18.36743,5.9399 0,0 6.99711,-24.33363 6.99711,-24.33363 4.07582,1.84686 6.71723,6.66991 10.76681,9.30294 4.22451,2.73909 18.69105,8.28591 24.21877,10.03918 -2.95628,-5.51562 -8.484,-10.295 -9.9534,-16.22242 -0.82216,-3.28816 -0.42857,-6.83214 3.96212,-8.73515 0,0 0,6.86333 0,6.86333 0.99709,3.92458 6.00877,11.31202 8.6152,14.97454 4.98544,-7.34376 8.06417,-13.58316 5.24783,-21.83787 3.49856,1.55985 3.29739,2.93251 4.44317,5.5593 0.58601,1.34771 1.38193,2.42088 1.57435,3.85594 0.56852,4.15544 -4.242,10.61321 -6.89216,14.29445 3.6385,0.0187 5.50148,-0.68633 8.7464,-1.80318 z"
                                                     style="fill:#541ad0;fill-opacity:1;stroke:#000000;stroke-width:0.27674989;stroke-miterlimit:4;stroke-dasharray:none;stroke-opacity:1"
                                                     inkscape:connector-curvature="0" />
                                       <path
                                                     inkscape:connector-curvature="0"
                                                     id="Selection #2-5"
                                                     d="m 302.92663,224.82809 c 0.1312,6.68239 -1.01458,4.60467 -1.63557,8.13617 0,0 -1.68806,9.95807 -1.68806,9.95807 0,0 -2.65016,6.86333 -2.65016,6.86333 0,0 -2.43149,8.71019 -2.43149,8.71019 0,0 -2.00293,4.44869 -2.00293,4.44869 0,0 -1.21575,4.31142 -1.21575,4.31142 -1.31195,4.1492 -7.60061,10.84406 -13.91551,11.51168 -1.54811,0.16846 -2.99126,-0.29325 -4.32946,-0.81112 -8.72016,-3.35056 -5.07291,-8.58541 -4.11081,-13.82026 0,0 2.52771,-13.10272 2.52771,-13.10272 0,0 1.81925,-5.61546 1.81925,-5.61546 1.37318,-6.02101 1.77552,-11.59279 4.30323,-17.4703 2.29155,-5.33468 3.71721,-10.51337 12.20996,-12.69092 7.8805,-0.37436 13.00589,4.2615 13.11959,9.57123 z"
                                                     style="fill:#541ad0;fill-opacity:1;stroke:#000000;stroke-width:0.27674989;stroke-miterlimit:4;stroke-dasharray:none;stroke-opacity:1" />
                          </g>
                          <path
                                        style="fill:#e75012;fill-opacity:1;stroke:#000000;stroke-width:0.27674989;stroke-miterlimit:4;stroke-dasharray:none;stroke-opacity:1"
                                        d="m 395.20107,545.84482 c 0,9.02217 0.63848,14.0324 -1.74929,23.08574 -5.56271,-1.35395 -5.32655,-5.16621 -5.24783,-8.73514 0.0963,-3.99321 0.83967,-3.31935 1.52188,-6.23939 0,0 1.10205,-8.11121 1.10205,-8.11121 0,0 4.37319,0 4.37319,0 z"
                                        id="rootTip35S"
                                        inkscape:connector-curvature="0" />
                          <g
                                        id="g4777"
                                        style="opacity:1;fill:#252c05;fill-opacity:0.56862745;stroke:#000000;stroke-width:0.27674988;stroke-miterlimit:4;stroke-dasharray:none;stroke-opacity:1">
                                       <path
                                                     inkscape:connector-curvature="0"
                                                     id="path818-9"
                                                     d="M 331.26795,402.56685 361.43792,393.89172 362.15432,394.9874 333.1901,403.49496 Z"
                                                     style="opacity:1;fill:#252c05;fill-opacity:0.56862745;stroke:#000000;stroke-width:0.27674988;stroke-miterlimit:4;stroke-dasharray:none;stroke-opacity:1" />
                                       <path
                                                     inkscape:connector-curvature="0"
                                                     id="path819-1"
                                                     d="M 329.76726,392.65922 359.93723,383.98409 360.65363,385.07977 331.6894,393.58733 Z"
                                                     style="opacity:1;fill:#252c05;fill-opacity:0.56862745;stroke:#000000;stroke-width:0.27674988;stroke-miterlimit:4;stroke-dasharray:none;stroke-opacity:1" />
                          </g>
             </g>
</svg>
