<?xml version="1.0" encoding="UTF-8" standalone="no"?>
<!-- Created with Inkscape (http://www.inkscape.org/) -->

<svg
              xmlns:dc="http://purl.org/dc/elements/1.1/"
              xmlns:cc="http://creativecommons.org/ns#"
              xmlns:rdf="http://www.w3.org/1999/02/22-rdf-syntax-ns#"
              xmlns:svg="http://www.w3.org/2000/svg"
              xmlns="http://www.w3.org/2000/svg"
              xmlns:sodipodi="http://sodipodi.sourceforge.net/DTD/sodipodi-0.dtd"
              xmlns:inkscape="http://www.inkscape.org/namespaces/inkscape"
              version="1.1"
              id="svg2"
              width="437.54968"
              height="205.8131"
              viewBox="0 0 437.54968 205.81309"
              sodipodi:docname="oryza.sativa_coleoptile.AT_shm.svg"
              inkscape:version="0.92.3 (unknown)">
             <metadata
                           id="metadata8">
                          <rdf:RDF>
                                       <cc:Work
                                                     rdf:about="">
                                                    <dc:format>image/svg+xml</dc:format>
                                                    <dc:type
                                                                  rdf:resource="http://purl.org/dc/dcmitype/StillImage" />
                                                    <dc:title></dc:title>
                                       </cc:Work>
                          </rdf:RDF>
             </metadata>
             <defs
                           id="defs6" />
             <sodipodi:namedview
                           pagecolor="#ffffff"
                           bordercolor="#666666"
                           borderopacity="1"
                           objecttolerance="10"
                           gridtolerance="10"
                           guidetolerance="10"
                           inkscape:pageopacity="0"
                           inkscape:pageshadow="2"
                           inkscape:window-width="1855"
                           inkscape:window-height="1056"
                           id="namedview4"
                           showgrid="false"
                           inkscape:zoom="1.8767396"
                           inkscape:cx="231.72638"
                           inkscape:cy="113.91865"
                           inkscape:window-x="65"
                           inkscape:window-y="24"
                           inkscape:window-maximized="1"
                           inkscape:current-layer="container"
                           fit-margin-top="0"
                           fit-margin-left="0"
                           fit-margin-right="0"
                           fit-margin-bottom="0" />
             <g
                           id="container"
                           transform="translate(-0.09264778,-230.61928)">
                          <path
                                        inkscape:connector-curvature="0"
                                        id="rect1033"
                                        d="M 8.8130821,287.03964 H 40.085332 V 294.95189 H 8.8130821 Z"
                                        style="opacity:1;fill:#3f1d38;fill-opacity:1;fill-rule:evenodd;stroke:#000000;stroke-width:0.2;stroke-miterlimit:4;stroke-dasharray:none;stroke-opacity:1" />
                          <g
                                        transform="translate(-489.87849,269.16418)"
                                        id="text1037"
                                        style="font-style:normal;font-variant:normal;font-weight:normal;font-stretch:normal;font-size:16px;line-height:1.25;font-family:sans-serif;-inkscape-font-specification:'sans-serif, Normal';font-variant-ligatures:normal;font-variant-caps:normal;font-variant-numeric:normal;font-feature-settings:normal;text-align:start;letter-spacing:0px;word-spacing:0px;writing-mode:lr-tb;text-anchor:start;fill:#3f1d38;fill-opacity:1;stroke:#000000;stroke-width:0.2;stroke-miterlimit:4;stroke-dasharray:none;stroke-opacity:1"
                                        aria-label="5mm">
                                       <path
                                                     inkscape:connector-curvature="0"
                                                     id="path1097"
                                                     style="fill:#3f1d38;fill-opacity:1;stroke:#000000;stroke-width:0.2;stroke-miterlimit:4;stroke-dasharray:none;stroke-opacity:1"
                                                     d="M 498.69156,29.787716 H 504.88687 V 31.115841 H 500.13687 V 33.975216 Q 500.48062,33.858028 500.82437,33.803341 501.16812,33.740841 501.51187,33.740841 503.465,33.740841 504.60562,34.811153 505.74625,35.881466 505.74625,37.709591 505.74625,39.592403 504.57437,40.639278 503.4025,41.678341 501.26968,41.678341 500.53531,41.678341 499.76968,41.553341 499.01187,41.428341 498.19937,41.178341 V 39.592403 Q 498.9025,39.975216 499.6525,40.162716 500.4025,40.350216 501.23843,40.350216 502.59,40.350216 503.37906,39.639278 504.16812,38.928341 504.16812,37.709591 504.16812,36.490841 503.37906,35.779903 502.59,35.068966 501.23843,35.068966 500.60562,35.068966 499.97281,35.209591 499.34781,35.350216 498.69156,35.647091 Z" />
                                       <path
                                                     inkscape:connector-curvature="0"
                                                     id="path1099"
                                                     style="fill:#3f1d38;fill-opacity:1;stroke:#000000;stroke-width:0.2;stroke-miterlimit:4;stroke-dasharray:none;stroke-opacity:1"
                                                     d="M 515.47281,34.381466 Q 516.01187,33.412716 516.76187,32.951778 517.51187,32.490841 518.5275,32.490841 519.89468,32.490841 520.63687,33.451778 521.37906,34.404903 521.37906,36.170528 V 41.451778 H 519.93375 V 36.217403 Q 519.93375,34.959591 519.48843,34.350216 519.04312,33.740841 518.12906,33.740841 517.01187,33.740841 516.36343,34.483028 515.715,35.225216 515.715,36.506466 V 41.451778 H 514.26968 V 36.217403 Q 514.26968,34.951778 513.82437,34.350216 513.37906,33.740841 512.44937,33.740841 511.34781,33.740841 510.69937,34.490841 510.05093,35.233028 510.05093,36.506466 V 41.451778 H 508.60562 V 32.701778 H 510.05093 V 34.061153 Q 510.54312,33.256466 511.23062,32.873653 511.91812,32.490841 512.86343,32.490841 513.81656,32.490841 514.48062,32.975216 515.1525,33.459591 515.47281,34.381466 Z" />
                                       <path
                                                     inkscape:connector-curvature="0"
                                                     id="path1101"
                                                     style="fill:#3f1d38;fill-opacity:1;stroke:#000000;stroke-width:0.2;stroke-miterlimit:4;stroke-dasharray:none;stroke-opacity:1"
                                                     d="M 531.06656,34.381466 Q 531.60562,33.412716 532.35562,32.951778 533.10562,32.490841 534.12125,32.490841 535.48843,32.490841 536.23062,33.451778 536.97281,34.404903 536.97281,36.170528 V 41.451778 H 535.5275 V 36.217403 Q 535.5275,34.959591 535.08218,34.350216 534.63687,33.740841 533.72281,33.740841 532.60562,33.740841 531.95718,34.483028 531.30875,35.225216 531.30875,36.506466 V 41.451778 H 529.86343 V 36.217403 Q 529.86343,34.951778 529.41812,34.350216 528.97281,33.740841 528.04312,33.740841 526.94156,33.740841 526.29312,34.490841 525.64468,35.233028 525.64468,36.506466 V 41.451778 H 524.19937 V 32.701778 H 525.64468 V 34.061153 Q 526.13687,33.256466 526.82437,32.873653 527.51187,32.490841 528.45718,32.490841 529.41031,32.490841 530.07437,32.975216 530.74625,33.459591 531.06656,34.381466 Z" />
                          </g>
                          <g
                                        transform="translate(203.96646,87.63191)"
                                        id="text1178"
                                        style="font-style:normal;font-variant:normal;font-weight:normal;font-stretch:normal;font-size:20px;line-height:1.25;font-family:sans-serif;-inkscape-font-specification:'sans-serif, Normal';font-variant-ligatures:normal;font-variant-caps:normal;font-variant-numeric:normal;font-feature-settings:normal;text-align:start;letter-spacing:0px;word-spacing:0px;writing-mode:lr-tb;text-anchor:start;fill:#3f1d38;fill-opacity:1;stroke:#000000;stroke-width:0.2;stroke-miterlimit:4;stroke-dasharray:none;stroke-opacity:1"
                                        aria-label="h: hour">
                                       <path
                                                     inkscape:connector-curvature="0"
                                                     id="path1311"
                                                     style="fill:#3f1d38;fill-opacity:1;stroke:#000000;stroke-width:0.2;stroke-miterlimit:4;stroke-dasharray:none;stroke-opacity:1"
                                                     d="M -187.20659,179.90823 V 186.5098 H -189.00346 V 179.96683 Q -189.00346,178.41409 -189.60893,177.64261 -190.2144,176.87112 -191.42534,176.87112 -192.88042,176.87112 -193.72026,177.79886 -194.5601,178.72659 -194.5601,180.32816 V 186.5098 H -196.36674 V 171.31448 H -194.5601 V 177.27151 Q -193.91557,176.28519 -193.04643,175.79691 -192.16753,175.30862 -191.02495,175.30862 -189.14018,175.30862 -188.17339,176.4805 -187.20659,177.64261 -187.20659,179.90823 Z" />
                                       <path
                                                     inkscape:connector-curvature="0"
                                                     id="path1313"
                                                     style="fill:#3f1d38;fill-opacity:1;stroke:#000000;stroke-width:0.2;stroke-miterlimit:4;stroke-dasharray:none;stroke-opacity:1"
                                                     d="M -183.14409,184.02933 H -181.08354 V 186.5098 H -183.14409 Z M -183.14409,176.168 H -181.08354 V 178.64847 H -183.14409 Z" />
                                       <path
                                                     inkscape:connector-curvature="0"
                                                     id="path1315"
                                                     style="fill:#3f1d38;fill-opacity:1;stroke:#000000;stroke-width:0.2;stroke-miterlimit:4;stroke-dasharray:none;stroke-opacity:1"
                                                     d="M -161.38628,179.90823 V 186.5098 H -163.18315 V 179.96683 Q -163.18315,178.41409 -163.78862,177.64261 -164.39409,176.87112 -165.60503,176.87112 -167.0601,176.87112 -167.89995,177.79886 -168.73979,178.72659 -168.73979,180.32816 V 186.5098 H -170.54643 V 171.31448 H -168.73979 V 177.27151 Q -168.09526,176.28519 -167.22612,175.79691 -166.34721,175.30862 -165.20464,175.30862 -163.31987,175.30862 -162.35307,176.4805 -161.38628,177.64261 -161.38628,179.90823 Z" />
                                       <path
                                                     inkscape:connector-curvature="0"
                                                     id="path1317"
                                                     style="fill:#3f1d38;fill-opacity:1;stroke:#000000;stroke-width:0.2;stroke-miterlimit:4;stroke-dasharray:none;stroke-opacity:1"
                                                     d="M -153.54448,176.83206 Q -154.98979,176.83206 -155.82964,177.96487 -156.66948,179.08792 -156.66948,181.05081 -156.66948,183.0137 -155.8394,184.14651 -154.99956,185.26956 -153.54448,185.26956 -152.10893,185.26956 -151.26909,184.13675 -150.42924,183.00394 -150.42924,181.05081 -150.42924,179.10745 -151.26909,177.97464 -152.10893,176.83206 -153.54448,176.83206 Z M -153.54448,175.30862 Q -151.20073,175.30862 -149.86284,176.83206 -148.52495,178.3555 -148.52495,181.05081 -148.52495,183.73636 -149.86284,185.26956 -151.20073,186.793 -153.54448,186.793 -155.89799,186.793 -157.23589,185.26956 -158.56401,183.73636 -158.56401,181.05081 -158.56401,178.3555 -157.23589,176.83206 -155.89799,175.30862 -153.54448,175.30862 Z" />
                                       <path
                                                     inkscape:connector-curvature="0"
                                                     id="path1319"
                                                     style="fill:#3f1d38;fill-opacity:1;stroke:#000000;stroke-width:0.2;stroke-miterlimit:4;stroke-dasharray:none;stroke-opacity:1"
                                                     d="M -145.74174,182.19339 V 175.5723 H -143.94487 V 182.12503 Q -143.94487,183.67776 -143.3394,184.45901 -142.73393,185.2305 -141.52299,185.2305 -140.06792,185.2305 -139.22807,184.30276 -138.37846,183.37503 -138.37846,181.77347 V 175.5723 H -136.58159 V 186.5098 H -138.37846 V 184.83011 Q -139.03276,185.8262 -139.9019,186.31448 -140.76128,186.793 -141.90385,186.793 -143.78862,186.793 -144.76518,185.62112 -145.74174,184.44925 -145.74174,182.19339 Z M -141.22026,175.30862 Z" />
                                       <path
                                                     inkscape:connector-curvature="0"
                                                     id="path1321"
                                                     style="fill:#3f1d38;fill-opacity:1;stroke:#000000;stroke-width:0.2;stroke-miterlimit:4;stroke-dasharray:none;stroke-opacity:1"
                                                     d="M -126.52299,177.25198 Q -126.82573,177.0762 -127.18706,176.99808 -127.53862,176.91019 -127.96831,176.91019 -129.49174,176.91019 -130.31206,177.90628 -131.1226,178.89261 -131.1226,180.74808 V 186.5098 H -132.92924 V 175.5723 H -131.1226 V 177.27151 Q -130.5562,176.27542 -129.64799,175.79691 -128.73979,175.30862 -127.44096,175.30862 -127.25542,175.30862 -127.03081,175.33792 -126.8062,175.35745 -126.53276,175.40628 Z" />
                          </g>
                          <g
                                        transform="translate(282.36385,-46.84545)"
                                        id="text1186"
                                        style="font-style:normal;font-variant:normal;font-weight:normal;font-stretch:normal;font-size:20px;line-height:1.25;font-family:sans-serif;-inkscape-font-specification:'sans-serif, Normal';font-variant-ligatures:normal;font-variant-caps:normal;font-variant-numeric:normal;font-feature-settings:normal;text-align:start;letter-spacing:0px;word-spacing:0px;writing-mode:lr-tb;text-anchor:start;fill:#3f1d38;fill-opacity:1;stroke:#000000;stroke-width:0.2;stroke-miterlimit:4;stroke-dasharray:none;stroke-opacity:1"
                                        aria-label="A: aerobic">
                                       <path
                                                     inkscape:connector-curvature="0"
                                                     id="path1281"
                                                     style="fill:#3f1d38;fill-opacity:1;stroke:#000000;stroke-width:0.2;stroke-miterlimit:4;stroke-dasharray:none;stroke-opacity:1"
                                                     d="M -270.46979,280.12332 -273.14557,287.37918 H -267.78424 Z M -271.58307,278.17996 H -269.34674 L -263.7901,292.76004 H -265.84088 L -267.16901,289.01981 H -273.74127 L -275.0694,292.76004 H -277.14948 Z" />
                                       <path
                                                     inkscape:connector-curvature="0"
                                                     id="path1283"
                                                     style="fill:#3f1d38;fill-opacity:1;stroke:#000000;stroke-width:0.2;stroke-miterlimit:4;stroke-dasharray:none;stroke-opacity:1"
                                                     d="M -261.64166,290.27957 H -259.58112 V 292.76004 H -261.64166 Z M -261.64166,282.41824 H -259.58112 V 284.89871 H -261.64166 Z" />
                                       <path
                                                     inkscape:connector-curvature="0"
                                                     id="path1285"
                                                     style="fill:#3f1d38;fill-opacity:1;stroke:#000000;stroke-width:0.2;stroke-miterlimit:4;stroke-dasharray:none;stroke-opacity:1"
                                                     d="M -244.00494,287.26199 Q -246.18268,287.26199 -247.02252,287.76004 -247.86237,288.25809 -247.86237,289.45926 -247.86237,290.41629 -247.23737,290.9827 -246.6026,291.53934 -245.51862,291.53934 -244.02448,291.53934 -243.12604,290.48465 -242.21783,289.4202 -242.21783,287.66238 V 287.26199 Z M -240.42096,286.51981 V 292.76004 H -242.21783 V 291.09988 Q -242.83307,292.09598 -243.75104,292.57449 -244.66901,293.04324 -245.99713,293.04324 -247.67682,293.04324 -248.67291,292.10574 -249.65924,291.15848 -249.65924,289.57645 -249.65924,287.73074 -248.42877,286.79324 -247.18854,285.85574 -244.73737,285.85574 H -242.21783 V 285.67996 Q -242.21783,284.43973 -243.03815,283.7659 -243.84869,283.08231 -245.3233,283.08231 -246.2608,283.08231 -247.14948,283.30692 -248.03815,283.53152 -248.85846,283.98074 V 282.32059 Q -247.87213,281.93973 -246.9444,281.75418 -246.01666,281.55887 -245.13776,281.55887 -242.76471,281.55887 -241.59283,282.78934 -240.42096,284.01981 -240.42096,286.51981 Z" />
                                       <path
                                                     inkscape:connector-curvature="0"
                                                     id="path1287"
                                                     style="fill:#3f1d38;fill-opacity:1;stroke:#000000;stroke-width:0.2;stroke-miterlimit:4;stroke-dasharray:none;stroke-opacity:1"
                                                     d="M -227.35455,286.84207 V 287.72098 H -235.61627 Q -235.49908,289.57645 -234.50299,290.55301 -233.49713,291.51981 -231.71002,291.51981 -230.67487,291.51981 -229.70807,291.2659 -228.73151,291.01199 -227.77448,290.50418 V 292.2034 Q -228.74127,292.61356 -229.7569,292.8284 -230.77252,293.04324 -231.81744,293.04324 -234.43463,293.04324 -235.96783,291.51981 -237.49127,289.99637 -237.49127,287.39871 -237.49127,284.71317 -236.04596,283.1409 -234.59088,281.55887 -232.12994,281.55887 -229.92291,281.55887 -228.64362,282.98465 -227.35455,284.40067 -227.35455,286.84207 Z M -229.15143,286.31473 Q -229.17096,284.84012 -229.98151,283.96121 -230.78229,283.08231 -232.11041,283.08231 -233.61432,283.08231 -234.52252,283.93192 -235.42096,284.78152 -235.55768,286.32449 Z" />
                                       <path
                                                     inkscape:connector-curvature="0"
                                                     id="path1289"
                                                     style="fill:#3f1d38;fill-opacity:1;stroke:#000000;stroke-width:0.2;stroke-miterlimit:4;stroke-dasharray:none;stroke-opacity:1"
                                                     d="M -218.06744,283.50223 Q -218.37018,283.32645 -218.73151,283.24832 -219.08307,283.16043 -219.51276,283.16043 -221.03619,283.16043 -221.85651,284.15652 -222.66705,285.14285 -222.66705,286.99832 V 292.76004 H -224.47369 V 281.82254 H -222.66705 V 283.52176 Q -222.10065,282.52567 -221.19244,282.04715 -220.28424,281.55887 -218.98541,281.55887 -218.79987,281.55887 -218.57526,281.58817 -218.35065,281.6077 -218.07721,281.65652 Z" />
                                       <path
                                                     inkscape:connector-curvature="0"
                                                     id="path1291"
                                                     style="fill:#3f1d38;fill-opacity:1;stroke:#000000;stroke-width:0.2;stroke-miterlimit:4;stroke-dasharray:none;stroke-opacity:1"
                                                     d="M -212.35455,283.08231 Q -213.79987,283.08231 -214.63971,284.21512 -215.47955,285.33817 -215.47955,287.30106 -215.47955,289.26395 -214.64948,290.39676 -213.80963,291.51981 -212.35455,291.51981 -210.91901,291.51981 -210.07916,290.38699 -209.23932,289.25418 -209.23932,287.30106 -209.23932,285.3577 -210.07916,284.22488 -210.91901,283.08231 -212.35455,283.08231 Z M -212.35455,281.55887 Q -210.0108,281.55887 -208.67291,283.08231 -207.33502,284.60574 -207.33502,287.30106 -207.33502,289.9866 -208.67291,291.51981 -210.0108,293.04324 -212.35455,293.04324 -214.70807,293.04324 -216.04596,291.51981 -217.37408,289.9866 -217.37408,287.30106 -217.37408,284.60574 -216.04596,283.08231 -214.70807,281.55887 -212.35455,281.55887 Z" />
                                       <path
                                                     inkscape:connector-curvature="0"
                                                     id="path1293"
                                                     style="fill:#3f1d38;fill-opacity:1;stroke:#000000;stroke-width:0.2;stroke-miterlimit:4;stroke-dasharray:none;stroke-opacity:1"
                                                     d="M -196.51471,287.30106 Q -196.51471,285.31863 -197.33502,284.19559 -198.14557,283.06277 -199.57135,283.06277 -200.99713,283.06277 -201.81744,284.19559 -202.62799,285.31863 -202.62799,287.30106 -202.62799,289.28348 -201.81744,290.41629 -200.99713,291.53934 -199.57135,291.53934 -198.14557,291.53934 -197.33502,290.41629 -196.51471,289.28348 -196.51471,287.30106 Z M -202.62799,283.4827 Q -202.06158,282.50613 -201.20221,282.03738 -200.33307,281.55887 -199.1319,281.55887 -197.13971,281.55887 -195.89948,283.1409 -194.64948,284.72293 -194.64948,287.30106 -194.64948,289.87918 -195.89948,291.46121 -197.13971,293.04324 -199.1319,293.04324 -200.33307,293.04324 -201.20221,292.57449 -202.06158,292.09598 -202.62799,291.11942 V 292.76004 H -204.43463 V 277.56473 H -202.62799 Z" />
                                       <path
                                                     inkscape:connector-curvature="0"
                                                     id="path1295"
                                                     style="fill:#3f1d38;fill-opacity:1;stroke:#000000;stroke-width:0.2;stroke-miterlimit:4;stroke-dasharray:none;stroke-opacity:1"
                                                     d="M -191.67096,281.82254 H -189.87408 V 292.76004 H -191.67096 Z M -191.67096,277.56473 H -189.87408 V 279.84012 H -191.67096 Z" />
                                       <path
                                                     inkscape:connector-curvature="0"
                                                     id="path1297"
                                                     style="fill:#3f1d38;fill-opacity:1;stroke:#000000;stroke-width:0.2;stroke-miterlimit:4;stroke-dasharray:none;stroke-opacity:1"
                                                     d="M -178.25299,282.24246 V 283.92215 Q -179.01471,283.50223 -179.78619,283.29715 -180.54791,283.08231 -181.32916,283.08231 -183.07721,283.08231 -184.04401,284.19559 -185.0108,285.2991 -185.0108,287.30106 -185.0108,289.30301 -184.04401,290.41629 -183.07721,291.51981 -181.32916,291.51981 -180.54791,291.51981 -179.78619,291.31473 -179.01471,291.09988 -178.25299,290.67996 V 292.34012 Q -179.00494,292.69168 -179.81549,292.86746 -180.61627,293.04324 -181.52448,293.04324 -183.99518,293.04324 -185.45026,291.49051 -186.90533,289.93777 -186.90533,287.30106 -186.90533,284.62527 -185.44049,283.09207 -183.96588,281.55887 -181.40729,281.55887 -180.57721,281.55887 -179.78619,281.73465 -178.99518,281.90067 -178.25299,282.24246 Z" />
                          </g>
                          <g
                                        transform="translate(449.78579,-94.46609)"
                                        id="text1190"
                                        style="font-style:normal;font-variant:normal;font-weight:normal;font-stretch:normal;font-size:20px;line-height:1.25;font-family:sans-serif;-inkscape-font-specification:'sans-serif, Normal';font-variant-ligatures:normal;font-variant-caps:normal;font-variant-numeric:normal;font-feature-settings:normal;text-align:start;letter-spacing:0px;word-spacing:0px;writing-mode:lr-tb;text-anchor:start;fill:#3f1d38;fill-opacity:1;stroke:#000000;stroke-width:0.2;stroke-miterlimit:4;stroke-dasharray:none;stroke-opacity:1"
                                        aria-label="N: Anaerobic">
                                       <path
                                                     inkscape:connector-curvature="0"
                                                     id="path1258"
                                                     style="fill:#3f1d38;fill-opacity:1;stroke:#000000;stroke-width:0.2;stroke-miterlimit:4;stroke-dasharray:none;stroke-opacity:1"
                                                     d="M -267.0538,326.40707 H -264.39755 L -257.93271,338.60434 V 326.40707 H -256.01865 V 340.98715 H -258.6749 L -265.13974,328.78989 V 340.98715 H -267.0538 Z" />
                                       <path
                                                     inkscape:connector-curvature="0"
                                                     id="path1260"
                                                     style="fill:#3f1d38;fill-opacity:1;stroke:#000000;stroke-width:0.2;stroke-miterlimit:4;stroke-dasharray:none;stroke-opacity:1"
                                                     d="M -251.71201,338.50668 H -249.65146 V 340.98715 H -251.71201 Z M -251.71201,330.64536 H -249.65146 V 333.12582 H -251.71201 Z" />
                                       <path
                                                     inkscape:connector-curvature="0"
                                                     id="path1262"
                                                     style="fill:#3f1d38;fill-opacity:1;stroke:#000000;stroke-width:0.2;stroke-miterlimit:4;stroke-dasharray:none;stroke-opacity:1"
                                                     d="M -234.09482,328.35043 -236.7706,335.60629 H -231.40927 Z M -235.2081,326.40707 H -232.97177 L -227.41513,340.98715 H -229.46591 L -230.79404,337.24692 H -237.3663 L -238.69443,340.98715 H -240.77451 Z" />
                                       <path
                                                     inkscape:connector-curvature="0"
                                                     id="path1264"
                                                     style="fill:#3f1d38;fill-opacity:1;stroke:#000000;stroke-width:0.2;stroke-miterlimit:4;stroke-dasharray:none;stroke-opacity:1"
                                                     d="M -216.28232,334.38559 V 340.98715 H -218.07919 V 334.44418 Q -218.07919,332.89145 -218.68466,332.11996 -219.29013,331.34848 -220.50107,331.34848 -221.95615,331.34848 -222.79599,332.27621 -223.63583,333.20395 -223.63583,334.80551 V 340.98715 H -225.44247 V 330.04965 H -223.63583 V 331.74887 Q -222.9913,330.76254 -222.12216,330.27426 -221.24326,329.78598 -220.10068,329.78598 -218.21591,329.78598 -217.24911,330.95786 -216.28232,332.11996 -216.28232,334.38559 Z" />
                                       <path
                                                     inkscape:connector-curvature="0"
                                                     id="path1266"
                                                     style="fill:#3f1d38;fill-opacity:1;stroke:#000000;stroke-width:0.2;stroke-miterlimit:4;stroke-dasharray:none;stroke-opacity:1"
                                                     d="M -207.7081,335.48911 Q -209.88583,335.48911 -210.72568,335.98715 -211.56552,336.4852 -211.56552,337.68637 -211.56552,338.6434 -210.94052,339.20981 -210.30576,339.76645 -209.22177,339.76645 -207.72763,339.76645 -206.82919,338.71176 -205.92099,337.64731 -205.92099,335.8895 V 335.48911 Z M -204.12411,334.74692 V 340.98715 H -205.92099 V 339.327 Q -206.53622,340.32309 -207.45419,340.80161 -208.37216,341.27036 -209.70029,341.27036 -211.37997,341.27036 -212.37607,340.33286 -213.3624,339.38559 -213.3624,337.80356 -213.3624,335.95786 -212.13193,335.02036 -210.89169,334.08286 -208.44052,334.08286 H -205.92099 V 333.90707 Q -205.92099,332.66684 -206.7413,331.99301 -207.55185,331.30942 -209.02646,331.30942 -209.96396,331.30942 -210.85263,331.53403 -211.7413,331.75864 -212.56161,332.20786 V 330.5477 Q -211.57529,330.16684 -210.64755,329.98129 -209.71982,329.78598 -208.84091,329.78598 -206.46786,329.78598 -205.29599,331.01645 -204.12411,332.24692 -204.12411,334.74692 Z" />
                                       <path
                                                     inkscape:connector-curvature="0"
                                                     id="path1268"
                                                     style="fill:#3f1d38;fill-opacity:1;stroke:#000000;stroke-width:0.2;stroke-miterlimit:4;stroke-dasharray:none;stroke-opacity:1"
                                                     d="M -191.05771,335.06918 V 335.94809 H -199.31943 Q -199.20224,337.80356 -198.20615,338.78012 -197.20029,339.74692 -195.41318,339.74692 -194.37802,339.74692 -193.41122,339.49301 -192.43466,339.23911 -191.47763,338.73129 V 340.43051 Q -192.44443,340.84067 -193.46005,341.05551 -194.47568,341.27036 -195.5206,341.27036 -198.13779,341.27036 -199.67099,339.74692 -201.19443,338.22348 -201.19443,335.62582 -201.19443,332.94028 -199.74911,331.36801 -198.29404,329.78598 -195.8331,329.78598 -193.62607,329.78598 -192.34677,331.21176 -191.05771,332.62778 -191.05771,335.06918 Z M -192.85458,334.54184 Q -192.87411,333.06723 -193.68466,332.18832 -194.48544,331.30942 -195.81357,331.30942 -197.31747,331.30942 -198.22568,332.15903 -199.12411,333.00864 -199.26083,334.55161 Z" />
                                       <path
                                                     inkscape:connector-curvature="0"
                                                     id="path1270"
                                                     style="fill:#3f1d38;fill-opacity:1;stroke:#000000;stroke-width:0.2;stroke-miterlimit:4;stroke-dasharray:none;stroke-opacity:1"
                                                     d="M -181.7706,331.72934 Q -182.07333,331.55356 -182.43466,331.47543 -182.78622,331.38754 -183.21591,331.38754 -184.73935,331.38754 -185.55966,332.38364 -186.37021,333.36996 -186.37021,335.22543 V 340.98715 H -188.17685 V 330.04965 H -186.37021 V 331.74887 Q -185.8038,330.75278 -184.8956,330.27426 -183.9874,329.78598 -182.68857,329.78598 -182.50302,329.78598 -182.27841,329.81528 -182.0538,329.83481 -181.78036,329.88364 Z" />
                                       <path
                                                     inkscape:connector-curvature="0"
                                                     id="path1272"
                                                     style="fill:#3f1d38;fill-opacity:1;stroke:#000000;stroke-width:0.2;stroke-miterlimit:4;stroke-dasharray:none;stroke-opacity:1"
                                                     d="M -176.05771,331.30942 Q -177.50302,331.30942 -178.34286,332.44223 -179.18271,333.56528 -179.18271,335.52817 -179.18271,337.49106 -178.35263,338.62387 -177.51279,339.74692 -176.05771,339.74692 -174.62216,339.74692 -173.78232,338.61411 -172.94247,337.48129 -172.94247,335.52817 -172.94247,333.58481 -173.78232,332.452 -174.62216,331.30942 -176.05771,331.30942 Z M -176.05771,329.78598 Q -173.71396,329.78598 -172.37607,331.30942 -171.03818,332.83286 -171.03818,335.52817 -171.03818,338.21371 -172.37607,339.74692 -173.71396,341.27036 -176.05771,341.27036 -178.41122,341.27036 -179.74911,339.74692 -181.07724,338.21371 -181.07724,335.52817 -181.07724,332.83286 -179.74911,331.30942 -178.41122,329.78598 -176.05771,329.78598 Z" />
                                       <path
                                                     inkscape:connector-curvature="0"
                                                     id="path1274"
                                                     style="fill:#3f1d38;fill-opacity:1;stroke:#000000;stroke-width:0.2;stroke-miterlimit:4;stroke-dasharray:none;stroke-opacity:1"
                                                     d="M -160.21786,335.52817 Q -160.21786,333.54575 -161.03818,332.4227 -161.84872,331.28989 -163.27451,331.28989 -164.70029,331.28989 -165.5206,332.4227 -166.33115,333.54575 -166.33115,335.52817 -166.33115,337.51059 -165.5206,338.6434 -164.70029,339.76645 -163.27451,339.76645 -161.84872,339.76645 -161.03818,338.6434 -160.21786,337.51059 -160.21786,335.52817 Z M -166.33115,331.70981 Q -165.76474,330.73325 -164.90536,330.2645 -164.03622,329.78598 -162.83505,329.78598 -160.84286,329.78598 -159.60263,331.36801 -158.35263,332.95004 -158.35263,335.52817 -158.35263,338.10629 -159.60263,339.68832 -160.84286,341.27036 -162.83505,341.27036 -164.03622,341.27036 -164.90536,340.80161 -165.76474,340.32309 -166.33115,339.34653 V 340.98715 H -168.13779 V 325.79184 H -166.33115 Z" />
                                       <path
                                                     inkscape:connector-curvature="0"
                                                     id="path1276"
                                                     style="fill:#3f1d38;fill-opacity:1;stroke:#000000;stroke-width:0.2;stroke-miterlimit:4;stroke-dasharray:none;stroke-opacity:1"
                                                     d="M -155.37411,330.04965 H -153.57724 V 340.98715 H -155.37411 Z M -155.37411,325.79184 H -153.57724 V 328.06723 H -155.37411 Z" />
                                       <path
                                                     inkscape:connector-curvature="0"
                                                     id="path1278"
                                                     style="fill:#3f1d38;fill-opacity:1;stroke:#000000;stroke-width:0.2;stroke-miterlimit:4;stroke-dasharray:none;stroke-opacity:1"
                                                     d="M -141.95615,330.46957 V 332.14926 Q -142.71786,331.72934 -143.48935,331.52426 -144.25107,331.30942 -145.03232,331.30942 -146.78036,331.30942 -147.74716,332.4227 -148.71396,333.52621 -148.71396,335.52817 -148.71396,337.53012 -147.74716,338.6434 -146.78036,339.74692 -145.03232,339.74692 -144.25107,339.74692 -143.48935,339.54184 -142.71786,339.327 -141.95615,338.90707 V 340.56723 Q -142.7081,340.91879 -143.51865,341.09457 -144.31943,341.27036 -145.22763,341.27036 -147.69833,341.27036 -149.15341,339.71762 -150.60849,338.16489 -150.60849,335.52817 -150.60849,332.85239 -149.14365,331.31918 -147.66904,329.78598 -145.11044,329.78598 -144.28036,329.78598 -143.48935,329.96176 -142.69833,330.12778 -141.95615,330.46957 Z" />
                          </g>
                          <path
                                        inkscape:connector-curvature="0"
                                        id="rect1324"
                                        d="M 119.3652,237.24883 H 148.3768 V 242.52366 H 119.3652 Z"
                                        style="opacity:1;fill:#c25f00;fill-opacity:1;fill-rule:evenodd;stroke:#000000;stroke-width:0.2;stroke-miterlimit:4;stroke-dasharray:none;stroke-opacity:1" />
                          <path
                                        inkscape:transform-center-y="-4.1445146"
                                        inkscape:transform-center-x="0.37677406"
                                        id="rect1324-9"
                                        d="M 314.45166,237.85527 H 343.46326 V 243.13011 H 314.45166 Z"
                                        style="opacity:1;fill:#2e93a2;fill-opacity:1;fill-rule:evenodd;stroke:#000000;stroke-width:0.2;stroke-miterlimit:4;stroke-dasharray:none;stroke-opacity:1"
                                        inkscape:connector-curvature="0" />
                          <path
                                        inkscape:connector-curvature="0"
                                        id="path871-7"
                                        d="M 208.61493,388.85731 H 209.46267 L 210.12202,388.15086 211.62912,386.59666 212.28847,385.27796 212.38267,384.52441 213.3246,384.90118 215.06718,385.18376 216.19751,384.71279 216.80976,383.62957 217.61041,383.1115 217.79879,384.14763 217.7046,385.70183 V 387.35021 L 218.45815,387.82118 219.30589,387.67989 220.10654,387.06763 221.70783,386.97344 222.69686,387.4915 H 225.19299 L 227.73621,386.87925 229.43169,386.97344 230.32653,387.5857 232.11621,387.4915 233.95298,387.82118 235.69556,388.57473 237.29685,389.37537 H 238.75685 L 240.78201,390.17602 H 242.05362 L 243.60782,390.4115 244.54975,391.07086 245.3033,392.10699 245.49169,393.2844 V 393.2844 L 246.10395,393.84957 246.52782,394.22634 246.15104,396.67537 245.06782,397.28763 243.9375,397.52311 243.46653,398.41795 V 399.83085 L 242.94846,400.44311 241.25298,400.39601 239.5104,401.14956 237.76782,401.52634 237.62653,402.18569 225.61686,402.0915 223.16783,401.47924 220.53041,401.19666 219.1175,400.49021 216.95105,399.87795 214.92589,399.26569 213.60718,398.65343 212.00589,397.24053 211.77041,395.59215 V 394.69731 L 210.64009,394.22634 209.55686,393.23731 208.80331,391.77731 208.42654,390.4586 Z"
                                        style="opacity:1;fill:none;fill-opacity:1;fill-rule:evenodd;stroke:#000000;stroke-width:0.2;stroke-miterlimit:4;stroke-dasharray:none;stroke-opacity:1" />
                          <path
                                        inkscape:connector-curvature="0"
                                        id="path875-1"
                                        d="M 254.60652,377.97796 255.64265,378.07215 256.01943,376.18828 257.24394,378.26054 H 258.18588 L 259.03362,377.60118 260.06975,375.71731 260.63491,374.21022 261.95362,374.96377 262.142,376.84764 262.2362,377.88376 H 262.98975 L 266.95852,378.75979 268.55703,377.42769 269.55611,377.09467 268.62364,378.16035 268.29061,378.893 268.0242,379.75886 H 269.55611 L 267.75778,380.69133 266.95852,381.09096 266.35907,381.89022 V 383.22232 L 267.82438,383.55534 H 268.89006 L 270.75499,385.08725 274.01863,386.61917 277.6819,388.95034 280.81233,390.41564 284.60881,393.14644 287.13979,395.74403 288.80492,398.0086 V 401.20563 403.67001 L 287.2064,404.46927 285.14165,405.33514 284.5422,406.201 H 282.74387 L 279.014,406.60063 276.61622,405.20193 271.55425,403.60341 268.69024,402.00489 260.56445,396.80971 256.23513,392.41379 254.63662,389.21676 V 387.41843 L 255.7689,386.68577 255.8355,385.7533 256.36834,385.02065 255.43587,384.48781 254.57001,383.0225 254.50341,380.82454 254.70322,379.02621 Z"
                                        style="opacity:1;fill:none;fill-opacity:1;fill-rule:evenodd;stroke:#000000;stroke-width:0.2;stroke-miterlimit:4;stroke-dasharray:none;stroke-opacity:1" />
                          <path
                                        inkscape:connector-curvature="0"
                                        id="path881-9"
                                        d="M 301.19342,389.7496 301.65966,387.35182 302.39231,386.68577 303.85762,385.55349 303.52459,383.55534 304.65688,383.42213 305.32292,383.68855 305.45613,384.88744 H 306.92144 L 307.38768,384.62102 311.45057,385.88651 311.7836,386.15293 311.11755,387.48503 V 388.61731 H 312.91588 L 317.64483,389.01694 324.70494,390.88188 329.70031,393.8791 333.36358,397.87539 335.0287,402.0715 V 403.73662 L 334.09623,405.26853 331.0324,407.26668 327.36914,408.9318 323.03982,409.06501 318.04445,407.46649 312.91588,405.93458 305.78916,401.93829 302.39231,398.60804 302.05929,396.54329 302.19249,394.74496 302.65873,393.61268 302.79194,392.28058 301.12682,390.34904 Z"
                                        style="opacity:1;fill:none;fill-opacity:1;fill-rule:evenodd;stroke:#000000;stroke-width:0.2;stroke-miterlimit:4;stroke-dasharray:none;stroke-opacity:1" />
                          <path
                                        sodipodi:nodetypes="ccccccccccccccccccccccccccccccccccccccccccccccccccccccc"
                                        inkscape:connector-curvature="0"
                                        id="path887-6"
                                        d="M 371.1341,425.51085 H 366.07213 L 365.47269,426.37671 H 361.94263 L 360.47732,425.31104 357.81313,421.38135 356.94726,418.91697 355.28214,414.65426 354.01665,410.79117 352.81776,407.0613 351.81869,404.13069 351.28585,400.201 V 397.80322 L 351.35245,396.80415 351.9519,396.40452 353.15078,397.27039 356.01479,398.60248 359.21183,399.40174 368.3367,402.39896 373.26546,403.26482 378.92687,404.06408 H 384.12205 L 388.38476,403.33143 390.58272,401.5331 V 400.73384 L 389.18402,397.73662 384.32186,394.13996 376.6623,390.87632 370.26824,389.47761 361.67621,389.2778 359.22713,388.46182 357.06068,387.70828 355.93036,387.3315 354.80004,388.36763 353.10455,389.02698 350.65552,390.2515 349.14843,391.6644 348.20649,393.1715 V 394.96118 L 348.48907,397.03343 348.96004,401.74311 350.37294,406.82956 352.06843,410.50311 353.76391,416.24891 356.01479,421.58116 357.34689,424.04554 359.87788,427.24258 361.67621,427.64221 H 364.54022 366.60497 L 368.66972,426.97616 H 370.60126 L 371.0675,426.50992 371.2007,425.77727 Z"
                                        style="opacity:1;fill:none;fill-opacity:1;fill-rule:evenodd;stroke:#000000;stroke-width:0.2;stroke-miterlimit:4;stroke-dasharray:none;stroke-opacity:1" />
                          <path
                                        sodipodi:nodetypes="cccccccccccccccccccccccccccccccccccccccccccccccccccccc"
                                        inkscape:connector-curvature="0"
                                        id="coleoptile72N24A"
                                        d="M 357.06068,387.70828 358.07954,385.74774 359.74467,383.28336 361.74281,380.95219 364.2738,378.68763 366.00552,377.28892 367.53744,375.15757 368.46991,372.49337 371.00089,366.16591 373.26546,357.64049 374.66416,346.9171 377.06193,327.7349 377.86119,314.1475 378.59385,296.96345 V 292.56752 L 377.9278,288.83765 376.99533,285.30759 375.13039,280.71186 373.26546,276.91538 371.60033,272.71927 369.7354,267.92372 368.07028,263.5944 366.67157,259.79793 365.40608,256.00145 364.60682,251.13929 364.74003,246.27714 365.33948,241.48159 365.80571,238.48437 367.13781,250.47324 368.07028,254.53614 368.60311,257.79978 369.33577,260.66379 370.66787,263.92743 373.8649,269.92187 375.33021,273.51853 377.32835,278.11427 379.12668,281.57772 379.92594,284.70815 380.39218,287.57216 381.19144,291.76827 381.45786,297.09666 381.72427,308.95232 381.59107,327.00224 381.25804,332.46384 379.85934,342.92081 378.39403,354.24364 376.72891,363.16869 375.2636,369.96239 372.13317,377.15571 369.06935,381.61824 366.67157,384.41564 364.60682,386.34719 361.67621,389.2778 357.06068,387.70828"
                                        style="opacity:1;fill:none;fill-opacity:1;fill-rule:evenodd;stroke:#000000;stroke-width:0.40000001;stroke-miterlimit:4;stroke-dasharray:none;stroke-opacity:1" />
                          <path
                                        inkscape:transform-center-y="-3.5669133"
                                        inkscape:transform-center-x="3.9196692"
                                        id="rect1324-9-8-1"
                                        d="M 40.58964,430.9055 H 342.40408 V 435.44522 H 40.58964 Z"
                                        style="opacity:1;fill:#2e93a2;fill-opacity:1;fill-rule:evenodd;stroke:#000000;stroke-width:0.2;stroke-miterlimit:4;stroke-dasharray:none;stroke-opacity:1"
                                        inkscape:connector-curvature="0" />
                          <path
                                        inkscape:connector-curvature="0"
                                        id="rect1324-46-7"
                                        d="M 392.19254,430.97837 H 409.82726 V 436.33237 H 392.19254 Z"
                                        style="opacity:1;fill:#c25f00;fill-opacity:1;fill-rule:evenodd;stroke:#000000;stroke-width:0.2;stroke-miterlimit:4;stroke-dasharray:none;stroke-opacity:1" />
                          <path
                                        inkscape:transform-center-y="-4.0997725"
                                        inkscape:transform-center-x="0.52452769"
                                        id="rect1324-9-9-7"
                                        d="M 351.95154,431.04642 H 392.34025 V 436.26432 H 351.95154 Z"
                                        style="opacity:1;fill:#2e93a2;fill-opacity:1;fill-rule:evenodd;stroke:#000000;stroke-width:0.2;stroke-miterlimit:4;stroke-dasharray:none;stroke-opacity:1"
                                        inkscape:connector-curvature="0" />
                          <g
                                        transform="translate(-454.90783,-73.666856)"
                                        id="text2357"
                                        style="font-style:normal;font-variant:normal;font-weight:normal;font-stretch:normal;font-size:16px;line-height:1.25;font-family:sans-serif;-inkscape-font-specification:'sans-serif, Normal';font-variant-ligatures:normal;font-variant-caps:normal;font-variant-numeric:normal;font-feature-settings:normal;text-align:start;letter-spacing:0px;word-spacing:0px;writing-mode:lr-tb;text-anchor:start;fill:#000000;fill-opacity:1;stroke:#000000;stroke-width:0.2;stroke-miterlimit:4;stroke-dasharray:none;stroke-opacity:1"
                                        aria-label="0h">
                                       <path
                                                     inkscape:connector-curvature="0"
                                                     id="path2467"
                                                     d="M 465.45883,485.98093 Q 464.24008,485.98093 463.62289,487.18405 463.01352,488.37936 463.01352,490.78561 463.01352,493.18405 463.62289,494.38718 464.24008,495.58249 465.45883,495.58249 466.68539,495.58249 467.29477,494.38718 467.91196,493.18405 467.91196,490.78561 467.91196,488.37936 467.29477,487.18405 466.68539,485.98093 465.45883,485.98093 Z M 465.45883,484.73093 Q 467.41977,484.73093 468.45102,486.28561 469.49008,487.83249 469.49008,490.78561 469.49008,493.73093 468.45102,495.28561 467.41977,496.83249 465.45883,496.83249 463.49789,496.83249 462.45883,495.28561 461.42758,493.73093 461.42758,490.78561 461.42758,487.83249 462.45883,486.28561 463.49789,484.73093 465.45883,484.73093 Z"
                                                     style="stroke:#000000;stroke-width:0.2;stroke-miterlimit:4;stroke-dasharray:none;stroke-opacity:1" />
                                       <path
                                                     inkscape:connector-curvature="0"
                                                     id="path2469"
                                                     d="M 479.34164,491.32468 V 496.60593 H 477.90414 V 491.37155 Q 477.90414,490.12936 477.41977,489.51218 476.93539,488.89499 475.96664,488.89499 474.80258,488.89499 474.13071,489.63718 473.45883,490.37936 473.45883,491.66061 V 496.60593 H 472.01352 V 484.44968 H 473.45883 V 489.2153 Q 473.97446,488.42624 474.66977,488.03561 475.37289,487.64499 476.28696,487.64499 477.79477,487.64499 478.56821,488.58249 479.34164,489.51218 479.34164,491.32468 Z"
                                                     style="stroke:#000000;stroke-width:0.2;stroke-miterlimit:4;stroke-dasharray:none;stroke-opacity:1" />
                          </g>
                          <g
                                        transform="translate(-448.90783,-75.666856)"
                                        id="text2361"
                                        style="font-style:normal;font-variant:normal;font-weight:normal;font-stretch:normal;font-size:16px;line-height:1.25;font-family:sans-serif;-inkscape-font-specification:'sans-serif, Normal';font-variant-ligatures:normal;font-variant-caps:normal;font-variant-numeric:normal;font-feature-settings:normal;text-align:start;letter-spacing:0px;word-spacing:0px;writing-mode:lr-tb;text-anchor:start;fill:#000000;fill-opacity:1;stroke:#000000;stroke-width:0.2;stroke-miterlimit:4;stroke-dasharray:none;stroke-opacity:1"
                                        aria-label="1hN">
                                       <path
                                                     inkscape:connector-curvature="0"
                                                     id="path2460"
                                                     d="M 488.99921,497.94199 H 491.57733 V 489.04355 L 488.77264,489.60605 V 488.16855 L 491.56171,487.60605 H 493.13983 V 497.94199 H 495.71796 V 499.27011 H 488.99921 Z"
                                                     style="stroke:#000000;stroke-width:0.2;stroke-miterlimit:4;stroke-dasharray:none;stroke-opacity:1" />
                                       <path
                                                     inkscape:connector-curvature="0"
                                                     id="path2462"
                                                     d="M 505.98358,493.98886 V 499.27011 H 504.54608 V 494.03574 Q 504.54608,492.79355 504.06171,492.17636 503.57733,491.55917 502.60858,491.55917 501.44452,491.55917 500.77264,492.30136 500.10077,493.04355 500.10077,494.3248 V 499.27011 H 498.65546 V 487.11386 H 500.10077 V 491.87949 Q 500.61639,491.09042 501.31171,490.6998 502.01483,490.30917 502.92889,490.30917 504.43671,490.30917 505.21014,491.24667 505.98358,492.17636 505.98358,493.98886 Z"
                                                     style="stroke:#000000;stroke-width:0.2;stroke-miterlimit:4;stroke-dasharray:none;stroke-opacity:1" />
                                       <path
                                                     inkscape:connector-curvature="0"
                                                     id="path2464"
                                                     d="M 508.92889,487.60605 H 511.05389 L 516.22577,497.36386 V 487.60605 H 517.75702 V 499.27011 H 515.63202 L 510.46014,489.5123 V 499.27011 H 508.92889 Z"
                                                     style="stroke:#000000;stroke-width:0.2;stroke-miterlimit:4;stroke-dasharray:none;stroke-opacity:1" />
                          </g>
                          <g
                                        transform="translate(-455.70338,-76.958166)"
                                        id="text2365"
                                        style="font-style:normal;font-variant:normal;font-weight:normal;font-stretch:normal;font-size:16px;line-height:1.25;font-family:sans-serif;-inkscape-font-specification:'sans-serif, Normal';font-variant-ligatures:normal;font-variant-caps:normal;font-variant-numeric:normal;font-feature-settings:normal;text-align:start;letter-spacing:0px;word-spacing:0px;writing-mode:lr-tb;text-anchor:start;fill:#000000;fill-opacity:1;stroke:#000000;stroke-width:0.2;stroke-miterlimit:4;stroke-dasharray:none;stroke-opacity:1"
                                        aria-label="3hN">
                                       <path
                                                     inkscape:connector-curvature="0"
                                                     id="path2453"
                                                     d="M 539.33118,493.51392 Q 540.46399,493.7561 541.0968,494.52173 541.73743,495.28735 541.73743,496.41235 541.73743,498.13892 540.54993,499.08423 539.36243,500.02954 537.17493,500.02954 536.44055,500.02954 535.6593,499.8811 534.88586,499.74048 534.05774,499.45142 V 497.92798 Q 534.71399,498.31079 535.49524,498.5061 536.27649,498.70142 537.12805,498.70142 538.61243,498.70142 539.38586,498.11548 540.16711,497.52954 540.16711,496.41235 540.16711,495.3811 539.44055,494.80298 538.7218,494.21704 537.43274,494.21704 H 536.07336 V 492.92017 H 537.49524 Q 538.6593,492.92017 539.27649,492.45923 539.89368,491.99048 539.89368,491.11548 539.89368,490.21704 539.25305,489.74048 538.62024,489.2561 537.43274,489.2561 536.7843,489.2561 536.04211,489.39673 535.29993,489.53735 534.4093,489.83423 V 488.42798 Q 535.30774,488.17798 536.08899,488.05298 536.87805,487.92798 537.57336,487.92798 539.37024,487.92798 540.41711,488.74829 541.46399,489.56079 541.46399,490.95142 541.46399,491.92017 540.9093,492.59204 540.35461,493.2561 539.33118,493.51392 Z"
                                                     style="stroke:#000000;stroke-width:0.2;stroke-miterlimit:4;stroke-dasharray:none;stroke-opacity:1" />
                                       <path
                                                     inkscape:connector-curvature="0"
                                                     id="path2455"
                                                     d="M 551.80774,494.52173 V 499.80298 H 550.37024 V 494.5686 Q 550.37024,493.32642 549.88586,492.70923 549.40149,492.09204 548.43274,492.09204 547.26868,492.09204 546.5968,492.83423 545.92493,493.57642 545.92493,494.85767 V 499.80298 H 544.47961 V 487.64673 H 545.92493 V 492.41235 Q 546.44055,491.62329 547.13586,491.23267 547.83899,490.84204 548.75305,490.84204 550.26086,490.84204 551.0343,491.77954 551.80774,492.70923 551.80774,494.52173 Z"
                                                     style="stroke:#000000;stroke-width:0.2;stroke-miterlimit:4;stroke-dasharray:none;stroke-opacity:1" />
                                       <path
                                                     inkscape:connector-curvature="0"
                                                     id="path2457"
                                                     d="M 554.75305,488.13892 H 556.87805 L 562.04993,497.89673 V 488.13892 H 563.58118 V 499.80298 H 561.45618 L 556.2843,490.04517 V 499.80298 H 554.75305 Z"
                                                     style="stroke:#000000;stroke-width:0.2;stroke-miterlimit:4;stroke-dasharray:none;stroke-opacity:1" />
                          </g>
                          <g
                                        transform="translate(-463.29448,-76.023846)"
                                        id="text2369"
                                        style="font-style:normal;font-variant:normal;font-weight:normal;font-stretch:normal;font-size:16px;line-height:1.25;font-family:sans-serif;-inkscape-font-specification:'sans-serif, Normal';font-variant-ligatures:normal;font-variant-caps:normal;font-variant-numeric:normal;font-feature-settings:normal;text-align:start;letter-spacing:0px;word-spacing:0px;writing-mode:lr-tb;text-anchor:start;fill:#000000;fill-opacity:1;stroke:#000000;stroke-width:0.2;stroke-miterlimit:4;stroke-dasharray:none;stroke-opacity:1"
                                        aria-label="12hN">
                                       <path
                                                     inkscape:connector-curvature="0"
                                                     id="path2444"
                                                     d="M 580.64752,499.00769 H 583.22565 V 490.10925 L 580.42096,490.67175 V 489.23425 L 583.21002,488.67175 H 584.78815 V 499.00769 H 587.36627 V 500.33582 H 580.64752 Z"
                                                     style="stroke:#000000;stroke-width:0.2;stroke-miterlimit:4;stroke-dasharray:none;stroke-opacity:1" />
                                       <path
                                                     inkscape:connector-curvature="0"
                                                     id="path2446"
                                                     d="M 591.92096,499.00769 H 597.42877 V 500.33582 H 590.02252 V 499.00769 Q 590.92096,498.078 592.46783,496.5155 594.02252,494.94519 594.42096,494.49207 595.17877,493.6405 595.47565,493.05457 595.78033,492.46082 595.78033,491.8905 595.78033,490.96082 595.12408,490.37488 594.47565,489.78894 593.42877,489.78894 592.68658,489.78894 591.85846,490.04675 591.03815,490.30457 590.10065,490.828 V 489.23425 Q 591.05377,488.85144 591.8819,488.65613 592.71002,488.46082 593.39752,488.46082 595.21002,488.46082 596.28815,489.36707 597.36627,490.27332 597.36627,491.78894 597.36627,492.50769 597.09283,493.15613 596.82721,493.79675 596.11627,494.67175 595.92096,494.89832 594.87408,495.98425 593.82721,497.06238 591.92096,499.00769 Z"
                                                     style="stroke:#000000;stroke-width:0.2;stroke-miterlimit:4;stroke-dasharray:none;stroke-opacity:1" />
                                       <path
                                                     inkscape:connector-curvature="0"
                                                     id="path2448"
                                                     d="M 607.8194,495.05457 V 500.33582 H 606.3819 V 495.10144 Q 606.3819,493.85925 605.89752,493.24207 605.41315,492.62488 604.4444,492.62488 603.28033,492.62488 602.60846,493.36707 601.93658,494.10925 601.93658,495.3905 V 500.33582 H 600.49127 V 488.17957 H 601.93658 V 492.94519 Q 602.45221,492.15613 603.14752,491.7655 603.85065,491.37488 604.76471,491.37488 606.27252,491.37488 607.04596,492.31238 607.8194,493.24207 607.8194,495.05457 Z"
                                                     style="stroke:#000000;stroke-width:0.2;stroke-miterlimit:4;stroke-dasharray:none;stroke-opacity:1" />
                                       <path
                                                     inkscape:connector-curvature="0"
                                                     id="path2450"
                                                     d="M 610.76471,488.67175 H 612.88971 L 618.06158,498.42957 V 488.67175 H 619.59283 V 500.33582 H 617.46783 L 612.29596,490.578 V 500.33582 H 610.76471 Z"
                                                     style="stroke:#000000;stroke-width:0.2;stroke-miterlimit:4;stroke-dasharray:none;stroke-opacity:1" />
                          </g>
                          <g
                                        transform="translate(-481.00952,-77.622366)"
                                        id="text2373"
                                        style="font-style:normal;font-variant:normal;font-weight:normal;font-stretch:normal;font-size:16px;line-height:1.25;font-family:sans-serif;-inkscape-font-specification:'sans-serif, Normal';font-variant-ligatures:normal;font-variant-caps:normal;font-variant-numeric:normal;font-feature-settings:normal;text-align:start;letter-spacing:0px;word-spacing:0px;writing-mode:lr-tb;text-anchor:start;fill:#000000;fill-opacity:1;stroke:#000000;stroke-width:0.2;stroke-miterlimit:4;stroke-dasharray:none;stroke-opacity:1"
                                        aria-label="24hN">
                                       <path
                                                     inkscape:connector-curvature="0"
                                                     id="path2435"
                                                     d="M 647.27264,500.07336 H 652.78046 V 501.40149 H 645.37421 V 500.07336 Q 646.27264,499.14368 647.81952,497.58118 649.37421,496.01086 649.77264,495.55774 650.53046,494.70618 650.82733,494.12024 651.13202,493.52649 651.13202,492.95618 651.13202,492.02649 650.47577,491.44055 649.82733,490.85461 648.78046,490.85461 648.03827,490.85461 647.21014,491.11243 646.38983,491.37024 645.45233,491.89368 V 490.29993 Q 646.40546,489.91711 647.23358,489.7218 648.06171,489.52649 648.74921,489.52649 650.56171,489.52649 651.63983,490.43274 652.71796,491.33899 652.71796,492.85461 652.71796,493.57336 652.44452,494.2218 652.17889,494.86243 651.46796,495.73743 651.27264,495.96399 650.22577,497.04993 649.17889,498.12805 647.27264,500.07336 Z"
                                                     style="stroke:#000000;stroke-width:0.2;stroke-miterlimit:4;stroke-dasharray:none;stroke-opacity:1" />
                                       <path
                                                     inkscape:connector-curvature="0"
                                                     id="path2437"
                                                     d="M 660.43671,491.11243 656.45233,497.33899 H 660.43671 Z M 660.02264,489.73743 H 662.00702 V 497.33899 H 663.67108 V 498.65149 H 662.00702 V 501.40149 H 660.43671 V 498.65149 H 655.17108 V 497.12805 Z"
                                                     style="stroke:#000000;stroke-width:0.2;stroke-miterlimit:4;stroke-dasharray:none;stroke-opacity:1" />
                                       <path
                                                     inkscape:connector-curvature="0"
                                                     id="path2439"
                                                     d="M 673.35858,496.12024 V 501.40149 H 671.92108 V 496.16711 Q 671.92108,494.92493 671.43671,494.30774 670.95233,493.69055 669.98358,493.69055 668.81952,493.69055 668.14764,494.43274 667.47577,495.17493 667.47577,496.45618 V 501.40149 H 666.03046 V 489.24524 H 667.47577 V 494.01086 Q 667.99139,493.2218 668.68671,492.83118 669.38983,492.44055 670.30389,492.44055 671.81171,492.44055 672.58514,493.37805 673.35858,494.30774 673.35858,496.12024 Z"
                                                     style="stroke:#000000;stroke-width:0.2;stroke-miterlimit:4;stroke-dasharray:none;stroke-opacity:1" />
                                       <path
                                                     inkscape:connector-curvature="0"
                                                     id="path2441"
                                                     d="M 676.30389,489.73743 H 678.42889 L 683.60077,499.49524 V 489.73743 H 685.13202 V 501.40149 H 683.00702 L 677.83514,491.64368 V 501.40149 H 676.30389 Z"
                                                     style="stroke:#000000;stroke-width:0.2;stroke-miterlimit:4;stroke-dasharray:none;stroke-opacity:1" />
                          </g>
                          <g
                                        transform="translate(-489.93643,-79.220876)"
                                        id="text2377"
                                        style="font-style:normal;font-variant:normal;font-weight:normal;font-stretch:normal;font-size:16px;line-height:1.25;font-family:sans-serif;-inkscape-font-specification:'sans-serif, Normal';font-variant-ligatures:normal;font-variant-caps:normal;font-variant-numeric:normal;font-feature-settings:normal;text-align:start;letter-spacing:0px;word-spacing:0px;writing-mode:lr-tb;text-anchor:start;fill:#000000;fill-opacity:1;stroke:#000000;stroke-width:0.2;stroke-miterlimit:4;stroke-dasharray:none;stroke-opacity:1"
                                        aria-label="48hN">
                                       <path
                                                     inkscape:connector-curvature="0"
                                                     id="path2426"
                                                     d="M 706.19733,491.64523 702.21295,497.8718 H 706.19733 Z M 705.78326,490.27023 H 707.76764 V 497.8718 H 709.4317 V 499.1843 H 707.76764 V 501.9343 H 706.19733 V 499.1843 H 700.9317 V 497.66086 Z"
                                                     style="stroke:#000000;stroke-width:0.2;stroke-miterlimit:4;stroke-dasharray:none;stroke-opacity:1" />
                                       <path
                                                     inkscape:connector-curvature="0"
                                                     id="path2428"
                                                     d="M 715.42389,496.39523 Q 714.29889,496.39523 713.65045,496.9968 713.00983,497.59836 713.00983,498.65305 713.00983,499.70773 713.65045,500.3093 714.29889,500.91086 715.42389,500.91086 716.54889,500.91086 717.19733,500.3093 717.84576,499.69992 717.84576,498.65305 717.84576,497.59836 717.19733,496.9968 716.5567,496.39523 715.42389,496.39523 Z M 713.84576,495.72336 Q 712.83014,495.47336 712.25983,494.77805 711.69733,494.08273 711.69733,493.08273 711.69733,491.6843 712.68951,490.8718 713.68951,490.0593 715.42389,490.0593 717.16608,490.0593 718.15826,490.8718 719.15045,491.6843 719.15045,493.08273 719.15045,494.08273 718.58014,494.77805 718.01764,495.47336 717.00983,495.72336 718.15045,495.98898 718.78326,496.76242 719.42389,497.53586 719.42389,498.65305 719.42389,500.34836 718.38483,501.25461 717.35358,502.16086 715.42389,502.16086 713.4942,502.16086 712.45514,501.25461 711.42389,500.34836 711.42389,498.65305 711.42389,497.53586 712.06451,496.76242 712.70514,495.98898 713.84576,495.72336 Z M 713.26764,493.23117 Q 713.26764,494.13742 713.83014,494.64523 714.40045,495.15305 715.42389,495.15305 716.43951,495.15305 717.00983,494.64523 717.58795,494.13742 717.58795,493.23117 717.58795,492.32492 717.00983,491.81711 716.43951,491.3093 715.42389,491.3093 714.40045,491.3093 713.83014,491.81711 713.26764,492.32492 713.26764,493.23117 Z"
                                                     style="stroke:#000000;stroke-width:0.2;stroke-miterlimit:4;stroke-dasharray:none;stroke-opacity:1" />
                                       <path
                                                     inkscape:connector-curvature="0"
                                                     id="path2430"
                                                     d="M 729.3067,496.65305 V 501.9343 H 727.8692 V 496.69992 Q 727.8692,495.45773 727.38483,494.84055 726.90045,494.22336 725.9317,494.22336 724.76764,494.22336 724.09576,494.96555 723.42389,495.70773 723.42389,496.98898 V 501.9343 H 721.97858 V 489.77805 H 723.42389 V 494.54367 Q 723.93951,493.75461 724.63483,493.36398 725.33795,492.97336 726.25201,492.97336 727.75983,492.97336 728.53326,493.91086 729.3067,494.84055 729.3067,496.65305 Z"
                                                     style="stroke:#000000;stroke-width:0.2;stroke-miterlimit:4;stroke-dasharray:none;stroke-opacity:1" />
                                       <path
                                                     inkscape:connector-curvature="0"
                                                     id="path2432"
                                                     d="M 732.25201,490.27023 H 734.37701 L 739.54889,500.02805 V 490.27023 H 741.08014 V 501.9343 H 738.95514 L 733.78326,492.17648 V 501.9343 H 732.25201 Z"
                                                     style="stroke:#000000;stroke-width:0.2;stroke-miterlimit:4;stroke-dasharray:none;stroke-opacity:1" />
                          </g>
                          <g
                                        transform="translate(-505.9216,-79.622366)"
                                        id="text2381"
                                        style="font-style:normal;font-variant:normal;font-weight:normal;font-stretch:normal;font-size:16px;line-height:1.25;font-family:sans-serif;-inkscape-font-specification:'sans-serif, Normal';font-variant-ligatures:normal;font-variant-caps:normal;font-variant-numeric:normal;font-feature-settings:normal;text-align:start;letter-spacing:0px;word-spacing:0px;writing-mode:lr-tb;text-anchor:start;fill:#000000;fill-opacity:1;stroke:#000000;stroke-width:0.2;stroke-miterlimit:4;stroke-dasharray:none;stroke-opacity:1"
                                        aria-label="72hN">
                                       <path
                                                     inkscape:connector-curvature="0"
                                                     id="path2417"
                                                     d="M 764.33789,490.8031 H 771.83789 V 491.47498 L 767.60352,502.46716 H 765.95508 L 769.93945,492.13123 H 764.33789 Z"
                                                     style="stroke:#000000;stroke-width:0.2;stroke-miterlimit:4;stroke-dasharray:none;stroke-opacity:1" />
                                       <path
                                                     inkscape:connector-curvature="0"
                                                     id="path2419"
                                                     d="M 776.2832,501.13904 H 781.79102 V 502.46716 H 774.38477 V 501.13904 Q 775.2832,500.20935 776.83008,498.64685 778.38477,497.07654 778.7832,496.62341 779.54102,495.77185 779.83789,495.18591 780.14258,494.59216 780.14258,494.02185 780.14258,493.09216 779.48633,492.50623 778.83789,491.92029 777.79102,491.92029 777.04883,491.92029 776.2207,492.1781 775.40039,492.43591 774.46289,492.95935 V 491.3656 Q 775.41602,490.98279 776.24414,490.78748 777.07227,490.59216 777.75977,490.59216 779.57227,490.59216 780.65039,491.49841 781.72852,492.40466 781.72852,493.92029 781.72852,494.63904 781.45508,495.28748 781.18945,495.9281 780.47852,496.8031 780.2832,497.02966 779.23633,498.1156 778.18945,499.19373 776.2832,501.13904 Z"
                                                     style="stroke:#000000;stroke-width:0.2;stroke-miterlimit:4;stroke-dasharray:none;stroke-opacity:1" />
                                       <path
                                                     inkscape:connector-curvature="0"
                                                     id="path2421"
                                                     d="M 792.18164,497.18591 V 502.46716 H 790.74414 V 497.23279 Q 790.74414,495.9906 790.25977,495.37341 789.77539,494.75623 788.80664,494.75623 787.64258,494.75623 786.9707,495.49841 786.29883,496.2406 786.29883,497.52185 V 502.46716 H 784.85352 V 490.31091 H 786.29883 V 495.07654 Q 786.81445,494.28748 787.50977,493.89685 788.21289,493.50623 789.12695,493.50623 790.63477,493.50623 791.4082,494.44373 792.18164,495.37341 792.18164,497.18591 Z"
                                                     style="stroke:#000000;stroke-width:0.2;stroke-miterlimit:4;stroke-dasharray:none;stroke-opacity:1" />
                                       <path
                                                     inkscape:connector-curvature="0"
                                                     id="path2423"
                                                     d="M 795.12695,490.8031 H 797.25195 L 802.42383,500.56091 V 490.8031 H 803.95508 V 502.46716 H 801.83008 L 796.6582,492.70935 V 502.46716 H 795.12695 Z"
                                                     style="stroke:#000000;stroke-width:0.2;stroke-miterlimit:4;stroke-dasharray:none;stroke-opacity:1" />
                          </g>
                          <g
                                        transform="translate(-517.06815,-79.995896)"
                                        id="text2385"
                                        style="font-style:normal;font-variant:normal;font-weight:normal;font-stretch:normal;font-size:16px;line-height:1.25;font-family:sans-serif;-inkscape-font-specification:'sans-serif, Normal';font-variant-ligatures:normal;font-variant-caps:normal;font-variant-numeric:normal;font-feature-settings:normal;text-align:start;letter-spacing:0px;word-spacing:0px;writing-mode:lr-tb;text-anchor:start;fill:#000000;fill-opacity:1;stroke:#000000;stroke-width:0.2;stroke-miterlimit:4;stroke-dasharray:none;stroke-opacity:1"
                                        aria-label="96hN">
                                       <path
                                                     inkscape:connector-curvature="0"
                                                     id="path2408"
                                                     d="M 821.26422,502.22498 V 500.78748 Q 821.85797,501.06873 822.46735,501.21716 823.07672,501.3656 823.66266,501.3656 825.22516,501.3656 826.04547,500.31873 826.8736,499.26404 826.99078,497.12341 826.53766,497.79529 825.84235,498.15466 825.14703,498.51404 824.30328,498.51404 822.55328,498.51404 821.52985,497.45935 820.51422,496.39685 820.51422,494.56091 820.51422,492.76404 821.57672,491.6781 822.63922,490.59216 824.40485,490.59216 826.42828,490.59216 827.49078,492.14685 828.5611,493.69373 828.5611,496.64685 828.5611,499.40466 827.2486,501.0531 825.94391,502.69373 823.73297,502.69373 823.13922,502.69373 822.52985,502.57654 821.92047,502.45935 821.26422,502.22498 Z M 824.40485,497.27966 Q 825.46735,497.27966 826.08453,496.5531 826.70953,495.82654 826.70953,494.56091 826.70953,493.3031 826.08453,492.57654 825.46735,491.84216 824.40485,491.84216 823.34235,491.84216 822.71735,492.57654 822.10016,493.3031 822.10016,494.56091 822.10016,495.82654 822.71735,496.5531 823.34235,497.27966 824.40485,497.27966 Z"
                                                     style="stroke:#000000;stroke-width:0.2;stroke-miterlimit:4;stroke-dasharray:none;stroke-opacity:1" />
                                       <path
                                                     inkscape:connector-curvature="0"
                                                     id="path2410"
                                                     d="M 834.97516,496.00623 Q 833.91266,496.00623 833.28766,496.73279 832.67047,497.45935 832.67047,498.72498 832.67047,499.98279 833.28766,500.71716 833.91266,501.44373 834.97516,501.44373 836.03766,501.44373 836.65485,500.71716 837.27985,499.98279 837.27985,498.72498 837.27985,497.45935 836.65485,496.73279 836.03766,496.00623 834.97516,496.00623 Z M 838.10797,491.06091 V 492.49841 Q 837.51422,492.21716 836.90485,492.06873 836.30328,491.92029 835.70953,491.92029 834.14703,491.92029 833.31891,492.97498 832.4986,494.02966 832.38141,496.16248 832.84235,495.48279 833.53766,495.12341 834.23297,494.75623 835.06891,494.75623 836.82672,494.75623 837.84235,495.82654 838.86578,496.88904 838.86578,498.72498 838.86578,500.52185 837.80328,501.60779 836.74078,502.69373 834.97516,502.69373 832.95172,502.69373 831.88141,501.14685 830.8111,499.59216 830.8111,496.64685 830.8111,493.88123 832.1236,492.2406 833.4361,490.59216 835.64703,490.59216 836.24078,490.59216 836.84235,490.70935 837.45172,490.82654 838.10797,491.06091 Z"
                                                     style="stroke:#000000;stroke-width:0.2;stroke-miterlimit:4;stroke-dasharray:none;stroke-opacity:1" />
                                       <path
                                                     inkscape:connector-curvature="0"
                                                     id="path2412"
                                                     d="M 848.66266,497.18591 V 502.46716 H 847.22516 V 497.23279 Q 847.22516,495.9906 846.74078,495.37341 846.25641,494.75623 845.28766,494.75623 844.1236,494.75623 843.45172,495.49841 842.77985,496.2406 842.77985,497.52185 V 502.46716 H 841.33453 V 490.31091 H 842.77985 V 495.07654 Q 843.29547,494.28748 843.99078,493.89685 844.69391,493.50623 845.60797,493.50623 847.11578,493.50623 847.88922,494.44373 848.66266,495.37341 848.66266,497.18591 Z"
                                                     style="stroke:#000000;stroke-width:0.2;stroke-miterlimit:4;stroke-dasharray:none;stroke-opacity:1" />
                                       <path
                                                     inkscape:connector-curvature="0"
                                                     id="path2414"
                                                     d="M 851.60797,490.8031 H 853.73297 L 858.90485,500.56091 V 490.8031 H 860.4361 V 502.46716 H 858.3111 L 853.13922,492.70935 V 502.46716 H 851.60797 Z"
                                                     style="stroke:#000000;stroke-width:0.2;stroke-miterlimit:4;stroke-dasharray:none;stroke-opacity:1" />
                          </g>
                          <g
                                        transform="translate(-514.87409,-81.713966)"
                                        id="text2389"
                                        style="font-style:normal;font-variant:normal;font-weight:normal;font-stretch:normal;font-size:16px;line-height:1.25;font-family:sans-serif;-inkscape-font-specification:'sans-serif, Normal';font-variant-ligatures:normal;font-variant-caps:normal;font-variant-numeric:normal;font-feature-settings:normal;text-align:start;letter-spacing:0px;word-spacing:0px;writing-mode:lr-tb;text-anchor:start;fill:#000000;fill-opacity:1;stroke:#000000;stroke-width:0.2;stroke-miterlimit:4;stroke-dasharray:none;stroke-opacity:1"
                                        aria-label="72hN24hA">
                                       <path
                                                     inkscape:connector-curvature="0"
                                                     id="path2391"
                                                     d="M 869.84003,490.27023 H 877.34003 V 490.94211 L 873.10565,501.9343 H 871.45721 L 875.44159,491.59836 H 869.84003 Z"
                                                     style="stroke:#000000;stroke-width:0.2;stroke-miterlimit:4;stroke-dasharray:none;stroke-opacity:1" />
                                       <path
                                                     inkscape:connector-curvature="0"
                                                     id="path2393"
                                                     d="M 881.78534,500.60617 H 887.29315 V 501.9343 H 879.8869 V 500.60617 Q 880.78534,499.67648 882.33221,498.11398 883.8869,496.54367 884.28534,496.09055 885.04315,495.23898 885.34003,494.65305 885.64471,494.0593 885.64471,493.48898 885.64471,492.5593 884.98846,491.97336 884.34003,491.38742 883.29315,491.38742 882.55096,491.38742 881.72284,491.64523 880.90253,491.90305 879.96503,492.42648 V 490.83273 Q 880.91815,490.44992 881.74628,490.25461 882.5744,490.0593 883.2619,490.0593 885.0744,490.0593 886.15253,490.96555 887.23065,491.8718 887.23065,493.38742 887.23065,494.10617 886.95721,494.75461 886.69159,495.39523 885.98065,496.27023 885.78534,496.4968 884.73846,497.58273 883.69159,498.66086 881.78534,500.60617 Z"
                                                     style="stroke:#000000;stroke-width:0.2;stroke-miterlimit:4;stroke-dasharray:none;stroke-opacity:1" />
                                       <path
                                                     inkscape:connector-curvature="0"
                                                     id="path2395"
                                                     d="M 897.68378,496.65305 V 501.9343 H 896.24628 V 496.69992 Q 896.24628,495.45773 895.7619,494.84055 895.27753,494.22336 894.30878,494.22336 893.14471,494.22336 892.47284,494.96555 891.80096,495.70773 891.80096,496.98898 V 501.9343 H 890.35565 V 489.77805 H 891.80096 V 494.54367 Q 892.31659,493.75461 893.0119,493.36398 893.71503,492.97336 894.62909,492.97336 896.1369,492.97336 896.91034,493.91086 897.68378,494.84055 897.68378,496.65305 Z"
                                                     style="stroke:#000000;stroke-width:0.2;stroke-miterlimit:4;stroke-dasharray:none;stroke-opacity:1" />
                                       <path
                                                     inkscape:connector-curvature="0"
                                                     id="path2397"
                                                     d="M 900.62909,490.27023 H 902.75409 L 907.92596,500.02805 V 490.27023 H 909.45721 V 501.9343 H 907.33221 L 902.16034,492.17648 V 501.9343 H 900.62909 Z"
                                                     style="stroke:#000000;stroke-width:0.2;stroke-miterlimit:4;stroke-dasharray:none;stroke-opacity:1" />
                                       <path
                                                     inkscape:connector-curvature="0"
                                                     id="path2399"
                                                     d="M 914.09784,500.60617 H 919.60565 V 501.9343 H 912.1994 V 500.60617 Q 913.09784,499.67648 914.64471,498.11398 916.1994,496.54367 916.59784,496.09055 917.35565,495.23898 917.65253,494.65305 917.95721,494.0593 917.95721,493.48898 917.95721,492.5593 917.30096,491.97336 916.65253,491.38742 915.60565,491.38742 914.86346,491.38742 914.03534,491.64523 913.21503,491.90305 912.27753,492.42648 V 490.83273 Q 913.23065,490.44992 914.05878,490.25461 914.8869,490.0593 915.5744,490.0593 917.3869,490.0593 918.46503,490.96555 919.54315,491.8718 919.54315,493.38742 919.54315,494.10617 919.26971,494.75461 919.00409,495.39523 918.29315,496.27023 918.09784,496.4968 917.05096,497.58273 916.00409,498.66086 914.09784,500.60617 Z"
                                                     style="stroke:#000000;stroke-width:0.2;stroke-miterlimit:4;stroke-dasharray:none;stroke-opacity:1" />
                                       <path
                                                     inkscape:connector-curvature="0"
                                                     id="path2401"
                                                     d="M 927.2619,491.64523 923.27753,497.8718 H 927.2619 Z M 926.84784,490.27023 H 928.83221 V 497.8718 H 930.49628 V 499.1843 H 928.83221 V 501.9343 H 927.2619 V 499.1843 H 921.99628 V 497.66086 Z"
                                                     style="stroke:#000000;stroke-width:0.2;stroke-miterlimit:4;stroke-dasharray:none;stroke-opacity:1" />
                                       <path
                                                     inkscape:connector-curvature="0"
                                                     id="path2403"
                                                     d="M 940.18378,496.65305 V 501.9343 H 938.74628 V 496.69992 Q 938.74628,495.45773 938.2619,494.84055 937.77753,494.22336 936.80878,494.22336 935.64471,494.22336 934.97284,494.96555 934.30096,495.70773 934.30096,496.98898 V 501.9343 H 932.85565 V 489.77805 H 934.30096 V 494.54367 Q 934.81659,493.75461 935.5119,493.36398 936.21503,492.97336 937.12909,492.97336 938.6369,492.97336 939.41034,493.91086 940.18378,494.84055 940.18378,496.65305 Z"
                                                     style="stroke:#000000;stroke-width:0.2;stroke-miterlimit:4;stroke-dasharray:none;stroke-opacity:1" />
                                       <path
                                                     inkscape:connector-curvature="0"
                                                     id="path2405"
                                                     d="M 947.02753,491.82492 944.8869,497.62961 H 949.17596 Z M 946.1369,490.27023 H 947.92596 L 952.37128,501.9343 H 950.73065 L 949.66815,498.94211 H 944.41034 L 943.34784,501.9343 H 941.68378 Z"
                                                     style="stroke:#000000;stroke-width:0.2;stroke-miterlimit:4;stroke-dasharray:none;stroke-opacity:1" />
                          </g>
                          <g
                                        transform="translate(-0.25563897,-57.85127)"
                                        id="embryo0h"
                                        style="stroke:#000000;stroke-width:0.2;stroke-miterlimit:4;stroke-dasharray:none;stroke-opacity:1">
                                       <path
                                                     style="opacity:1;fill:none;fill-opacity:1;fill-rule:evenodd;stroke:#000000;stroke-width:0.2;stroke-miterlimit:4;stroke-dasharray:none;stroke-opacity:1"
                                                     d="M 0.4579291,448.33352 6.9851987,444.87007 9.9158187,444.20402 12.580009,443.40476 17.775189,443.53797 H 22.837159 L 25.234939,443.67118 26.433829,444.73686 H 29.897279 L 32.028639,446.06895 33.893569,448.99957 33.760359,451.13092 33.227519,453.92833 30.962959,456.72573 27.099869,457.6582 23.503209,458.72388 19.107289,459.25672 12.580009,458.9903 7.2516187,458.32425 2.5892791,456.45931 0.4579291,454.46117 0.7243491,450.06525 Z"
                                                     id="path1889"
                                                     inkscape:connector-curvature="0" />
                          </g>
                          <g
                                        transform="translate(-0.25563897,-57.85127)"
                                        id="embryoColeoptile1h"
                                        style="stroke:#000000;stroke-width:0.2;stroke-miterlimit:4;stroke-dasharray:none;stroke-opacity:1">
                                       <path
                                                     style="opacity:1;fill:none;fill-opacity:1;fill-rule:evenodd;stroke:#000000;stroke-width:0.2;stroke-miterlimit:4;stroke-dasharray:none;stroke-opacity:1"
                                                     d="M 39.355169,447.46766 42.752019,445.20309 45.616029,443.60457 48.679849,442.73871 50.211769,442.47229 58.936999,442.27248 66.862979,443.40476 70.592859,445.20309 73.390259,447.26784 74.389329,448.93296 74.522539,452.99586 74.189519,453.86172 71.791739,455.85987 70.193229,457.19197 67.728849,458.32425 64.065579,458.65727 61.734409,459.0569 53.941639,458.92369 49.212689,458.32425 45.616029,456.99215 44.017509,456.39271 42.418999,456.3261 41.086899,455.26043 40.021219,453.72851 V 448.79975 Z"
                                                     id="path1895"
                                                     inkscape:connector-curvature="0" />
                          </g>
                          <g
                                        transform="translate(-0.25563897,-57.85127)"
                                        id="embryoColeoptile3h"
                                        style="stroke:#000000;stroke-width:0.2;stroke-miterlimit:4;stroke-dasharray:none;stroke-opacity:1">
                                       <path
                                                     style="opacity:1;fill:none;fill-opacity:1;fill-rule:evenodd;stroke:#000000;stroke-width:0.2;stroke-miterlimit:4;stroke-dasharray:none;stroke-opacity:1"
                                                     d="M 78.918469,448.99957 81.782479,445.06988 84.779689,443.00513 91.040549,441.40661 H 93.238509 96.169126 L 103.42907,441.2734 108.89067,442.33908 112.42072,444.53704 114.01924,447.20124 V 451.19753 L 111.75468,455.06061 107.69178,457.19197 103.29586,458.05783 98.833316,458.32425 95.503079,459.0569 88.509569,458.79048 86.511419,458.19104 H 84.979509 L 83.047969,456.79234 81.249639,455.12722 80.117349,453.26228 80.450379,451.26413 Z"
                                                     id="path1901"
                                                     inkscape:connector-curvature="0" />
                          </g>
                          <g
                                        transform="translate(-0.25563897,-57.85127)"
                                        id="embryoColeoptile12h"
                                        style="stroke:#000000;stroke-width:0.2;stroke-miterlimit:4;stroke-dasharray:none;stroke-opacity:1">
                                       <path
                                                     style="opacity:1;fill:none;fill-opacity:1;fill-rule:evenodd;stroke:#000000;stroke-width:0.2;stroke-miterlimit:4;stroke-dasharray:none;stroke-opacity:1"
                                                     d="M 118.41516,449.06617 119.48084,447.00142 121.87862,445.2697 122.74448,444.73686 124.14318,442.5389 125.60849,444.07081 127.20701,443.80439 129.13855,443.00513 134.0007,442.33908 H 140.7278 L 147.78791,442.87192 152.18383,444.33723 154.58161,447.13463 155.64729,450.59809 155.58068,453.39549 154.11538,455.32703 151.38458,457.19197 148.85359,458.25765 147.05526,458.85709 144.59088,459.65635 139.66212,459.98937 131.33651,460.05598 129.40497,459.19011 126.00812,458.52407 122.87769,457.99123 121.14596,456.99215 119.61405,455.59345 118.61498,454.32796 119.61405,452.46302 119.74726,451.39734 119.34763,450.33167 Z"
                                                     id="path1907"
                                                     inkscape:connector-curvature="0" />
                          </g>
                          <g
                                        transform="translate(-0.25563897,-57.85127)"
                                        id="embryoColeoptile24h"
                                        style="stroke:#000000;stroke-width:0.2;stroke-miterlimit:4;stroke-dasharray:none;stroke-opacity:1">
                                       <path
                                                     style="opacity:1;fill:none;fill-opacity:1;fill-rule:evenodd;stroke:#000000;stroke-width:0.2;stroke-miterlimit:4;stroke-dasharray:none;stroke-opacity:1"
                                                     d="M 166.84061,443.53797 166.97382,440.54075 167.90629,439.8747 168.43913,440.20772 168.90536,441.34001 169.63802,442.93852 V 444.60365 H 172.36882 L 173.76752,443.60457 175.49925,443.00513 176.89795,443.67118 H 181.29387 L 191.55102,443.40476 193.88219,444.13741 196.6796,445.86914 199.27719,448.40012 200.07645,451.13092 199.4104,453.79512 197.87848,455.92648 195.14768,458.32425 193.14954,459.72295 190.88497,459.78956 185.95621,460.85524 172.56863,460.98845 169.50481,459.98937 166.37438,458.25765 164.10981,456.05968 V 454.72759 L 164.44284,452.72944 164.90907,452.26321 164.97568,451.19753 163.91,450.19846 163.31056,448.66654 163.44376,446.06895 163.9766,445.66932 165.84154,444.33723 Z"
                                                     id="path1913"
                                                     inkscape:connector-curvature="0" />
                          </g>
                          <g
                                        transform="translate(-0.25563897,-57.85127)"
                                        id="coleoptile48h"
                                        style="stroke:#000000;stroke-width:0.2;stroke-miterlimit:4;stroke-dasharray:none;stroke-opacity:1">
                                       <path
                                                     style="opacity:1;fill:none;fill-opacity:1;fill-rule:evenodd;stroke:#000000;stroke-width:0.2;stroke-miterlimit:4;stroke-dasharray:none;stroke-opacity:1"
                                                     d="M 213.58024,442.75245 213.72153,440.25632 213.58024,434.98149 213.15637,430.4602 212.49702,426.88084 212.12024,422.78343 212.59121,420.09891 213.29766,418.8273 214.05121,419.20407 214.1454,420.85246 214.38089,422.78343 214.66347,426.31568 215.27573,429.51826 215.6996,431.26084 216.26476,432.90923 V 434.746 L 216.50024,437.61891 V 440.68019 L 216.45315,442.56406 215.32282,443.03503 Z"
                                                     id="path1919"
                                                     inkscape:connector-curvature="0" />
                          </g>
                          <g
                                        transform="translate(-0.25563897,-57.85127)"
                                        id="coleoptile72h"
                                        style="stroke:#000000;stroke-width:0.2;stroke-miterlimit:4;stroke-dasharray:none;stroke-opacity:1">
                                       <path
                                                     style="opacity:1;fill:none;fill-opacity:1;fill-rule:evenodd;stroke:#000000;stroke-width:0.2;stroke-miterlimit:4;stroke-dasharray:none;stroke-opacity:1"
                                                     d="M 263.24539,435.73503 263.81731,434.01347 264.61657,432.68137 265.0828,431.21607 265.21601,429.08471 V 426.42052 L 264.74978,422.55743 264.28354,418.62775 263.6841,413.36596 262.68503,408.97004 262.352,403.77486 261.41953,396.91456 260.42046,391.11993 259.68781,386.25778 259.42139,382.12828 258.95515,379.79711 V 377.33272 L 259.22157,375.93402 259.49483,373.7888 259.34102,372.92955 258.50496,371.84411 C 259.14134,371.40788 259.83967,371.64317 260.31213,372.52623 L 260.35037,373.50251 260.68688,376.13384 261.68595,380.79618 262.61842,386.5242 264.74978,398.18005 266.21508,405.90622 267.28076,410.10232 268.27984,413.8988 268.87928,417.42886 V 420.6925 L 269.54533,425.08842 269.41212,429.55095 269.1457,432.08193 268.61286,433.54724 268.41304,434.47971 267.21416,436.61106 Z"
                                                     id="path1925"
                                                     inkscape:connector-curvature="0"
                                                     sodipodi:nodetypes="ccccccccccccccccccccccccccccccccccccccc" />
                          </g>
                          <g
                                        transform="translate(-0.25563897,-57.85127)"
                                        id="coleoptile96h"
                                        style="stroke:#000000;stroke-width:0.2;stroke-miterlimit:4;stroke-dasharray:none;stroke-opacity:1">
                                       <path
                                                     style="opacity:1;fill:none;fill-opacity:1;fill-rule:evenodd;stroke:#000000;stroke-width:0.2;stroke-miterlimit:4;stroke-dasharray:none;stroke-opacity:1"
                                                     d="M 307.64332,442.47229 308.44257,440.74056 309.70807,438.34279 310.90695,437.0773 311.23998,435.01254 311.63961,432.28175 312.03924,416.09676 312.63868,404.57412 313.97078,393.51771 317.50085,370.08216 322.87104,332.21191 C 323.90483,332.23203 324.09456,336.4486 324.16884,339.30115 324.22526,341.46738 322.883,345.47237 322.68783,348.29261 L 321.37915,357.21106 320.66828,363.86929 319.6673,374.98022 V 379.5957 L 318.44279,385.81247 317.12408,401.54279 316.55892,419.06278 315.61698,432.90923 315.05182,435.73503 313.8273,439.126 312.97956,442.51697 312.03924,444.0042 Z"
                                                     id="path1933"
                                                     inkscape:connector-curvature="0"
                                                     sodipodi:nodetypes="cccccccccccscccccccccccccc" />
                          </g>
             </g>
</svg>
