<?xml version="1.0" encoding="UTF-8" standalone="no"?>
<!-- Created with Inkscape (http://www.inkscape.org/) -->

<svg
              xmlns:dc="http://purl.org/dc/elements/1.1/"
              xmlns:cc="http://creativecommons.org/ns#"
              xmlns:rdf="http://www.w3.org/1999/02/22-rdf-syntax-ns#"
              xmlns:svg="http://www.w3.org/2000/svg"
              xmlns="http://www.w3.org/2000/svg"
              xmlns:sodipodi="http://sodipodi.sourceforge.net/DTD/sodipodi-0.dtd"
              xmlns:inkscape="http://www.inkscape.org/namespaces/inkscape"
              version="1.1"
              id="svg2"
              width="327"
              height="388"
              viewBox="0 0 327 388"
              sodipodi:docname="overlay1.svg"
              inkscape:version="0.92.3 (unknown)">
             <metadata
                           id="metadata8">
                          <rdf:RDF>
                                       <cc:Work
                                                     rdf:about="">
                                                    <dc:format>image/svg+xml</dc:format>
                                                    <dc:type
                                                                  rdf:resource="http://purl.org/dc/dcmitype/StillImage" />
                                                    <dc:title />
                                       </cc:Work>
                          </rdf:RDF>
             </metadata>
             <defs
                           id="defs6" />
             <sodipodi:namedview
                           pagecolor="#ffffff"
                           bordercolor="#666666"
                           borderopacity="1"
                           objecttolerance="10"
                           gridtolerance="10"
                           guidetolerance="10"
                           inkscape:pageopacity="0"
                           inkscape:pageshadow="2"
                           inkscape:window-width="1855"
                           inkscape:window-height="1056"
                           id="namedview4"
                           showgrid="false"
                           inkscape:zoom="1.5231819"
                           inkscape:cx="89.254669"
                           inkscape:cy="201.69918"
                           inkscape:window-x="65"
                           inkscape:window-y="24"
                           inkscape:window-maximized="1"
                           inkscape:current-layer="svg2" />
             <g
                           id="g844"
                           style="stroke:#000000;stroke-opacity:1;stroke-width:0.2;stroke-miterlimit:4;stroke-dasharray:none">
                          <path
                                        id="rect817"
                                        d="M 0,0 H 327 V 388 H 0 Z"
                                        style="opacity:1;fill:none;fill-opacity:1;fill-rule:evenodd;stroke:#000000;stroke-width:0.2;stroke-miterlimit:4;stroke-dasharray:none;stroke-opacity:1" />
                          <g
                                        id="cell1"
                                        style="stroke:#000000;stroke-opacity:1;stroke-width:0.2;stroke-miterlimit:4;stroke-dasharray:none;fill:#e6d800;fill-opacity:1">
                                       <path
                                                     style="opacity:1;fill:#e6d800;fill-opacity:1;fill-rule:evenodd;stroke:#000000;stroke-width:0.2;stroke-miterlimit:4;stroke-dasharray:none;stroke-opacity:1"
                                                     d="M 125.29686,114.18523 C 135.93984,109.83129 135.93984,109.83129 135.93984,109.83129 L 177.06043,127.24707 V 140.3089 L 175.12535,150.46811 160.6122,162.5624 145.61527,161.11109 135.93984,162.5624 119.00783,144.17908 122.39423,132.08478 Z"
                                                     id="path834"
                                                     inkscape:connector-curvature="0" />
                                       <path
                                                     style="opacity:1;fill:#e6d800;fill-opacity:1;fill-rule:evenodd;stroke:#000000;stroke-width:0.2;stroke-miterlimit:4;stroke-dasharray:none;stroke-opacity:1"
                                                     d="M 135.93984,162.5624 138.3587,188.68607 154.80694,200.29659 159.64465,198.3615 162.54728,189.65361 V 181.4295 L 161.4588,173.32632 158.43522,166.31163 155.41165,164.01371 149.00168,161.7158 145.61527,161.11109 Z"
                                                     id="path822"
                                                     inkscape:connector-curvature="0" />
                          </g>
                          <path
                                        inkscape:connector-curvature="0"
                                        id="cell2"
                                        d="M 175.12535,150.46811 178.51175,149.13774 188.7919,157.24091 188.67095,162.68334 185.04267,170.42369 180.93061,180.34101 176.93949,185.6625 173.79497,187.96041 168.11066,185.42061 164.11954,181.06667 163.03105,176.83366 161.4588,170.30275 160.85408,165.22314 160.6122,162.5624 Z"
                                        style="opacity:1;fill:#37d800;fill-opacity:1;fill-rule:evenodd;stroke:#000000;stroke-width:0.2;stroke-miterlimit:4;stroke-dasharray:none;stroke-opacity:1" />
                          <path
                                        inkscape:connector-curvature="0"
                                        id="cell3"
                                        d="M 133.15815,35.814221 124.20838,62.542606 134.48853,77.297642 H 145.61527 L 160.12842,74.757841 171.01329,71.129554 190.12227,65.082408 194.35527,62.058835 192.54113,52.020572 191.08981,42.949854 186.25209,33.153477 177.66515,28.31576 C 177.66515,28.31576 175.36723,24.808416 168.83631,24.445587 162.3054,24.082758 162.3054,24.082758 162.3054,24.082758 L 152.26713,24.56653 141.38227,31.339333 Z"
                                        style="opacity:1;fill:#37d8c4;fill-opacity:1;fill-rule:evenodd;stroke:#000000;stroke-width:0.2;stroke-miterlimit:4;stroke-dasharray:none;stroke-opacity:1" />
                          <path
                                        inkscape:connector-curvature="0"
                                        id="cell4x"
                                        d="M 201.00713,66.533723 202.82127,44.88494 206.93333,34.846678 216.72971,28.557646 229.54966,24.203701 242.24867,24.56653 H 255.55239 L 268.49328,24.324644 275.99174,24.56653 276.35457,30.855562 272.96817,40.893824 271.75874,44.88494 266.19536,47.424742 C 266.19536,47.424742 265.95348,50.932086 261.11576,53.59283 256.27804,56.253575 256.27804,56.253575 256.27804,56.253575 L 242.12772,60.365634 224.22817,64.719579 208.50559,67.622209 V 67.622209 Z"
                                        style="opacity:1;fill:#ef26c4;fill-opacity:1;fill-rule:evenodd;stroke:#000000;stroke-width:0.2;stroke-miterlimit:4;stroke-dasharray:none;stroke-opacity:1" />
                          <path
                                        style="opacity:1;fill:#8226c4;fill-opacity:1;fill-rule:evenodd;stroke:#000000;stroke-width:0.2;stroke-miterlimit:4;stroke-dasharray:none;stroke-opacity:1"
                                        d="M 159.25533,236.36815 165.95729,239.88668 169.97846,246.50487 174.41851,250.86114 178.27214,249.3532 181.28802,243.74031 185.14165,242.31614 191.92738,236.70325 192.5138,233.85492 189.66547,230.50394 190.75454,227.06918 194.60817,223.13178 196.11611,220.70232 193.77042,216.5136 190.50321,215.42453 188.07375,214.50301 186.81714,212.65997 183.13106,212.99507 181.87444,216.09472 175.92645,216.59737 173.32944,215.00566 170.89998,217.01624 169.14072,218.27286 166.87881,216.1785 164.03047,218.69173 161.68479,219.4457 C 161.68479,219.4457 161.51724,219.19438 160.76327,221.87517 160.0093,224.55595 159.6742,224.97482 159.6742,224.97482 L 156.74209,228.24203 155.0666,230.67149 Z"
                                        id="cell5x"
                                        inkscape:connector-curvature="0" />
             </g>
</svg>
