<?xml version="1.0" encoding="UTF-8" standalone="no"?>
<svg
   xmlns:dc="http://purl.org/dc/elements/1.1/"
   xmlns:cc="http://creativecommons.org/ns#"
   xmlns:rdf="http://www.w3.org/1999/02/22-rdf-syntax-ns#"
   xmlns:svg="http://www.w3.org/2000/svg"
   xmlns="http://www.w3.org/2000/svg"
   xmlns:sodipodi="http://sodipodi.sourceforge.net/DTD/sodipodi-0.dtd"
   xmlns:inkscape="http://www.inkscape.org/namespaces/inkscape"
   width="5.25in"
   height="3.125in"
   viewBox="0 0 378 225"
   version="1.1"
   id="svg3"
   sodipodi:docname="root_cross_final.svg"
   inkscape:version="0.92.3 (unknown)">
  <metadata
     id="metadata9">
    <rdf:RDF>
      <cc:Work
         rdf:about="">
        <dc:format>image/svg+xml</dc:format>
        <dc:type
           rdf:resource="http://purl.org/dc/dcmitype/StillImage" />
        <dc:title />
      </cc:Work>
    </rdf:RDF>
  </metadata>
  <defs
     id="defs7" />
  <sodipodi:namedview
     pagecolor="#ffffff"
     bordercolor="#666666"
     borderopacity="1"
     objecttolerance="10"
     gridtolerance="10"
     guidetolerance="10"
     inkscape:pageopacity="0"
     inkscape:pageshadow="2"
     inkscape:window-width="1855"
     inkscape:window-height="1056"
     id="namedview5"
     showgrid="false"
     inkscape:zoom="1.4166667"
     inkscape:cx="202.70863"
     inkscape:cy="149.35894"
     inkscape:window-x="65"
     inkscape:window-y="24"
     inkscape:window-maximized="1"
     inkscape:current-layer="container" />
  <g
     id="container"
     style="stroke:#000000;stroke-width:0.975;stroke-miterlimit:4;stroke-dasharray:none;stroke-opacity:1"
     transform="translate(31.764706)">
    <g
       style="fill:#eebc36;fill-opacity:1;stroke:#000000;stroke-width:0.975;stroke-miterlimit:4;stroke-dasharray:none;stroke-opacity:1"
       id="root_pSCR">
      <path
         inkscape:connector-curvature="0"
         style="fill:#eebc36;fill-opacity:1;stroke:#000000;stroke-width:0.975;stroke-miterlimit:4;stroke-dasharray:none;stroke-opacity:1"
         d="m 130,64.2 c 6.82,-4.09 9.19,-7.42 17,-4.2 -3.68,9.59 -8.75,8.43 -17,12.42 -6.45,3.13 -14.13,8.28 -21,9.58 0,0 -2,-4 -2,-4 0,0 23,-13.8 23,-13.8 z"
         id="path995" />
      <path
         inkscape:connector-curvature="0"
         style="fill:#eebc36;fill-opacity:1;stroke:#000000;stroke-width:0.975;stroke-miterlimit:4;stroke-dasharray:none;stroke-opacity:1"
         d="m 149.56,62.99 c 3.1,-2.13 13.5,0.25 17.44,0.73 2.85,0.34 6.29,-0.02 8.61,1.88 2.04,1.67 2.68,4.01 3.39,6.4 0,0 -6,2.32 -6,2.32 0,0 -26,-7.32 -26,-7.32 0.68,-1.61 0.99,-2.93 2.56,-4.01 z"
         id="path993" />
      <path
         inkscape:connector-curvature="0"
         style="fill:#eebc36;fill-opacity:1;stroke:#000000;stroke-width:0.975;stroke-miterlimit:4;stroke-dasharray:none;stroke-opacity:1"
         d="m 178.25,85 c -1.27,-2.56 -3.93,-6.87 -0.89,-9.21 3.43,-2.63 7.41,2.03 9.64,4.21 2.52,2.48 8.36,7.58 8.89,11 0.35,2.31 -2.16,8.3 -2.89,11 -9.46,-2.04 -10.77,-8.92 -14.75,-17 z"
         id="path991" />
      <path
         inkscape:connector-curvature="0"
         style="fill:#eebc36;fill-opacity:1;stroke:#000000;stroke-width:0.975;stroke-miterlimit:4;stroke-dasharray:none;stroke-opacity:1"
         d="m 108,94 c 0,0 1.13,11 1.13,11 0.33,2.19 1.7,6.8 0.68,8.67 -2.08,3.77 -9.25,-0.33 -10.94,-2.89 -1.91,-3.44 -0.69,-17.46 0,-21.78 0.08,-1.84 0.04,-4.87 1.12,-6.35 1.4,-1.92 3.87,-2.24 6.01,-2.65 2.64,6.25 1.93,7.51 2,14 z"
         id="path989" />
      <path
         inkscape:connector-curvature="0"
         style="fill:#eebc36;fill-opacity:1;stroke:#000000;stroke-width:0.975;stroke-miterlimit:4;stroke-dasharray:none;stroke-opacity:1"
         d="m 165.98,126 c 1.23,-4.44 9.63,-12.63 13.02,-16 1.81,-1.79 4.71,-4.9 7,-5.94 2.23,-0.91 4.69,-0.34 7,0 0,0 -4.9,18.3 -4.9,18.3 0,0 -21.1,10.64 -21.1,10.64 -0.69,-2.3 -1.7,-4.58 -1.02,-7 z"
         id="path987" />
      <path
         inkscape:connector-curvature="0"
         style="fill:#eebc36;fill-opacity:1;stroke:#000000;stroke-width:0.975;stroke-miterlimit:4;stroke-dasharray:none;stroke-opacity:1"
         d="m 134,129 c 0,0 -3,9 -3,9 -2.11,-0.02 -4.6,0.13 -6.54,-0.82 -3.17,-1.56 -12.32,-13.79 -13.23,-17.18 -0.76,-2.82 0.36,-3.82 1.77,-6 0,0 21,15 21,15 z"
         id="path985" />
      <path
         inkscape:connector-curvature="0"
         style="fill:#eebc36;fill-opacity:1;stroke:#000000;stroke-width:0.975;stroke-miterlimit:4;stroke-dasharray:none;stroke-opacity:1"
         d="m 136.42,131.98 c 3.61,-2.61 15.84,-2.01 20.58,-1.98 2.04,0.01 4.78,-0.14 6.53,1.02 1.71,1.14 2.56,3.23 3.47,4.98 0,0 -9,7.39 -9,7.39 0,0 -25,-4.39 -25,-4.39 0.61,-2.55 1.14,-5.37 3.42,-7.02 z"
         id="path983" />
    </g>
    <path
       id="path975"
       d="m 142.89,10.43 c 2.7,2.2 7.56,13.89 6.43,17.19 -0.85,2.51 -9.74,7.37 -12.32,7.79 -1.82,0.29 -10.03,-0.4 -11.44,-1.43 -1.76,-1.3 -2.51,-4.94 -3.27,-6.98 -2.46,-6.63 -8.05,-13.87 6.71,-18.47 4.59,-0.76 10.05,-1.24 13.89,1.9 z"
       style="fill:none;fill-opacity:1;stroke:#000000;stroke-width:0.975;stroke-miterlimit:4;stroke-dasharray:none;stroke-opacity:1"
       inkscape:connector-curvature="0" />
    <path
       id="path973"
       d="m 34.91,18.02 c 6.95,7.27 16.74,22.6 25.09,27.86 5.44,3.43 7.05,1.33 11,2.02 3.23,0.57 10.56,5.69 12.31,8.4 C 85.48,59.68 81.64,75.29 75,76.17 71.89,76.58 60.25,68.63 57.28,66.45 53.8,63.9 54.58,61.48 52.7,58 51.25,55.32 49.08,53.2 47.02,51 42.07,45.69 37.4,40.07 31.83,35.37 27.57,31.79 17.08,23.93 14.23,19.91 10.33,14.42 12.51,12.11 18,9.79 c 6.89,-0.77 12.35,3.45 16.91,8.23 z"
       style="fill:none;fill-opacity:1;stroke:#000000;stroke-width:0.975;stroke-miterlimit:4;stroke-dasharray:none;stroke-opacity:1"
       inkscape:connector-curvature="0" />
    <path
       id="path971"
       d="m 208.22,30 c -0.11,3.85 -2.53,6.88 -4.53,10 -1.48,2.32 -3.48,6.31 -6.02,7.43 -1.27,0.56 -3.29,0.56 -4.67,0.56 -7.19,-0.01 -8.56,-2.64 -12.79,-7.99 -1.81,-2.29 -5.97,-7.25 -6.44,-10 -0.8,-4.68 4.41,-13.02 8.27,-15.26 10.28,-2.53 26.56,2.62 26.18,15.26 z"
       style="fill:none;fill-opacity:1;stroke:#000000;stroke-width:0.975;stroke-miterlimit:4;stroke-dasharray:none;stroke-opacity:1"
       inkscape:connector-curvature="0" />
    <path
       id="path943"
       d="m 222,78 c 0.01,-1.87 -0.15,-4.88 1.02,-6.42 1.67,-2.19 13.1,-4.5 15.98,-4.38 7.27,0.29 5.75,5.49 18,5.91 0,0 32,-3.93 32,-3.93 6.07,-0.43 14.56,3.04 5.94,8.46 -3.19,2 -18.54,6.47 -22.94,7.63 0,0 -19,3.32 -19,3.32 -8.3,1.49 -5.38,4.4 -10.21,6.9 -1.92,0.99 -12.1,3 -14.79,3.51 -4.58,-8.27 -6.06,-11.58 -6,-21 z"
       style="fill:none;fill-opacity:1;stroke:#000000;stroke-width:0.975;stroke-miterlimit:4;stroke-dasharray:none;stroke-opacity:1"
       inkscape:connector-curvature="0" />
    <path
       id="path851"
       d="m 77.4,135.69 c -1.3,2.72 -14.19,6.42 -17.4,6.76 -11.63,1.22 -14.83,-13.97 -10.35,-22.23 2.03,-3.74 10.35,-5.68 14.35,-6.65 9.92,-0.1 16.49,15.69 13.4,22.12 z"
       style="fill:none;fill-opacity:1;stroke:#000000;stroke-width:0.975;stroke-miterlimit:4;stroke-dasharray:none;stroke-opacity:1"
       inkscape:connector-curvature="0" />
    <g
       id="root_pWOL"
       style="fill:#a464e8;fill-opacity:1;stroke:#000000;stroke-width:0.975;stroke-miterlimit:4;stroke-dasharray:none;stroke-opacity:1">
      <path
         inkscape:connector-curvature="0"
         style="fill:#a464e8;fill-opacity:1;stroke:#000000;stroke-width:0.975;stroke-miterlimit:4;stroke-dasharray:none;stroke-opacity:1"
         d="m 161,74 c 0,0 -1,6 -1,6 0,0 -18,0 -18,0 0,0 -3,-9 -3,-9 8.73,-3.16 13.57,0.19 22,3 z"
         id="path939" />
      <path
         inkscape:connector-curvature="0"
         style="fill:#a464e8;fill-opacity:1;stroke:#000000;stroke-width:0.975;stroke-miterlimit:4;stroke-dasharray:none;stroke-opacity:1"
         d="m 137,72 c 0,0 2,7 2,7 0,0 -12,4 -12,4 0,0 -2,-6 -2,-6 0,0 12,-5 12,-5 z"
         id="path937" />
      <path
         inkscape:connector-curvature="0"
         style="fill:#a464e8;fill-opacity:1;stroke:#000000;stroke-width:0.975;stroke-miterlimit:4;stroke-dasharray:none;stroke-opacity:1"
         d="m 170.66,77.14 c 3.72,2.5 6.63,10.55 7.34,14.76 -1.77,0.27 -3.22,0.62 -4.96,0 -3.03,-1.35 -8.89,-8.65 -9.28,-11.9 -0.6,-1.87 -0.14,-3.23 0,-5 2.45,0.45 5,0.85 6.9,2.14 z"
         id="path933" />
      <path
         inkscape:connector-curvature="0"
         style="fill:#a464e8;fill-opacity:1;stroke:#000000;stroke-width:0.975;stroke-miterlimit:4;stroke-dasharray:none;stroke-opacity:1"
         d="m 124,79 c 1.47,10.1 -6.25,10.28 -14,10 1.12,-6.55 8.07,-8.89 14,-10 z"
         id="path931" />
      <path
         inkscape:connector-curvature="0"
         style="fill:#a464e8;fill-opacity:1;stroke:#000000;stroke-width:0.975;stroke-miterlimit:4;stroke-dasharray:none;stroke-opacity:1"
         d="m 142,82 c 0,0 -4,1 -4,1 0,0 4,-1 4,-1 z"
         id="path929" />
      <path
         inkscape:connector-curvature="0"
         style="fill:#a464e8;fill-opacity:1;stroke:#000000;stroke-width:0.975;stroke-miterlimit:4;stroke-dasharray:none;stroke-opacity:1"
         d="m 150,83 c 0,0 0,2 0,2 0,0 -6,0 -6,0 0,0 0,-2 0,-2 0,0 6,0 6,0 z"
         id="path927" />
      <path
         inkscape:connector-curvature="0"
         style="fill:#a464e8;fill-opacity:1;stroke:#000000;stroke-width:0.975;stroke-miterlimit:4;stroke-dasharray:none;stroke-opacity:1"
         d="m 157,84 c 0,0 -5,-2 -5,-2 0,0 5,2 5,2 z"
         id="path925" />
      <path
         inkscape:connector-curvature="0"
         style="fill:#a464e8;fill-opacity:1;stroke:#000000;stroke-width:0.975;stroke-miterlimit:4;stroke-dasharray:none;stroke-opacity:1"
         d="m 163,86 c 0,0 -4,-1 -4,-1 0,0 1,-3 1,-3 0,0 3,4 3,4 z"
         id="path923" />
      <path
         inkscape:connector-curvature="0"
         style="fill:#a464e8;fill-opacity:1;stroke:#000000;stroke-width:0.975;stroke-miterlimit:4;stroke-dasharray:none;stroke-opacity:1"
         d="m 138,87 c 0,0 -4,-1 -4,-1 0,0 1,-3 1,-3 0,0 3,4 3,4 z"
         id="path921" />
      <path
         inkscape:connector-curvature="0"
         style="fill:#a464e8;fill-opacity:1;stroke:#000000;stroke-width:0.975;stroke-miterlimit:4;stroke-dasharray:none;stroke-opacity:1"
         d="m 128,90 c 0,0 -1,-4 -1,-4 0,0 4,-2 4,-2 1.03,3.57 0.06,4.28 -3,6 z"
         id="path919" />
      <path
         inkscape:connector-curvature="0"
         style="fill:#a464e8;fill-opacity:1;stroke:#000000;stroke-width:0.975;stroke-miterlimit:4;stroke-dasharray:none;stroke-opacity:1"
         d="m 143,92 c -2.93,-2.23 -2.79,-2.45 -2,-6 2.93,2.23 2.79,2.45 2,6 z"
         id="path917" />
      <path
         inkscape:connector-curvature="0"
         style="fill:#a464e8;fill-opacity:1;stroke:#000000;stroke-width:0.975;stroke-miterlimit:4;stroke-dasharray:none;stroke-opacity:1"
         d="m 153,86 c 0,0 0,5 0,5 -2.53,-1.83 -2.25,-1.93 -2,-5 0,0 2,0 2,0 z"
         id="path915" />
      <path
         inkscape:connector-curvature="0"
         style="fill:#a464e8;fill-opacity:1;stroke:#000000;stroke-width:0.975;stroke-miterlimit:4;stroke-dasharray:none;stroke-opacity:1"
         d="m 160,89 c 0,0 -5,-2 -5,-2 3.07,-0.25 3.17,-0.53 5,2 z"
         id="path913" />
      <path
         inkscape:connector-curvature="0"
         style="fill:#a464e8;fill-opacity:1;stroke:#000000;stroke-width:0.975;stroke-miterlimit:4;stroke-dasharray:none;stroke-opacity:1"
         d="m 126,93 c 0,0 -4,-2 -4,-2 0,0 0,-2 0,-2 0,0 2,-1 2,-1 0,0 2,5 2,5 z"
         id="path911" />
      <path
         inkscape:connector-curvature="0"
         style="fill:#a464e8;fill-opacity:1;stroke:#000000;stroke-width:0.975;stroke-miterlimit:4;stroke-dasharray:none;stroke-opacity:1"
         d="m 149,92 c -2.67,-1.15 -2.41,-1.18 -2,-4 0,0 2,4 2,4 z"
         id="path909" />
      <path
         inkscape:connector-curvature="0"
         style="fill:#a464e8;fill-opacity:1;stroke:#000000;stroke-width:0.975;stroke-miterlimit:4;stroke-dasharray:none;stroke-opacity:1"
         d="m 166,88 c 0,0 2,4 2,4 0,0 -6,1 -6,1 0,0 4,-5 4,-5 z"
         id="path907" />
      <path
         inkscape:connector-curvature="0"
         style="fill:#a464e8;fill-opacity:1;stroke:#000000;stroke-width:0.975;stroke-miterlimit:4;stroke-dasharray:none;stroke-opacity:1"
         d="m 137,89 c 0,0 -3,3 -3,3 0,0 3,-3 3,-3 z"
         id="path903" />
      <path
         inkscape:connector-curvature="0"
         style="fill:#a464e8;fill-opacity:1;stroke:#000000;stroke-width:0.975;stroke-miterlimit:4;stroke-dasharray:none;stroke-opacity:1"
         d="m 115.98,93.56 c 3.69,5 -2.42,13.26 -4.68,6.29 0,0 -0.58,-3.85 -0.58,-3.85 0,0 -0.72,-5 -0.72,-5 2.02,0.44 4.65,0.76 5.98,2.56 z"
         id="path901" />
      <path
         inkscape:connector-curvature="0"
         style="fill:#a464e8;fill-opacity:1;stroke:#000000;stroke-width:0.975;stroke-miterlimit:4;stroke-dasharray:none;stroke-opacity:1"
         d="m 121,92 c 0.4,3.26 0.65,3.91 -2,6 0,0 0,-6 0,-6 0,0 2,0 2,0 z"
         id="path897" />
      <path
         inkscape:connector-curvature="0"
         style="fill:#a464e8;fill-opacity:1;stroke:#000000;stroke-width:0.975;stroke-miterlimit:4;stroke-dasharray:none;stroke-opacity:1"
         d="m 132,93 c 0,0 -4,0 -4,0 0,0 4,0 4,0 z"
         id="path895" />
      <path
         inkscape:connector-curvature="0"
         style="fill:#a464e8;fill-opacity:1;stroke:#000000;stroke-width:0.975;stroke-miterlimit:4;stroke-dasharray:none;stroke-opacity:1"
         d="m 143,97 c 0,0 -6,-4 -6,-4 0,0 1,-1 1,-1 0,0 5,5 5,5 z"
         id="path893" />
      <path
         inkscape:connector-curvature="0"
         style="fill:#a464e8;fill-opacity:1;stroke:#000000;stroke-width:0.975;stroke-miterlimit:4;stroke-dasharray:none;stroke-opacity:1"
         d="m 151.32,97.05 c 0.09,-1.69 0.52,-2.79 1.99,-3.73 6.26,-4.02 10.07,6.58 3.63,8.52 -1.24,0.19 -3.61,0.14 -4.94,0 0,0 -0.68,-4.79 -0.68,-4.79 z"
         id="path891" />
      <path
         inkscape:connector-curvature="0"
         style="fill:#a464e8;fill-opacity:1;stroke:#000000;stroke-width:0.975;stroke-miterlimit:4;stroke-dasharray:none;stroke-opacity:1"
         d="m 180,93 c 5.35,9.47 2.87,11.65 -6,18 -4.38,-6.9 -1.1,-14.65 6,-18 z"
         id="path889" />
      <path
         inkscape:connector-curvature="0"
         style="fill:#a464e8;fill-opacity:1;stroke:#000000;stroke-width:0.975;stroke-miterlimit:4;stroke-dasharray:none;stroke-opacity:1"
         d="m 147,94 c 0,0 1,3 1,3 0,0 -3,-3 -3,-3 0,0 2,0 2,0 z"
         id="path887" />
      <path
         inkscape:connector-curvature="0"
         style="fill:#a464e8;fill-opacity:1;stroke:#000000;stroke-width:0.975;stroke-miterlimit:4;stroke-dasharray:none;stroke-opacity:1"
         d="m 168,101 c 0,0 0,-7 0,-7 4.67,1.74 3.61,4.7 0,7 z"
         id="path885" />
      <path
         inkscape:connector-curvature="0"
         style="fill:#a464e8;fill-opacity:1;stroke:#000000;stroke-width:0.975;stroke-miterlimit:4;stroke-dasharray:none;stroke-opacity:1"
         d="m 134.86,105.67 c -5.39,1.34 -8.14,-4.43 -5.26,-8.64 7.95,-3.05 10.77,7.26 5.26,8.64 z"
         id="path883" />
      <path
         inkscape:connector-curvature="0"
         style="fill:#a464e8;fill-opacity:1;stroke:#000000;stroke-width:0.975;stroke-miterlimit:4;stroke-dasharray:none;stroke-opacity:1"
         d="m 126,101 c 0,0 -6,3 -6,3 1.4,-3.46 2.46,-3.26 6,-3 z"
         id="path879" />
      <path
         inkscape:connector-curvature="0"
         style="fill:#a464e8;fill-opacity:1;stroke:#000000;stroke-width:0.975;stroke-miterlimit:4;stroke-dasharray:none;stroke-opacity:1"
         d="m 144,102 c 0,0 -4,-2 -4,-2 0,0 4,2 4,2 z"
         id="path877" />
      <path
         inkscape:connector-curvature="0"
         style="fill:#a464e8;fill-opacity:1;stroke:#000000;stroke-width:0.975;stroke-miterlimit:4;stroke-dasharray:none;stroke-opacity:1"
         d="m 169,103 c 0,0 -3,4 -3,4 0,0 -3,-5 -3,-5 0,0 1,-1 1,-1 0,0 5,2 5,2 z"
         id="path875" />
      <path
         inkscape:connector-curvature="0"
         style="fill:#a464e8;fill-opacity:1;stroke:#000000;stroke-width:0.975;stroke-miterlimit:4;stroke-dasharray:none;stroke-opacity:1"
         d="m 150,104 c 0,0 -4,4 -4,4 0,0 0,-4 0,-4 0,0 4,0 4,0 z"
         id="path873" />
      <path
         inkscape:connector-curvature="0"
         style="fill:#a464e8;fill-opacity:1;stroke:#000000;stroke-width:0.975;stroke-miterlimit:4;stroke-dasharray:none;stroke-opacity:1"
         d="m 164,109 c 0,0 -5,2 -5,2 0,0 -1,-7 -1,-7 3.87,1.17 4.15,1.4 6,5 z"
         id="path871" />
      <path
         inkscape:connector-curvature="0"
         style="fill:#a464e8;fill-opacity:1;stroke:#000000;stroke-width:0.975;stroke-miterlimit:4;stroke-dasharray:none;stroke-opacity:1"
         d="m 118.84,112.83 c -2.99,1.3 -7.63,-2.46 -5.2,-6.8 6.85,-2.71 9.37,4.99 5.2,6.8 z"
         id="path869" />
      <path
         inkscape:connector-curvature="0"
         style="fill:#a464e8;fill-opacity:1;stroke:#000000;stroke-width:0.975;stroke-miterlimit:4;stroke-dasharray:none;stroke-opacity:1"
         d="m 127,105 c 0,0 -2,6 -2,6 0,0 -2,-5 -2,-5 0,0 4,-1 4,-1 z"
         id="path867" />
      <path
         inkscape:connector-curvature="0"
         style="fill:#a464e8;fill-opacity:1;stroke:#000000;stroke-width:0.975;stroke-miterlimit:4;stroke-dasharray:none;stroke-opacity:1"
         d="m 141,111 c 0,0 -2,-4 -2,-4 0,0 1,0 1,0 0,0 2,-2 2,-2 1.7,3.13 1.34,3.45 -1,6 z"
         id="path865" />
      <path
         inkscape:connector-curvature="0"
         style="fill:#a464e8;fill-opacity:1;stroke:#000000;stroke-width:0.975;stroke-miterlimit:4;stroke-dasharray:none;stroke-opacity:1"
         d="m 156,105 c 0,0 -4,5 -4,5 0,0 0,-5 0,-5 0,0 4,0 4,0 z"
         id="path863" />
      <path
         inkscape:connector-curvature="0"
         style="fill:#a464e8;fill-opacity:1;stroke:#000000;stroke-width:0.975;stroke-miterlimit:4;stroke-dasharray:none;stroke-opacity:1"
         d="m 173,113 c 0,0 -7,9 -7,9 0,0 -2,0 -2,0 0,0 -5,-7 -5,-7 0,0 9,-7 9,-7 0,0 5,5 5,5 z"
         id="path861" />
      <path
         inkscape:connector-curvature="0"
         style="fill:#a464e8;fill-opacity:1;stroke:#000000;stroke-width:0.975;stroke-miterlimit:4;stroke-dasharray:none;stroke-opacity:1"
         d="m 133,109 c -1.8,3.46 -2.05,3.96 -6,4 2.08,-3.25 2.19,-3.35 6,-4 z"
         id="path859" />
      <path
         inkscape:connector-curvature="0"
         style="fill:#a464e8;fill-opacity:1;stroke:#000000;stroke-width:0.975;stroke-miterlimit:4;stroke-dasharray:none;stroke-opacity:1"
         d="m 138,113 c 0,0 -3,-4 -3,-4 0,0 3,4 3,4 z"
         id="path857" />
      <path
         inkscape:connector-curvature="0"
         style="fill:#a464e8;fill-opacity:1;stroke:#000000;stroke-width:0.975;stroke-miterlimit:4;stroke-dasharray:none;stroke-opacity:1"
         d="m 150,113 c 0,0 -6,0 -6,0 0,0 1,-3 1,-3 0,0 5,3 5,3 z"
         id="path855" />
      <path
         inkscape:connector-curvature="0"
         style="fill:#a464e8;fill-opacity:1;stroke:#000000;stroke-width:0.975;stroke-miterlimit:4;stroke-dasharray:none;stroke-opacity:1"
         d="m 156,111 c 0,0 1,3 1,3 0,0 -5,0 -5,0 0,0 0,-2 0,-2 0,0 4,-1 4,-1 z"
         id="path853" />
      <path
         inkscape:connector-curvature="0"
         style="fill:#a464e8;fill-opacity:1;stroke:#000000;stroke-width:0.975;stroke-miterlimit:4;stroke-dasharray:none;stroke-opacity:1"
         d="m 123,113.95 c 2.67,-0.18 13.14,4.42 5,9.05 0,0 -8,-8 -8,-8 0.87,-0.36 1.3,-0.94 3,-1.05 z"
         id="path847" />
      <path
         inkscape:connector-curvature="0"
         style="fill:#a464e8;fill-opacity:1;stroke:#000000;stroke-width:0.975;stroke-miterlimit:4;stroke-dasharray:none;stroke-opacity:1"
         d="m 135,117 c 0,0 -2,-4 -2,-4 0,0 2,4 2,4 z"
         id="path845" />
      <path
         inkscape:connector-curvature="0"
         style="fill:#a464e8;fill-opacity:1;stroke:#000000;stroke-width:0.975;stroke-miterlimit:4;stroke-dasharray:none;stroke-opacity:1"
         d="m 144,117 c 0,0 -7,1 -7,1 0,0 3,-5 3,-5 0,0 4,4 4,4 z"
         id="path843" />
      <path
         inkscape:connector-curvature="0"
         style="fill:#a464e8;fill-opacity:1;stroke:#000000;stroke-width:0.975;stroke-miterlimit:4;stroke-dasharray:none;stroke-opacity:1"
         d="m 152,117 c 0,0 -6,2 -6,2 1.89,-2.72 2.83,-3.01 6,-2 z"
         id="path841" />
      <path
         inkscape:connector-curvature="0"
         style="fill:#a464e8;fill-opacity:1;stroke:#000000;stroke-width:0.975;stroke-miterlimit:4;stroke-dasharray:none;stroke-opacity:1"
         d="m 158.71,118.7 c 2.03,1.25 3.97,4.34 5.29,6.3 -4.94,3.31 -8.23,2.89 -14,3 0.55,-4.04 2.4,-13.18 8.71,-9.3 z"
         id="path839" />
      <path
         inkscape:connector-curvature="0"
         style="fill:#a464e8;fill-opacity:1;stroke:#000000;stroke-width:0.975;stroke-miterlimit:4;stroke-dasharray:none;stroke-opacity:1"
         d="m 148,121 c -0.06,1.69 0.09,3.99 -1.02,5.4 -1.6,2.03 -8.69,2.39 -10.98,1.58 -1.65,-0.58 -3.54,-2 -5,-2.98 5.7,-7.32 8.81,-4.18 17,-4 z"
         id="path837" />
    </g>
    <path
       id="path835"
       d="m 210.02,136.04 c 1.39,-2.65 13.42,-12.88 16.26,-13.34 2.28,-0.37 5.7,1.52 7.72,2.55 1.94,0.99 4.46,2.05 5.43,4.14 3.95,8.49 -6.43,28.36 -17.43,27.92 -3.48,-0.14 -10.65,-6.98 -14,-9.31 0.34,-2.55 1.06,-10.14 2.02,-11.96 z"
       style="fill:none;fill-opacity:1;stroke:#000000;stroke-width:0.975;stroke-miterlimit:4;stroke-dasharray:none;stroke-opacity:1"
       inkscape:connector-curvature="0" />
    <g
       id="root_pCO2"
       style="stroke:#000000;stroke-opacity:1;stroke-width:0.975;stroke-miterlimit:4;stroke-dasharray:none">
      <path
         inkscape:connector-curvature="0"
         style="fill:#3760d8;fill-opacity:1;stroke:#000000;stroke-width:0.975;stroke-miterlimit:4;stroke-dasharray:none;stroke-opacity:1"
         d="m 161,30.66 c 10.83,1.32 10.64,1.57 17.6,10.34 1.44,1.81 3.99,4.79 4.56,7 1.2,4.64 -5.8,12.74 -10.16,13.65 -1.98,0.41 -5.87,-0.36 -8,-0.65 -5.77,-0.79 -18.36,-1.53 -22.28,-5.72 -1.78,-1.91 -2.19,-4.8 -2.64,-7.28 -0.33,-1.82 -1.34,-6.38 -1.02,-7.96 0.98,-4.86 9.62,-8.43 13.94,-9.38 4.24,-0.6 4.02,-0.24 8,0 z"
         id="path959" />
      <path
         inkscape:connector-curvature="0"
         style="fill:#3760d8;fill-opacity:1;stroke:#000000;stroke-width:0.975;stroke-miterlimit:4;stroke-dasharray:none;stroke-opacity:1"
         d="m 111,73.23 c -2.78,1.52 -9.16,5.59 -12,5.64 C 96.85,78.91 94.88,77.69 93,76.8 90.98,75.85 86.17,74.24 85.06,72.49 81.82,67.41 89.7,55.56 93.02,52 96.1,48.72 101.19,43.21 105,41.08 c 4.59,-2.56 7.35,-1.7 12,-2.26 11.47,-1.39 4.71,-2.71 19,-0.82 0,0 4,18 4,18 0,0 -29,17.23 -29,17.23 z"
         id="path951" />
      <path
         inkscape:connector-curvature="0"
         style="fill:#3760d8;fill-opacity:1;stroke:#000000;stroke-width:0.975;stroke-miterlimit:4;stroke-dasharray:none;stroke-opacity:1"
         d="m 183.33,73 c -2.04,-2.48 -4.87,-6.64 -4.57,-10 0.29,-3.28 6.26,-11.18 9.33,-12.54 1.88,-0.61 4.93,-0.47 6.91,0 9.58,1.46 21.18,10.18 24.3,19.54 0.84,2.51 0.74,6.32 0.7,9 -0.04,1.95 0.1,4.63 -1.6,5.98 -1.37,1.09 -4.63,1.07 -6.4,1.3 0,0 -14,2.72 -14,2.72 0,0 -14.67,-16 -14.67,-16 z"
         id="path945" />
      <path
         inkscape:connector-curvature="0"
         style="fill:#3760d8;fill-opacity:1;stroke:#000000;stroke-width:0.975;stroke-miterlimit:4;stroke-dasharray:none;stroke-opacity:1"
         d="m 78.04,119.19 c -1.88,-0.42 -3.2,-1.87 -4.42,-3.25 C 69.03,110.77 69.01,108.53 69,102 68.98,92.36 70.23,83.15 79.09,77.16 c 4.17,-2.82 13.24,0.09 15.89,4.23 1.24,1.95 1.02,5.34 1.02,7.61 0,0 0,13 0,13 0,0 -1,11 -1,11 -5.5,1.57 -13.66,6.94 -16.96,6.19 z"
         id="path935" />
      <path
         inkscape:connector-curvature="0"
         style="fill:#3760d8;fill-opacity:1;stroke:#000000;stroke-width:0.975;stroke-miterlimit:4;stroke-dasharray:none;stroke-opacity:1"
         d="m 195.09,104 c 2.26,-11.63 4.7,-13.42 15.91,-15.25 3.12,-0.5 6.79,-1.41 9.45,0.85 5.65,4.8 4.59,16.65 4.55,23.4 -0.02,2.31 0.11,4.81 -1.02,6.91 -1.22,2.26 -4,4.28 -5.98,5.89 -4.17,3.4 -8.32,8.8 -14,6.04 0,0 -13,-8.84 -13,-8.84 0,0 4.09,-19 4.09,-19 z"
         id="path905" />
      <path
         inkscape:connector-curvature="0"
         style="fill:#3760d8;fill-opacity:1;stroke:#000000;stroke-width:0.975;stroke-miterlimit:4;stroke-dasharray:none;stroke-opacity:1"
         d="m 115.9,131 c 1.74,2.32 5.43,5.88 4.61,8.96 -0.61,2.31 -4.7,5.46 -6.51,7.12 -1.92,1.76 -4.45,4.53 -7,5.22 -2.68,0.72 -5.56,-0.89 -8,-1.85 -6.95,-2.76 -13.22,-6.86 -16.87,-13.73 -1.3,-2.46 -2.25,-10.25 -3.13,-13.72 0,0 18,-10 18,-10 13.66,7.23 10.15,6.37 18.9,18 z"
         id="path849" />
      <path
         inkscape:connector-curvature="0"
         style="fill:#3760d8;fill-opacity:1;stroke:#000000;stroke-width:0.975;stroke-miterlimit:4;stroke-dasharray:none;stroke-opacity:1"
         d="m 204.57,149 c -1.52,3.27 -3.93,5.13 -6.57,7.42 -10.86,9.42 -11.03,7.61 -25,7.58 -2.17,0 -5.68,0.23 -7.5,-1.02 -3.64,-2.5 -6.14,-13.89 -4.21,-17.81 1.13,-2.29 7.84,-9.95 9.88,-11.52 1.92,-1.49 14.61,-7.58 16.83,-7.88 4.14,-0.55 14.91,7.77 19,10.23 -1,4.11 -0.92,9.76 -2.43,13 z"
         id="path833" />
      <path
         inkscape:connector-curvature="0"
         style="fill:#3760d8;fill-opacity:1;stroke:#000000;stroke-width:0.975;stroke-miterlimit:4;stroke-dasharray:none;stroke-opacity:1"
         d="m 126,140.35 c 3.92,-0.81 18.64,3 23,4.31 1.64,0.49 6.19,1.42 7.27,2.32 1.79,1.49 2.47,6.65 3.17,9.02 0.71,2.4 2.62,6.42 1.86,8.79 -1.34,4.2 -9.43,6.87 -13.3,7.84 -10.83,2.71 -12.15,1.37 -22,-2.31 -2.6,-0.97 -6.57,-2.31 -8.68,-4.02 -2.41,-1.95 -6.54,-8.46 -8.32,-11.3 3.5,-3.73 12.36,-13.69 17,-14.65 z"
         id="path829" />
    </g>
    <path
       id="path827"
       d="m 68,212.81 c -3.69,2.92 -11.97,7.16 -14.36,0 -1.29,-3.67 2.31,-8.84 4.4,-11.81 0,0 20.16,-24 20.16,-24 3.82,-7.02 -1.42,-8.35 3.22,-15 2.36,-3.39 8.19,-11 12.58,-10.79 6.7,0.33 19.57,8.53 19.69,15.79 0.03,1.89 -6.46,12.93 -8.1,14.26 -3.08,2.49 -11.56,1.74 -15.59,1.74 -1.99,7.33 -16.03,24.72 -22,29.81 z"
       style="fill:none;fill-opacity:1;stroke:#000000;stroke-width:0.975;stroke-miterlimit:4;stroke-dasharray:none;stroke-opacity:1"
       inkscape:connector-curvature="0" />
    <path
       id="path823"
       d="m 166,166.75 c 0,0 9,0 9,0 0,0 15,-1.75 15,-1.75 1.81,3.76 5.48,8.76 4.45,13 -2.98,12.26 -24.5,14.11 -30.18,10.69 -3.44,-2.08 -7.2,-12.72 -8.27,-16.69 0,0 10,-5.25 10,-5.25 z"
       style="fill:none;fill-opacity:1;stroke:#000000;stroke-width:0.975;stroke-miterlimit:4;stroke-dasharray:none;stroke-opacity:1"
       inkscape:connector-curvature="0" />
    <g
       style="fill:#d56036;fill-opacity:1;stroke:#000000;stroke-width:0.975;stroke-miterlimit:4;stroke-dasharray:none;stroke-opacity:1"
       id="root_pGL2">
      <path
         inkscape:connector-curvature="0"
         style="fill:#d56036;fill-opacity:1;stroke:#000000;stroke-width:0.975;stroke-miterlimit:4;stroke-dasharray:none;stroke-opacity:1"
         d="m 154.3,27.42 c -2.46,-1.25 -3.21,-4.95 -3.96,-7.42 -0.64,-2.15 -1.45,-4.74 -0.99,-7 2.57,-12.55 29.03,-11.97 25.12,6 -0.69,3.16 -3.11,7.84 -4.47,11 0,0 -15.7,-2.58 -15.7,-2.58 z"
         id="path977" />
      <path
         inkscape:connector-curvature="0"
         style="fill:#d56036;fill-opacity:1;stroke:#000000;stroke-width:0.975;stroke-miterlimit:4;stroke-dasharray:none;stroke-opacity:1"
         d="m 99.42,24.02 c 0.91,-5.88 9.68,-8.49 15.4,-4.3 4.82,3.54 6.39,10.7 7.18,16.28 0,0 -17,2 -17,2 -1.61,-3.61 -6.14,-10.38 -5.58,-13.98 z"
         id="path969" />
      <path
         inkscape:connector-curvature="0"
         style="fill:#d56036;fill-opacity:1;stroke:#000000;stroke-width:0.975;stroke-miterlimit:4;stroke-dasharray:none;stroke-opacity:1"
         d="M 78.13,48.96 C 76.17,46.81 74.9,44.89 74.35,42 71.88,29.09 86.65,22.81 93.96,26.47 c 3.42,1.71 9.72,9.2 7.91,13.25 C 101.87,39.72 87,56 87,56 83.79,53.96 80.71,51.79 78.13,48.96 Z"
         id="path967" />
      <path
         inkscape:connector-curvature="0"
         style="fill:#d56036;fill-opacity:1;stroke:#000000;stroke-width:0.975;stroke-miterlimit:4;stroke-dasharray:none;stroke-opacity:1"
         d="m 206.05,40 c 1.23,-1.94 3.65,-6.08 5.33,-7.4 6.71,-5.29 20.46,1.15 19.12,11.4 -0.56,4.37 -6.07,7.2 -9.5,9.32 -2.72,1.68 -5.64,3.71 -9,2.85 0,0 -11,-6.17 -11,-6.17 1.18,-4.39 2.66,-6.24 5.05,-10 z"
         id="path957" />
      <path
         inkscape:connector-curvature="0"
         style="fill:#d56036;fill-opacity:1;stroke:#000000;stroke-width:0.975;stroke-miterlimit:4;stroke-dasharray:none;stroke-opacity:1"
         d="m 226,52.22 c 2.25,-1.62 5.3,-4.74 8,-5.1 1.63,-0.21 3.58,0.53 4.98,1.3 5.11,2.8 6.05,7.43 3.66,12.53 -2.27,4.82 -5.19,3.77 -9.64,4.72 -8.5,1.82 -12.35,5.46 -17,-6.67 0,0 10,-6.78 10,-6.78 z"
         id="path947" />
      <path
         inkscape:connector-curvature="0"
         style="fill:#d56036;fill-opacity:1;stroke:#000000;stroke-width:0.975;stroke-miterlimit:4;stroke-dasharray:none;stroke-opacity:1"
         d="m 65.61,90.98 c -2.2,1.32 -5.24,0.47 -7.61,0 -5.26,-0.97 -12.97,0.17 -14.56,-6 C 41.45,77.26 51.1,65.77 61,71.06 c 0,0 12,7.94 12,7.94 -1.28,2.66 -5.09,10.57 -7.39,11.98 z"
         id="path941" />
      <path
         inkscape:connector-curvature="0"
         style="fill:#d56036;fill-opacity:1;stroke:#000000;stroke-width:0.975;stroke-miterlimit:4;stroke-dasharray:none;stroke-opacity:1"
         d="m 64.98,95.59 c 1.18,1.53 0.97,4.54 1.11,6.41 0.18,2.46 1.32,6.17 -0.7,8.02 -2.11,1.93 -12.7,5.02 -15.38,3.87 -7.03,-3.04 -9.61,-15.36 -4.58,-20.87 3.49,-1.36 17.13,-0.54 19.55,2.57 z"
         id="path899" />
      <path
         inkscape:connector-curvature="0"
         style="fill:#d56036;fill-opacity:1;stroke:#000000;stroke-width:0.975;stroke-miterlimit:4;stroke-dasharray:none;stroke-opacity:1"
         d="m 243.91,98.84 c 7.76,1.34 8.96,19.71 0,25.55 -4.63,3.02 -12.3,-2.4 -16.91,-4.39 0,0 1,-19 1,-19 4.23,-0.36 12.65,-2.72 15.91,-2.16 z"
         id="path881" />
      <path
         inkscape:connector-curvature="0"
         style="fill:#d56036;fill-opacity:1;stroke:#000000;stroke-width:0.975;stroke-miterlimit:4;stroke-dasharray:none;stroke-opacity:1"
         d="m 77,139.74 c 4.78,-0.67 11.75,5.23 10.85,10.26 -0.43,2.4 -3.25,5.23 -4.85,7 -1.67,1.83 -4.89,5.85 -7.09,6.68 -5.33,2.01 -11.95,-4.25 -13.94,-8.68 -1.49,-3.3 -1.8,-6.45 -1.97,-10 0,0 17,-5.26 17,-5.26 z"
         id="path831" />
      <path
         inkscape:connector-curvature="0"
         style="fill:#d56036;fill-opacity:1;stroke:#000000;stroke-width:0.975;stroke-miterlimit:4;stroke-dasharray:none;stroke-opacity:1"
         d="m 217.36,159.09 c 1.89,5.73 -4.68,10.89 -9.36,12.44 -8.68,2.88 -12.74,0.97 -16,-7.53 0,0 15,-14 15,-14 3.23,1.73 9.16,5.48 10.36,9.09 z"
         id="path825" />
      <path
         inkscape:connector-curvature="0"
         style="fill:#d56036;fill-opacity:1;stroke:#000000;stroke-width:0.975;stroke-miterlimit:4;stroke-dasharray:none;stroke-opacity:1"
         d="m 136,176 c -0.62,4.42 -2.28,13.49 -6.22,16.01 -4.6,2.95 -18.33,1.21 -19.63,-8.01 -0.87,-6.17 2.82,-10.15 5.85,-15 0,0 20,7 20,7 z"
         id="path821" />
      <path
         inkscape:connector-curvature="0"
         style="fill:#d56036;fill-opacity:1;stroke:#000000;stroke-width:0.975;stroke-miterlimit:4;stroke-dasharray:none;stroke-opacity:1"
         d="m 153.35,175.03 c 2.32,1.51 6.72,12.23 5.95,14.93 -1.08,3.76 -6.73,6.21 -10.3,6.67 -8.7,1.14 -13.93,-3.96 -12.19,-12.63 0.36,-1.81 0.88,-4.22 2.04,-5.69 2.01,-2.52 7.96,-3.18 11.11,-3.8 1.35,0.01 2.08,-0.33 3.39,0.52 z"
         id="Selection #1" />
    </g>
  </g>
</svg>
